<?xml version="1.0" encoding="utf-8" standalone="no"?>
<!DOCTYPE svg PUBLIC "-//W3C//DTD SVG 1.1//EN"
  "http://www.w3.org/Graphics/SVG/1.1/DTD/svg11.dtd">
<svg xmlns:xlink="http://www.w3.org/1999/xlink" width="288pt" height="216pt" viewBox="0 0 288 216" xmlns="http://www.w3.org/2000/svg" version="1.1">
 <metadata>
  <rdf:RDF xmlns:dc="http://purl.org/dc/elements/1.1/" xmlns:cc="http://creativecommons.org/ns#" xmlns:rdf="http://www.w3.org/1999/02/22-rdf-syntax-ns#">
   <cc:Work>
    <dc:type rdf:resource="http://purl.org/dc/dcmitype/StillImage"/>
    <dc:date>2026-03-12T13:36:12.788619</dc:date>
    <dc:format>image/svg+xml</dc:format>
    <dc:creator>
     <cc:Agent>
      <dc:title>Matplotlib v3.10.0, https://matplotlib.org/</dc:title>
     </cc:Agent>
    </dc:creator>
   </cc:Work>
  </rdf:RDF>
 </metadata>
 <defs>
  <style type="text/css">*{stroke-linejoin: round; stroke-linecap: butt}</style>
 </defs>
 <g id="figure_1">
  <g id="patch_1">
   <path d="M 0 216 
L 288 216 
L 288 0 
L 0 0 
z
" style="fill: #ffffff"/>
  </g>
  <g id="axes_1">
   <g id="patch_2">
    <path d="M 36 192.24 
L 259.2 192.24 
L 259.2 25.92 
L 36 25.92 
z
" style="fill: #ffffff"/>
   </g>
   <g id="matplotlib.axis_1">
    <g id="xtick_1">
     <g id="text_1">
      <!-- D01 -->
      <g style="fill: #262626" transform="translate(86.660227 209.338437) scale(0.1 -0.1)">
       <defs>
        <path id="DejaVuSans-44" d="M 1259 4147 
L 1259 519 
L 2022 519 
Q 2988 519 3436 956 
Q 3884 1394 3884 2338 
Q 3884 3275 3436 3711 
Q 2988 4147 2022 4147 
L 1259 4147 
z
M 628 4666 
L 1925 4666 
Q 3281 4666 3915 4102 
Q 4550 3538 4550 2338 
Q 4550 1131 3912 565 
Q 3275 0 1925 0 
L 628 0 
L 628 4666 
z
" transform="scale(0.015625)"/>
        <path id="DejaVuSans-30" d="M 2034 4250 
Q 1547 4250 1301 3770 
Q 1056 3291 1056 2328 
Q 1056 1369 1301 889 
Q 1547 409 2034 409 
Q 2525 409 2770 889 
Q 3016 1369 3016 2328 
Q 3016 3291 2770 3770 
Q 2525 4250 2034 4250 
z
M 2034 4750 
Q 2819 4750 3233 4129 
Q 3647 3509 3647 2328 
Q 3647 1150 3233 529 
Q 2819 -91 2034 -91 
Q 1250 -91 836 529 
Q 422 1150 422 2328 
Q 422 3509 836 4129 
Q 1250 4750 2034 4750 
z
" transform="scale(0.015625)"/>
        <path id="DejaVuSans-31" d="M 794 531 
L 1825 531 
L 1825 4091 
L 703 3866 
L 703 4441 
L 1819 4666 
L 2450 4666 
L 2450 531 
L 3481 531 
L 3481 0 
L 794 0 
L 794 531 
z
" transform="scale(0.015625)"/>
       </defs>
       <use xlink:href="#DejaVuSans-44"/>
       <use xlink:href="#DejaVuSans-30" transform="translate(77.001953 0)"/>
       <use xlink:href="#DejaVuSans-31" transform="translate(140.625 0)"/>
      </g>
     </g>
    </g>
    <g id="xtick_2">
     <g id="text_2">
      <!-- D08 -->
      <g style="fill: #262626" transform="translate(188.114773 209.338437) scale(0.1 -0.1)">
       <defs>
        <path id="DejaVuSans-38" d="M 2034 2216 
Q 1584 2216 1326 1975 
Q 1069 1734 1069 1313 
Q 1069 891 1326 650 
Q 1584 409 2034 409 
Q 2484 409 2743 651 
Q 3003 894 3003 1313 
Q 3003 1734 2745 1975 
Q 2488 2216 2034 2216 
z
M 1403 2484 
Q 997 2584 770 2862 
Q 544 3141 544 3541 
Q 544 4100 942 4425 
Q 1341 4750 2034 4750 
Q 2731 4750 3128 4425 
Q 3525 4100 3525 3541 
Q 3525 3141 3298 2862 
Q 3072 2584 2669 2484 
Q 3125 2378 3379 2068 
Q 3634 1759 3634 1313 
Q 3634 634 3220 271 
Q 2806 -91 2034 -91 
Q 1263 -91 848 271 
Q 434 634 434 1313 
Q 434 1759 690 2068 
Q 947 2378 1403 2484 
z
M 1172 3481 
Q 1172 3119 1398 2916 
Q 1625 2713 2034 2713 
Q 2441 2713 2670 2916 
Q 2900 3119 2900 3481 
Q 2900 3844 2670 4047 
Q 2441 4250 2034 4250 
Q 1625 4250 1398 4047 
Q 1172 3844 1172 3481 
z
" transform="scale(0.015625)"/>
       </defs>
       <use xlink:href="#DejaVuSans-44"/>
       <use xlink:href="#DejaVuSans-30" transform="translate(77.001953 0)"/>
       <use xlink:href="#DejaVuSans-38" transform="translate(140.625 0)"/>
      </g>
     </g>
    </g>
    <g id="text_3">
     <!-- Day -->
     <g style="fill: #262626" transform="translate(135.751875 224.53625) scale(0.12 -0.12)">
      <defs>
       <path id="DejaVuSans-61" d="M 2194 1759 
Q 1497 1759 1228 1600 
Q 959 1441 959 1056 
Q 959 750 1161 570 
Q 1363 391 1709 391 
Q 2188 391 2477 730 
Q 2766 1069 2766 1631 
L 2766 1759 
L 2194 1759 
z
M 3341 1997 
L 3341 0 
L 2766 0 
L 2766 531 
Q 2569 213 2275 61 
Q 1981 -91 1556 -91 
Q 1019 -91 701 211 
Q 384 513 384 1019 
Q 384 1609 779 1909 
Q 1175 2209 1959 2209 
L 2766 2209 
L 2766 2266 
Q 2766 2663 2505 2880 
Q 2244 3097 1772 3097 
Q 1472 3097 1187 3025 
Q 903 2953 641 2809 
L 641 3341 
Q 956 3463 1253 3523 
Q 1550 3584 1831 3584 
Q 2591 3584 2966 3190 
Q 3341 2797 3341 1997 
z
" transform="scale(0.015625)"/>
       <path id="DejaVuSans-79" d="M 2059 -325 
Q 1816 -950 1584 -1140 
Q 1353 -1331 966 -1331 
L 506 -1331 
L 506 -850 
L 844 -850 
Q 1081 -850 1212 -737 
Q 1344 -625 1503 -206 
L 1606 56 
L 191 3500 
L 800 3500 
L 1894 763 
L 2988 3500 
L 3597 3500 
L 2059 -325 
z
" transform="scale(0.015625)"/>
      </defs>
      <use xlink:href="#DejaVuSans-44"/>
      <use xlink:href="#DejaVuSans-61" transform="translate(77.001953 0)"/>
      <use xlink:href="#DejaVuSans-79" transform="translate(138.28125 0)"/>
     </g>
    </g>
   </g>
   <g id="matplotlib.axis_2">
    <g id="ytick_1">
     <g id="line2d_1">
      <path d="M 36 192.24 
L 259.2 192.24 
" clip-path="url(#p9d171f84cf)" style="fill: none; stroke: #cccccc; stroke-linecap: round"/>
     </g>
     <g id="text_4">
      <!-- 0.5 -->
      <g style="fill: #262626" transform="translate(10.596875 196.039219) scale(0.1 -0.1)">
       <defs>
        <path id="DejaVuSans-2e" d="M 684 794 
L 1344 794 
L 1344 0 
L 684 0 
L 684 794 
z
" transform="scale(0.015625)"/>
        <path id="DejaVuSans-35" d="M 691 4666 
L 3169 4666 
L 3169 4134 
L 1269 4134 
L 1269 2991 
Q 1406 3038 1543 3061 
Q 1681 3084 1819 3084 
Q 2600 3084 3056 2656 
Q 3513 2228 3513 1497 
Q 3513 744 3044 326 
Q 2575 -91 1722 -91 
Q 1428 -91 1123 -41 
Q 819 9 494 109 
L 494 744 
Q 775 591 1075 516 
Q 1375 441 1709 441 
Q 2250 441 2565 725 
Q 2881 1009 2881 1497 
Q 2881 1984 2565 2268 
Q 2250 2553 1709 2553 
Q 1456 2553 1204 2497 
Q 953 2441 691 2322 
L 691 4666 
z
" transform="scale(0.015625)"/>
       </defs>
       <use xlink:href="#DejaVuSans-30"/>
       <use xlink:href="#DejaVuSans-2e" transform="translate(63.623047 0)"/>
       <use xlink:href="#DejaVuSans-35" transform="translate(95.410156 0)"/>
      </g>
     </g>
    </g>
    <g id="ytick_2">
     <g id="line2d_2">
      <path d="M 36 158.976 
L 259.2 158.976 
" clip-path="url(#p9d171f84cf)" style="fill: none; stroke: #cccccc; stroke-linecap: round"/>
     </g>
     <g id="text_5">
      <!-- 0.6 -->
      <g style="fill: #262626" transform="translate(10.596875 162.775219) scale(0.1 -0.1)">
       <defs>
        <path id="DejaVuSans-36" d="M 2113 2584 
Q 1688 2584 1439 2293 
Q 1191 2003 1191 1497 
Q 1191 994 1439 701 
Q 1688 409 2113 409 
Q 2538 409 2786 701 
Q 3034 994 3034 1497 
Q 3034 2003 2786 2293 
Q 2538 2584 2113 2584 
z
M 3366 4563 
L 3366 3988 
Q 3128 4100 2886 4159 
Q 2644 4219 2406 4219 
Q 1781 4219 1451 3797 
Q 1122 3375 1075 2522 
Q 1259 2794 1537 2939 
Q 1816 3084 2150 3084 
Q 2853 3084 3261 2657 
Q 3669 2231 3669 1497 
Q 3669 778 3244 343 
Q 2819 -91 2113 -91 
Q 1303 -91 875 529 
Q 447 1150 447 2328 
Q 447 3434 972 4092 
Q 1497 4750 2381 4750 
Q 2619 4750 2861 4703 
Q 3103 4656 3366 4563 
z
" transform="scale(0.015625)"/>
       </defs>
       <use xlink:href="#DejaVuSans-30"/>
       <use xlink:href="#DejaVuSans-2e" transform="translate(63.623047 0)"/>
       <use xlink:href="#DejaVuSans-36" transform="translate(95.410156 0)"/>
      </g>
     </g>
    </g>
    <g id="ytick_3">
     <g id="line2d_3">
      <path d="M 36 125.712 
L 259.2 125.712 
" clip-path="url(#p9d171f84cf)" style="fill: none; stroke: #cccccc; stroke-linecap: round"/>
     </g>
     <g id="text_6">
      <!-- 0.7 -->
      <g style="fill: #262626" transform="translate(10.596875 129.511219) scale(0.1 -0.1)">
       <defs>
        <path id="DejaVuSans-37" d="M 525 4666 
L 3525 4666 
L 3525 4397 
L 1831 0 
L 1172 0 
L 2766 4134 
L 525 4134 
L 525 4666 
z
" transform="scale(0.015625)"/>
       </defs>
       <use xlink:href="#DejaVuSans-30"/>
       <use xlink:href="#DejaVuSans-2e" transform="translate(63.623047 0)"/>
       <use xlink:href="#DejaVuSans-37" transform="translate(95.410156 0)"/>
      </g>
     </g>
    </g>
    <g id="ytick_4">
     <g id="line2d_4">
      <path d="M 36 92.448 
L 259.2 92.448 
" clip-path="url(#p9d171f84cf)" style="fill: none; stroke: #cccccc; stroke-linecap: round"/>
     </g>
     <g id="text_7">
      <!-- 0.8 -->
      <g style="fill: #262626" transform="translate(10.596875 96.247219) scale(0.1 -0.1)">
       <use xlink:href="#DejaVuSans-30"/>
       <use xlink:href="#DejaVuSans-2e" transform="translate(63.623047 0)"/>
       <use xlink:href="#DejaVuSans-38" transform="translate(95.410156 0)"/>
      </g>
     </g>
    </g>
    <g id="ytick_5">
     <g id="line2d_5">
      <path d="M 36 59.184 
L 259.2 59.184 
" clip-path="url(#p9d171f84cf)" style="fill: none; stroke: #cccccc; stroke-linecap: round"/>
     </g>
     <g id="text_8">
      <!-- 0.9 -->
      <g style="fill: #262626" transform="translate(10.596875 62.983219) scale(0.1 -0.1)">
       <defs>
        <path id="DejaVuSans-39" d="M 703 97 
L 703 672 
Q 941 559 1184 500 
Q 1428 441 1663 441 
Q 2288 441 2617 861 
Q 2947 1281 2994 2138 
Q 2813 1869 2534 1725 
Q 2256 1581 1919 1581 
Q 1219 1581 811 2004 
Q 403 2428 403 3163 
Q 403 3881 828 4315 
Q 1253 4750 1959 4750 
Q 2769 4750 3195 4129 
Q 3622 3509 3622 2328 
Q 3622 1225 3098 567 
Q 2575 -91 1691 -91 
Q 1453 -91 1209 -44 
Q 966 3 703 97 
z
M 1959 2075 
Q 2384 2075 2632 2365 
Q 2881 2656 2881 3163 
Q 2881 3666 2632 3958 
Q 2384 4250 1959 4250 
Q 1534 4250 1286 3958 
Q 1038 3666 1038 3163 
Q 1038 2656 1286 2365 
Q 1534 2075 1959 2075 
z
" transform="scale(0.015625)"/>
       </defs>
       <use xlink:href="#DejaVuSans-30"/>
       <use xlink:href="#DejaVuSans-2e" transform="translate(63.623047 0)"/>
       <use xlink:href="#DejaVuSans-39" transform="translate(95.410156 0)"/>
      </g>
     </g>
    </g>
    <g id="ytick_6">
     <g id="line2d_6">
      <path d="M 36 25.92 
L 259.2 25.92 
" clip-path="url(#p9d171f84cf)" style="fill: none; stroke: #cccccc; stroke-linecap: round"/>
     </g>
     <g id="text_9">
      <!-- 1.0 -->
      <g style="fill: #262626" transform="translate(10.596875 29.719219) scale(0.1 -0.1)">
       <use xlink:href="#DejaVuSans-31"/>
       <use xlink:href="#DejaVuSans-2e" transform="translate(63.623047 0)"/>
       <use xlink:href="#DejaVuSans-30" transform="translate(95.410156 0)"/>
      </g>
     </g>
    </g>
    <g id="text_10">
     <!-- Pearson corr. -->
     <g style="fill: #262626" transform="translate(4.10125 147.979687) rotate(-90) scale(0.12 -0.12)">
      <defs>
       <path id="DejaVuSans-50" d="M 1259 4147 
L 1259 2394 
L 2053 2394 
Q 2494 2394 2734 2622 
Q 2975 2850 2975 3272 
Q 2975 3691 2734 3919 
Q 2494 4147 2053 4147 
L 1259 4147 
z
M 628 4666 
L 2053 4666 
Q 2838 4666 3239 4311 
Q 3641 3956 3641 3272 
Q 3641 2581 3239 2228 
Q 2838 1875 2053 1875 
L 1259 1875 
L 1259 0 
L 628 0 
L 628 4666 
z
" transform="scale(0.015625)"/>
       <path id="DejaVuSans-65" d="M 3597 1894 
L 3597 1613 
L 953 1613 
Q 991 1019 1311 708 
Q 1631 397 2203 397 
Q 2534 397 2845 478 
Q 3156 559 3463 722 
L 3463 178 
Q 3153 47 2828 -22 
Q 2503 -91 2169 -91 
Q 1331 -91 842 396 
Q 353 884 353 1716 
Q 353 2575 817 3079 
Q 1281 3584 2069 3584 
Q 2775 3584 3186 3129 
Q 3597 2675 3597 1894 
z
M 3022 2063 
Q 3016 2534 2758 2815 
Q 2500 3097 2075 3097 
Q 1594 3097 1305 2825 
Q 1016 2553 972 2059 
L 3022 2063 
z
" transform="scale(0.015625)"/>
       <path id="DejaVuSans-72" d="M 2631 2963 
Q 2534 3019 2420 3045 
Q 2306 3072 2169 3072 
Q 1681 3072 1420 2755 
Q 1159 2438 1159 1844 
L 1159 0 
L 581 0 
L 581 3500 
L 1159 3500 
L 1159 2956 
Q 1341 3275 1631 3429 
Q 1922 3584 2338 3584 
Q 2397 3584 2469 3576 
Q 2541 3569 2628 3553 
L 2631 2963 
z
" transform="scale(0.015625)"/>
       <path id="DejaVuSans-73" d="M 2834 3397 
L 2834 2853 
Q 2591 2978 2328 3040 
Q 2066 3103 1784 3103 
Q 1356 3103 1142 2972 
Q 928 2841 928 2578 
Q 928 2378 1081 2264 
Q 1234 2150 1697 2047 
L 1894 2003 
Q 2506 1872 2764 1633 
Q 3022 1394 3022 966 
Q 3022 478 2636 193 
Q 2250 -91 1575 -91 
Q 1294 -91 989 -36 
Q 684 19 347 128 
L 347 722 
Q 666 556 975 473 
Q 1284 391 1588 391 
Q 1994 391 2212 530 
Q 2431 669 2431 922 
Q 2431 1156 2273 1281 
Q 2116 1406 1581 1522 
L 1381 1569 
Q 847 1681 609 1914 
Q 372 2147 372 2553 
Q 372 3047 722 3315 
Q 1072 3584 1716 3584 
Q 2034 3584 2315 3537 
Q 2597 3491 2834 3397 
z
" transform="scale(0.015625)"/>
       <path id="DejaVuSans-6f" d="M 1959 3097 
Q 1497 3097 1228 2736 
Q 959 2375 959 1747 
Q 959 1119 1226 758 
Q 1494 397 1959 397 
Q 2419 397 2687 759 
Q 2956 1122 2956 1747 
Q 2956 2369 2687 2733 
Q 2419 3097 1959 3097 
z
M 1959 3584 
Q 2709 3584 3137 3096 
Q 3566 2609 3566 1747 
Q 3566 888 3137 398 
Q 2709 -91 1959 -91 
Q 1206 -91 779 398 
Q 353 888 353 1747 
Q 353 2609 779 3096 
Q 1206 3584 1959 3584 
z
" transform="scale(0.015625)"/>
       <path id="DejaVuSans-6e" d="M 3513 2113 
L 3513 0 
L 2938 0 
L 2938 2094 
Q 2938 2591 2744 2837 
Q 2550 3084 2163 3084 
Q 1697 3084 1428 2787 
Q 1159 2491 1159 1978 
L 1159 0 
L 581 0 
L 581 3500 
L 1159 3500 
L 1159 2956 
Q 1366 3272 1645 3428 
Q 1925 3584 2291 3584 
Q 2894 3584 3203 3211 
Q 3513 2838 3513 2113 
z
" transform="scale(0.015625)"/>
       <path id="DejaVuSans-20" transform="scale(0.015625)"/>
       <path id="DejaVuSans-63" d="M 3122 3366 
L 3122 2828 
Q 2878 2963 2633 3030 
Q 2388 3097 2138 3097 
Q 1578 3097 1268 2742 
Q 959 2388 959 1747 
Q 959 1106 1268 751 
Q 1578 397 2138 397 
Q 2388 397 2633 464 
Q 2878 531 3122 666 
L 3122 134 
Q 2881 22 2623 -34 
Q 2366 -91 2075 -91 
Q 1284 -91 818 406 
Q 353 903 353 1747 
Q 353 2603 823 3093 
Q 1294 3584 2113 3584 
Q 2378 3584 2631 3529 
Q 2884 3475 3122 3366 
z
" transform="scale(0.015625)"/>
      </defs>
      <use xlink:href="#DejaVuSans-50"/>
      <use xlink:href="#DejaVuSans-65" transform="translate(56.677734 0)"/>
      <use xlink:href="#DejaVuSans-61" transform="translate(118.201172 0)"/>
      <use xlink:href="#DejaVuSans-72" transform="translate(179.480469 0)"/>
      <use xlink:href="#DejaVuSans-73" transform="translate(220.59375 0)"/>
      <use xlink:href="#DejaVuSans-6f" transform="translate(272.693359 0)"/>
      <use xlink:href="#DejaVuSans-6e" transform="translate(333.875 0)"/>
      <use xlink:href="#DejaVuSans-20" transform="translate(397.253906 0)"/>
      <use xlink:href="#DejaVuSans-63" transform="translate(429.041016 0)"/>
      <use xlink:href="#DejaVuSans-6f" transform="translate(484.021484 0)"/>
      <use xlink:href="#DejaVuSans-72" transform="translate(545.203125 0)"/>
      <use xlink:href="#DejaVuSans-72" transform="translate(584.566406 0)"/>
      <use xlink:href="#DejaVuSans-2e" transform="translate(616.554688 0)"/>
     </g>
    </g>
   </g>
   <g id="FillBetweenPolyCollection_1">
    <defs>
     <path id="m9132437608" d="M 96.972003 -188.533714 
L 96.773452 -188.533714 
L 96.72297 -188.55066 
L 96.653797 -188.567606 
L 96.562498 -188.584552 
L 96.446538 -188.601498 
L 96.304999 -188.618443 
L 96.139276 -188.635389 
L 95.953609 -188.652335 
L 95.75528 -188.669281 
L 95.554341 -188.686227 
L 95.362805 -188.703172 
L 95.193348 -188.720118 
L 95.057707 -188.737064 
L 94.965033 -188.75401 
L 94.920532 -188.770955 
L 94.92466 -188.787901 
L 94.973038 -188.804847 
L 95.057079 -188.821793 
L 95.165142 -188.838739 
L 95.283941 -188.855684 
L 95.399898 -188.87263 
L 95.500214 -188.889576 
L 95.573559 -188.906522 
L 95.610413 -188.923468 
L 95.603207 -188.940413 
L 95.546387 -188.957359 
L 95.436525 -188.974305 
L 95.272465 -188.991251 
L 95.055445 -189.008197 
L 94.789067 -189.025142 
L 94.479048 -189.042088 
L 94.132714 -189.059034 
L 93.758316 -189.07598 
L 93.364282 -189.092925 
L 92.958576 -189.109871 
L 92.548247 -189.126817 
L 92.13924 -189.143763 
L 91.736398 -189.160709 
L 91.343556 -189.177654 
L 90.963578 -189.1946 
L 90.598227 -189.211546 
L 90.247795 -189.228492 
L 89.910528 -189.245438 
L 89.581954 -189.262383 
L 89.254297 -189.279329 
L 88.916194 -189.296275 
L 88.552927 -189.313221 
L 88.147293 -189.330166 
L 87.681132 -189.347112 
L 87.137363 -189.364058 
L 86.502205 -189.381004 
L 85.767171 -189.39795 
L 84.930386 -189.414895 
L 83.996895 -189.431841 
L 82.977814 -189.448787 
L 81.888437 -189.465733 
L 80.745667 -189.482679 
L 79.565269 -189.499624 
L 78.359501 -189.51657 
L 77.135551 -189.533516 
L 75.895069 -189.550462 
L 74.634814 -189.567407 
L 73.348276 -189.584353 
L 72.027949 -189.601299 
L 70.667824 -189.618245 
L 69.265697 -189.635191 
L 67.824902 -189.652136 
L 66.355233 -189.669082 
L 64.873051 -189.686028 
L 63.400746 -189.702974 
L 61.965953 -189.71992 
L 60.60095 -189.736865 
L 59.342531 -189.753811 
L 58.232411 -189.770757 
L 57.317804 -189.787703 
L 56.651537 -189.804649 
L 56.290909 -189.821594 
L 56.29466 -189.83854 
L 56.717815 -189.855486 
L 57.60479 -189.872432 
L 58.981734 -189.889377 
L 60.849536 -189.906323 
L 63.179032 -189.923269 
L 65.909667 -189.940215 
L 68.952301 -189.957161 
L 72.196009 -189.974106 
L 75.517958 -189.991052 
L 78.794831 -190.007998 
L 81.914012 -190.024944 
L 84.782871 -190.04189 
L 87.334902 -190.058835 
L 89.532186 -190.075781 
L 91.364278 -190.092727 
L 92.844227 -190.109673 
L 94.002779 -190.126618 
L 94.88189 -190.143564 
L 95.528571 -190.16051 
L 95.989764 -190.177456 
L 96.308643 -190.194402 
L 96.522391 -190.211347 
L 97.223064 -190.211347 
L 97.223064 -190.211347 
L 97.436812 -190.194402 
L 97.755691 -190.177456 
L 98.216884 -190.16051 
L 98.863565 -190.143564 
L 99.742676 -190.126618 
L 100.901227 -190.109673 
L 102.381177 -190.092727 
L 104.213269 -190.075781 
L 106.410553 -190.058835 
L 108.962584 -190.04189 
L 111.831442 -190.024944 
L 114.950624 -190.007998 
L 118.227496 -189.991052 
L 121.549445 -189.974106 
L 124.793154 -189.957161 
L 127.835788 -189.940215 
L 130.566423 -189.923269 
L 132.895918 -189.906323 
L 134.763721 -189.889377 
L 136.140665 -189.872432 
L 137.027639 -189.855486 
L 137.450794 -189.83854 
L 137.454545 -189.821594 
L 137.093918 -189.804649 
L 136.42765 -189.787703 
L 135.513043 -189.770757 
L 134.402923 -189.753811 
L 133.144505 -189.736865 
L 131.779501 -189.71992 
L 130.344709 -189.702974 
L 128.872403 -189.686028 
L 127.390221 -189.669082 
L 125.920553 -189.652136 
L 124.479757 -189.635191 
L 123.077631 -189.618245 
L 121.717505 -189.601299 
L 120.397178 -189.584353 
L 119.110641 -189.567407 
L 117.850385 -189.550462 
L 116.609903 -189.533516 
L 115.385954 -189.51657 
L 114.180186 -189.499624 
L 112.999788 -189.482679 
L 111.857017 -189.465733 
L 110.76764 -189.448787 
L 109.748559 -189.431841 
L 108.815069 -189.414895 
L 107.978284 -189.39795 
L 107.243249 -189.381004 
L 106.608091 -189.364058 
L 106.064323 -189.347112 
L 105.598162 -189.330166 
L 105.192527 -189.313221 
L 104.82926 -189.296275 
L 104.491158 -189.279329 
L 104.1635 -189.262383 
L 103.834926 -189.245438 
L 103.497659 -189.228492 
L 103.147227 -189.211546 
L 102.781876 -189.1946 
L 102.401899 -189.177654 
L 102.009056 -189.160709 
L 101.606215 -189.143763 
L 101.197208 -189.126817 
L 100.786879 -189.109871 
L 100.381172 -189.092925 
L 99.987139 -189.07598 
L 99.612741 -189.059034 
L 99.266407 -189.042088 
L 98.956388 -189.025142 
L 98.690009 -189.008197 
L 98.472989 -188.991251 
L 98.30893 -188.974305 
L 98.199068 -188.957359 
L 98.142247 -188.940413 
L 98.135041 -188.923468 
L 98.171896 -188.906522 
L 98.24524 -188.889576 
L 98.345557 -188.87263 
L 98.461514 -188.855684 
L 98.580312 -188.838739 
L 98.688375 -188.821793 
L 98.772417 -188.804847 
L 98.820795 -188.787901 
L 98.824922 -188.770955 
L 98.780421 -188.75401 
L 98.687748 -188.737064 
L 98.552106 -188.720118 
L 98.38265 -188.703172 
L 98.191113 -188.686227 
L 97.990175 -188.669281 
L 97.791846 -188.652335 
L 97.606179 -188.635389 
L 97.440456 -188.618443 
L 97.298917 -188.601498 
L 97.182957 -188.584552 
L 97.091658 -188.567606 
L 97.022485 -188.55066 
L 96.972003 -188.533714 
z
" style="stroke: #393939; stroke-width: 1.5"/>
    </defs>
    <g clip-path="url(#p9d171f84cf)">
     <use xlink:href="#m9132437608" x="0" y="216" style="fill: #3c6682; stroke: #393939; stroke-width: 1.5"/>
    </g>
   </g>
   <g id="FillBetweenPolyCollection_2">
    <defs>
     <path id="m2efe4dd248" d="M 198.38436 -189.942249 
L 198.270186 -189.942249 
L 198.229576 -189.943743 
L 198.171016 -189.945236 
L 198.093495 -189.94673 
L 197.999804 -189.948224 
L 197.897411 -189.949717 
L 197.798047 -189.951211 
L 197.71575 -189.952705 
L 197.663719 -189.954199 
L 197.650923 -189.955692 
L 197.679636 -189.957186 
L 197.744794 -189.95868 
L 197.835412 -189.960173 
L 197.937554 -189.961667 
L 198.037753 -189.963161 
L 198.125785 -189.964654 
L 198.196032 -189.966148 
L 198.247337 -189.967642 
L 198.281786 -189.969135 
L 198.303108 -189.970629 
L 198.315292 -189.972123 
L 198.321715 -189.973616 
L 198.324807 -189.97511 
L 198.326068 -189.976604 
L 198.326235 -189.978097 
L 198.325428 -189.979591 
L 198.323197 -189.981085 
L 198.318473 -189.982579 
L 198.309493 -189.984072 
L 198.293867 -189.985566 
L 198.268963 -189.98706 
L 198.232722 -189.988553 
L 198.18485 -189.990047 
L 198.127978 -189.991541 
L 198.068185 -189.993034 
L 198.014303 -189.994528 
L 197.975843 -189.996022 
L 197.960094 -189.997515 
L 197.969476 -189.999009 
L 198.000275 -190.000503 
L 198.043338 -190.001996 
L 198.086418 -190.00349 
L 198.117268 -190.004984 
L 198.126444 -190.006477 
L 198.109135 -190.007971 
L 198.065802 -190.009465 
L 198.001658 -190.010959 
L 197.925186 -190.012452 
L 197.845925 -190.013946 
L 197.771945 -190.01544 
L 197.707539 -190.016933 
L 197.651656 -190.018427 
L 197.597489 -190.019921 
L 197.533558 -190.021414 
L 197.446497 -190.022908 
L 197.325443 -190.024402 
L 197.1671 -190.025895 
L 196.979525 -190.027389 
L 196.782242 -190.028883 
L 196.601179 -190.030376 
L 196.459151 -190.03187 
L 196.365042 -190.033364 
L 196.306036 -190.034858 
L 196.246223 -190.036351 
L 196.132379 -190.037845 
L 195.904796 -190.039339 
L 195.509389 -190.040832 
L 194.907177 -190.042326 
L 194.0785 -190.04382 
L 193.021286 -190.045313 
L 191.744751 -190.046807 
L 190.261478 -190.048301 
L 188.581243 -190.049794 
L 186.708753 -190.051288 
L 184.645245 -190.052782 
L 182.391967 -190.054275 
L 179.953291 -190.055769 
L 177.338792 -190.057263 
L 174.565738 -190.058756 
L 171.66454 -190.06025 
L 168.688919 -190.061744 
L 165.730164 -190.063238 
L 162.931526 -190.064731 
L 160.495551 -190.066225 
L 158.675647 -190.067719 
L 157.745455 -190.069212 
L 157.946884 -190.070706 
L 159.427978 -190.0722 
L 162.190046 -190.073693 
L 166.064339 -190.075187 
L 170.73001 -190.076681 
L 175.770635 -190.078174 
L 180.752873 -190.079668 
L 185.304037 -190.081162 
L 189.167589 -190.082655 
L 192.224911 -190.084149 
L 194.483645 -190.085643 
L 196.042615 -190.087136 
L 197.047905 -190.08863 
L 197.653403 -190.090124 
L 199.001142 -190.090124 
L 199.001142 -190.090124 
L 199.60664 -190.08863 
L 200.611931 -190.087136 
L 202.1709 -190.085643 
L 204.429635 -190.084149 
L 207.486957 -190.082655 
L 211.350508 -190.081162 
L 215.901672 -190.079668 
L 220.88391 -190.078174 
L 225.924535 -190.076681 
L 230.590207 -190.075187 
L 234.464499 -190.073693 
L 237.226567 -190.0722 
L 238.707662 -190.070706 
L 238.909091 -190.069212 
L 237.978898 -190.067719 
L 236.158994 -190.066225 
L 233.72302 -190.064731 
L 230.924382 -190.063238 
L 227.965627 -190.061744 
L 224.990005 -190.06025 
L 222.088807 -190.058756 
L 219.315754 -190.057263 
L 216.701254 -190.055769 
L 214.262578 -190.054275 
L 212.0093 -190.052782 
L 209.945793 -190.051288 
L 208.073302 -190.049794 
L 206.393067 -190.048301 
L 204.909794 -190.046807 
L 203.633259 -190.045313 
L 202.576046 -190.04382 
L 201.747369 -190.042326 
L 201.145157 -190.040832 
L 200.74975 -190.039339 
L 200.522166 -190.037845 
L 200.408322 -190.036351 
L 200.34851 -190.034858 
L 200.289503 -190.033364 
L 200.195395 -190.03187 
L 200.053366 -190.030376 
L 199.872303 -190.028883 
L 199.67502 -190.027389 
L 199.487445 -190.025895 
L 199.329102 -190.024402 
L 199.208049 -190.022908 
L 199.120988 -190.021414 
L 199.057057 -190.019921 
L 199.00289 -190.018427 
L 198.947006 -190.016933 
L 198.882601 -190.01544 
L 198.808621 -190.013946 
L 198.729359 -190.012452 
L 198.652887 -190.010959 
L 198.588744 -190.009465 
L 198.54541 -190.007971 
L 198.528102 -190.006477 
L 198.537277 -190.004984 
L 198.568128 -190.00349 
L 198.611208 -190.001996 
L 198.654271 -190.000503 
L 198.68507 -189.999009 
L 198.694451 -189.997515 
L 198.678703 -189.996022 
L 198.640243 -189.994528 
L 198.58636 -189.993034 
L 198.526567 -189.991541 
L 198.469695 -189.990047 
L 198.421823 -189.988553 
L 198.385583 -189.98706 
L 198.360678 -189.985566 
L 198.345053 -189.984072 
L 198.336073 -189.982579 
L 198.331348 -189.981085 
L 198.329118 -189.979591 
L 198.328311 -189.978097 
L 198.328478 -189.976604 
L 198.329739 -189.97511 
L 198.33283 -189.973616 
L 198.339254 -189.972123 
L 198.351437 -189.970629 
L 198.37276 -189.969135 
L 198.407208 -189.967642 
L 198.458513 -189.966148 
L 198.52876 -189.964654 
L 198.616793 -189.963161 
L 198.716991 -189.961667 
L 198.819133 -189.960173 
L 198.909752 -189.95868 
L 198.974909 -189.957186 
L 199.003623 -189.955692 
L 198.990827 -189.954199 
L 198.938795 -189.952705 
L 198.856498 -189.951211 
L 198.757135 -189.949717 
L 198.654742 -189.948224 
L 198.56105 -189.94673 
L 198.483529 -189.945236 
L 198.424969 -189.943743 
L 198.38436 -189.942249 
z
" style="stroke: #393939; stroke-width: 1.5"/>
    </defs>
    <g clip-path="url(#p9d171f84cf)">
     <use xlink:href="#m2efe4dd248" x="0" y="216" style="fill: #45a778; stroke: #393939; stroke-width: 1.5"/>
    </g>
   </g>
   <g id="line2d_7">
    <path d="M 74.795393 26.434752 
L 118.950062 26.434752 
" clip-path="url(#p9d171f84cf)" style="fill: none; stroke-dasharray: 1.875,1.125; stroke-dashoffset: 0; stroke: #393939; stroke-width: 1.5"/>
   </g>
   <g id="line2d_8">
    <path d="M 59.841187 26.252904 
L 133.904268 26.252904 
" clip-path="url(#p9d171f84cf)" style="fill: none; stroke-dasharray: 3.75,1.5; stroke-dashoffset: 0; stroke: #393939; stroke-width: 1.5"/>
   </g>
   <g id="line2d_9">
    <path d="M 57.388695 26.131697 
L 136.35676 26.131697 
" clip-path="url(#p9d171f84cf)" style="fill: none; stroke-dasharray: 1.875,1.125; stroke-dashoffset: 0; stroke: #393939; stroke-width: 1.5"/>
   </g>
   <g id="line2d_10">
    <path d="M 172.09028 25.939969 
L 224.564266 25.939969 
" clip-path="url(#p9d171f84cf)" style="fill: none; stroke-dasharray: 1.875,1.125; stroke-dashoffset: 0; stroke: #393939; stroke-width: 1.5"/>
   </g>
   <g id="line2d_11">
    <path d="M 158.794182 25.932379 
L 237.860364 25.932379 
" clip-path="url(#p9d171f84cf)" style="fill: none; stroke-dasharray: 3.75,1.5; stroke-dashoffset: 0; stroke: #393939; stroke-width: 1.5"/>
   </g>
   <g id="line2d_12">
    <path d="M 160.149556 25.92741 
L 236.504989 25.92741 
" clip-path="url(#p9d171f84cf)" style="fill: none; stroke-dasharray: 1.875,1.125; stroke-dashoffset: 0; stroke: #393939; stroke-width: 1.5"/>
   </g>
   <g id="LineCollection_1">
    <path d="M 46.145455 99.099049 
L 249.054545 99.099049 
" clip-path="url(#p9d171f84cf)" style="fill: none; stroke-dasharray: 5.55,2.4; stroke-dashoffset: 0; stroke: #ff0000; stroke-width: 1.5"/>
   </g>
   <g id="patch_3">
    <path d="M 36 192.24 
L 36 25.92 
" style="fill: none; stroke: #cccccc; stroke-width: 1.25; stroke-linejoin: miter; stroke-linecap: square"/>
   </g>
   <g id="patch_4">
    <path d="M 259.2 192.24 
L 259.2 25.92 
" style="fill: none; stroke: #cccccc; stroke-width: 1.25; stroke-linejoin: miter; stroke-linecap: square"/>
   </g>
   <g id="patch_5">
    <path d="M 36 192.24 
L 259.2 192.24 
" style="fill: none; stroke: #cccccc; stroke-width: 1.25; stroke-linejoin: miter; stroke-linecap: square"/>
   </g>
   <g id="patch_6">
    <path d="M 36 25.92 
L 259.2 25.92 
" style="fill: none; stroke: #cccccc; stroke-width: 1.25; stroke-linejoin: miter; stroke-linecap: square"/>
   </g>
   <g id="text_11">
    <!-- Pair-wise corr -->
    <g style="fill: #262626" transform="translate(100.890312 19.92) scale(0.14 -0.14)">
     <defs>
      <path id="DejaVuSans-69" d="M 603 3500 
L 1178 3500 
L 1178 0 
L 603 0 
L 603 3500 
z
M 603 4863 
L 1178 4863 
L 1178 4134 
L 603 4134 
L 603 4863 
z
" transform="scale(0.015625)"/>
      <path id="DejaVuSans-2d" d="M 313 2009 
L 1997 2009 
L 1997 1497 
L 313 1497 
L 313 2009 
z
" transform="scale(0.015625)"/>
      <path id="DejaVuSans-77" d="M 269 3500 
L 844 3500 
L 1563 769 
L 2278 3500 
L 2956 3500 
L 3675 769 
L 4391 3500 
L 4966 3500 
L 4050 0 
L 3372 0 
L 2619 2869 
L 1863 0 
L 1184 0 
L 269 3500 
z
" transform="scale(0.015625)"/>
     </defs>
     <use xlink:href="#DejaVuSans-50"/>
     <use xlink:href="#DejaVuSans-61" transform="translate(55.802734 0)"/>
     <use xlink:href="#DejaVuSans-69" transform="translate(117.082031 0)"/>
     <use xlink:href="#DejaVuSans-72" transform="translate(144.865234 0)"/>
     <use xlink:href="#DejaVuSans-2d" transform="translate(179.603516 0)"/>
     <use xlink:href="#DejaVuSans-77" transform="translate(215.6875 0)"/>
     <use xlink:href="#DejaVuSans-69" transform="translate(297.474609 0)"/>
     <use xlink:href="#DejaVuSans-73" transform="translate(325.257812 0)"/>
     <use xlink:href="#DejaVuSans-65" transform="translate(377.357422 0)"/>
     <use xlink:href="#DejaVuSans-20" transform="translate(438.880859 0)"/>
     <use xlink:href="#DejaVuSans-63" transform="translate(470.667969 0)"/>
     <use xlink:href="#DejaVuSans-6f" transform="translate(525.648438 0)"/>
     <use xlink:href="#DejaVuSans-72" transform="translate(586.830078 0)"/>
     <use xlink:href="#DejaVuSans-72" transform="translate(626.193359 0)"/>
    </g>
   </g>
  </g>
 </g>
 <defs>
  <clipPath id="p9d171f84cf">
   <rect x="36" y="25.92" width="223.2" height="166.32"/>
  </clipPath>
 </defs>
</svg>
