<?xml version="1.0" encoding="utf-8" standalone="no"?>
<!DOCTYPE svg PUBLIC "-//W3C//DTD SVG 1.1//EN"
  "http://www.w3.org/Graphics/SVG/1.1/DTD/svg11.dtd">
<svg xmlns:xlink="http://www.w3.org/1999/xlink" width="288pt" height="216pt" viewBox="0 0 288 216" xmlns="http://www.w3.org/2000/svg" version="1.1">
 <metadata>
  <rdf:RDF xmlns:dc="http://purl.org/dc/elements/1.1/" xmlns:cc="http://creativecommons.org/ns#" xmlns:rdf="http://www.w3.org/1999/02/22-rdf-syntax-ns#">
   <cc:Work>
    <dc:type rdf:resource="http://purl.org/dc/dcmitype/StillImage"/>
    <dc:date>2025-11-25T17:26:43.845304</dc:date>
    <dc:format>image/svg+xml</dc:format>
    <dc:creator>
     <cc:Agent>
      <dc:title>Matplotlib v3.10.0, https://matplotlib.org/</dc:title>
     </cc:Agent>
    </dc:creator>
   </cc:Work>
  </rdf:RDF>
 </metadata>
 <defs>
  <style type="text/css">*{stroke-linejoin: round; stroke-linecap: butt}</style>
 </defs>
 <g id="figure_1">
  <g id="patch_1">
   <path d="M 0 216 
L 288 216 
L 288 0 
L 0 0 
z
" style="fill: #ffffff"/>
  </g>
  <g id="axes_1">
   <g id="patch_2">
    <path d="M 36 192.24 
L 259.2 192.24 
L 259.2 25.92 
L 36 25.92 
z
" style="fill: #ffffff"/>
   </g>
   <g id="matplotlib.axis_1">
    <g id="xtick_1">
     <g id="text_1">
      <!-- D01 -->
      <g style="fill: #262626" transform="translate(48.614773 209.338437) scale(0.1 -0.1)">
       <defs>
        <path id="DejaVuSans-44" d="M 1259 4147 
L 1259 519 
L 2022 519 
Q 2988 519 3436 956 
Q 3884 1394 3884 2338 
Q 3884 3275 3436 3711 
Q 2988 4147 2022 4147 
L 1259 4147 
z
M 628 4666 
L 1925 4666 
Q 3281 4666 3915 4102 
Q 4550 3538 4550 2338 
Q 4550 1131 3912 565 
Q 3275 0 1925 0 
L 628 0 
L 628 4666 
z
" transform="scale(0.015625)"/>
        <path id="DejaVuSans-30" d="M 2034 4250 
Q 1547 4250 1301 3770 
Q 1056 3291 1056 2328 
Q 1056 1369 1301 889 
Q 1547 409 2034 409 
Q 2525 409 2770 889 
Q 3016 1369 3016 2328 
Q 3016 3291 2770 3770 
Q 2525 4250 2034 4250 
z
M 2034 4750 
Q 2819 4750 3233 4129 
Q 3647 3509 3647 2328 
Q 3647 1150 3233 529 
Q 2819 -91 2034 -91 
Q 1250 -91 836 529 
Q 422 1150 422 2328 
Q 422 3509 836 4129 
Q 1250 4750 2034 4750 
z
" transform="scale(0.015625)"/>
        <path id="DejaVuSans-31" d="M 794 531 
L 1825 531 
L 1825 4091 
L 703 3866 
L 703 4441 
L 1819 4666 
L 2450 4666 
L 2450 531 
L 3481 531 
L 3481 0 
L 794 0 
L 794 531 
z
" transform="scale(0.015625)"/>
       </defs>
       <use xlink:href="#DejaVuSans-44"/>
       <use xlink:href="#DejaVuSans-30" transform="translate(77.001953 0)"/>
       <use xlink:href="#DejaVuSans-31" transform="translate(140.625 0)"/>
      </g>
     </g>
    </g>
    <g id="xtick_2">
     <g id="text_2">
      <!-- D02 -->
      <g style="fill: #262626" transform="translate(73.978409 209.338437) scale(0.1 -0.1)">
       <defs>
        <path id="DejaVuSans-32" d="M 1228 531 
L 3431 531 
L 3431 0 
L 469 0 
L 469 531 
Q 828 903 1448 1529 
Q 2069 2156 2228 2338 
Q 2531 2678 2651 2914 
Q 2772 3150 2772 3378 
Q 2772 3750 2511 3984 
Q 2250 4219 1831 4219 
Q 1534 4219 1204 4116 
Q 875 4013 500 3803 
L 500 4441 
Q 881 4594 1212 4672 
Q 1544 4750 1819 4750 
Q 2544 4750 2975 4387 
Q 3406 4025 3406 3419 
Q 3406 3131 3298 2873 
Q 3191 2616 2906 2266 
Q 2828 2175 2409 1742 
Q 1991 1309 1228 531 
z
" transform="scale(0.015625)"/>
       </defs>
       <use xlink:href="#DejaVuSans-44"/>
       <use xlink:href="#DejaVuSans-30" transform="translate(77.001953 0)"/>
       <use xlink:href="#DejaVuSans-32" transform="translate(140.625 0)"/>
      </g>
     </g>
    </g>
    <g id="xtick_3">
     <g id="text_3">
      <!-- D03 -->
      <g style="fill: #262626" transform="translate(99.342045 209.338437) scale(0.1 -0.1)">
       <defs>
        <path id="DejaVuSans-33" d="M 2597 2516 
Q 3050 2419 3304 2112 
Q 3559 1806 3559 1356 
Q 3559 666 3084 287 
Q 2609 -91 1734 -91 
Q 1441 -91 1130 -33 
Q 819 25 488 141 
L 488 750 
Q 750 597 1062 519 
Q 1375 441 1716 441 
Q 2309 441 2620 675 
Q 2931 909 2931 1356 
Q 2931 1769 2642 2001 
Q 2353 2234 1838 2234 
L 1294 2234 
L 1294 2753 
L 1863 2753 
Q 2328 2753 2575 2939 
Q 2822 3125 2822 3475 
Q 2822 3834 2567 4026 
Q 2313 4219 1838 4219 
Q 1578 4219 1281 4162 
Q 984 4106 628 3988 
L 628 4550 
Q 988 4650 1302 4700 
Q 1616 4750 1894 4750 
Q 2613 4750 3031 4423 
Q 3450 4097 3450 3541 
Q 3450 3153 3228 2886 
Q 3006 2619 2597 2516 
z
" transform="scale(0.015625)"/>
       </defs>
       <use xlink:href="#DejaVuSans-44"/>
       <use xlink:href="#DejaVuSans-30" transform="translate(77.001953 0)"/>
       <use xlink:href="#DejaVuSans-33" transform="translate(140.625 0)"/>
      </g>
     </g>
    </g>
    <g id="xtick_4">
     <g id="text_4">
      <!-- D04 -->
      <g style="fill: #262626" transform="translate(124.705682 209.338437) scale(0.1 -0.1)">
       <defs>
        <path id="DejaVuSans-34" d="M 2419 4116 
L 825 1625 
L 2419 1625 
L 2419 4116 
z
M 2253 4666 
L 3047 4666 
L 3047 1625 
L 3713 1625 
L 3713 1100 
L 3047 1100 
L 3047 0 
L 2419 0 
L 2419 1100 
L 313 1100 
L 313 1709 
L 2253 4666 
z
" transform="scale(0.015625)"/>
       </defs>
       <use xlink:href="#DejaVuSans-44"/>
       <use xlink:href="#DejaVuSans-30" transform="translate(77.001953 0)"/>
       <use xlink:href="#DejaVuSans-34" transform="translate(140.625 0)"/>
      </g>
     </g>
    </g>
    <g id="xtick_5">
     <g id="text_5">
      <!-- D06 -->
      <g style="fill: #262626" transform="translate(150.069318 209.338437) scale(0.1 -0.1)">
       <defs>
        <path id="DejaVuSans-36" d="M 2113 2584 
Q 1688 2584 1439 2293 
Q 1191 2003 1191 1497 
Q 1191 994 1439 701 
Q 1688 409 2113 409 
Q 2538 409 2786 701 
Q 3034 994 3034 1497 
Q 3034 2003 2786 2293 
Q 2538 2584 2113 2584 
z
M 3366 4563 
L 3366 3988 
Q 3128 4100 2886 4159 
Q 2644 4219 2406 4219 
Q 1781 4219 1451 3797 
Q 1122 3375 1075 2522 
Q 1259 2794 1537 2939 
Q 1816 3084 2150 3084 
Q 2853 3084 3261 2657 
Q 3669 2231 3669 1497 
Q 3669 778 3244 343 
Q 2819 -91 2113 -91 
Q 1303 -91 875 529 
Q 447 1150 447 2328 
Q 447 3434 972 4092 
Q 1497 4750 2381 4750 
Q 2619 4750 2861 4703 
Q 3103 4656 3366 4563 
z
" transform="scale(0.015625)"/>
       </defs>
       <use xlink:href="#DejaVuSans-44"/>
       <use xlink:href="#DejaVuSans-30" transform="translate(77.001953 0)"/>
       <use xlink:href="#DejaVuSans-36" transform="translate(140.625 0)"/>
      </g>
     </g>
    </g>
    <g id="xtick_6">
     <g id="text_6">
      <!-- D08 -->
      <g style="fill: #262626" transform="translate(175.432955 209.338437) scale(0.1 -0.1)">
       <defs>
        <path id="DejaVuSans-38" d="M 2034 2216 
Q 1584 2216 1326 1975 
Q 1069 1734 1069 1313 
Q 1069 891 1326 650 
Q 1584 409 2034 409 
Q 2484 409 2743 651 
Q 3003 894 3003 1313 
Q 3003 1734 2745 1975 
Q 2488 2216 2034 2216 
z
M 1403 2484 
Q 997 2584 770 2862 
Q 544 3141 544 3541 
Q 544 4100 942 4425 
Q 1341 4750 2034 4750 
Q 2731 4750 3128 4425 
Q 3525 4100 3525 3541 
Q 3525 3141 3298 2862 
Q 3072 2584 2669 2484 
Q 3125 2378 3379 2068 
Q 3634 1759 3634 1313 
Q 3634 634 3220 271 
Q 2806 -91 2034 -91 
Q 1263 -91 848 271 
Q 434 634 434 1313 
Q 434 1759 690 2068 
Q 947 2378 1403 2484 
z
M 1172 3481 
Q 1172 3119 1398 2916 
Q 1625 2713 2034 2713 
Q 2441 2713 2670 2916 
Q 2900 3119 2900 3481 
Q 2900 3844 2670 4047 
Q 2441 4250 2034 4250 
Q 1625 4250 1398 4047 
Q 1172 3844 1172 3481 
z
" transform="scale(0.015625)"/>
       </defs>
       <use xlink:href="#DejaVuSans-44"/>
       <use xlink:href="#DejaVuSans-30" transform="translate(77.001953 0)"/>
       <use xlink:href="#DejaVuSans-38" transform="translate(140.625 0)"/>
      </g>
     </g>
    </g>
    <g id="xtick_7">
     <g id="text_7">
      <!-- D10 -->
      <g style="fill: #262626" transform="translate(200.796591 209.338437) scale(0.1 -0.1)">
       <use xlink:href="#DejaVuSans-44"/>
       <use xlink:href="#DejaVuSans-31" transform="translate(77.001953 0)"/>
       <use xlink:href="#DejaVuSans-30" transform="translate(140.625 0)"/>
      </g>
     </g>
    </g>
    <g id="xtick_8">
     <g id="text_8">
      <!-- D12 -->
      <g style="fill: #262626" transform="translate(226.160227 209.338437) scale(0.1 -0.1)">
       <use xlink:href="#DejaVuSans-44"/>
       <use xlink:href="#DejaVuSans-31" transform="translate(77.001953 0)"/>
       <use xlink:href="#DejaVuSans-32" transform="translate(140.625 0)"/>
      </g>
     </g>
    </g>
    <g id="text_9">
     <!-- Day -->
     <g style="fill: #262626" transform="translate(135.751875 224.53625) scale(0.12 -0.12)">
      <defs>
       <path id="DejaVuSans-61" d="M 2194 1759 
Q 1497 1759 1228 1600 
Q 959 1441 959 1056 
Q 959 750 1161 570 
Q 1363 391 1709 391 
Q 2188 391 2477 730 
Q 2766 1069 2766 1631 
L 2766 1759 
L 2194 1759 
z
M 3341 1997 
L 3341 0 
L 2766 0 
L 2766 531 
Q 2569 213 2275 61 
Q 1981 -91 1556 -91 
Q 1019 -91 701 211 
Q 384 513 384 1019 
Q 384 1609 779 1909 
Q 1175 2209 1959 2209 
L 2766 2209 
L 2766 2266 
Q 2766 2663 2505 2880 
Q 2244 3097 1772 3097 
Q 1472 3097 1187 3025 
Q 903 2953 641 2809 
L 641 3341 
Q 956 3463 1253 3523 
Q 1550 3584 1831 3584 
Q 2591 3584 2966 3190 
Q 3341 2797 3341 1997 
z
" transform="scale(0.015625)"/>
       <path id="DejaVuSans-79" d="M 2059 -325 
Q 1816 -950 1584 -1140 
Q 1353 -1331 966 -1331 
L 506 -1331 
L 506 -850 
L 844 -850 
Q 1081 -850 1212 -737 
Q 1344 -625 1503 -206 
L 1606 56 
L 191 3500 
L 800 3500 
L 1894 763 
L 2988 3500 
L 3597 3500 
L 2059 -325 
z
" transform="scale(0.015625)"/>
      </defs>
      <use xlink:href="#DejaVuSans-44"/>
      <use xlink:href="#DejaVuSans-61" transform="translate(77.001953 0)"/>
      <use xlink:href="#DejaVuSans-79" transform="translate(138.28125 0)"/>
     </g>
    </g>
   </g>
   <g id="matplotlib.axis_2">
    <g id="ytick_1">
     <g id="line2d_1">
      <path d="M 36 192.24 
L 259.2 192.24 
" clip-path="url(#p9331492d38)" style="fill: none; stroke: #cccccc; stroke-linecap: round"/>
     </g>
     <g id="text_10">
      <!-- 0.5 -->
      <g style="fill: #262626" transform="translate(10.596875 196.039219) scale(0.1 -0.1)">
       <defs>
        <path id="DejaVuSans-2e" d="M 684 794 
L 1344 794 
L 1344 0 
L 684 0 
L 684 794 
z
" transform="scale(0.015625)"/>
        <path id="DejaVuSans-35" d="M 691 4666 
L 3169 4666 
L 3169 4134 
L 1269 4134 
L 1269 2991 
Q 1406 3038 1543 3061 
Q 1681 3084 1819 3084 
Q 2600 3084 3056 2656 
Q 3513 2228 3513 1497 
Q 3513 744 3044 326 
Q 2575 -91 1722 -91 
Q 1428 -91 1123 -41 
Q 819 9 494 109 
L 494 744 
Q 775 591 1075 516 
Q 1375 441 1709 441 
Q 2250 441 2565 725 
Q 2881 1009 2881 1497 
Q 2881 1984 2565 2268 
Q 2250 2553 1709 2553 
Q 1456 2553 1204 2497 
Q 953 2441 691 2322 
L 691 4666 
z
" transform="scale(0.015625)"/>
       </defs>
       <use xlink:href="#DejaVuSans-30"/>
       <use xlink:href="#DejaVuSans-2e" transform="translate(63.623047 0)"/>
       <use xlink:href="#DejaVuSans-35" transform="translate(95.410156 0)"/>
      </g>
     </g>
    </g>
    <g id="ytick_2">
     <g id="line2d_2">
      <path d="M 36 158.976 
L 259.2 158.976 
" clip-path="url(#p9331492d38)" style="fill: none; stroke: #cccccc; stroke-linecap: round"/>
     </g>
     <g id="text_11">
      <!-- 0.6 -->
      <g style="fill: #262626" transform="translate(10.596875 162.775219) scale(0.1 -0.1)">
       <use xlink:href="#DejaVuSans-30"/>
       <use xlink:href="#DejaVuSans-2e" transform="translate(63.623047 0)"/>
       <use xlink:href="#DejaVuSans-36" transform="translate(95.410156 0)"/>
      </g>
     </g>
    </g>
    <g id="ytick_3">
     <g id="line2d_3">
      <path d="M 36 125.712 
L 259.2 125.712 
" clip-path="url(#p9331492d38)" style="fill: none; stroke: #cccccc; stroke-linecap: round"/>
     </g>
     <g id="text_12">
      <!-- 0.7 -->
      <g style="fill: #262626" transform="translate(10.596875 129.511219) scale(0.1 -0.1)">
       <defs>
        <path id="DejaVuSans-37" d="M 525 4666 
L 3525 4666 
L 3525 4397 
L 1831 0 
L 1172 0 
L 2766 4134 
L 525 4134 
L 525 4666 
z
" transform="scale(0.015625)"/>
       </defs>
       <use xlink:href="#DejaVuSans-30"/>
       <use xlink:href="#DejaVuSans-2e" transform="translate(63.623047 0)"/>
       <use xlink:href="#DejaVuSans-37" transform="translate(95.410156 0)"/>
      </g>
     </g>
    </g>
    <g id="ytick_4">
     <g id="line2d_4">
      <path d="M 36 92.448 
L 259.2 92.448 
" clip-path="url(#p9331492d38)" style="fill: none; stroke: #cccccc; stroke-linecap: round"/>
     </g>
     <g id="text_13">
      <!-- 0.8 -->
      <g style="fill: #262626" transform="translate(10.596875 96.247219) scale(0.1 -0.1)">
       <use xlink:href="#DejaVuSans-30"/>
       <use xlink:href="#DejaVuSans-2e" transform="translate(63.623047 0)"/>
       <use xlink:href="#DejaVuSans-38" transform="translate(95.410156 0)"/>
      </g>
     </g>
    </g>
    <g id="ytick_5">
     <g id="line2d_5">
      <path d="M 36 59.184 
L 259.2 59.184 
" clip-path="url(#p9331492d38)" style="fill: none; stroke: #cccccc; stroke-linecap: round"/>
     </g>
     <g id="text_14">
      <!-- 0.9 -->
      <g style="fill: #262626" transform="translate(10.596875 62.983219) scale(0.1 -0.1)">
       <defs>
        <path id="DejaVuSans-39" d="M 703 97 
L 703 672 
Q 941 559 1184 500 
Q 1428 441 1663 441 
Q 2288 441 2617 861 
Q 2947 1281 2994 2138 
Q 2813 1869 2534 1725 
Q 2256 1581 1919 1581 
Q 1219 1581 811 2004 
Q 403 2428 403 3163 
Q 403 3881 828 4315 
Q 1253 4750 1959 4750 
Q 2769 4750 3195 4129 
Q 3622 3509 3622 2328 
Q 3622 1225 3098 567 
Q 2575 -91 1691 -91 
Q 1453 -91 1209 -44 
Q 966 3 703 97 
z
M 1959 2075 
Q 2384 2075 2632 2365 
Q 2881 2656 2881 3163 
Q 2881 3666 2632 3958 
Q 2384 4250 1959 4250 
Q 1534 4250 1286 3958 
Q 1038 3666 1038 3163 
Q 1038 2656 1286 2365 
Q 1534 2075 1959 2075 
z
" transform="scale(0.015625)"/>
       </defs>
       <use xlink:href="#DejaVuSans-30"/>
       <use xlink:href="#DejaVuSans-2e" transform="translate(63.623047 0)"/>
       <use xlink:href="#DejaVuSans-39" transform="translate(95.410156 0)"/>
      </g>
     </g>
    </g>
    <g id="ytick_6">
     <g id="line2d_6">
      <path d="M 36 25.92 
L 259.2 25.92 
" clip-path="url(#p9331492d38)" style="fill: none; stroke: #cccccc; stroke-linecap: round"/>
     </g>
     <g id="text_15">
      <!-- 1.0 -->
      <g style="fill: #262626" transform="translate(10.596875 29.719219) scale(0.1 -0.1)">
       <use xlink:href="#DejaVuSans-31"/>
       <use xlink:href="#DejaVuSans-2e" transform="translate(63.623047 0)"/>
       <use xlink:href="#DejaVuSans-30" transform="translate(95.410156 0)"/>
      </g>
     </g>
    </g>
    <g id="text_16">
     <!-- Spearman corr. -->
     <g style="fill: #262626" transform="translate(4.10125 154.816875) rotate(-90) scale(0.12 -0.12)">
      <defs>
       <path id="DejaVuSans-53" d="M 3425 4513 
L 3425 3897 
Q 3066 4069 2747 4153 
Q 2428 4238 2131 4238 
Q 1616 4238 1336 4038 
Q 1056 3838 1056 3469 
Q 1056 3159 1242 3001 
Q 1428 2844 1947 2747 
L 2328 2669 
Q 3034 2534 3370 2195 
Q 3706 1856 3706 1288 
Q 3706 609 3251 259 
Q 2797 -91 1919 -91 
Q 1588 -91 1214 -16 
Q 841 59 441 206 
L 441 856 
Q 825 641 1194 531 
Q 1563 422 1919 422 
Q 2459 422 2753 634 
Q 3047 847 3047 1241 
Q 3047 1584 2836 1778 
Q 2625 1972 2144 2069 
L 1759 2144 
Q 1053 2284 737 2584 
Q 422 2884 422 3419 
Q 422 4038 858 4394 
Q 1294 4750 2059 4750 
Q 2388 4750 2728 4690 
Q 3069 4631 3425 4513 
z
" transform="scale(0.015625)"/>
       <path id="DejaVuSans-70" d="M 1159 525 
L 1159 -1331 
L 581 -1331 
L 581 3500 
L 1159 3500 
L 1159 2969 
Q 1341 3281 1617 3432 
Q 1894 3584 2278 3584 
Q 2916 3584 3314 3078 
Q 3713 2572 3713 1747 
Q 3713 922 3314 415 
Q 2916 -91 2278 -91 
Q 1894 -91 1617 61 
Q 1341 213 1159 525 
z
M 3116 1747 
Q 3116 2381 2855 2742 
Q 2594 3103 2138 3103 
Q 1681 3103 1420 2742 
Q 1159 2381 1159 1747 
Q 1159 1113 1420 752 
Q 1681 391 2138 391 
Q 2594 391 2855 752 
Q 3116 1113 3116 1747 
z
" transform="scale(0.015625)"/>
       <path id="DejaVuSans-65" d="M 3597 1894 
L 3597 1613 
L 953 1613 
Q 991 1019 1311 708 
Q 1631 397 2203 397 
Q 2534 397 2845 478 
Q 3156 559 3463 722 
L 3463 178 
Q 3153 47 2828 -22 
Q 2503 -91 2169 -91 
Q 1331 -91 842 396 
Q 353 884 353 1716 
Q 353 2575 817 3079 
Q 1281 3584 2069 3584 
Q 2775 3584 3186 3129 
Q 3597 2675 3597 1894 
z
M 3022 2063 
Q 3016 2534 2758 2815 
Q 2500 3097 2075 3097 
Q 1594 3097 1305 2825 
Q 1016 2553 972 2059 
L 3022 2063 
z
" transform="scale(0.015625)"/>
       <path id="DejaVuSans-72" d="M 2631 2963 
Q 2534 3019 2420 3045 
Q 2306 3072 2169 3072 
Q 1681 3072 1420 2755 
Q 1159 2438 1159 1844 
L 1159 0 
L 581 0 
L 581 3500 
L 1159 3500 
L 1159 2956 
Q 1341 3275 1631 3429 
Q 1922 3584 2338 3584 
Q 2397 3584 2469 3576 
Q 2541 3569 2628 3553 
L 2631 2963 
z
" transform="scale(0.015625)"/>
       <path id="DejaVuSans-6d" d="M 3328 2828 
Q 3544 3216 3844 3400 
Q 4144 3584 4550 3584 
Q 5097 3584 5394 3201 
Q 5691 2819 5691 2113 
L 5691 0 
L 5113 0 
L 5113 2094 
Q 5113 2597 4934 2840 
Q 4756 3084 4391 3084 
Q 3944 3084 3684 2787 
Q 3425 2491 3425 1978 
L 3425 0 
L 2847 0 
L 2847 2094 
Q 2847 2600 2669 2842 
Q 2491 3084 2119 3084 
Q 1678 3084 1418 2786 
Q 1159 2488 1159 1978 
L 1159 0 
L 581 0 
L 581 3500 
L 1159 3500 
L 1159 2956 
Q 1356 3278 1631 3431 
Q 1906 3584 2284 3584 
Q 2666 3584 2933 3390 
Q 3200 3197 3328 2828 
z
" transform="scale(0.015625)"/>
       <path id="DejaVuSans-6e" d="M 3513 2113 
L 3513 0 
L 2938 0 
L 2938 2094 
Q 2938 2591 2744 2837 
Q 2550 3084 2163 3084 
Q 1697 3084 1428 2787 
Q 1159 2491 1159 1978 
L 1159 0 
L 581 0 
L 581 3500 
L 1159 3500 
L 1159 2956 
Q 1366 3272 1645 3428 
Q 1925 3584 2291 3584 
Q 2894 3584 3203 3211 
Q 3513 2838 3513 2113 
z
" transform="scale(0.015625)"/>
       <path id="DejaVuSans-20" transform="scale(0.015625)"/>
       <path id="DejaVuSans-63" d="M 3122 3366 
L 3122 2828 
Q 2878 2963 2633 3030 
Q 2388 3097 2138 3097 
Q 1578 3097 1268 2742 
Q 959 2388 959 1747 
Q 959 1106 1268 751 
Q 1578 397 2138 397 
Q 2388 397 2633 464 
Q 2878 531 3122 666 
L 3122 134 
Q 2881 22 2623 -34 
Q 2366 -91 2075 -91 
Q 1284 -91 818 406 
Q 353 903 353 1747 
Q 353 2603 823 3093 
Q 1294 3584 2113 3584 
Q 2378 3584 2631 3529 
Q 2884 3475 3122 3366 
z
" transform="scale(0.015625)"/>
       <path id="DejaVuSans-6f" d="M 1959 3097 
Q 1497 3097 1228 2736 
Q 959 2375 959 1747 
Q 959 1119 1226 758 
Q 1494 397 1959 397 
Q 2419 397 2687 759 
Q 2956 1122 2956 1747 
Q 2956 2369 2687 2733 
Q 2419 3097 1959 3097 
z
M 1959 3584 
Q 2709 3584 3137 3096 
Q 3566 2609 3566 1747 
Q 3566 888 3137 398 
Q 2709 -91 1959 -91 
Q 1206 -91 779 398 
Q 353 888 353 1747 
Q 353 2609 779 3096 
Q 1206 3584 1959 3584 
z
" transform="scale(0.015625)"/>
      </defs>
      <use xlink:href="#DejaVuSans-53"/>
      <use xlink:href="#DejaVuSans-70" transform="translate(63.476562 0)"/>
      <use xlink:href="#DejaVuSans-65" transform="translate(126.953125 0)"/>
      <use xlink:href="#DejaVuSans-61" transform="translate(188.476562 0)"/>
      <use xlink:href="#DejaVuSans-72" transform="translate(249.755859 0)"/>
      <use xlink:href="#DejaVuSans-6d" transform="translate(289.119141 0)"/>
      <use xlink:href="#DejaVuSans-61" transform="translate(386.53125 0)"/>
      <use xlink:href="#DejaVuSans-6e" transform="translate(447.810547 0)"/>
      <use xlink:href="#DejaVuSans-20" transform="translate(511.189453 0)"/>
      <use xlink:href="#DejaVuSans-63" transform="translate(542.976562 0)"/>
      <use xlink:href="#DejaVuSans-6f" transform="translate(597.957031 0)"/>
      <use xlink:href="#DejaVuSans-72" transform="translate(659.138672 0)"/>
      <use xlink:href="#DejaVuSans-72" transform="translate(698.501953 0)"/>
      <use xlink:href="#DejaVuSans-2e" transform="translate(730.490234 0)"/>
     </g>
    </g>
   </g>
   <g id="FillBetweenPolyCollection_1">
    <defs>
     <path id="m10200555cf" d="M 58.84298 -68.511612 
L 58.811565 -68.511612 
L 58.799032 -69.756633 
L 58.780496 -71.001654 
L 58.755852 -72.246675 
L 58.726704 -73.491696 
L 58.696608 -74.736718 
L 58.670573 -75.981739 
L 58.653766 -77.22676 
L 58.649866 -78.471781 
L 58.65976 -79.716802 
L 58.681221 -80.961823 
L 58.709714 -82.206844 
L 58.739945 -83.451866 
L 58.767429 -84.696887 
L 58.78946 -85.941908 
L 58.805254 -87.186929 
L 58.815463 -88.43195 
L 58.821442 -89.676971 
L 58.824624 -90.921993 
L 58.826166 -92.167014 
L 58.826848 -93.412035 
L 58.827123 -94.657056 
L 58.827224 -95.902077 
L 58.827258 -97.147098 
L 58.827269 -98.39212 
L 58.827272 -99.637141 
L 58.827273 -100.882162 
L 58.827273 -102.127183 
L 58.827273 -103.372204 
L 58.827273 -104.617225 
L 58.827273 -105.862246 
L 58.827273 -107.107268 
L 58.827273 -108.352289 
L 58.827273 -109.59731 
L 58.827273 -110.842331 
L 58.827273 -112.087352 
L 58.827272 -113.332373 
L 58.827271 -114.577395 
L 58.827265 -115.822416 
L 58.827245 -117.067437 
L 58.827184 -118.312458 
L 58.827016 -119.557479 
L 58.826593 -120.8025 
L 58.825623 -122.047521 
L 58.8236 -123.292543 
L 58.819769 -124.537564 
L 58.813184 -125.782585 
L 58.802907 -127.027606 
L 58.788313 -128.272627 
L 58.769332 -129.517648 
L 58.746384 -130.76267 
L 58.719865 -132.007691 
L 58.689393 -133.252712 
L 58.65338 -134.497733 
L 58.609564 -135.742754 
L 58.556641 -136.987775 
L 58.496259 -138.232796 
L 58.433969 -139.477818 
L 58.378005 -140.722839 
L 58.335927 -141.96786 
L 58.310589 -143.212881 
L 58.297575 -144.457902 
L 58.285489 -145.702923 
L 58.258911 -146.947945 
L 58.202283 -148.192966 
L 58.102824 -149.437987 
L 57.951578 -150.683008 
L 57.743185 -151.928029 
L 57.475522 -153.17305 
L 57.14965 -154.418071 
L 56.769204 -155.663093 
L 56.338022 -156.908114 
L 55.856077 -158.153135 
L 55.315857 -159.398156 
L 54.702475 -160.643177 
L 53.999516 -161.888198 
L 53.199548 -163.13322 
L 52.31523 -164.378241 
L 51.386058 -165.623262 
L 50.47753 -166.868283 
L 49.672649 -168.113304 
L 49.058365 -169.358325 
L 48.710707 -170.603346 
L 48.681818 -171.848368 
L 48.991015 -173.093389 
L 49.620905 -174.33841 
L 50.519134 -175.583431 
L 51.605883 -176.828452 
L 52.786376 -178.073473 
L 53.966125 -179.318495 
L 55.065236 -180.563516 
L 56.028033 -181.808537 
L 56.825946 -183.053558 
L 57.454289 -184.298579 
L 57.925571 -185.5436 
L 58.26226 -186.788621 
L 58.490869 -188.033643 
L 58.637818 -189.278664 
L 58.726805 -190.523685 
L 58.777318 -191.768706 
L 58.877228 -191.768706 
L 58.877228 -191.768706 
L 58.92774 -190.523685 
L 59.016728 -189.278664 
L 59.163676 -188.033643 
L 59.392285 -186.788621 
L 59.728975 -185.5436 
L 60.200256 -184.298579 
L 60.8286 -183.053558 
L 61.626513 -181.808537 
L 62.58931 -180.563516 
L 63.688421 -179.318495 
L 64.868169 -178.073473 
L 66.048663 -176.828452 
L 67.135412 -175.583431 
L 68.03364 -174.33841 
L 68.663531 -173.093389 
L 68.972727 -171.848368 
L 68.943839 -170.603346 
L 68.59618 -169.358325 
L 67.981897 -168.113304 
L 67.177015 -166.868283 
L 66.268488 -165.623262 
L 65.339315 -164.378241 
L 64.454997 -163.13322 
L 63.65503 -161.888198 
L 62.952071 -160.643177 
L 62.338689 -159.398156 
L 61.798469 -158.153135 
L 61.316523 -156.908114 
L 60.885342 -155.663093 
L 60.504896 -154.418071 
L 60.179023 -153.17305 
L 59.91136 -151.928029 
L 59.702967 -150.683008 
L 59.551722 -149.437987 
L 59.452263 -148.192966 
L 59.395635 -146.947945 
L 59.369056 -145.702923 
L 59.356971 -144.457902 
L 59.343956 -143.212881 
L 59.318619 -141.96786 
L 59.27654 -140.722839 
L 59.220576 -139.477818 
L 59.158286 -138.232796 
L 59.097904 -136.987775 
L 59.044982 -135.742754 
L 59.001165 -134.497733 
L 58.965152 -133.252712 
L 58.934681 -132.007691 
L 58.908162 -130.76267 
L 58.885213 -129.517648 
L 58.866233 -128.272627 
L 58.851639 -127.027606 
L 58.841362 -125.782585 
L 58.834776 -124.537564 
L 58.830946 -123.292543 
L 58.828923 -122.047521 
L 58.827953 -120.8025 
L 58.827529 -119.557479 
L 58.827362 -118.312458 
L 58.827301 -117.067437 
L 58.827281 -115.822416 
L 58.827275 -114.577395 
L 58.827273 -113.332373 
L 58.827273 -112.087352 
L 58.827273 -110.842331 
L 58.827273 -109.59731 
L 58.827273 -108.352289 
L 58.827273 -107.107268 
L 58.827273 -105.862246 
L 58.827273 -104.617225 
L 58.827273 -103.372204 
L 58.827273 -102.127183 
L 58.827273 -100.882162 
L 58.827274 -99.637141 
L 58.827277 -98.39212 
L 58.827287 -97.147098 
L 58.827321 -95.902077 
L 58.827423 -94.657056 
L 58.827697 -93.412035 
L 58.828379 -92.167014 
L 58.829921 -90.921993 
L 58.833103 -89.676971 
L 58.839082 -88.43195 
L 58.849291 -87.186929 
L 58.865086 -85.941908 
L 58.887116 -84.696887 
L 58.914601 -83.451866 
L 58.944832 -82.206844 
L 58.973324 -80.961823 
L 58.994785 -79.716802 
L 59.004679 -78.471781 
L 59.000779 -77.22676 
L 58.983973 -75.981739 
L 58.957937 -74.736718 
L 58.927842 -73.491696 
L 58.898693 -72.246675 
L 58.87405 -71.001654 
L 58.855513 -69.756633 
L 58.84298 -68.511612 
z
" style="stroke: #303030; stroke-width: 1.5"/>
    </defs>
    <g clip-path="url(#p9331492d38)">
     <use xlink:href="#m10200555cf" x="0" y="216" style="fill: #4a326e; stroke: #303030; stroke-width: 1.5"/>
    </g>
   </g>
   <g id="FillBetweenPolyCollection_2">
    <defs>
     <path id="mb5fb269bc4" d="M 84.208393 -118.167268 
L 84.173425 -118.167268 
L 84.16701 -118.960521 
L 84.159026 -119.753775 
L 84.149382 -120.547029 
L 84.138075 -121.340283 
L 84.125206 -122.133537 
L 84.110978 -122.926791 
L 84.095686 -123.720044 
L 84.079674 -124.513298 
L 84.063282 -125.306552 
L 84.046786 -126.099806 
L 84.030317 -126.89306 
L 84.013805 -127.686313 
L 83.996909 -128.479567 
L 83.978984 -129.272821 
L 83.959038 -130.066075 
L 83.935707 -130.859329 
L 83.907229 -131.652582 
L 83.8714 -132.445836 
L 83.825538 -133.23909 
L 83.766432 -134.032344 
L 83.690318 -134.825598 
L 83.592888 -135.618851 
L 83.469366 -136.412105 
L 83.314675 -137.205359 
L 83.123706 -137.998613 
L 82.891687 -138.791867 
L 82.614636 -139.58512 
L 82.289859 -140.378374 
L 81.916459 -141.171628 
L 81.495779 -141.964882 
L 81.031756 -142.758136 
L 80.531127 -143.551389 
L 80.003465 -144.344643 
L 79.461025 -145.137897 
L 78.918403 -145.931151 
L 78.391996 -146.724405 
L 77.899291 -147.517658 
L 77.457989 -148.310912 
L 77.084989 -149.104166 
L 76.7953 -149.89742 
L 76.600933 -150.690674 
L 76.509884 -151.483927 
L 76.525312 -152.277181 
L 76.645037 -153.070435 
L 76.861439 -153.863689 
L 77.161835 -154.656943 
L 77.529298 -155.450196 
L 77.943875 -156.24345 
L 78.384045 -157.036704 
L 78.828267 -157.829958 
L 79.256408 -158.623212 
L 79.650921 -159.416465 
L 79.997629 -160.209719 
L 80.286094 -161.002973 
L 80.509569 -161.796227 
L 80.664624 -162.589481 
L 80.750536 -163.382734 
L 80.768572 -164.175988 
L 80.721262 -164.969242 
L 80.611754 -165.762496 
L 80.44331 -166.55575 
L 80.218977 -167.349004 
L 79.941451 -168.142257 
L 79.613155 -168.935511 
L 79.23651 -169.728765 
L 78.814402 -170.522019 
L 78.350788 -171.315273 
L 77.851395 -172.108526 
L 77.324397 -172.90178 
L 76.780978 -173.695034 
L 76.235633 -174.488288 
L 75.706111 -175.281542 
L 75.212914 -176.074795 
L 74.778337 -176.868049 
L 74.425097 -177.661303 
L 74.174661 -178.454557 
L 74.045455 -179.247811 
L 74.051159 -180.041064 
L 74.199298 -180.834318 
L 74.490311 -181.627572 
L 74.917222 -182.420826 
L 75.46598 -183.21408 
L 76.116418 -184.007333 
L 76.843755 -184.800587 
L 77.620446 -185.593841 
L 78.418197 -186.387095 
L 79.209931 -187.180349 
L 79.9715 -187.973602 
L 80.682992 -188.766856 
L 81.329554 -189.56011 
L 81.901687 -190.353364 
L 82.395049 -191.146618 
L 82.809876 -191.939871 
L 83.150111 -192.733125 
L 83.422403 -193.526379 
L 83.635082 -194.319633 
L 83.797232 -195.112887 
L 83.917917 -195.90614 
L 84.00561 -196.699394 
L 84.376208 -196.699394 
L 84.376208 -196.699394 
L 84.463901 -195.90614 
L 84.584586 -195.112887 
L 84.746736 -194.319633 
L 84.959415 -193.526379 
L 85.231707 -192.733125 
L 85.571942 -191.939871 
L 85.986769 -191.146618 
L 86.480132 -190.353364 
L 87.052264 -189.56011 
L 87.698827 -188.766856 
L 88.410319 -187.973602 
L 89.171887 -187.180349 
L 89.963621 -186.387095 
L 90.761372 -185.593841 
L 91.538063 -184.800587 
L 92.2654 -184.007333 
L 92.915839 -183.21408 
L 93.464596 -182.420826 
L 93.891507 -181.627572 
L 94.18252 -180.834318 
L 94.330659 -180.041064 
L 94.336364 -179.247811 
L 94.207157 -178.454557 
L 93.956721 -177.661303 
L 93.603481 -176.868049 
L 93.168904 -176.074795 
L 92.675707 -175.281542 
L 92.146185 -174.488288 
L 91.60084 -173.695034 
L 91.057421 -172.90178 
L 90.530424 -172.108526 
L 90.03103 -171.315273 
L 89.567417 -170.522019 
L 89.145308 -169.728765 
L 88.768663 -168.935511 
L 88.440367 -168.142257 
L 88.162841 -167.349004 
L 87.938508 -166.55575 
L 87.770064 -165.762496 
L 87.660556 -164.969242 
L 87.613246 -164.175988 
L 87.631282 -163.382734 
L 87.717194 -162.589481 
L 87.872249 -161.796227 
L 88.095724 -161.002973 
L 88.384189 -160.209719 
L 88.730897 -159.416465 
L 89.12541 -158.623212 
L 89.553551 -157.829958 
L 89.997773 -157.036704 
L 90.437943 -156.24345 
L 90.85252 -155.450196 
L 91.219983 -154.656943 
L 91.520379 -153.863689 
L 91.736782 -153.070435 
L 91.856506 -152.277181 
L 91.871934 -151.483927 
L 91.780885 -150.690674 
L 91.586518 -149.89742 
L 91.296829 -149.104166 
L 90.923829 -148.310912 
L 90.482527 -147.517658 
L 89.989823 -146.724405 
L 89.463415 -145.931151 
L 88.920793 -145.137897 
L 88.378353 -144.344643 
L 87.850691 -143.551389 
L 87.350062 -142.758136 
L 86.886039 -141.964882 
L 86.465359 -141.171628 
L 86.091959 -140.378374 
L 85.767182 -139.58512 
L 85.490131 -138.791867 
L 85.258112 -137.998613 
L 85.067143 -137.205359 
L 84.912453 -136.412105 
L 84.78893 -135.618851 
L 84.6915 -134.825598 
L 84.615386 -134.032344 
L 84.55628 -133.23909 
L 84.510418 -132.445836 
L 84.47459 -131.652582 
L 84.446111 -130.859329 
L 84.42278 -130.066075 
L 84.402834 -129.272821 
L 84.384909 -128.479567 
L 84.368014 -127.686313 
L 84.351501 -126.89306 
L 84.335033 -126.099806 
L 84.318536 -125.306552 
L 84.302145 -124.513298 
L 84.286132 -123.720044 
L 84.27084 -122.926791 
L 84.256613 -122.133537 
L 84.243743 -121.340283 
L 84.232436 -120.547029 
L 84.222792 -119.753775 
L 84.214809 -118.960521 
L 84.208393 -118.167268 
z
" style="stroke: #303030; stroke-width: 1.5"/>
    </defs>
    <g clip-path="url(#p9331492d38)">
     <use xlink:href="#mb5fb269bc4" x="0" y="216" style="fill: #485080; stroke: #303030; stroke-width: 1.5"/>
    </g>
   </g>
   <g id="FillBetweenPolyCollection_3">
    <defs>
     <path id="mfce2fab817" d="M 109.570104 -127.871654 
L 109.538986 -127.871654 
L 109.532339 -128.525531 
L 109.523809 -129.179409 
L 109.513244 -129.833286 
L 109.500585 -130.487164 
L 109.485864 -131.141041 
L 109.469158 -131.794918 
L 109.450512 -132.448796 
L 109.429842 -133.102673 
L 109.406829 -133.756551 
L 109.380859 -134.410428 
L 109.351032 -135.064306 
L 109.316274 -135.718183 
L 109.275544 -136.372061 
L 109.228123 -137.025938 
L 109.173904 -137.679815 
L 109.113619 -138.333693 
L 109.04892 -138.98757 
L 108.982253 -139.641448 
L 108.916527 -140.295325 
L 108.854636 -140.949203 
L 108.798918 -141.60308 
L 108.750706 -142.256957 
L 108.710074 -142.910835 
L 108.675872 -143.564712 
L 108.646044 -144.21859 
L 108.618174 -144.872467 
L 108.590107 -145.526345 
L 108.560494 -146.180222 
L 108.529109 -146.834099 
L 108.496846 -147.487977 
L 108.465391 -148.141854 
L 108.436648 -148.795732 
L 108.41208 -149.449609 
L 108.392128 -150.103487 
L 108.375872 -150.757364 
L 108.361016 -151.411242 
L 108.344194 -152.065119 
L 108.321522 -152.718996 
L 108.289237 -153.372874 
L 108.244267 -154.026751 
L 108.184599 -154.680629 
L 108.109383 -155.334506 
L 108.018771 -155.988384 
L 107.913566 -156.642261 
L 107.79479 -157.296138 
L 107.663286 -157.950016 
L 107.519432 -158.603893 
L 107.363015 -159.257771 
L 107.193266 -159.911648 
L 107.009031 -160.565526 
L 106.809047 -161.219403 
L 106.592262 -161.87328 
L 106.3582 -162.527158 
L 106.107304 -163.181035 
L 105.841217 -163.834913 
L 105.562948 -164.48879 
L 105.276816 -165.142668 
L 104.988122 -165.796545 
L 104.702502 -166.450422 
L 104.425013 -167.1043 
L 104.159065 -167.758177 
L 103.905424 -168.412055 
L 103.661544 -169.065932 
L 103.421459 -169.71981 
L 103.176395 -170.373687 
L 102.916094 -171.027565 
L 102.63069 -171.681442 
L 102.31283 -172.335319 
L 101.95964 -172.989197 
L 101.574184 -173.643074 
L 101.16614 -174.296952 
L 100.751576 -174.950829 
L 100.351881 -175.604707 
L 99.992029 -176.258584 
L 99.698435 -176.912461 
L 99.496642 -177.566339 
L 99.409091 -178.220216 
L 99.453115 -178.874094 
L 99.639318 -179.527971 
L 99.970431 -180.181849 
L 100.440777 -180.835726 
L 101.036409 -181.489603 
L 101.735996 -182.143481 
L 102.512401 -182.797358 
L 103.334856 -183.451236 
L 104.171463 -184.105113 
L 104.991763 -184.758991 
L 105.769024 -185.412868 
L 106.48198 -186.066746 
L 107.115855 -186.720623 
L 107.662601 -187.3745 
L 108.120431 -188.028378 
L 108.492803 -188.682255 
L 108.787086 -189.336133 
L 109.013124 -189.99001 
L 109.181895 -190.643888 
L 109.304398 -191.297765 
L 109.390843 -191.951642 
L 109.450143 -192.60552 
L 109.658948 -192.60552 
L 109.658948 -192.60552 
L 109.718247 -191.951642 
L 109.804693 -191.297765 
L 109.927196 -190.643888 
L 110.095967 -189.99001 
L 110.322005 -189.336133 
L 110.616288 -188.682255 
L 110.98866 -188.028378 
L 111.44649 -187.3745 
L 111.993236 -186.720623 
L 112.627111 -186.066746 
L 113.340067 -185.412868 
L 114.117328 -184.758991 
L 114.937628 -184.105113 
L 115.774235 -183.451236 
L 116.596689 -182.797358 
L 117.373095 -182.143481 
L 118.072682 -181.489603 
L 118.668314 -180.835726 
L 119.13866 -180.181849 
L 119.469773 -179.527971 
L 119.655975 -178.874094 
L 119.7 -178.220216 
L 119.612449 -177.566339 
L 119.410656 -176.912461 
L 119.117062 -176.258584 
L 118.75721 -175.604707 
L 118.357515 -174.950829 
L 117.942951 -174.296952 
L 117.534907 -173.643074 
L 117.149451 -172.989197 
L 116.79626 -172.335319 
L 116.4784 -171.681442 
L 116.192997 -171.027565 
L 115.932696 -170.373687 
L 115.687632 -169.71981 
L 115.447547 -169.065932 
L 115.203667 -168.412055 
L 114.950026 -167.758177 
L 114.684078 -167.1043 
L 114.406589 -166.450422 
L 114.120969 -165.796545 
L 113.832275 -165.142668 
L 113.546143 -164.48879 
L 113.267874 -163.834913 
L 113.001787 -163.181035 
L 112.75089 -162.527158 
L 112.516829 -161.87328 
L 112.300044 -161.219403 
L 112.10006 -160.565526 
L 111.915825 -159.911648 
L 111.746076 -159.257771 
L 111.589659 -158.603893 
L 111.445805 -157.950016 
L 111.314301 -157.296138 
L 111.195525 -156.642261 
L 111.09032 -155.988384 
L 110.999708 -155.334506 
L 110.924492 -154.680629 
L 110.864824 -154.026751 
L 110.819854 -153.372874 
L 110.787569 -152.718996 
L 110.764897 -152.065119 
L 110.748075 -151.411242 
L 110.733219 -150.757364 
L 110.716963 -150.103487 
L 110.697011 -149.449609 
L 110.672443 -148.795732 
L 110.6437 -148.141854 
L 110.612245 -147.487977 
L 110.579982 -146.834099 
L 110.548597 -146.180222 
L 110.518984 -145.526345 
L 110.490917 -144.872467 
L 110.463047 -144.21859 
L 110.433219 -143.564712 
L 110.399017 -142.910835 
L 110.358385 -142.256957 
L 110.310172 -141.60308 
L 110.254455 -140.949203 
L 110.192563 -140.295325 
L 110.126838 -139.641448 
L 110.060171 -138.98757 
L 109.995472 -138.333693 
L 109.935187 -137.679815 
L 109.880968 -137.025938 
L 109.833547 -136.372061 
L 109.792817 -135.718183 
L 109.758058 -135.064306 
L 109.728232 -134.410428 
L 109.702261 -133.756551 
L 109.679249 -133.102673 
L 109.658579 -132.448796 
L 109.639933 -131.794918 
L 109.623227 -131.141041 
L 109.608505 -130.487164 
L 109.595847 -129.833286 
L 109.585282 -129.179409 
L 109.576752 -128.525531 
L 109.570104 -127.871654 
z
" style="stroke: #303030; stroke-width: 1.5"/>
    </defs>
    <g clip-path="url(#p9331492d38)">
     <use xlink:href="#mfce2fab817" x="0" y="216" style="fill: #3c6682; stroke: #303030; stroke-width: 1.5"/>
    </g>
   </g>
   <g id="FillBetweenPolyCollection_4">
    <defs>
     <path id="m43dfdbe549" d="M 134.936068 -154.625187 
L 134.900296 -154.625187 
L 134.889588 -154.987812 
L 134.874848 -155.350436 
L 134.855851 -155.713061 
L 134.832963 -156.075685 
L 134.807253 -156.43831 
L 134.780453 -156.800934 
L 134.754758 -157.163559 
L 134.732511 -157.526183 
L 134.715857 -157.888808 
L 134.706445 -158.251432 
L 134.705213 -158.614057 
L 134.712283 -158.976681 
L 134.726951 -159.339306 
L 134.747759 -159.70193 
L 134.772677 -160.064555 
L 134.799382 -160.427179 
L 134.825586 -160.789804 
L 134.849371 -161.152428 
L 134.869407 -161.515053 
L 134.885022 -161.877677 
L 134.896096 -162.240302 
L 134.90284 -162.602926 
L 134.905528 -162.965551 
L 134.904277 -163.328175 
L 134.898937 -163.6908 
L 134.889119 -164.053424 
L 134.874354 -164.416049 
L 134.854337 -164.778673 
L 134.829195 -165.141298 
L 134.799663 -165.503922 
L 134.767108 -165.866547 
L 134.733361 -166.229171 
L 134.700375 -166.591796 
L 134.669785 -166.95442 
L 134.642472 -167.317045 
L 134.618206 -167.679669 
L 134.595426 -168.042294 
L 134.571181 -168.404918 
L 134.541273 -168.767543 
L 134.500651 -169.130167 
L 134.444091 -169.492792 
L 134.367131 -169.855416 
L 134.267071 -170.218041 
L 134.143729 -170.580665 
L 133.999596 -170.94329 
L 133.839192 -171.305914 
L 133.667671 -171.668539 
L 133.489109 -172.031163 
L 133.305049 -172.393788 
L 133.113867 -172.756412 
L 132.911187 -173.119037 
L 132.691255 -173.481661 
L 132.448803 -173.844286 
L 132.180858 -174.20691 
L 131.887946 -174.569534 
L 131.574333 -174.932159 
L 131.247143 -175.294783 
L 130.914503 -175.657408 
L 130.5832 -176.020032 
L 130.25655 -176.382657 
L 129.93326 -176.745281 
L 129.607765 -177.107906 
L 129.271999 -177.47053 
L 128.918027 -177.833155 
L 128.540642 -178.195779 
L 128.139077 -178.558404 
L 127.717412 -178.921028 
L 127.283748 -179.283653 
L 126.848642 -179.646277 
L 126.423522 -180.008902 
L 126.019704 -180.371526 
L 125.648397 -180.734151 
L 125.321685 -181.096775 
L 125.054055 -181.4594 
L 124.8637 -181.822024 
L 124.772727 -182.184649 
L 124.805611 -182.547273 
L 124.985753 -182.909898 
L 125.330665 -183.272522 
L 125.846847 -183.635147 
L 126.525747 -183.997771 
L 127.342106 -184.360396 
L 128.255524 -184.72302 
L 129.215314 -185.085645 
L 130.167744 -185.448269 
L 131.064021 -185.810894 
L 131.867005 -186.173518 
L 132.555009 -186.536143 
L 133.121981 -186.898767 
L 133.57454 -187.261392 
L 133.92723 -187.624016 
L 134.19765 -187.986641 
L 134.40276 -188.349265 
L 134.556885 -188.71189 
L 134.671272 -189.074514 
L 134.754571 -189.437139 
L 134.813602 -189.799763 
L 134.853988 -190.162388 
L 134.880481 -190.525012 
L 134.955883 -190.525012 
L 134.955883 -190.525012 
L 134.982376 -190.162388 
L 135.022762 -189.799763 
L 135.081793 -189.437139 
L 135.165091 -189.074514 
L 135.279479 -188.71189 
L 135.433604 -188.349265 
L 135.638713 -187.986641 
L 135.909134 -187.624016 
L 136.261824 -187.261392 
L 136.714383 -186.898767 
L 137.281355 -186.536143 
L 137.969359 -186.173518 
L 138.772342 -185.810894 
L 139.668619 -185.448269 
L 140.621049 -185.085645 
L 141.580839 -184.72302 
L 142.494258 -184.360396 
L 143.310617 -183.997771 
L 143.989517 -183.635147 
L 144.505699 -183.272522 
L 144.850611 -182.909898 
L 145.030753 -182.547273 
L 145.063636 -182.184649 
L 144.972664 -181.822024 
L 144.782309 -181.4594 
L 144.514679 -181.096775 
L 144.187966 -180.734151 
L 143.816659 -180.371526 
L 143.412842 -180.008902 
L 142.987722 -179.646277 
L 142.552616 -179.283653 
L 142.118951 -178.921028 
L 141.697287 -178.558404 
L 141.295722 -178.195779 
L 140.918336 -177.833155 
L 140.564365 -177.47053 
L 140.228599 -177.107906 
L 139.903104 -176.745281 
L 139.579814 -176.382657 
L 139.253164 -176.020032 
L 138.921861 -175.657408 
L 138.589221 -175.294783 
L 138.26203 -174.932159 
L 137.948418 -174.569534 
L 137.655506 -174.20691 
L 137.38756 -173.844286 
L 137.145109 -173.481661 
L 136.925177 -173.119037 
L 136.722497 -172.756412 
L 136.531314 -172.393788 
L 136.347255 -172.031163 
L 136.168692 -171.668539 
L 135.997171 -171.305914 
L 135.836767 -170.94329 
L 135.692635 -170.580665 
L 135.569292 -170.218041 
L 135.469233 -169.855416 
L 135.392273 -169.492792 
L 135.335713 -169.130167 
L 135.295091 -168.767543 
L 135.265183 -168.404918 
L 135.240938 -168.042294 
L 135.218158 -167.679669 
L 135.193891 -167.317045 
L 135.166578 -166.95442 
L 135.135989 -166.591796 
L 135.103003 -166.229171 
L 135.069256 -165.866547 
L 135.036701 -165.503922 
L 135.007168 -165.141298 
L 134.982027 -164.778673 
L 134.96201 -164.416049 
L 134.947244 -164.053424 
L 134.937427 -163.6908 
L 134.932087 -163.328175 
L 134.930836 -162.965551 
L 134.933524 -162.602926 
L 134.940268 -162.240302 
L 134.951342 -161.877677 
L 134.966957 -161.515053 
L 134.986992 -161.152428 
L 135.010777 -160.789804 
L 135.036982 -160.427179 
L 135.063686 -160.064555 
L 135.088605 -159.70193 
L 135.109413 -159.339306 
L 135.12408 -158.976681 
L 135.131151 -158.614057 
L 135.129919 -158.251432 
L 135.120507 -157.888808 
L 135.103853 -157.526183 
L 135.081606 -157.163559 
L 135.05591 -156.800934 
L 135.029111 -156.43831 
L 135.003401 -156.075685 
L 134.980513 -155.713061 
L 134.961515 -155.350436 
L 134.946775 -154.987812 
L 134.936068 -154.625187 
z
" style="stroke: #303030; stroke-width: 1.5"/>
    </defs>
    <g clip-path="url(#p9331492d38)">
     <use xlink:href="#m43dfdbe549" x="0" y="216" style="fill: #337881; stroke: #303030; stroke-width: 1.5"/>
    </g>
   </g>
   <g id="FillBetweenPolyCollection_5">
    <defs>
     <path id="m823f092a0f" d="M 160.322968 -126.266704 
L 160.240668 -126.266704 
L 160.221954 -126.951667 
L 160.197328 -127.63663 
L 160.166066 -128.321593 
L 160.127794 -129.006557 
L 160.082624 -129.69152 
L 160.031258 -130.376483 
L 159.975016 -131.061447 
L 159.915778 -131.74641 
L 159.85583 -132.431373 
L 159.79762 -133.116336 
L 159.743458 -133.8013 
L 159.695193 -134.486263 
L 159.65393 -135.171226 
L 159.619832 -135.85619 
L 159.592044 -136.541153 
L 159.568785 -137.226116 
L 159.547584 -137.911079 
L 159.525646 -138.596043 
L 159.500278 -139.281006 
L 159.469296 -139.965969 
L 159.431328 -140.650933 
L 159.385957 -141.335896 
L 159.333671 -142.020859 
L 159.27565 -142.705822 
L 159.213458 -143.390786 
L 159.148737 -144.075749 
L 159.082978 -144.760712 
L 159.017436 -145.445676 
L 158.953201 -146.130639 
L 158.891358 -146.815602 
L 158.833181 -147.500565 
L 158.780242 -148.185529 
L 158.734376 -148.870492 
L 158.697441 -149.555455 
L 158.670922 -150.240419 
L 158.655413 -150.925382 
L 158.650089 -151.610345 
L 158.652284 -152.295308 
L 158.657244 -152.980272 
L 158.658134 -153.665235 
L 158.646293 -154.350198 
L 158.611741 -155.035162 
L 158.543867 -155.720125 
L 158.432242 -156.405088 
L 158.267512 -157.090051 
L 158.042273 -157.775015 
L 157.751878 -158.459978 
L 157.395098 -159.144941 
L 156.974539 -159.829905 
L 156.49674 -160.514868 
L 155.971909 -161.199831 
L 155.413274 -161.884794 
L 154.836103 -162.569758 
L 154.256525 -163.254721 
L 153.690277 -163.939684 
L 153.151562 -164.624648 
L 152.65214 -165.309611 
L 152.200725 -165.994574 
L 151.802707 -166.679537 
L 151.46016 -167.364501 
L 151.172078 -168.049464 
L 150.934781 -168.734427 
L 150.742499 -169.419391 
L 150.588112 -170.104354 
L 150.464064 -170.789317 
L 150.363419 -171.47428 
L 150.280981 -172.159244 
L 150.214311 -172.844207 
L 150.164479 -173.52917 
L 150.136364 -174.214134 
L 150.138386 -174.899097 
L 150.181644 -175.58406 
L 150.278553 -176.269023 
L 150.441162 -176.953987 
L 150.679412 -177.63895 
L 150.999601 -178.323913 
L 151.403283 -179.008877 
L 151.886775 -179.69384 
L 152.441307 -180.378803 
L 153.053774 -181.063766 
L 153.707927 -181.74873 
L 154.385803 -182.433693 
L 155.069168 -183.118656 
L 155.740795 -183.80362 
L 156.385447 -184.488583 
L 156.990529 -185.173546 
L 157.546411 -185.858509 
L 158.046504 -186.543473 
L 158.487133 -187.228436 
L 158.867293 -187.913399 
L 159.18831 -188.598363 
L 159.453446 -189.283326 
L 159.667461 -189.968289 
L 159.836149 -190.653252 
L 159.965868 -191.338216 
L 160.063105 -192.023179 
L 160.134099 -192.708142 
L 160.184546 -193.393106 
L 160.219413 -194.078069 
L 160.344224 -194.078069 
L 160.344224 -194.078069 
L 160.37909 -193.393106 
L 160.429538 -192.708142 
L 160.500531 -192.023179 
L 160.597768 -191.338216 
L 160.727487 -190.653252 
L 160.896175 -189.968289 
L 161.110191 -189.283326 
L 161.375327 -188.598363 
L 161.696343 -187.913399 
L 162.076503 -187.228436 
L 162.517133 -186.543473 
L 163.017225 -185.858509 
L 163.573107 -185.173546 
L 164.178189 -184.488583 
L 164.822842 -183.80362 
L 165.494469 -183.118656 
L 166.177834 -182.433693 
L 166.855709 -181.74873 
L 167.509862 -181.063766 
L 168.122329 -180.378803 
L 168.676861 -179.69384 
L 169.160353 -179.008877 
L 169.564036 -178.323913 
L 169.884224 -177.63895 
L 170.122475 -176.953987 
L 170.285084 -176.269023 
L 170.381992 -175.58406 
L 170.425251 -174.899097 
L 170.427273 -174.214134 
L 170.399158 -173.52917 
L 170.349325 -172.844207 
L 170.282655 -172.159244 
L 170.200217 -171.47428 
L 170.099573 -170.789317 
L 169.975524 -170.104354 
L 169.821137 -169.419391 
L 169.628856 -168.734427 
L 169.391559 -168.049464 
L 169.103476 -167.364501 
L 168.76093 -166.679537 
L 168.362912 -165.994574 
L 167.911496 -165.309611 
L 167.412074 -164.624648 
L 166.87336 -163.939684 
L 166.307112 -163.254721 
L 165.727534 -162.569758 
L 165.150363 -161.884794 
L 164.591727 -161.199831 
L 164.066896 -160.514868 
L 163.589098 -159.829905 
L 163.168538 -159.144941 
L 162.811759 -158.459978 
L 162.521364 -157.775015 
L 162.296124 -157.090051 
L 162.131394 -156.405088 
L 162.01977 -155.720125 
L 161.951895 -155.035162 
L 161.917344 -154.350198 
L 161.905503 -153.665235 
L 161.906392 -152.980272 
L 161.911352 -152.295308 
L 161.913547 -151.610345 
L 161.908224 -150.925382 
L 161.892714 -150.240419 
L 161.866196 -149.555455 
L 161.829261 -148.870492 
L 161.783394 -148.185529 
L 161.730456 -147.500565 
L 161.672278 -146.815602 
L 161.610435 -146.130639 
L 161.5462 -145.445676 
L 161.480659 -144.760712 
L 161.414899 -144.075749 
L 161.350178 -143.390786 
L 161.287987 -142.705822 
L 161.229965 -142.020859 
L 161.177679 -141.335896 
L 161.132309 -140.650933 
L 161.094341 -139.965969 
L 161.063358 -139.281006 
L 161.03799 -138.596043 
L 161.016052 -137.911079 
L 160.994851 -137.226116 
L 160.971592 -136.541153 
L 160.943805 -135.85619 
L 160.909706 -135.171226 
L 160.868444 -134.486263 
L 160.820178 -133.8013 
L 160.766016 -133.116336 
L 160.707806 -132.431373 
L 160.647858 -131.74641 
L 160.58862 -131.061447 
L 160.532378 -130.376483 
L 160.481012 -129.69152 
L 160.435842 -129.006557 
L 160.39757 -128.321593 
L 160.366308 -127.63663 
L 160.341682 -126.951667 
L 160.322968 -126.266704 
z
" style="stroke: #303030; stroke-width: 1.5"/>
    </defs>
    <g clip-path="url(#p9331492d38)">
     <use xlink:href="#m823f092a0f" x="0" y="216" style="fill: #2e8e7e; stroke: #303030; stroke-width: 1.5"/>
    </g>
   </g>
   <g id="FillBetweenPolyCollection_6">
    <defs>
     <path id="mb27f1d20cf" d="M 185.665925 -65.944393 
L 185.624985 -65.944393 
L 185.616971 -67.30186 
L 185.606889 -68.659327 
L 185.594612 -70.016795 
L 185.580135 -71.374262 
L 185.563579 -72.73173 
L 185.545164 -74.089197 
L 185.525153 -75.446664 
L 185.503749 -76.804132 
L 185.480972 -78.161599 
L 185.456528 -79.519067 
L 185.429696 -80.876534 
L 185.399259 -82.234001 
L 185.36351 -83.591469 
L 185.320328 -84.948936 
L 185.267342 -86.306404 
L 185.20215 -87.663871 
L 185.122558 -89.021338 
L 185.026815 -90.378806 
L 184.913791 -91.736273 
L 184.783072 -93.093741 
L 184.634967 -94.451208 
L 184.470414 -95.808676 
L 184.290812 -97.166143 
L 184.097813 -98.52361 
L 183.893096 -99.881078 
L 183.678173 -101.238545 
L 183.454253 -102.596013 
L 183.222199 -103.95348 
L 182.982586 -105.310947 
L 182.735885 -106.668415 
L 182.482739 -108.025882 
L 182.224312 -109.38335 
L 181.962653 -110.740817 
L 181.700985 -112.098284 
L 181.443837 -113.455752 
L 181.19693 -114.813219 
L 180.966779 -116.170687 
L 180.76001 -117.528154 
L 180.582462 -118.885621 
L 180.438222 -120.243089 
L 180.328754 -121.600556 
L 180.252302 -122.958024 
L 180.203718 -124.315491 
L 180.174767 -125.672958 
L 180.154909 -127.030426 
L 180.13244 -128.387893 
L 180.095833 -129.745361 
L 180.035074 -131.102828 
L 179.942813 -132.460295 
L 179.815157 -133.817763 
L 179.652036 -135.17523 
L 179.457082 -136.532698 
L 179.237077 -137.890165 
L 179.001036 -139.247632 
L 178.759058 -140.6051 
L 178.521087 -141.962567 
L 178.295746 -143.320035 
L 178.089378 -144.677502 
L 177.905419 -146.034969 
L 177.744172 -147.392437 
L 177.602977 -148.749904 
L 177.476748 -150.107372 
L 177.35877 -151.464839 
L 177.24164 -152.822307 
L 177.118227 -154.179774 
L 176.982558 -155.537241 
L 176.830573 -156.894709 
L 176.660729 -158.252176 
L 176.474452 -159.609644 
L 176.276446 -160.967111 
L 176.07483 -162.324578 
L 175.881062 -163.682046 
L 175.709578 -165.039513 
L 175.577067 -166.396981 
L 175.501366 -167.754448 
L 175.5 -169.111915 
L 175.588509 -170.469383 
L 175.778745 -171.82685 
L 176.077398 -173.184318 
L 176.484967 -174.541785 
L 176.995365 -175.899252 
L 177.596218 -177.25672 
L 178.269823 -178.614187 
L 178.994622 -179.971655 
L 179.746981 -181.329122 
L 180.503047 -182.686589 
L 181.240458 -184.044057 
L 181.939756 -185.401524 
L 182.585378 -186.758992 
L 183.16621 -188.116459 
L 183.675702 -189.473926 
L 184.111601 -190.831394 
L 184.475402 -192.188861 
L 184.771591 -193.546329 
L 185.006798 -194.903796 
L 185.188946 -196.261263 
L 185.326472 -197.618731 
L 185.427678 -198.976198 
L 185.500251 -200.333666 
L 185.790658 -200.333666 
L 185.790658 -200.333666 
L 185.863231 -198.976198 
L 185.964437 -197.618731 
L 186.101963 -196.261263 
L 186.284112 -194.903796 
L 186.519318 -193.546329 
L 186.815507 -192.188861 
L 187.179308 -190.831394 
L 187.615207 -189.473926 
L 188.124699 -188.116459 
L 188.705531 -186.758992 
L 189.351154 -185.401524 
L 190.050451 -184.044057 
L 190.787863 -182.686589 
L 191.543928 -181.329122 
L 192.296288 -179.971655 
L 193.021086 -178.614187 
L 193.694691 -177.25672 
L 194.295544 -175.899252 
L 194.805942 -174.541785 
L 195.213511 -173.184318 
L 195.512164 -171.82685 
L 195.7024 -170.469383 
L 195.790909 -169.111915 
L 195.789543 -167.754448 
L 195.713842 -166.396981 
L 195.581331 -165.039513 
L 195.409847 -163.682046 
L 195.216079 -162.324578 
L 195.014463 -160.967111 
L 194.816457 -159.609644 
L 194.63018 -158.252176 
L 194.460336 -156.894709 
L 194.308351 -155.537241 
L 194.172682 -154.179774 
L 194.049269 -152.822307 
L 193.932139 -151.464839 
L 193.814161 -150.107372 
L 193.687932 -148.749904 
L 193.546737 -147.392437 
L 193.38549 -146.034969 
L 193.201532 -144.677502 
L 192.995163 -143.320035 
L 192.769822 -141.962567 
L 192.531851 -140.6051 
L 192.289873 -139.247632 
L 192.053832 -137.890165 
L 191.833827 -136.532698 
L 191.638873 -135.17523 
L 191.475752 -133.817763 
L 191.348097 -132.460295 
L 191.255835 -131.102828 
L 191.195076 -129.745361 
L 191.158469 -128.387893 
L 191.136 -127.030426 
L 191.116142 -125.672958 
L 191.087191 -124.315491 
L 191.038607 -122.958024 
L 190.962155 -121.600556 
L 190.852687 -120.243089 
L 190.708447 -118.885621 
L 190.530899 -117.528154 
L 190.32413 -116.170687 
L 190.09398 -114.813219 
L 189.847072 -113.455752 
L 189.589924 -112.098284 
L 189.328256 -110.740817 
L 189.066597 -109.38335 
L 188.80817 -108.025882 
L 188.555024 -106.668415 
L 188.308323 -105.310947 
L 188.068711 -103.95348 
L 187.836656 -102.596013 
L 187.612736 -101.238545 
L 187.397813 -99.881078 
L 187.193096 -98.52361 
L 187.000097 -97.166143 
L 186.820495 -95.808676 
L 186.655942 -94.451208 
L 186.507837 -93.093741 
L 186.377118 -91.736273 
L 186.264094 -90.378806 
L 186.168351 -89.021338 
L 186.088759 -87.663871 
L 186.023567 -86.306404 
L 185.970581 -84.948936 
L 185.927399 -83.591469 
L 185.89165 -82.234001 
L 185.861213 -80.876534 
L 185.834381 -79.519067 
L 185.809937 -78.161599 
L 185.78716 -76.804132 
L 185.765756 -75.446664 
L 185.745745 -74.089197 
L 185.72733 -72.73173 
L 185.710774 -71.374262 
L 185.696297 -70.016795 
L 185.68402 -68.659327 
L 185.673938 -67.30186 
L 185.665925 -65.944393 
z
" style="stroke: #303030; stroke-width: 1.5"/>
    </defs>
    <g clip-path="url(#p9331492d38)">
     <use xlink:href="#mb27f1d20cf" x="0" y="216" style="fill: #45a778; stroke: #303030; stroke-width: 1.5"/>
    </g>
   </g>
   <g id="FillBetweenPolyCollection_7">
    <defs>
     <path id="m6da0071343" d="M 211.02342 -64.061591 
L 210.994762 -64.061591 
L 210.988083 -65.433222 
L 210.97951 -66.804853 
L 210.969085 -68.176484 
L 210.957116 -69.548115 
L 210.944207 -70.919746 
L 210.931222 -72.291377 
L 210.919181 -73.663008 
L 210.909081 -75.034639 
L 210.901681 -76.40627 
L 210.897298 -77.777901 
L 210.895655 -79.149532 
L 210.895842 -80.521164 
L 210.89639 -81.892795 
L 210.895475 -83.264426 
L 210.891199 -84.636057 
L 210.881895 -86.007688 
L 210.866405 -87.379319 
L 210.844272 -88.75095 
L 210.815794 -90.122581 
L 210.781958 -91.494212 
L 210.744239 -92.865843 
L 210.704319 -94.237474 
L 210.663774 -95.609105 
L 210.623767 -96.980736 
L 210.584809 -98.352367 
L 210.546618 -99.723998 
L 210.508086 -101.095629 
L 210.467394 -102.46726 
L 210.422256 -103.838892 
L 210.370298 -105.210523 
L 210.309526 -106.582154 
L 210.238803 -107.953785 
L 210.158231 -109.325416 
L 210.069309 -110.697047 
L 209.974784 -112.068678 
L 209.878189 -113.440309 
L 209.783143 -114.81194 
L 209.692598 -116.183571 
L 209.608243 -117.555202 
L 209.530227 -118.926833 
L 209.45729 -120.298464 
L 209.387236 -121.670095 
L 209.317586 -123.041726 
L 209.246209 -124.413357 
L 209.171732 -125.784988 
L 209.093665 -127.15662 
L 209.012235 -128.528251 
L 208.928046 -129.899882 
L 208.841697 -131.271513 
L 208.753471 -132.643144 
L 208.663151 -134.014775 
L 208.569989 -135.386406 
L 208.472776 -136.758037 
L 208.369999 -138.129668 
L 208.259985 -139.501299 
L 208.140995 -140.87293 
L 208.011153 -142.244561 
L 207.868145 -143.616192 
L 207.708691 -144.987823 
L 207.527881 -146.359454 
L 207.318639 -147.731085 
L 207.071627 -149.102716 
L 206.775907 -150.474348 
L 206.420508 -151.845979 
L 205.996778 -153.21761 
L 205.501106 -154.589241 
L 204.93739 -155.960872 
L 204.318579 -157.332503 
L 203.6668 -158.704134 
L 203.011899 -160.075765 
L 202.388621 -161.447396 
L 201.832986 -162.819027 
L 201.37858 -164.190658 
L 201.053425 -165.562289 
L 200.877872 -166.93392 
L 200.863636 -168.305551 
L 201.013808 -169.677182 
L 201.323491 -171.048813 
L 201.780721 -172.420444 
L 202.367433 -173.792076 
L 203.060418 -175.163707 
L 203.832393 -176.535338 
L 204.653324 -177.906969 
L 205.49211 -179.2786 
L 206.318574 -180.650231 
L 207.105554 -182.021862 
L 207.830773 -183.393493 
L 208.478176 -184.765124 
L 209.038515 -186.136755 
L 209.509116 -187.508386 
L 209.89295 -188.880017 
L 210.197244 -190.251648 
L 210.431915 -191.623279 
L 210.608097 -192.99491 
L 210.736937 -194.366541 
L 210.828742 -195.738172 
L 210.892485 -197.109804 
L 210.935597 -198.481435 
L 210.963984 -199.853066 
L 211.054198 -199.853066 
L 211.054198 -199.853066 
L 211.082585 -198.481435 
L 211.125697 -197.109804 
L 211.189439 -195.738172 
L 211.281245 -194.366541 
L 211.410085 -192.99491 
L 211.586267 -191.623279 
L 211.820938 -190.251648 
L 212.125231 -188.880017 
L 212.509066 -187.508386 
L 212.979667 -186.136755 
L 213.540006 -184.765124 
L 214.187409 -183.393493 
L 214.912628 -182.021862 
L 215.699608 -180.650231 
L 216.526072 -179.2786 
L 217.364858 -177.906969 
L 218.185789 -176.535338 
L 218.957764 -175.163707 
L 219.650749 -173.792076 
L 220.237461 -172.420444 
L 220.694691 -171.048813 
L 221.004374 -169.677182 
L 221.154545 -168.305551 
L 221.14031 -166.93392 
L 220.964757 -165.562289 
L 220.639602 -164.190658 
L 220.185196 -162.819027 
L 219.629561 -161.447396 
L 219.006283 -160.075765 
L 218.351382 -158.704134 
L 217.699603 -157.332503 
L 217.080792 -155.960872 
L 216.517076 -154.589241 
L 216.021404 -153.21761 
L 215.597674 -151.845979 
L 215.242275 -150.474348 
L 214.946555 -149.102716 
L 214.699543 -147.731085 
L 214.490301 -146.359454 
L 214.309491 -144.987823 
L 214.150037 -143.616192 
L 214.007029 -142.244561 
L 213.877187 -140.87293 
L 213.758197 -139.501299 
L 213.648183 -138.129668 
L 213.545405 -136.758037 
L 213.448193 -135.386406 
L 213.355031 -134.014775 
L 213.264711 -132.643144 
L 213.176485 -131.271513 
L 213.090136 -129.899882 
L 213.005947 -128.528251 
L 212.924517 -127.15662 
L 212.84645 -125.784988 
L 212.771973 -124.413357 
L 212.700596 -123.041726 
L 212.630946 -121.670095 
L 212.560892 -120.298464 
L 212.487955 -118.926833 
L 212.409939 -117.555202 
L 212.325584 -116.183571 
L 212.235039 -114.81194 
L 212.139993 -113.440309 
L 212.043398 -112.068678 
L 211.948873 -110.697047 
L 211.859951 -109.325416 
L 211.779379 -107.953785 
L 211.708656 -106.582154 
L 211.647883 -105.210523 
L 211.595926 -103.838892 
L 211.550788 -102.46726 
L 211.510096 -101.095629 
L 211.471564 -99.723998 
L 211.433373 -98.352367 
L 211.394415 -96.980736 
L 211.354408 -95.609105 
L 211.313863 -94.237474 
L 211.273943 -92.865843 
L 211.236224 -91.494212 
L 211.202387 -90.122581 
L 211.17391 -88.75095 
L 211.151776 -87.379319 
L 211.136287 -86.007688 
L 211.126983 -84.636057 
L 211.122706 -83.264426 
L 211.121792 -81.892795 
L 211.12234 -80.521164 
L 211.122526 -79.149532 
L 211.120884 -77.777901 
L 211.1165 -76.40627 
L 211.109101 -75.034639 
L 211.099001 -73.663008 
L 211.08696 -72.291377 
L 211.073975 -70.919746 
L 211.061065 -69.548115 
L 211.049096 -68.176484 
L 211.038672 -66.804853 
L 211.030099 -65.433222 
L 211.02342 -64.061591 
z
" style="stroke: #303030; stroke-width: 1.5"/>
    </defs>
    <g clip-path="url(#p9331492d38)">
     <use xlink:href="#m6da0071343" x="0" y="216" style="fill: #77bf67; stroke: #303030; stroke-width: 1.5"/>
    </g>
   </g>
   <g id="FillBetweenPolyCollection_8">
    <defs>
     <path id="meda61e8a57" d="M 236.397849 -57.296731 
L 236.347606 -57.296731 
L 236.337164 -58.784299 
L 236.323611 -60.271867 
L 236.306524 -61.759435 
L 236.285602 -63.247003 
L 236.260717 -64.734571 
L 236.231952 -66.222139 
L 236.199612 -67.709707 
L 236.164195 -69.197275 
L 236.126323 -70.684843 
L 236.086635 -72.172411 
L 236.045652 -73.659979 
L 236.003646 -75.147547 
L 235.960527 -76.635115 
L 235.91578 -78.122683 
L 235.868471 -79.610251 
L 235.817331 -81.097819 
L 235.760905 -82.585387 
L 235.697767 -84.072955 
L 235.626743 -85.560523 
L 235.54714 -87.048091 
L 235.458933 -88.535659 
L 235.362887 -90.023227 
L 235.260606 -91.510794 
L 235.154498 -92.998362 
L 235.047651 -94.48593 
L 234.943635 -95.973498 
L 234.846247 -97.461066 
L 234.759189 -98.948634 
L 234.685741 -100.436202 
L 234.628421 -101.92377 
L 234.588697 -103.411338 
L 234.566778 -104.898906 
L 234.561522 -106.386474 
L 234.570497 -107.874042 
L 234.590192 -109.36161 
L 234.61637 -110.849178 
L 234.644512 -112.336746 
L 234.670305 -113.824314 
L 234.690072 -115.311882 
L 234.701105 -116.79945 
L 234.70182 -118.287018 
L 234.691724 -119.774586 
L 234.671204 -121.262154 
L 234.641177 -122.749722 
L 234.602677 -124.23729 
L 234.556471 -125.724858 
L 234.502768 -127.212426 
L 234.441093 -128.699994 
L 234.370334 -130.187562 
L 234.288957 -131.67513 
L 234.195314 -133.162698 
L 234.087981 -134.650266 
L 233.966029 -136.137834 
L 233.829152 -137.625402 
L 233.677626 -139.112969 
L 233.512069 -140.600537 
L 233.333078 -142.088105 
L 233.140794 -143.575673 
L 232.934493 -145.063241 
L 232.712301 -146.550809 
L 232.471108 -148.038377 
L 232.206714 -149.525945 
L 231.914221 -151.013513 
L 231.588653 -152.501081 
L 231.225723 -153.988649 
L 230.822713 -155.476217 
L 230.379338 -156.963785 
L 229.898545 -158.451353 
L 229.387131 -159.938921 
L 228.856112 -161.426489 
L 228.320748 -162.914057 
L 227.800183 -164.401625 
L 227.316648 -165.889193 
L 226.894229 -167.376761 
L 226.557281 -168.864329 
L 226.328558 -170.351897 
L 226.227273 -171.839465 
L 226.267259 -173.327033 
L 226.455471 -174.814601 
L 226.79103 -176.302169 
L 227.264945 -177.789737 
L 227.860601 -179.277305 
L 228.554962 -180.764873 
L 229.320374 -182.252441 
L 230.126747 -183.740009 
L 230.943883 -185.227577 
L 231.74365 -186.715144 
L 232.50181 -188.202712 
L 233.199302 -189.69028 
L 233.822908 -191.177848 
L 234.365318 -192.665416 
L 234.824648 -194.152984 
L 235.203571 -195.640552 
L 235.508219 -197.12812 
L 235.747003 -198.615688 
L 235.929509 -200.103256 
L 236.065557 -201.590824 
L 236.16448 -203.078392 
L 236.234648 -204.56596 
L 236.510807 -204.56596 
L 236.510807 -204.56596 
L 236.580975 -203.078392 
L 236.679898 -201.590824 
L 236.815946 -200.103256 
L 236.998451 -198.615688 
L 237.237235 -197.12812 
L 237.541883 -195.640552 
L 237.920807 -194.152984 
L 238.380136 -192.665416 
L 238.922546 -191.177848 
L 239.546153 -189.69028 
L 240.243644 -188.202712 
L 241.001804 -186.715144 
L 241.801572 -185.227577 
L 242.618707 -183.740009 
L 243.425081 -182.252441 
L 244.190492 -180.764873 
L 244.884853 -179.277305 
L 245.48051 -177.789737 
L 245.954425 -176.302169 
L 246.289983 -174.814601 
L 246.478196 -173.327033 
L 246.518182 -171.839465 
L 246.416897 -170.351897 
L 246.188174 -168.864329 
L 245.851225 -167.376761 
L 245.428807 -165.889193 
L 244.945271 -164.401625 
L 244.424707 -162.914057 
L 243.889343 -161.426489 
L 243.358323 -159.938921 
L 242.84691 -158.451353 
L 242.366117 -156.963785 
L 241.922742 -155.476217 
L 241.519731 -153.988649 
L 241.156802 -152.501081 
L 240.831233 -151.013513 
L 240.538741 -149.525945 
L 240.274346 -148.038377 
L 240.033154 -146.550809 
L 239.810962 -145.063241 
L 239.60466 -143.575673 
L 239.412376 -142.088105 
L 239.233386 -140.600537 
L 239.067829 -139.112969 
L 238.916302 -137.625402 
L 238.779426 -136.137834 
L 238.657473 -134.650266 
L 238.55014 -133.162698 
L 238.456497 -131.67513 
L 238.37512 -130.187562 
L 238.304362 -128.699994 
L 238.242687 -127.212426 
L 238.188984 -125.724858 
L 238.142777 -124.23729 
L 238.104278 -122.749722 
L 238.07425 -121.262154 
L 238.05373 -119.774586 
L 238.043635 -118.287018 
L 238.044349 -116.79945 
L 238.055382 -115.311882 
L 238.07515 -113.824314 
L 238.100942 -112.336746 
L 238.129085 -110.849178 
L 238.155262 -109.36161 
L 238.174957 -107.874042 
L 238.183932 -106.386474 
L 238.178676 -104.898906 
L 238.156757 -103.411338 
L 238.117033 -101.92377 
L 238.059713 -100.436202 
L 237.986265 -98.948634 
L 237.899208 -97.461066 
L 237.801819 -95.973498 
L 237.697804 -94.48593 
L 237.590956 -92.998362 
L 237.484848 -91.510794 
L 237.382568 -90.023227 
L 237.286522 -88.535659 
L 237.198314 -87.048091 
L 237.118712 -85.560523 
L 237.047687 -84.072955 
L 236.984549 -82.585387 
L 236.928124 -81.097819 
L 236.876983 -79.610251 
L 236.829674 -78.122683 
L 236.784927 -76.635115 
L 236.741808 -75.147547 
L 236.699803 -73.659979 
L 236.65882 -72.172411 
L 236.619131 -70.684843 
L 236.581259 -69.197275 
L 236.545842 -67.709707 
L 236.513502 -66.222139 
L 236.484738 -64.734571 
L 236.459853 -63.247003 
L 236.438931 -61.759435 
L 236.421844 -60.271867 
L 236.40829 -58.784299 
L 236.397849 -57.296731 
z
" style="stroke: #303030; stroke-width: 1.5"/>
    </defs>
    <g clip-path="url(#p9331492d38)">
     <use xlink:href="#meda61e8a57" x="0" y="216" style="fill: #a9c741; stroke: #303030; stroke-width: 1.5"/>
    </g>
   </g>
   <g id="line2d_7">
    <path d="M 51.699125 50.796224 
L 65.955421 50.796224 
" clip-path="url(#p9331492d38)" style="fill: none; stroke-dasharray: 1.875,1.125; stroke-dashoffset: 0; stroke: #303030; stroke-width: 1.5"/>
   </g>
   <g id="line2d_8">
    <path d="M 48.837715 45.851492 
L 68.81683 45.851492 
" clip-path="url(#p9331492d38)" style="fill: none; stroke-dasharray: 3.75,1.5; stroke-dashoffset: 0; stroke: #303030; stroke-width: 1.5"/>
   </g>
   <g id="line2d_9">
    <path d="M 49.363048 42.171261 
L 68.291497 42.171261 
" clip-path="url(#p9331492d38)" style="fill: none; stroke-dasharray: 1.875,1.125; stroke-dashoffset: 0; stroke: #303030; stroke-width: 1.5"/>
   </g>
   <g id="line2d_10">
    <path d="M 76.64983 62.911993 
L 91.731988 62.911993 
" clip-path="url(#p9331492d38)" style="fill: none; stroke-dasharray: 1.875,1.125; stroke-dashoffset: 0; stroke: #303030; stroke-width: 1.5"/>
   </g>
   <g id="line2d_11">
    <path d="M 78.692471 45.269355 
L 89.689347 45.269355 
" clip-path="url(#p9331492d38)" style="fill: none; stroke-dasharray: 3.75,1.5; stroke-dashoffset: 0; stroke: #303030; stroke-width: 1.5"/>
   </g>
   <g id="line2d_12">
    <path d="M 74.049453 36.196079 
L 94.332365 36.196079 
" clip-path="url(#p9331492d38)" style="fill: none; stroke-dasharray: 1.875,1.125; stroke-dashoffset: 0; stroke: #303030; stroke-width: 1.5"/>
   </g>
   <g id="line2d_13">
    <path d="M 104.266129 48.505057 
L 114.842962 48.505057 
" clip-path="url(#p9331492d38)" style="fill: none; stroke-dasharray: 1.875,1.125; stroke-dashoffset: 0; stroke: #303030; stroke-width: 1.5"/>
   </g>
   <g id="line2d_14">
    <path d="M 100.577511 40.764412 
L 118.531579 40.764412 
" clip-path="url(#p9331492d38)" style="fill: none; stroke-dasharray: 3.75,1.5; stroke-dashoffset: 0; stroke: #303030; stroke-width: 1.5"/>
   </g>
   <g id="line2d_15">
    <path d="M 99.637422 36.478687 
L 119.471669 36.478687 
" clip-path="url(#p9331492d38)" style="fill: none; stroke-dasharray: 1.875,1.125; stroke-dashoffset: 0; stroke: #303030; stroke-width: 1.5"/>
   </g>
   <g id="line2d_16">
    <path d="M 128.816546 38.069333 
L 141.019818 38.069333 
" clip-path="url(#p9331492d38)" style="fill: none; stroke-dasharray: 1.875,1.125; stroke-dashoffset: 0; stroke: #303030; stroke-width: 1.5"/>
   </g>
   <g id="line2d_17">
    <path d="M 125.487143 35.08687 
L 144.34922 35.08687 
" clip-path="url(#p9331492d38)" style="fill: none; stroke-dasharray: 3.75,1.5; stroke-dashoffset: 0; stroke: #303030; stroke-width: 1.5"/>
   </g>
   <g id="line2d_18">
    <path d="M 125.19124 32.874062 
L 144.645123 32.874062 
" clip-path="url(#p9331492d38)" style="fill: none; stroke-dasharray: 1.875,1.125; stroke-dashoffset: 0; stroke: #303030; stroke-width: 1.5"/>
   </g>
   <g id="line2d_19">
    <path d="M 152.661176 50.702781 
L 167.902461 50.702781 
" clip-path="url(#p9331492d38)" style="fill: none; stroke-dasharray: 1.875,1.125; stroke-dashoffset: 0; stroke: #303030; stroke-width: 1.5"/>
   </g>
   <g id="line2d_20">
    <path d="M 150.418415 44.900008 
L 170.145221 44.900008 
" clip-path="url(#p9331492d38)" style="fill: none; stroke-dasharray: 3.75,1.5; stroke-dashoffset: 0; stroke: #303030; stroke-width: 1.5"/>
   </g>
   <g id="line2d_21">
    <path d="M 150.642072 38.468401 
L 169.921564 38.468401 
" clip-path="url(#p9331492d38)" style="fill: none; stroke-dasharray: 1.875,1.125; stroke-dashoffset: 0; stroke: #303030; stroke-width: 1.5"/>
   </g>
   <g id="line2d_22">
    <path d="M 179.952204 83.677884 
L 191.338705 83.677884 
" clip-path="url(#p9331492d38)" style="fill: none; stroke-dasharray: 1.875,1.125; stroke-dashoffset: 0; stroke: #303030; stroke-width: 1.5"/>
   </g>
   <g id="line2d_23">
    <path d="M 177.265277 63.451633 
L 194.025632 63.451633 
" clip-path="url(#p9331492d38)" style="fill: none; stroke-dasharray: 3.75,1.5; stroke-dashoffset: 0; stroke: #303030; stroke-width: 1.5"/>
   </g>
   <g id="line2d_24">
    <path d="M 175.509578 46.741189 
L 195.781331 46.741189 
" clip-path="url(#p9331492d38)" style="fill: none; stroke-dasharray: 1.875,1.125; stroke-dashoffset: 0; stroke: #303030; stroke-width: 1.5"/>
   </g>
   <g id="line2d_25">
    <path d="M 207.353152 68.495157 
L 214.66503 68.495157 
" clip-path="url(#p9331492d38)" style="fill: none; stroke-dasharray: 1.875,1.125; stroke-dashoffset: 0; stroke: #303030; stroke-width: 1.5"/>
   </g>
   <g id="line2d_26">
    <path d="M 201.517505 52.228688 
L 220.500677 52.228688 
" clip-path="url(#p9331492d38)" style="fill: none; stroke-dasharray: 3.75,1.5; stroke-dashoffset: 0; stroke: #303030; stroke-width: 1.5"/>
   </g>
   <g id="line2d_27">
    <path d="M 201.455453 44.555316 
L 220.562728 44.555316 
" clip-path="url(#p9331492d38)" style="fill: none; stroke-dasharray: 1.875,1.125; stroke-dashoffset: 0; stroke: #303030; stroke-width: 1.5"/>
   </g>
   <g id="line2d_28">
    <path d="M 233.068532 71.90327 
L 239.676922 71.90327 
" clip-path="url(#p9331492d38)" style="fill: none; stroke-dasharray: 1.875,1.125; stroke-dashoffset: 0; stroke: #303030; stroke-width: 1.5"/>
   </g>
   <g id="line2d_29">
    <path d="M 227.056969 49.196336 
L 245.688485 49.196336 
" clip-path="url(#p9331492d38)" style="fill: none; stroke-dasharray: 3.75,1.5; stroke-dashoffset: 0; stroke: #303030; stroke-width: 1.5"/>
   </g>
   <g id="line2d_30">
    <path d="M 226.430157 41.385478 
L 246.315298 41.385478 
" clip-path="url(#p9331492d38)" style="fill: none; stroke-dasharray: 1.875,1.125; stroke-dashoffset: 0; stroke: #303030; stroke-width: 1.5"/>
   </g>
   <g id="LineCollection_1">
    <path d="M 46.145455 99.650505 
L 249.054545 99.650505 
" clip-path="url(#p9331492d38)" style="fill: none; stroke-dasharray: 5.55,2.4; stroke-dashoffset: 0; stroke: #ff0000; stroke-width: 1.5"/>
   </g>
   <g id="patch_3">
    <path d="M 36 192.24 
L 36 25.92 
" style="fill: none; stroke: #cccccc; stroke-width: 1.25; stroke-linejoin: miter; stroke-linecap: square"/>
   </g>
   <g id="patch_4">
    <path d="M 259.2 192.24 
L 259.2 25.92 
" style="fill: none; stroke: #cccccc; stroke-width: 1.25; stroke-linejoin: miter; stroke-linecap: square"/>
   </g>
   <g id="patch_5">
    <path d="M 36 192.24 
L 259.2 192.24 
" style="fill: none; stroke: #cccccc; stroke-width: 1.25; stroke-linejoin: miter; stroke-linecap: square"/>
   </g>
   <g id="patch_6">
    <path d="M 36 25.92 
L 259.2 25.92 
" style="fill: none; stroke: #cccccc; stroke-width: 1.25; stroke-linejoin: miter; stroke-linecap: square"/>
   </g>
   <g id="text_17">
    <!-- Pair-wise corr -->
    <g style="fill: #262626" transform="translate(100.890312 19.92) scale(0.14 -0.14)">
     <defs>
      <path id="DejaVuSans-50" d="M 1259 4147 
L 1259 2394 
L 2053 2394 
Q 2494 2394 2734 2622 
Q 2975 2850 2975 3272 
Q 2975 3691 2734 3919 
Q 2494 4147 2053 4147 
L 1259 4147 
z
M 628 4666 
L 2053 4666 
Q 2838 4666 3239 4311 
Q 3641 3956 3641 3272 
Q 3641 2581 3239 2228 
Q 2838 1875 2053 1875 
L 1259 1875 
L 1259 0 
L 628 0 
L 628 4666 
z
" transform="scale(0.015625)"/>
      <path id="DejaVuSans-69" d="M 603 3500 
L 1178 3500 
L 1178 0 
L 603 0 
L 603 3500 
z
M 603 4863 
L 1178 4863 
L 1178 4134 
L 603 4134 
L 603 4863 
z
" transform="scale(0.015625)"/>
      <path id="DejaVuSans-2d" d="M 313 2009 
L 1997 2009 
L 1997 1497 
L 313 1497 
L 313 2009 
z
" transform="scale(0.015625)"/>
      <path id="DejaVuSans-77" d="M 269 3500 
L 844 3500 
L 1563 769 
L 2278 3500 
L 2956 3500 
L 3675 769 
L 4391 3500 
L 4966 3500 
L 4050 0 
L 3372 0 
L 2619 2869 
L 1863 0 
L 1184 0 
L 269 3500 
z
" transform="scale(0.015625)"/>
      <path id="DejaVuSans-73" d="M 2834 3397 
L 2834 2853 
Q 2591 2978 2328 3040 
Q 2066 3103 1784 3103 
Q 1356 3103 1142 2972 
Q 928 2841 928 2578 
Q 928 2378 1081 2264 
Q 1234 2150 1697 2047 
L 1894 2003 
Q 2506 1872 2764 1633 
Q 3022 1394 3022 966 
Q 3022 478 2636 193 
Q 2250 -91 1575 -91 
Q 1294 -91 989 -36 
Q 684 19 347 128 
L 347 722 
Q 666 556 975 473 
Q 1284 391 1588 391 
Q 1994 391 2212 530 
Q 2431 669 2431 922 
Q 2431 1156 2273 1281 
Q 2116 1406 1581 1522 
L 1381 1569 
Q 847 1681 609 1914 
Q 372 2147 372 2553 
Q 372 3047 722 3315 
Q 1072 3584 1716 3584 
Q 2034 3584 2315 3537 
Q 2597 3491 2834 3397 
z
" transform="scale(0.015625)"/>
     </defs>
     <use xlink:href="#DejaVuSans-50"/>
     <use xlink:href="#DejaVuSans-61" transform="translate(55.802734 0)"/>
     <use xlink:href="#DejaVuSans-69" transform="translate(117.082031 0)"/>
     <use xlink:href="#DejaVuSans-72" transform="translate(144.865234 0)"/>
     <use xlink:href="#DejaVuSans-2d" transform="translate(179.603516 0)"/>
     <use xlink:href="#DejaVuSans-77" transform="translate(215.6875 0)"/>
     <use xlink:href="#DejaVuSans-69" transform="translate(297.474609 0)"/>
     <use xlink:href="#DejaVuSans-73" transform="translate(325.257812 0)"/>
     <use xlink:href="#DejaVuSans-65" transform="translate(377.357422 0)"/>
     <use xlink:href="#DejaVuSans-20" transform="translate(438.880859 0)"/>
     <use xlink:href="#DejaVuSans-63" transform="translate(470.667969 0)"/>
     <use xlink:href="#DejaVuSans-6f" transform="translate(525.648438 0)"/>
     <use xlink:href="#DejaVuSans-72" transform="translate(586.830078 0)"/>
     <use xlink:href="#DejaVuSans-72" transform="translate(626.193359 0)"/>
    </g>
   </g>
  </g>
 </g>
 <defs>
  <clipPath id="p9331492d38">
   <rect x="36" y="25.92" width="223.2" height="166.32"/>
  </clipPath>
 </defs>
</svg>
