<?xml version="1.0" encoding="utf-8" standalone="no"?>
<!DOCTYPE svg PUBLIC "-//W3C//DTD SVG 1.1//EN"
  "http://www.w3.org/Graphics/SVG/1.1/DTD/svg11.dtd">
<svg xmlns:xlink="http://www.w3.org/1999/xlink" width="288pt" height="216pt" viewBox="0 0 288 216" xmlns="http://www.w3.org/2000/svg" version="1.1">
 <metadata>
  <rdf:RDF xmlns:dc="http://purl.org/dc/elements/1.1/" xmlns:cc="http://creativecommons.org/ns#" xmlns:rdf="http://www.w3.org/1999/02/22-rdf-syntax-ns#">
   <cc:Work>
    <dc:type rdf:resource="http://purl.org/dc/dcmitype/StillImage"/>
    <dc:date>2025-11-25T15:44:12.456526</dc:date>
    <dc:format>image/svg+xml</dc:format>
    <dc:creator>
     <cc:Agent>
      <dc:title>Matplotlib v3.10.0, https://matplotlib.org/</dc:title>
     </cc:Agent>
    </dc:creator>
   </cc:Work>
  </rdf:RDF>
 </metadata>
 <defs>
  <style type="text/css">*{stroke-linejoin: round; stroke-linecap: butt}</style>
 </defs>
 <g id="figure_1">
  <g id="patch_1">
   <path d="M 0 216 
L 288 216 
L 288 0 
L 0 0 
z
" style="fill: #ffffff"/>
  </g>
  <g id="axes_1">
   <g id="patch_2">
    <path d="M 36 192.24 
L 259.2 192.24 
L 259.2 25.92 
L 36 25.92 
z
" style="fill: #ffffff"/>
   </g>
   <g id="matplotlib.axis_1">
    <g id="xtick_1">
     <g id="text_1">
      <!-- D01 -->
      <g style="fill: #262626" transform="translate(86.660227 209.338437) scale(0.1 -0.1)">
       <defs>
        <path id="DejaVuSans-44" d="M 1259 4147 
L 1259 519 
L 2022 519 
Q 2988 519 3436 956 
Q 3884 1394 3884 2338 
Q 3884 3275 3436 3711 
Q 2988 4147 2022 4147 
L 1259 4147 
z
M 628 4666 
L 1925 4666 
Q 3281 4666 3915 4102 
Q 4550 3538 4550 2338 
Q 4550 1131 3912 565 
Q 3275 0 1925 0 
L 628 0 
L 628 4666 
z
" transform="scale(0.015625)"/>
        <path id="DejaVuSans-30" d="M 2034 4250 
Q 1547 4250 1301 3770 
Q 1056 3291 1056 2328 
Q 1056 1369 1301 889 
Q 1547 409 2034 409 
Q 2525 409 2770 889 
Q 3016 1369 3016 2328 
Q 3016 3291 2770 3770 
Q 2525 4250 2034 4250 
z
M 2034 4750 
Q 2819 4750 3233 4129 
Q 3647 3509 3647 2328 
Q 3647 1150 3233 529 
Q 2819 -91 2034 -91 
Q 1250 -91 836 529 
Q 422 1150 422 2328 
Q 422 3509 836 4129 
Q 1250 4750 2034 4750 
z
" transform="scale(0.015625)"/>
        <path id="DejaVuSans-31" d="M 794 531 
L 1825 531 
L 1825 4091 
L 703 3866 
L 703 4441 
L 1819 4666 
L 2450 4666 
L 2450 531 
L 3481 531 
L 3481 0 
L 794 0 
L 794 531 
z
" transform="scale(0.015625)"/>
       </defs>
       <use xlink:href="#DejaVuSans-44"/>
       <use xlink:href="#DejaVuSans-30" transform="translate(77.001953 0)"/>
       <use xlink:href="#DejaVuSans-31" transform="translate(140.625 0)"/>
      </g>
     </g>
    </g>
    <g id="xtick_2">
     <g id="text_2">
      <!-- D08 -->
      <g style="fill: #262626" transform="translate(188.114773 209.338437) scale(0.1 -0.1)">
       <defs>
        <path id="DejaVuSans-38" d="M 2034 2216 
Q 1584 2216 1326 1975 
Q 1069 1734 1069 1313 
Q 1069 891 1326 650 
Q 1584 409 2034 409 
Q 2484 409 2743 651 
Q 3003 894 3003 1313 
Q 3003 1734 2745 1975 
Q 2488 2216 2034 2216 
z
M 1403 2484 
Q 997 2584 770 2862 
Q 544 3141 544 3541 
Q 544 4100 942 4425 
Q 1341 4750 2034 4750 
Q 2731 4750 3128 4425 
Q 3525 4100 3525 3541 
Q 3525 3141 3298 2862 
Q 3072 2584 2669 2484 
Q 3125 2378 3379 2068 
Q 3634 1759 3634 1313 
Q 3634 634 3220 271 
Q 2806 -91 2034 -91 
Q 1263 -91 848 271 
Q 434 634 434 1313 
Q 434 1759 690 2068 
Q 947 2378 1403 2484 
z
M 1172 3481 
Q 1172 3119 1398 2916 
Q 1625 2713 2034 2713 
Q 2441 2713 2670 2916 
Q 2900 3119 2900 3481 
Q 2900 3844 2670 4047 
Q 2441 4250 2034 4250 
Q 1625 4250 1398 4047 
Q 1172 3844 1172 3481 
z
" transform="scale(0.015625)"/>
       </defs>
       <use xlink:href="#DejaVuSans-44"/>
       <use xlink:href="#DejaVuSans-30" transform="translate(77.001953 0)"/>
       <use xlink:href="#DejaVuSans-38" transform="translate(140.625 0)"/>
      </g>
     </g>
    </g>
    <g id="text_3">
     <!-- Day -->
     <g style="fill: #262626" transform="translate(135.751875 224.53625) scale(0.12 -0.12)">
      <defs>
       <path id="DejaVuSans-61" d="M 2194 1759 
Q 1497 1759 1228 1600 
Q 959 1441 959 1056 
Q 959 750 1161 570 
Q 1363 391 1709 391 
Q 2188 391 2477 730 
Q 2766 1069 2766 1631 
L 2766 1759 
L 2194 1759 
z
M 3341 1997 
L 3341 0 
L 2766 0 
L 2766 531 
Q 2569 213 2275 61 
Q 1981 -91 1556 -91 
Q 1019 -91 701 211 
Q 384 513 384 1019 
Q 384 1609 779 1909 
Q 1175 2209 1959 2209 
L 2766 2209 
L 2766 2266 
Q 2766 2663 2505 2880 
Q 2244 3097 1772 3097 
Q 1472 3097 1187 3025 
Q 903 2953 641 2809 
L 641 3341 
Q 956 3463 1253 3523 
Q 1550 3584 1831 3584 
Q 2591 3584 2966 3190 
Q 3341 2797 3341 1997 
z
" transform="scale(0.015625)"/>
       <path id="DejaVuSans-79" d="M 2059 -325 
Q 1816 -950 1584 -1140 
Q 1353 -1331 966 -1331 
L 506 -1331 
L 506 -850 
L 844 -850 
Q 1081 -850 1212 -737 
Q 1344 -625 1503 -206 
L 1606 56 
L 191 3500 
L 800 3500 
L 1894 763 
L 2988 3500 
L 3597 3500 
L 2059 -325 
z
" transform="scale(0.015625)"/>
      </defs>
      <use xlink:href="#DejaVuSans-44"/>
      <use xlink:href="#DejaVuSans-61" transform="translate(77.001953 0)"/>
      <use xlink:href="#DejaVuSans-79" transform="translate(138.28125 0)"/>
     </g>
    </g>
   </g>
   <g id="matplotlib.axis_2">
    <g id="ytick_1">
     <g id="line2d_1">
      <path d="M 36 192.24 
L 259.2 192.24 
" clip-path="url(#p5a4f310fcc)" style="fill: none; stroke: #cccccc; stroke-linecap: round"/>
     </g>
     <g id="text_4">
      <!-- 0.0 -->
      <g style="fill: #262626" transform="translate(10.596875 196.039219) scale(0.1 -0.1)">
       <defs>
        <path id="DejaVuSans-2e" d="M 684 794 
L 1344 794 
L 1344 0 
L 684 0 
L 684 794 
z
" transform="scale(0.015625)"/>
       </defs>
       <use xlink:href="#DejaVuSans-30"/>
       <use xlink:href="#DejaVuSans-2e" transform="translate(63.623047 0)"/>
       <use xlink:href="#DejaVuSans-30" transform="translate(95.410156 0)"/>
      </g>
     </g>
    </g>
    <g id="ytick_2">
     <g id="line2d_2">
      <path d="M 36 158.976 
L 259.2 158.976 
" clip-path="url(#p5a4f310fcc)" style="fill: none; stroke: #cccccc; stroke-linecap: round"/>
     </g>
     <g id="text_5">
      <!-- 0.2 -->
      <g style="fill: #262626" transform="translate(10.596875 162.775219) scale(0.1 -0.1)">
       <defs>
        <path id="DejaVuSans-32" d="M 1228 531 
L 3431 531 
L 3431 0 
L 469 0 
L 469 531 
Q 828 903 1448 1529 
Q 2069 2156 2228 2338 
Q 2531 2678 2651 2914 
Q 2772 3150 2772 3378 
Q 2772 3750 2511 3984 
Q 2250 4219 1831 4219 
Q 1534 4219 1204 4116 
Q 875 4013 500 3803 
L 500 4441 
Q 881 4594 1212 4672 
Q 1544 4750 1819 4750 
Q 2544 4750 2975 4387 
Q 3406 4025 3406 3419 
Q 3406 3131 3298 2873 
Q 3191 2616 2906 2266 
Q 2828 2175 2409 1742 
Q 1991 1309 1228 531 
z
" transform="scale(0.015625)"/>
       </defs>
       <use xlink:href="#DejaVuSans-30"/>
       <use xlink:href="#DejaVuSans-2e" transform="translate(63.623047 0)"/>
       <use xlink:href="#DejaVuSans-32" transform="translate(95.410156 0)"/>
      </g>
     </g>
    </g>
    <g id="ytick_3">
     <g id="line2d_3">
      <path d="M 36 125.712 
L 259.2 125.712 
" clip-path="url(#p5a4f310fcc)" style="fill: none; stroke: #cccccc; stroke-linecap: round"/>
     </g>
     <g id="text_6">
      <!-- 0.4 -->
      <g style="fill: #262626" transform="translate(10.596875 129.511219) scale(0.1 -0.1)">
       <defs>
        <path id="DejaVuSans-34" d="M 2419 4116 
L 825 1625 
L 2419 1625 
L 2419 4116 
z
M 2253 4666 
L 3047 4666 
L 3047 1625 
L 3713 1625 
L 3713 1100 
L 3047 1100 
L 3047 0 
L 2419 0 
L 2419 1100 
L 313 1100 
L 313 1709 
L 2253 4666 
z
" transform="scale(0.015625)"/>
       </defs>
       <use xlink:href="#DejaVuSans-30"/>
       <use xlink:href="#DejaVuSans-2e" transform="translate(63.623047 0)"/>
       <use xlink:href="#DejaVuSans-34" transform="translate(95.410156 0)"/>
      </g>
     </g>
    </g>
    <g id="ytick_4">
     <g id="line2d_4">
      <path d="M 36 92.448 
L 259.2 92.448 
" clip-path="url(#p5a4f310fcc)" style="fill: none; stroke: #cccccc; stroke-linecap: round"/>
     </g>
     <g id="text_7">
      <!-- 0.6 -->
      <g style="fill: #262626" transform="translate(10.596875 96.247219) scale(0.1 -0.1)">
       <defs>
        <path id="DejaVuSans-36" d="M 2113 2584 
Q 1688 2584 1439 2293 
Q 1191 2003 1191 1497 
Q 1191 994 1439 701 
Q 1688 409 2113 409 
Q 2538 409 2786 701 
Q 3034 994 3034 1497 
Q 3034 2003 2786 2293 
Q 2538 2584 2113 2584 
z
M 3366 4563 
L 3366 3988 
Q 3128 4100 2886 4159 
Q 2644 4219 2406 4219 
Q 1781 4219 1451 3797 
Q 1122 3375 1075 2522 
Q 1259 2794 1537 2939 
Q 1816 3084 2150 3084 
Q 2853 3084 3261 2657 
Q 3669 2231 3669 1497 
Q 3669 778 3244 343 
Q 2819 -91 2113 -91 
Q 1303 -91 875 529 
Q 447 1150 447 2328 
Q 447 3434 972 4092 
Q 1497 4750 2381 4750 
Q 2619 4750 2861 4703 
Q 3103 4656 3366 4563 
z
" transform="scale(0.015625)"/>
       </defs>
       <use xlink:href="#DejaVuSans-30"/>
       <use xlink:href="#DejaVuSans-2e" transform="translate(63.623047 0)"/>
       <use xlink:href="#DejaVuSans-36" transform="translate(95.410156 0)"/>
      </g>
     </g>
    </g>
    <g id="ytick_5">
     <g id="line2d_5">
      <path d="M 36 59.184 
L 259.2 59.184 
" clip-path="url(#p5a4f310fcc)" style="fill: none; stroke: #cccccc; stroke-linecap: round"/>
     </g>
     <g id="text_8">
      <!-- 0.8 -->
      <g style="fill: #262626" transform="translate(10.596875 62.983219) scale(0.1 -0.1)">
       <use xlink:href="#DejaVuSans-30"/>
       <use xlink:href="#DejaVuSans-2e" transform="translate(63.623047 0)"/>
       <use xlink:href="#DejaVuSans-38" transform="translate(95.410156 0)"/>
      </g>
     </g>
    </g>
    <g id="ytick_6">
     <g id="line2d_6">
      <path d="M 36 25.92 
L 259.2 25.92 
" clip-path="url(#p5a4f310fcc)" style="fill: none; stroke: #cccccc; stroke-linecap: round"/>
     </g>
     <g id="text_9">
      <!-- 1.0 -->
      <g style="fill: #262626" transform="translate(10.596875 29.719219) scale(0.1 -0.1)">
       <use xlink:href="#DejaVuSans-31"/>
       <use xlink:href="#DejaVuSans-2e" transform="translate(63.623047 0)"/>
       <use xlink:href="#DejaVuSans-30" transform="translate(95.410156 0)"/>
      </g>
     </g>
    </g>
    <g id="text_10">
     <!-- Spearman corr. -->
     <g style="fill: #262626" transform="translate(4.10125 154.816875) rotate(-90) scale(0.12 -0.12)">
      <defs>
       <path id="DejaVuSans-53" d="M 3425 4513 
L 3425 3897 
Q 3066 4069 2747 4153 
Q 2428 4238 2131 4238 
Q 1616 4238 1336 4038 
Q 1056 3838 1056 3469 
Q 1056 3159 1242 3001 
Q 1428 2844 1947 2747 
L 2328 2669 
Q 3034 2534 3370 2195 
Q 3706 1856 3706 1288 
Q 3706 609 3251 259 
Q 2797 -91 1919 -91 
Q 1588 -91 1214 -16 
Q 841 59 441 206 
L 441 856 
Q 825 641 1194 531 
Q 1563 422 1919 422 
Q 2459 422 2753 634 
Q 3047 847 3047 1241 
Q 3047 1584 2836 1778 
Q 2625 1972 2144 2069 
L 1759 2144 
Q 1053 2284 737 2584 
Q 422 2884 422 3419 
Q 422 4038 858 4394 
Q 1294 4750 2059 4750 
Q 2388 4750 2728 4690 
Q 3069 4631 3425 4513 
z
" transform="scale(0.015625)"/>
       <path id="DejaVuSans-70" d="M 1159 525 
L 1159 -1331 
L 581 -1331 
L 581 3500 
L 1159 3500 
L 1159 2969 
Q 1341 3281 1617 3432 
Q 1894 3584 2278 3584 
Q 2916 3584 3314 3078 
Q 3713 2572 3713 1747 
Q 3713 922 3314 415 
Q 2916 -91 2278 -91 
Q 1894 -91 1617 61 
Q 1341 213 1159 525 
z
M 3116 1747 
Q 3116 2381 2855 2742 
Q 2594 3103 2138 3103 
Q 1681 3103 1420 2742 
Q 1159 2381 1159 1747 
Q 1159 1113 1420 752 
Q 1681 391 2138 391 
Q 2594 391 2855 752 
Q 3116 1113 3116 1747 
z
" transform="scale(0.015625)"/>
       <path id="DejaVuSans-65" d="M 3597 1894 
L 3597 1613 
L 953 1613 
Q 991 1019 1311 708 
Q 1631 397 2203 397 
Q 2534 397 2845 478 
Q 3156 559 3463 722 
L 3463 178 
Q 3153 47 2828 -22 
Q 2503 -91 2169 -91 
Q 1331 -91 842 396 
Q 353 884 353 1716 
Q 353 2575 817 3079 
Q 1281 3584 2069 3584 
Q 2775 3584 3186 3129 
Q 3597 2675 3597 1894 
z
M 3022 2063 
Q 3016 2534 2758 2815 
Q 2500 3097 2075 3097 
Q 1594 3097 1305 2825 
Q 1016 2553 972 2059 
L 3022 2063 
z
" transform="scale(0.015625)"/>
       <path id="DejaVuSans-72" d="M 2631 2963 
Q 2534 3019 2420 3045 
Q 2306 3072 2169 3072 
Q 1681 3072 1420 2755 
Q 1159 2438 1159 1844 
L 1159 0 
L 581 0 
L 581 3500 
L 1159 3500 
L 1159 2956 
Q 1341 3275 1631 3429 
Q 1922 3584 2338 3584 
Q 2397 3584 2469 3576 
Q 2541 3569 2628 3553 
L 2631 2963 
z
" transform="scale(0.015625)"/>
       <path id="DejaVuSans-6d" d="M 3328 2828 
Q 3544 3216 3844 3400 
Q 4144 3584 4550 3584 
Q 5097 3584 5394 3201 
Q 5691 2819 5691 2113 
L 5691 0 
L 5113 0 
L 5113 2094 
Q 5113 2597 4934 2840 
Q 4756 3084 4391 3084 
Q 3944 3084 3684 2787 
Q 3425 2491 3425 1978 
L 3425 0 
L 2847 0 
L 2847 2094 
Q 2847 2600 2669 2842 
Q 2491 3084 2119 3084 
Q 1678 3084 1418 2786 
Q 1159 2488 1159 1978 
L 1159 0 
L 581 0 
L 581 3500 
L 1159 3500 
L 1159 2956 
Q 1356 3278 1631 3431 
Q 1906 3584 2284 3584 
Q 2666 3584 2933 3390 
Q 3200 3197 3328 2828 
z
" transform="scale(0.015625)"/>
       <path id="DejaVuSans-6e" d="M 3513 2113 
L 3513 0 
L 2938 0 
L 2938 2094 
Q 2938 2591 2744 2837 
Q 2550 3084 2163 3084 
Q 1697 3084 1428 2787 
Q 1159 2491 1159 1978 
L 1159 0 
L 581 0 
L 581 3500 
L 1159 3500 
L 1159 2956 
Q 1366 3272 1645 3428 
Q 1925 3584 2291 3584 
Q 2894 3584 3203 3211 
Q 3513 2838 3513 2113 
z
" transform="scale(0.015625)"/>
       <path id="DejaVuSans-20" transform="scale(0.015625)"/>
       <path id="DejaVuSans-63" d="M 3122 3366 
L 3122 2828 
Q 2878 2963 2633 3030 
Q 2388 3097 2138 3097 
Q 1578 3097 1268 2742 
Q 959 2388 959 1747 
Q 959 1106 1268 751 
Q 1578 397 2138 397 
Q 2388 397 2633 464 
Q 2878 531 3122 666 
L 3122 134 
Q 2881 22 2623 -34 
Q 2366 -91 2075 -91 
Q 1284 -91 818 406 
Q 353 903 353 1747 
Q 353 2603 823 3093 
Q 1294 3584 2113 3584 
Q 2378 3584 2631 3529 
Q 2884 3475 3122 3366 
z
" transform="scale(0.015625)"/>
       <path id="DejaVuSans-6f" d="M 1959 3097 
Q 1497 3097 1228 2736 
Q 959 2375 959 1747 
Q 959 1119 1226 758 
Q 1494 397 1959 397 
Q 2419 397 2687 759 
Q 2956 1122 2956 1747 
Q 2956 2369 2687 2733 
Q 2419 3097 1959 3097 
z
M 1959 3584 
Q 2709 3584 3137 3096 
Q 3566 2609 3566 1747 
Q 3566 888 3137 398 
Q 2709 -91 1959 -91 
Q 1206 -91 779 398 
Q 353 888 353 1747 
Q 353 2609 779 3096 
Q 1206 3584 1959 3584 
z
" transform="scale(0.015625)"/>
      </defs>
      <use xlink:href="#DejaVuSans-53"/>
      <use xlink:href="#DejaVuSans-70" transform="translate(63.476562 0)"/>
      <use xlink:href="#DejaVuSans-65" transform="translate(126.953125 0)"/>
      <use xlink:href="#DejaVuSans-61" transform="translate(188.476562 0)"/>
      <use xlink:href="#DejaVuSans-72" transform="translate(249.755859 0)"/>
      <use xlink:href="#DejaVuSans-6d" transform="translate(289.119141 0)"/>
      <use xlink:href="#DejaVuSans-61" transform="translate(386.53125 0)"/>
      <use xlink:href="#DejaVuSans-6e" transform="translate(447.810547 0)"/>
      <use xlink:href="#DejaVuSans-20" transform="translate(511.189453 0)"/>
      <use xlink:href="#DejaVuSans-63" transform="translate(542.976562 0)"/>
      <use xlink:href="#DejaVuSans-6f" transform="translate(597.957031 0)"/>
      <use xlink:href="#DejaVuSans-72" transform="translate(659.138672 0)"/>
      <use xlink:href="#DejaVuSans-72" transform="translate(698.501953 0)"/>
      <use xlink:href="#DejaVuSans-2e" transform="translate(730.490234 0)"/>
     </g>
    </g>
   </g>
   <g id="FillBetweenPolyCollection_1">
    <defs>
     <path id="m287f1faae5" d="M 96.987877 -141.477284 
L 96.757577 -141.477284 
L 96.701264 -141.857234 
L 96.625319 -142.237183 
L 96.526494 -142.617133 
L 96.402319 -142.997082 
L 96.251499 -143.377031 
L 96.074192 -143.756981 
L 95.872061 -144.13693 
L 95.648096 -144.51688 
L 95.406202 -144.896829 
L 95.150679 -145.276778 
L 94.885714 -145.656728 
L 94.61501 -146.036677 
L 94.341649 -146.416627 
L 94.068154 -146.796576 
L 93.796625 -147.176525 
L 93.528768 -147.556475 
L 93.265601 -147.936424 
L 93.006722 -148.316374 
L 92.749181 -148.696323 
L 92.486161 -149.076272 
L 92.205819 -149.456222 
L 91.890674 -149.836171 
L 91.517842 -150.216121 
L 91.06022 -150.59607 
L 90.488493 -150.97602 
L 89.773618 -151.355969 
L 88.889425 -151.735918 
L 87.81497 -152.115868 
L 86.536506 -152.495817 
L 85.049063 -152.875767 
L 83.357744 -153.255716 
L 81.478775 -153.635665 
L 79.440187 -154.015615 
L 77.281801 -154.395564 
L 75.054066 -154.775514 
L 72.815396 -155.155463 
L 70.627883 -155.535412 
L 68.551722 -155.915362 
L 66.639083 -156.295311 
L 64.928481 -156.675261 
L 63.440761 -157.05521 
L 62.177582 -157.43516 
L 61.122845 -157.815109 
L 60.246906 -158.195058 
L 59.512827 -158.575008 
L 58.883481 -158.954957 
L 58.32813 -159.334907 
L 57.827243 -159.714856 
L 57.374673 -160.094805 
L 56.976972 -160.474755 
L 56.650176 -160.854704 
L 56.414908 -161.234654 
L 56.290909 -161.614603 
L 56.292048 -161.994552 
L 56.422682 -162.374502 
L 56.675884 -162.754451 
L 57.033764 -163.134401 
L 57.46982 -163.51435 
L 57.953035 -163.8943 
L 58.453156 -164.274249 
L 58.946348 -164.654198 
L 59.420184 -165.034148 
L 59.876879 -165.414097 
L 60.333903 -165.794047 
L 60.821667 -166.173996 
L 61.378632 -166.553945 
L 62.044909 -166.933895 
L 62.855782 -167.313844 
L 63.836557 -167.693794 
L 64.999695 -168.073743 
L 66.34447 -168.453692 
L 67.858721 -168.833642 
L 69.521775 -169.213591 
L 71.307543 -169.593541 
L 73.186964 -169.97349 
L 75.129477 -170.353439 
L 77.103596 -170.733389 
L 79.077069 -171.113338 
L 81.017161 -171.493288 
L 82.891524 -171.873237 
L 84.669802 -172.253187 
L 86.325769 -172.633136 
L 87.83953 -173.013085 
L 89.199196 -173.393035 
L 90.401518 -173.772984 
L 91.451274 -174.152934 
L 92.359506 -174.532883 
L 93.141037 -174.912832 
L 93.811867 -175.292782 
L 94.387003 -175.672731 
L 94.879115 -176.052681 
L 95.298124 -176.43263 
L 95.651564 -176.812579 
L 95.945403 -177.192529 
L 96.184962 -177.572478 
L 96.375636 -177.952428 
L 96.52326 -178.332377 
L 96.634122 -178.712327 
L 96.714708 -179.092276 
L 97.030746 -179.092276 
L 97.030746 -179.092276 
L 97.111333 -178.712327 
L 97.222195 -178.332377 
L 97.369819 -177.952428 
L 97.560493 -177.572478 
L 97.800052 -177.192529 
L 98.093891 -176.812579 
L 98.44733 -176.43263 
L 98.866339 -176.052681 
L 99.358452 -175.672731 
L 99.933588 -175.292782 
L 100.604417 -174.912832 
L 101.385948 -174.532883 
L 102.29418 -174.152934 
L 103.343937 -173.772984 
L 104.546259 -173.393035 
L 105.905924 -173.013085 
L 107.419686 -172.633136 
L 109.075652 -172.253187 
L 110.85393 -171.873237 
L 112.728293 -171.493288 
L 114.668385 -171.113338 
L 116.641858 -170.733389 
L 118.615978 -170.353439 
L 120.55849 -169.97349 
L 122.437912 -169.593541 
L 124.223679 -169.213591 
L 125.886734 -168.833642 
L 127.400984 -168.453692 
L 128.74576 -168.073743 
L 129.908898 -167.693794 
L 130.889673 -167.313844 
L 131.700546 -166.933895 
L 132.366822 -166.553945 
L 132.923788 -166.173996 
L 133.411552 -165.794047 
L 133.868576 -165.414097 
L 134.32527 -165.034148 
L 134.799107 -164.654198 
L 135.292299 -164.274249 
L 135.792419 -163.8943 
L 136.275634 -163.51435 
L 136.711691 -163.134401 
L 137.069571 -162.754451 
L 137.322773 -162.374502 
L 137.453407 -161.994552 
L 137.454545 -161.614603 
L 137.330546 -161.234654 
L 137.095279 -160.854704 
L 136.768482 -160.474755 
L 136.370782 -160.094805 
L 135.918212 -159.714856 
L 135.417324 -159.334907 
L 134.861974 -158.954957 
L 134.232627 -158.575008 
L 133.498549 -158.195058 
L 132.62261 -157.815109 
L 131.567873 -157.43516 
L 130.304694 -157.05521 
L 128.816974 -156.675261 
L 127.106372 -156.295311 
L 125.193732 -155.915362 
L 123.117572 -155.535412 
L 120.930058 -155.155463 
L 118.691388 -154.775514 
L 116.463654 -154.395564 
L 114.305267 -154.015615 
L 112.26668 -153.635665 
L 110.38771 -153.255716 
L 108.696391 -152.875767 
L 107.208948 -152.495817 
L 105.930484 -152.115868 
L 104.85603 -151.735918 
L 103.971837 -151.355969 
L 103.256962 -150.97602 
L 102.685234 -150.59607 
L 102.227613 -150.216121 
L 101.854781 -149.836171 
L 101.539636 -149.456222 
L 101.259294 -149.076272 
L 100.996274 -148.696323 
L 100.738733 -148.316374 
L 100.479853 -147.936424 
L 100.216686 -147.556475 
L 99.94883 -147.176525 
L 99.677301 -146.796576 
L 99.403805 -146.416627 
L 99.130445 -146.036677 
L 98.85974 -145.656728 
L 98.594775 -145.276778 
L 98.339253 -144.896829 
L 98.097359 -144.51688 
L 97.873393 -144.13693 
L 97.671263 -143.756981 
L 97.493955 -143.377031 
L 97.343136 -142.997082 
L 97.21896 -142.617133 
L 97.120136 -142.237183 
L 97.044191 -141.857234 
L 96.987877 -141.477284 
z
" style="stroke: #393939; stroke-width: 1.5"/>
    </defs>
    <g clip-path="url(#p5a4f310fcc)">
     <use xlink:href="#m287f1faae5" x="0" y="216" style="fill: #3c6682; stroke: #393939; stroke-width: 1.5"/>
    </g>
   </g>
   <g id="FillBetweenPolyCollection_2">
    <defs>
     <path id="m815643e647" d="M 198.398339 -112.658603 
L 198.256207 -112.658603 
L 198.212125 -113.366447 
L 198.152706 -114.074292 
L 198.079652 -114.782137 
L 197.998611 -115.489981 
L 197.919058 -116.197826 
L 197.85271 -116.90567 
L 197.810651 -117.613515 
L 197.800032 -118.321359 
L 197.821562 -119.029204 
L 197.868772 -119.737049 
L 197.929406 -120.444893 
L 197.988412 -121.152738 
L 198.03156 -121.860582 
L 198.048659 -122.568427 
L 198.035719 -123.276271 
L 197.995758 -123.984116 
L 197.938191 -124.691961 
L 197.876855 -125.399805 
L 197.826903 -126.10765 
L 197.801196 -126.815494 
L 197.807145 -127.523339 
L 197.845054 -128.231183 
L 197.908539 -128.939028 
L 197.986811 -129.646872 
L 198.067887 -130.354717 
L 198.141463 -131.062562 
L 198.200483 -131.770406 
L 198.241078 -132.478251 
L 198.261192 -133.186095 
L 198.25862 -133.89394 
L 198.229309 -134.601784 
L 198.166655 -135.309629 
L 198.062303 -136.017474 
L 197.908545 -136.725318 
L 197.701793 -137.433163 
L 197.44588 -138.141007 
L 197.153484 -138.848852 
L 196.844291 -139.556696 
L 196.539727 -140.264541 
L 196.255883 -140.972386 
L 195.997546 -141.68023 
L 195.756174 -142.388075 
L 195.512927 -143.095919 
L 195.24539 -143.803764 
L 194.934785 -144.511608 
L 194.5703 -145.219453 
L 194.148729 -145.927298 
L 193.669888 -146.635142 
L 193.130073 -147.342987 
L 192.516503 -148.050831 
L 191.805064 -148.758676 
L 190.962389 -149.46652 
L 189.951717 -150.174365 
L 188.740753 -150.88221 
L 187.308983 -151.590054 
L 185.652096 -152.297899 
L 183.782061 -153.005743 
L 181.722987 -153.713588 
L 179.504519 -154.421432 
L 177.155745 -155.129277 
L 174.702858 -155.837122 
L 172.172737 -156.544966 
L 169.602235 -157.252811 
L 167.049725 -157.960655 
L 164.602793 -158.6685 
L 162.375571 -159.376344 
L 160.492429 -160.084189 
L 159.061072 -160.792034 
L 158.144655 -161.499878 
L 157.745455 -162.207723 
L 157.809154 -162.915567 
L 158.249711 -163.623412 
L 158.984717 -164.331256 
L 159.965733 -165.039101 
L 161.190444 -165.746945 
L 162.692299 -166.45479 
L 164.513501 -167.162635 
L 166.673786 -167.870479 
L 169.147718 -168.578324 
L 171.858489 -169.286168 
L 174.689343 -169.994013 
L 177.507686 -170.701857 
L 180.193364 -171.409702 
L 182.661929 -172.117547 
L 184.875864 -172.825391 
L 186.841172 -173.533236 
L 188.591992 -174.24108 
L 190.170105 -174.948925 
L 191.607343 -175.656769 
L 192.916652 -176.364614 
L 194.093115 -177.072459 
L 195.122049 -177.780303 
L 195.989235 -178.488148 
L 196.688873 -179.195992 
L 197.227039 -179.903837 
L 197.620756 -180.611681 
L 197.894271 -181.319526 
L 198.074471 -182.027371 
L 198.186925 -182.735215 
L 198.46762 -182.735215 
L 198.46762 -182.735215 
L 198.580075 -182.027371 
L 198.760275 -181.319526 
L 199.03379 -180.611681 
L 199.427506 -179.903837 
L 199.965672 -179.195992 
L 200.66531 -178.488148 
L 201.532496 -177.780303 
L 202.56143 -177.072459 
L 203.737894 -176.364614 
L 205.047203 -175.656769 
L 206.484441 -174.948925 
L 208.062553 -174.24108 
L 209.813374 -173.533236 
L 211.778681 -172.825391 
L 213.992617 -172.117547 
L 216.461181 -171.409702 
L 219.14686 -170.701857 
L 221.965203 -169.994013 
L 224.796057 -169.286168 
L 227.506827 -168.578324 
L 229.980759 -167.870479 
L 232.141044 -167.162635 
L 233.962247 -166.45479 
L 235.464101 -165.746945 
L 236.688813 -165.039101 
L 237.669828 -164.331256 
L 238.404834 -163.623412 
L 238.845391 -162.915567 
L 238.909091 -162.207723 
L 238.509891 -161.499878 
L 237.593473 -160.792034 
L 236.162117 -160.084189 
L 234.278975 -159.376344 
L 232.051752 -158.6685 
L 229.604821 -157.960655 
L 227.052311 -157.252811 
L 224.481808 -156.544966 
L 221.951687 -155.837122 
L 219.4988 -155.129277 
L 217.150027 -154.421432 
L 214.931558 -153.713588 
L 212.872485 -153.005743 
L 211.002449 -152.297899 
L 209.345562 -151.590054 
L 207.913792 -150.88221 
L 206.702828 -150.174365 
L 205.692157 -149.46652 
L 204.849481 -148.758676 
L 204.138043 -148.050831 
L 203.524472 -147.342987 
L 202.984658 -146.635142 
L 202.505816 -145.927298 
L 202.084246 -145.219453 
L 201.71976 -144.511608 
L 201.409155 -143.803764 
L 201.141619 -143.095919 
L 200.898372 -142.388075 
L 200.657 -141.68023 
L 200.398662 -140.972386 
L 200.114818 -140.264541 
L 199.810254 -139.556696 
L 199.501061 -138.848852 
L 199.208665 -138.141007 
L 198.952752 -137.433163 
L 198.746 -136.725318 
L 198.592242 -136.017474 
L 198.48789 -135.309629 
L 198.425237 -134.601784 
L 198.395926 -133.89394 
L 198.393354 -133.186095 
L 198.413467 -132.478251 
L 198.454063 -131.770406 
L 198.513083 -131.062562 
L 198.586659 -130.354717 
L 198.667735 -129.646872 
L 198.746007 -128.939028 
L 198.809491 -128.231183 
L 198.847401 -127.523339 
L 198.853349 -126.815494 
L 198.827642 -126.10765 
L 198.777691 -125.399805 
L 198.716354 -124.691961 
L 198.658787 -123.984116 
L 198.618826 -123.276271 
L 198.605887 -122.568427 
L 198.622986 -121.860582 
L 198.666134 -121.152738 
L 198.72514 -120.444893 
L 198.785773 -119.737049 
L 198.832983 -119.029204 
L 198.854513 -118.321359 
L 198.843895 -117.613515 
L 198.801835 -116.90567 
L 198.735487 -116.197826 
L 198.655935 -115.489981 
L 198.574893 -114.782137 
L 198.501839 -114.074292 
L 198.44242 -113.366447 
L 198.398339 -112.658603 
z
" style="stroke: #393939; stroke-width: 1.5"/>
    </defs>
    <g clip-path="url(#p5a4f310fcc)">
     <use xlink:href="#m815643e647" x="0" y="216" style="fill: #45a778; stroke: #393939; stroke-width: 1.5"/>
    </g>
   </g>
   <g id="line2d_7">
    <path d="M 60.792172 58.041458 
L 132.953282 58.041458 
" clip-path="url(#p5a4f310fcc)" style="fill: none; stroke-dasharray: 1.875,1.125; stroke-dashoffset: 0; stroke: #393939; stroke-width: 1.5"/>
   </g>
   <g id="line2d_8">
    <path d="M 56.311365 53.949264 
L 137.43409 53.949264 
" clip-path="url(#p5a4f310fcc)" style="fill: none; stroke-dasharray: 3.75,1.5; stroke-dashoffset: 0; stroke: #393939; stroke-width: 1.5"/>
   </g>
   <g id="line2d_9">
    <path d="M 61.461242 49.398946 
L 132.284213 49.398946 
" clip-path="url(#p5a4f310fcc)" style="fill: none; stroke-dasharray: 1.875,1.125; stroke-dashoffset: 0; stroke: #393939; stroke-width: 1.5"/>
   </g>
   <g id="line2d_10">
    <path d="M 166.59703 57.90839 
L 230.057515 57.90839 
" clip-path="url(#p5a4f310fcc)" style="fill: none; stroke-dasharray: 1.875,1.125; stroke-dashoffset: 0; stroke: #393939; stroke-width: 1.5"/>
   </g>
   <g id="line2d_11">
    <path d="M 157.746956 53.79494 
L 238.907589 53.79494 
" clip-path="url(#p5a4f310fcc)" style="fill: none; stroke-dasharray: 3.75,1.5; stroke-dashoffset: 0; stroke: #393939; stroke-width: 1.5"/>
   </g>
   <g id="line2d_12">
    <path d="M 163.809034 49.11117 
L 232.845511 49.11117 
" clip-path="url(#p5a4f310fcc)" style="fill: none; stroke-dasharray: 1.875,1.125; stroke-dashoffset: 0; stroke: #393939; stroke-width: 1.5"/>
   </g>
   <g id="LineCollection_1">
    <path d="M 46.145455 74.147918 
L 249.054545 74.147918 
" clip-path="url(#p5a4f310fcc)" style="fill: none; stroke-dasharray: 5.55,2.4; stroke-dashoffset: 0; stroke: #ff0000; stroke-width: 1.5"/>
   </g>
   <g id="patch_3">
    <path d="M 36 192.24 
L 36 25.92 
" style="fill: none; stroke: #cccccc; stroke-width: 1.25; stroke-linejoin: miter; stroke-linecap: square"/>
   </g>
   <g id="patch_4">
    <path d="M 259.2 192.24 
L 259.2 25.92 
" style="fill: none; stroke: #cccccc; stroke-width: 1.25; stroke-linejoin: miter; stroke-linecap: square"/>
   </g>
   <g id="patch_5">
    <path d="M 36 192.24 
L 259.2 192.24 
" style="fill: none; stroke: #cccccc; stroke-width: 1.25; stroke-linejoin: miter; stroke-linecap: square"/>
   </g>
   <g id="patch_6">
    <path d="M 36 25.92 
L 259.2 25.92 
" style="fill: none; stroke: #cccccc; stroke-width: 1.25; stroke-linejoin: miter; stroke-linecap: square"/>
   </g>
   <g id="text_11">
    <!-- Pair-wise corr -->
    <g style="fill: #262626" transform="translate(100.890312 19.92) scale(0.14 -0.14)">
     <defs>
      <path id="DejaVuSans-50" d="M 1259 4147 
L 1259 2394 
L 2053 2394 
Q 2494 2394 2734 2622 
Q 2975 2850 2975 3272 
Q 2975 3691 2734 3919 
Q 2494 4147 2053 4147 
L 1259 4147 
z
M 628 4666 
L 2053 4666 
Q 2838 4666 3239 4311 
Q 3641 3956 3641 3272 
Q 3641 2581 3239 2228 
Q 2838 1875 2053 1875 
L 1259 1875 
L 1259 0 
L 628 0 
L 628 4666 
z
" transform="scale(0.015625)"/>
      <path id="DejaVuSans-69" d="M 603 3500 
L 1178 3500 
L 1178 0 
L 603 0 
L 603 3500 
z
M 603 4863 
L 1178 4863 
L 1178 4134 
L 603 4134 
L 603 4863 
z
" transform="scale(0.015625)"/>
      <path id="DejaVuSans-2d" d="M 313 2009 
L 1997 2009 
L 1997 1497 
L 313 1497 
L 313 2009 
z
" transform="scale(0.015625)"/>
      <path id="DejaVuSans-77" d="M 269 3500 
L 844 3500 
L 1563 769 
L 2278 3500 
L 2956 3500 
L 3675 769 
L 4391 3500 
L 4966 3500 
L 4050 0 
L 3372 0 
L 2619 2869 
L 1863 0 
L 1184 0 
L 269 3500 
z
" transform="scale(0.015625)"/>
      <path id="DejaVuSans-73" d="M 2834 3397 
L 2834 2853 
Q 2591 2978 2328 3040 
Q 2066 3103 1784 3103 
Q 1356 3103 1142 2972 
Q 928 2841 928 2578 
Q 928 2378 1081 2264 
Q 1234 2150 1697 2047 
L 1894 2003 
Q 2506 1872 2764 1633 
Q 3022 1394 3022 966 
Q 3022 478 2636 193 
Q 2250 -91 1575 -91 
Q 1294 -91 989 -36 
Q 684 19 347 128 
L 347 722 
Q 666 556 975 473 
Q 1284 391 1588 391 
Q 1994 391 2212 530 
Q 2431 669 2431 922 
Q 2431 1156 2273 1281 
Q 2116 1406 1581 1522 
L 1381 1569 
Q 847 1681 609 1914 
Q 372 2147 372 2553 
Q 372 3047 722 3315 
Q 1072 3584 1716 3584 
Q 2034 3584 2315 3537 
Q 2597 3491 2834 3397 
z
" transform="scale(0.015625)"/>
     </defs>
     <use xlink:href="#DejaVuSans-50"/>
     <use xlink:href="#DejaVuSans-61" transform="translate(55.802734 0)"/>
     <use xlink:href="#DejaVuSans-69" transform="translate(117.082031 0)"/>
     <use xlink:href="#DejaVuSans-72" transform="translate(144.865234 0)"/>
     <use xlink:href="#DejaVuSans-2d" transform="translate(179.603516 0)"/>
     <use xlink:href="#DejaVuSans-77" transform="translate(215.6875 0)"/>
     <use xlink:href="#DejaVuSans-69" transform="translate(297.474609 0)"/>
     <use xlink:href="#DejaVuSans-73" transform="translate(325.257812 0)"/>
     <use xlink:href="#DejaVuSans-65" transform="translate(377.357422 0)"/>
     <use xlink:href="#DejaVuSans-20" transform="translate(438.880859 0)"/>
     <use xlink:href="#DejaVuSans-63" transform="translate(470.667969 0)"/>
     <use xlink:href="#DejaVuSans-6f" transform="translate(525.648438 0)"/>
     <use xlink:href="#DejaVuSans-72" transform="translate(586.830078 0)"/>
     <use xlink:href="#DejaVuSans-72" transform="translate(626.193359 0)"/>
    </g>
   </g>
  </g>
 </g>
 <defs>
  <clipPath id="p5a4f310fcc">
   <rect x="36" y="25.92" width="223.2" height="166.32"/>
  </clipPath>
 </defs>
</svg>
