<?xml version="1.0" encoding="utf-8" standalone="no"?>
<!DOCTYPE svg PUBLIC "-//W3C//DTD SVG 1.1//EN"
  "http://www.w3.org/Graphics/SVG/1.1/DTD/svg11.dtd">
<svg xmlns:xlink="http://www.w3.org/1999/xlink" width="288pt" height="216pt" viewBox="0 0 288 216" xmlns="http://www.w3.org/2000/svg" version="1.1">
 <metadata>
  <rdf:RDF xmlns:dc="http://purl.org/dc/elements/1.1/" xmlns:cc="http://creativecommons.org/ns#" xmlns:rdf="http://www.w3.org/1999/02/22-rdf-syntax-ns#">
   <cc:Work>
    <dc:type rdf:resource="http://purl.org/dc/dcmitype/StillImage"/>
    <dc:date>2025-12-18T13:21:43.666834</dc:date>
    <dc:format>image/svg+xml</dc:format>
    <dc:creator>
     <cc:Agent>
      <dc:title>Matplotlib v3.10.0, https://matplotlib.org/</dc:title>
     </cc:Agent>
    </dc:creator>
   </cc:Work>
  </rdf:RDF>
 </metadata>
 <defs>
  <style type="text/css">*{stroke-linejoin: round; stroke-linecap: butt}</style>
 </defs>
 <g id="figure_1">
  <g id="patch_1">
   <path d="M 0 216 
L 288 216 
L 288 0 
L 0 0 
z
" style="fill: #ffffff"/>
  </g>
  <g id="axes_1">
   <g id="patch_2">
    <path d="M 36 192.24 
L 259.2 192.24 
L 259.2 25.92 
L 36 25.92 
z
" style="fill: #ffffff"/>
   </g>
   <g id="matplotlib.axis_1">
    <g id="xtick_1">
     <g id="text_1">
      <!-- D01 -->
      <g style="fill: #262626" transform="translate(86.660227 209.338437) scale(0.1 -0.1)">
       <defs>
        <path id="DejaVuSans-44" d="M 1259 4147 
L 1259 519 
L 2022 519 
Q 2988 519 3436 956 
Q 3884 1394 3884 2338 
Q 3884 3275 3436 3711 
Q 2988 4147 2022 4147 
L 1259 4147 
z
M 628 4666 
L 1925 4666 
Q 3281 4666 3915 4102 
Q 4550 3538 4550 2338 
Q 4550 1131 3912 565 
Q 3275 0 1925 0 
L 628 0 
L 628 4666 
z
" transform="scale(0.015625)"/>
        <path id="DejaVuSans-30" d="M 2034 4250 
Q 1547 4250 1301 3770 
Q 1056 3291 1056 2328 
Q 1056 1369 1301 889 
Q 1547 409 2034 409 
Q 2525 409 2770 889 
Q 3016 1369 3016 2328 
Q 3016 3291 2770 3770 
Q 2525 4250 2034 4250 
z
M 2034 4750 
Q 2819 4750 3233 4129 
Q 3647 3509 3647 2328 
Q 3647 1150 3233 529 
Q 2819 -91 2034 -91 
Q 1250 -91 836 529 
Q 422 1150 422 2328 
Q 422 3509 836 4129 
Q 1250 4750 2034 4750 
z
" transform="scale(0.015625)"/>
        <path id="DejaVuSans-31" d="M 794 531 
L 1825 531 
L 1825 4091 
L 703 3866 
L 703 4441 
L 1819 4666 
L 2450 4666 
L 2450 531 
L 3481 531 
L 3481 0 
L 794 0 
L 794 531 
z
" transform="scale(0.015625)"/>
       </defs>
       <use xlink:href="#DejaVuSans-44"/>
       <use xlink:href="#DejaVuSans-30" transform="translate(77.001953 0)"/>
       <use xlink:href="#DejaVuSans-31" transform="translate(140.625 0)"/>
      </g>
     </g>
    </g>
    <g id="xtick_2">
     <g id="text_2">
      <!-- D08 -->
      <g style="fill: #262626" transform="translate(188.114773 209.338437) scale(0.1 -0.1)">
       <defs>
        <path id="DejaVuSans-38" d="M 2034 2216 
Q 1584 2216 1326 1975 
Q 1069 1734 1069 1313 
Q 1069 891 1326 650 
Q 1584 409 2034 409 
Q 2484 409 2743 651 
Q 3003 894 3003 1313 
Q 3003 1734 2745 1975 
Q 2488 2216 2034 2216 
z
M 1403 2484 
Q 997 2584 770 2862 
Q 544 3141 544 3541 
Q 544 4100 942 4425 
Q 1341 4750 2034 4750 
Q 2731 4750 3128 4425 
Q 3525 4100 3525 3541 
Q 3525 3141 3298 2862 
Q 3072 2584 2669 2484 
Q 3125 2378 3379 2068 
Q 3634 1759 3634 1313 
Q 3634 634 3220 271 
Q 2806 -91 2034 -91 
Q 1263 -91 848 271 
Q 434 634 434 1313 
Q 434 1759 690 2068 
Q 947 2378 1403 2484 
z
M 1172 3481 
Q 1172 3119 1398 2916 
Q 1625 2713 2034 2713 
Q 2441 2713 2670 2916 
Q 2900 3119 2900 3481 
Q 2900 3844 2670 4047 
Q 2441 4250 2034 4250 
Q 1625 4250 1398 4047 
Q 1172 3844 1172 3481 
z
" transform="scale(0.015625)"/>
       </defs>
       <use xlink:href="#DejaVuSans-44"/>
       <use xlink:href="#DejaVuSans-30" transform="translate(77.001953 0)"/>
       <use xlink:href="#DejaVuSans-38" transform="translate(140.625 0)"/>
      </g>
     </g>
    </g>
    <g id="text_3">
     <!-- Day -->
     <g style="fill: #262626" transform="translate(135.751875 224.53625) scale(0.12 -0.12)">
      <defs>
       <path id="DejaVuSans-61" d="M 2194 1759 
Q 1497 1759 1228 1600 
Q 959 1441 959 1056 
Q 959 750 1161 570 
Q 1363 391 1709 391 
Q 2188 391 2477 730 
Q 2766 1069 2766 1631 
L 2766 1759 
L 2194 1759 
z
M 3341 1997 
L 3341 0 
L 2766 0 
L 2766 531 
Q 2569 213 2275 61 
Q 1981 -91 1556 -91 
Q 1019 -91 701 211 
Q 384 513 384 1019 
Q 384 1609 779 1909 
Q 1175 2209 1959 2209 
L 2766 2209 
L 2766 2266 
Q 2766 2663 2505 2880 
Q 2244 3097 1772 3097 
Q 1472 3097 1187 3025 
Q 903 2953 641 2809 
L 641 3341 
Q 956 3463 1253 3523 
Q 1550 3584 1831 3584 
Q 2591 3584 2966 3190 
Q 3341 2797 3341 1997 
z
" transform="scale(0.015625)"/>
       <path id="DejaVuSans-79" d="M 2059 -325 
Q 1816 -950 1584 -1140 
Q 1353 -1331 966 -1331 
L 506 -1331 
L 506 -850 
L 844 -850 
Q 1081 -850 1212 -737 
Q 1344 -625 1503 -206 
L 1606 56 
L 191 3500 
L 800 3500 
L 1894 763 
L 2988 3500 
L 3597 3500 
L 2059 -325 
z
" transform="scale(0.015625)"/>
      </defs>
      <use xlink:href="#DejaVuSans-44"/>
      <use xlink:href="#DejaVuSans-61" transform="translate(77.001953 0)"/>
      <use xlink:href="#DejaVuSans-79" transform="translate(138.28125 0)"/>
     </g>
    </g>
   </g>
   <g id="matplotlib.axis_2">
    <g id="ytick_1">
     <g id="line2d_1">
      <path d="M 36 192.24 
L 259.2 192.24 
" clip-path="url(#pa37b55648b)" style="fill: none; stroke: #cccccc; stroke-linecap: round"/>
     </g>
     <g id="text_4">
      <!-- 0.5 -->
      <g style="fill: #262626" transform="translate(10.596875 196.039219) scale(0.1 -0.1)">
       <defs>
        <path id="DejaVuSans-2e" d="M 684 794 
L 1344 794 
L 1344 0 
L 684 0 
L 684 794 
z
" transform="scale(0.015625)"/>
        <path id="DejaVuSans-35" d="M 691 4666 
L 3169 4666 
L 3169 4134 
L 1269 4134 
L 1269 2991 
Q 1406 3038 1543 3061 
Q 1681 3084 1819 3084 
Q 2600 3084 3056 2656 
Q 3513 2228 3513 1497 
Q 3513 744 3044 326 
Q 2575 -91 1722 -91 
Q 1428 -91 1123 -41 
Q 819 9 494 109 
L 494 744 
Q 775 591 1075 516 
Q 1375 441 1709 441 
Q 2250 441 2565 725 
Q 2881 1009 2881 1497 
Q 2881 1984 2565 2268 
Q 2250 2553 1709 2553 
Q 1456 2553 1204 2497 
Q 953 2441 691 2322 
L 691 4666 
z
" transform="scale(0.015625)"/>
       </defs>
       <use xlink:href="#DejaVuSans-30"/>
       <use xlink:href="#DejaVuSans-2e" transform="translate(63.623047 0)"/>
       <use xlink:href="#DejaVuSans-35" transform="translate(95.410156 0)"/>
      </g>
     </g>
    </g>
    <g id="ytick_2">
     <g id="line2d_2">
      <path d="M 36 158.976 
L 259.2 158.976 
" clip-path="url(#pa37b55648b)" style="fill: none; stroke: #cccccc; stroke-linecap: round"/>
     </g>
     <g id="text_5">
      <!-- 0.6 -->
      <g style="fill: #262626" transform="translate(10.596875 162.775219) scale(0.1 -0.1)">
       <defs>
        <path id="DejaVuSans-36" d="M 2113 2584 
Q 1688 2584 1439 2293 
Q 1191 2003 1191 1497 
Q 1191 994 1439 701 
Q 1688 409 2113 409 
Q 2538 409 2786 701 
Q 3034 994 3034 1497 
Q 3034 2003 2786 2293 
Q 2538 2584 2113 2584 
z
M 3366 4563 
L 3366 3988 
Q 3128 4100 2886 4159 
Q 2644 4219 2406 4219 
Q 1781 4219 1451 3797 
Q 1122 3375 1075 2522 
Q 1259 2794 1537 2939 
Q 1816 3084 2150 3084 
Q 2853 3084 3261 2657 
Q 3669 2231 3669 1497 
Q 3669 778 3244 343 
Q 2819 -91 2113 -91 
Q 1303 -91 875 529 
Q 447 1150 447 2328 
Q 447 3434 972 4092 
Q 1497 4750 2381 4750 
Q 2619 4750 2861 4703 
Q 3103 4656 3366 4563 
z
" transform="scale(0.015625)"/>
       </defs>
       <use xlink:href="#DejaVuSans-30"/>
       <use xlink:href="#DejaVuSans-2e" transform="translate(63.623047 0)"/>
       <use xlink:href="#DejaVuSans-36" transform="translate(95.410156 0)"/>
      </g>
     </g>
    </g>
    <g id="ytick_3">
     <g id="line2d_3">
      <path d="M 36 125.712 
L 259.2 125.712 
" clip-path="url(#pa37b55648b)" style="fill: none; stroke: #cccccc; stroke-linecap: round"/>
     </g>
     <g id="text_6">
      <!-- 0.7 -->
      <g style="fill: #262626" transform="translate(10.596875 129.511219) scale(0.1 -0.1)">
       <defs>
        <path id="DejaVuSans-37" d="M 525 4666 
L 3525 4666 
L 3525 4397 
L 1831 0 
L 1172 0 
L 2766 4134 
L 525 4134 
L 525 4666 
z
" transform="scale(0.015625)"/>
       </defs>
       <use xlink:href="#DejaVuSans-30"/>
       <use xlink:href="#DejaVuSans-2e" transform="translate(63.623047 0)"/>
       <use xlink:href="#DejaVuSans-37" transform="translate(95.410156 0)"/>
      </g>
     </g>
    </g>
    <g id="ytick_4">
     <g id="line2d_4">
      <path d="M 36 92.448 
L 259.2 92.448 
" clip-path="url(#pa37b55648b)" style="fill: none; stroke: #cccccc; stroke-linecap: round"/>
     </g>
     <g id="text_7">
      <!-- 0.8 -->
      <g style="fill: #262626" transform="translate(10.596875 96.247219) scale(0.1 -0.1)">
       <use xlink:href="#DejaVuSans-30"/>
       <use xlink:href="#DejaVuSans-2e" transform="translate(63.623047 0)"/>
       <use xlink:href="#DejaVuSans-38" transform="translate(95.410156 0)"/>
      </g>
     </g>
    </g>
    <g id="ytick_5">
     <g id="line2d_5">
      <path d="M 36 59.184 
L 259.2 59.184 
" clip-path="url(#pa37b55648b)" style="fill: none; stroke: #cccccc; stroke-linecap: round"/>
     </g>
     <g id="text_8">
      <!-- 0.9 -->
      <g style="fill: #262626" transform="translate(10.596875 62.983219) scale(0.1 -0.1)">
       <defs>
        <path id="DejaVuSans-39" d="M 703 97 
L 703 672 
Q 941 559 1184 500 
Q 1428 441 1663 441 
Q 2288 441 2617 861 
Q 2947 1281 2994 2138 
Q 2813 1869 2534 1725 
Q 2256 1581 1919 1581 
Q 1219 1581 811 2004 
Q 403 2428 403 3163 
Q 403 3881 828 4315 
Q 1253 4750 1959 4750 
Q 2769 4750 3195 4129 
Q 3622 3509 3622 2328 
Q 3622 1225 3098 567 
Q 2575 -91 1691 -91 
Q 1453 -91 1209 -44 
Q 966 3 703 97 
z
M 1959 2075 
Q 2384 2075 2632 2365 
Q 2881 2656 2881 3163 
Q 2881 3666 2632 3958 
Q 2384 4250 1959 4250 
Q 1534 4250 1286 3958 
Q 1038 3666 1038 3163 
Q 1038 2656 1286 2365 
Q 1534 2075 1959 2075 
z
" transform="scale(0.015625)"/>
       </defs>
       <use xlink:href="#DejaVuSans-30"/>
       <use xlink:href="#DejaVuSans-2e" transform="translate(63.623047 0)"/>
       <use xlink:href="#DejaVuSans-39" transform="translate(95.410156 0)"/>
      </g>
     </g>
    </g>
    <g id="ytick_6">
     <g id="line2d_6">
      <path d="M 36 25.92 
L 259.2 25.92 
" clip-path="url(#pa37b55648b)" style="fill: none; stroke: #cccccc; stroke-linecap: round"/>
     </g>
     <g id="text_9">
      <!-- 1.0 -->
      <g style="fill: #262626" transform="translate(10.596875 29.719219) scale(0.1 -0.1)">
       <use xlink:href="#DejaVuSans-31"/>
       <use xlink:href="#DejaVuSans-2e" transform="translate(63.623047 0)"/>
       <use xlink:href="#DejaVuSans-30" transform="translate(95.410156 0)"/>
      </g>
     </g>
    </g>
    <g id="text_10">
     <!-- Spearman corr. -->
     <g style="fill: #262626" transform="translate(4.10125 154.816875) rotate(-90) scale(0.12 -0.12)">
      <defs>
       <path id="DejaVuSans-53" d="M 3425 4513 
L 3425 3897 
Q 3066 4069 2747 4153 
Q 2428 4238 2131 4238 
Q 1616 4238 1336 4038 
Q 1056 3838 1056 3469 
Q 1056 3159 1242 3001 
Q 1428 2844 1947 2747 
L 2328 2669 
Q 3034 2534 3370 2195 
Q 3706 1856 3706 1288 
Q 3706 609 3251 259 
Q 2797 -91 1919 -91 
Q 1588 -91 1214 -16 
Q 841 59 441 206 
L 441 856 
Q 825 641 1194 531 
Q 1563 422 1919 422 
Q 2459 422 2753 634 
Q 3047 847 3047 1241 
Q 3047 1584 2836 1778 
Q 2625 1972 2144 2069 
L 1759 2144 
Q 1053 2284 737 2584 
Q 422 2884 422 3419 
Q 422 4038 858 4394 
Q 1294 4750 2059 4750 
Q 2388 4750 2728 4690 
Q 3069 4631 3425 4513 
z
" transform="scale(0.015625)"/>
       <path id="DejaVuSans-70" d="M 1159 525 
L 1159 -1331 
L 581 -1331 
L 581 3500 
L 1159 3500 
L 1159 2969 
Q 1341 3281 1617 3432 
Q 1894 3584 2278 3584 
Q 2916 3584 3314 3078 
Q 3713 2572 3713 1747 
Q 3713 922 3314 415 
Q 2916 -91 2278 -91 
Q 1894 -91 1617 61 
Q 1341 213 1159 525 
z
M 3116 1747 
Q 3116 2381 2855 2742 
Q 2594 3103 2138 3103 
Q 1681 3103 1420 2742 
Q 1159 2381 1159 1747 
Q 1159 1113 1420 752 
Q 1681 391 2138 391 
Q 2594 391 2855 752 
Q 3116 1113 3116 1747 
z
" transform="scale(0.015625)"/>
       <path id="DejaVuSans-65" d="M 3597 1894 
L 3597 1613 
L 953 1613 
Q 991 1019 1311 708 
Q 1631 397 2203 397 
Q 2534 397 2845 478 
Q 3156 559 3463 722 
L 3463 178 
Q 3153 47 2828 -22 
Q 2503 -91 2169 -91 
Q 1331 -91 842 396 
Q 353 884 353 1716 
Q 353 2575 817 3079 
Q 1281 3584 2069 3584 
Q 2775 3584 3186 3129 
Q 3597 2675 3597 1894 
z
M 3022 2063 
Q 3016 2534 2758 2815 
Q 2500 3097 2075 3097 
Q 1594 3097 1305 2825 
Q 1016 2553 972 2059 
L 3022 2063 
z
" transform="scale(0.015625)"/>
       <path id="DejaVuSans-72" d="M 2631 2963 
Q 2534 3019 2420 3045 
Q 2306 3072 2169 3072 
Q 1681 3072 1420 2755 
Q 1159 2438 1159 1844 
L 1159 0 
L 581 0 
L 581 3500 
L 1159 3500 
L 1159 2956 
Q 1341 3275 1631 3429 
Q 1922 3584 2338 3584 
Q 2397 3584 2469 3576 
Q 2541 3569 2628 3553 
L 2631 2963 
z
" transform="scale(0.015625)"/>
       <path id="DejaVuSans-6d" d="M 3328 2828 
Q 3544 3216 3844 3400 
Q 4144 3584 4550 3584 
Q 5097 3584 5394 3201 
Q 5691 2819 5691 2113 
L 5691 0 
L 5113 0 
L 5113 2094 
Q 5113 2597 4934 2840 
Q 4756 3084 4391 3084 
Q 3944 3084 3684 2787 
Q 3425 2491 3425 1978 
L 3425 0 
L 2847 0 
L 2847 2094 
Q 2847 2600 2669 2842 
Q 2491 3084 2119 3084 
Q 1678 3084 1418 2786 
Q 1159 2488 1159 1978 
L 1159 0 
L 581 0 
L 581 3500 
L 1159 3500 
L 1159 2956 
Q 1356 3278 1631 3431 
Q 1906 3584 2284 3584 
Q 2666 3584 2933 3390 
Q 3200 3197 3328 2828 
z
" transform="scale(0.015625)"/>
       <path id="DejaVuSans-6e" d="M 3513 2113 
L 3513 0 
L 2938 0 
L 2938 2094 
Q 2938 2591 2744 2837 
Q 2550 3084 2163 3084 
Q 1697 3084 1428 2787 
Q 1159 2491 1159 1978 
L 1159 0 
L 581 0 
L 581 3500 
L 1159 3500 
L 1159 2956 
Q 1366 3272 1645 3428 
Q 1925 3584 2291 3584 
Q 2894 3584 3203 3211 
Q 3513 2838 3513 2113 
z
" transform="scale(0.015625)"/>
       <path id="DejaVuSans-20" transform="scale(0.015625)"/>
       <path id="DejaVuSans-63" d="M 3122 3366 
L 3122 2828 
Q 2878 2963 2633 3030 
Q 2388 3097 2138 3097 
Q 1578 3097 1268 2742 
Q 959 2388 959 1747 
Q 959 1106 1268 751 
Q 1578 397 2138 397 
Q 2388 397 2633 464 
Q 2878 531 3122 666 
L 3122 134 
Q 2881 22 2623 -34 
Q 2366 -91 2075 -91 
Q 1284 -91 818 406 
Q 353 903 353 1747 
Q 353 2603 823 3093 
Q 1294 3584 2113 3584 
Q 2378 3584 2631 3529 
Q 2884 3475 3122 3366 
z
" transform="scale(0.015625)"/>
       <path id="DejaVuSans-6f" d="M 1959 3097 
Q 1497 3097 1228 2736 
Q 959 2375 959 1747 
Q 959 1119 1226 758 
Q 1494 397 1959 397 
Q 2419 397 2687 759 
Q 2956 1122 2956 1747 
Q 2956 2369 2687 2733 
Q 2419 3097 1959 3097 
z
M 1959 3584 
Q 2709 3584 3137 3096 
Q 3566 2609 3566 1747 
Q 3566 888 3137 398 
Q 2709 -91 1959 -91 
Q 1206 -91 779 398 
Q 353 888 353 1747 
Q 353 2609 779 3096 
Q 1206 3584 1959 3584 
z
" transform="scale(0.015625)"/>
      </defs>
      <use xlink:href="#DejaVuSans-53"/>
      <use xlink:href="#DejaVuSans-70" transform="translate(63.476562 0)"/>
      <use xlink:href="#DejaVuSans-65" transform="translate(126.953125 0)"/>
      <use xlink:href="#DejaVuSans-61" transform="translate(188.476562 0)"/>
      <use xlink:href="#DejaVuSans-72" transform="translate(249.755859 0)"/>
      <use xlink:href="#DejaVuSans-6d" transform="translate(289.119141 0)"/>
      <use xlink:href="#DejaVuSans-61" transform="translate(386.53125 0)"/>
      <use xlink:href="#DejaVuSans-6e" transform="translate(447.810547 0)"/>
      <use xlink:href="#DejaVuSans-20" transform="translate(511.189453 0)"/>
      <use xlink:href="#DejaVuSans-63" transform="translate(542.976562 0)"/>
      <use xlink:href="#DejaVuSans-6f" transform="translate(597.957031 0)"/>
      <use xlink:href="#DejaVuSans-72" transform="translate(659.138672 0)"/>
      <use xlink:href="#DejaVuSans-72" transform="translate(698.501953 0)"/>
      <use xlink:href="#DejaVuSans-2e" transform="translate(730.490234 0)"/>
     </g>
    </g>
   </g>
   <g id="FillBetweenPolyCollection_1">
    <defs>
     <path id="m55cb0ad83d" d="M 96.951789 -150.97019 
L 96.793666 -150.97019 
L 96.757142 -151.370921 
L 96.710231 -151.771652 
L 96.652968 -152.172382 
L 96.586655 -152.573113 
L 96.513928 -152.973844 
L 96.438456 -153.374575 
L 96.364219 -153.775305 
L 96.294393 -154.176036 
L 96.230022 -154.576767 
L 96.16876 -154.977498 
L 96.104031 -155.378228 
L 96.024935 -155.778959 
L 95.917101 -156.17969 
L 95.764508 -156.580421 
L 95.552075 -156.981151 
L 95.26858 -157.381882 
L 94.909323 -157.782613 
L 94.477916 -158.183344 
L 93.986629 -158.584074 
L 93.455033 -158.984805 
L 92.906993 -159.385536 
L 92.366532 -159.786266 
L 91.853428 -160.186997 
L 91.379578 -160.587728 
L 90.947063 -160.988459 
L 90.548443 -161.389189 
L 90.169256 -161.78992 
L 89.79202 -162.190651 
L 89.40067 -162.591382 
L 88.984159 -162.992112 
L 88.538236 -163.392843 
L 88.064905 -163.793574 
L 87.569712 -164.194305 
L 87.057599 -164.595035 
L 86.528426 -164.995766 
L 85.973374 -165.396497 
L 85.373264 -165.797228 
L 84.699431 -166.197958 
L 83.917268 -166.598689 
L 82.991913 -166.99942 
L 81.895024 -167.400151 
L 80.61116 -167.800881 
L 79.142202 -168.201612 
L 77.508601 -168.602343 
L 75.74692 -169.003074 
L 73.904156 -169.403804 
L 72.030213 -169.804535 
L 70.17052 -170.205266 
L 68.360758 -170.605997 
L 66.625018 -171.006727 
L 64.97762 -171.407458 
L 63.427629 -171.808189 
L 61.984242 -172.20892 
L 60.660976 -172.60965 
L 59.477087 -173.010381 
L 58.455692 -173.411112 
L 57.619275 -173.811843 
L 56.984253 -174.212573 
L 56.556658 -174.613304 
L 56.330681 -175.014035 
L 56.290909 -175.414766 
L 56.417858 -175.815496 
L 56.695252 -176.216227 
L 57.116795 -176.616958 
L 57.690125 -177.017689 
L 58.43633 -177.418419 
L 59.384653 -177.81915 
L 60.563504 -178.219881 
L 61.990119 -178.620611 
L 63.661842 -179.021342 
L 65.55166 -179.422073 
L 67.609461 -179.822804 
L 69.7688 -180.223534 
L 71.957342 -180.624265 
L 74.108149 -181.024996 
L 76.168883 -181.425727 
L 78.106868 -181.826457 
L 79.909314 -182.227188 
L 81.579447 -182.627919 
L 83.130267 -183.02865 
L 84.577971 -183.42938 
L 85.936711 -183.830111 
L 87.215611 -184.230842 
L 88.418117 -184.631573 
L 89.543107 -185.032303 
L 90.58687 -185.433034 
L 91.545134 -185.833765 
L 92.414563 -186.234496 
L 93.193524 -186.635226 
L 93.882231 -187.035957 
L 94.482521 -187.436688 
L 94.997555 -187.837419 
L 95.431612 -188.238149 
L 95.790025 -188.63888 
L 96.079177 -189.039611 
L 96.306443 -189.440342 
L 96.480003 -189.841072 
L 96.608481 -190.241803 
L 96.700477 -190.642534 
L 97.044977 -190.642534 
L 97.044977 -190.642534 
L 97.136974 -190.241803 
L 97.265451 -189.841072 
L 97.439012 -189.440342 
L 97.666278 -189.039611 
L 97.955429 -188.63888 
L 98.313842 -188.238149 
L 98.7479 -187.837419 
L 99.262934 -187.436688 
L 99.863224 -187.035957 
L 100.551931 -186.635226 
L 101.330892 -186.234496 
L 102.200321 -185.833765 
L 103.158584 -185.433034 
L 104.202347 -185.032303 
L 105.327337 -184.631573 
L 106.529844 -184.230842 
L 107.808744 -183.830111 
L 109.167484 -183.42938 
L 110.615188 -183.02865 
L 112.166008 -182.627919 
L 113.836141 -182.227188 
L 115.638586 -181.826457 
L 117.576571 -181.425727 
L 119.637305 -181.024996 
L 121.788112 -180.624265 
L 123.976655 -180.223534 
L 126.135993 -179.822804 
L 128.193795 -179.422073 
L 130.083613 -179.021342 
L 131.755336 -178.620611 
L 133.18195 -178.219881 
L 134.360801 -177.81915 
L 135.309125 -177.418419 
L 136.055329 -177.017689 
L 136.62866 -176.616958 
L 137.050203 -176.216227 
L 137.327597 -175.815496 
L 137.454545 -175.414766 
L 137.414773 -175.014035 
L 137.188796 -174.613304 
L 136.761201 -174.212573 
L 136.126179 -173.811843 
L 135.289763 -173.411112 
L 134.268368 -173.010381 
L 133.084479 -172.60965 
L 131.761213 -172.20892 
L 130.317826 -171.808189 
L 128.767835 -171.407458 
L 127.120436 -171.006727 
L 125.384697 -170.605997 
L 123.574935 -170.205266 
L 121.715242 -169.804535 
L 119.841298 -169.403804 
L 117.998534 -169.003074 
L 116.236854 -168.602343 
L 114.603252 -168.201612 
L 113.134294 -167.800881 
L 111.85043 -167.400151 
L 110.753541 -166.99942 
L 109.828186 -166.598689 
L 109.046023 -166.197958 
L 108.372191 -165.797228 
L 107.772081 -165.396497 
L 107.217029 -164.995766 
L 106.687856 -164.595035 
L 106.175743 -164.194305 
L 105.68055 -163.793574 
L 105.207219 -163.392843 
L 104.761296 -162.992112 
L 104.344784 -162.591382 
L 103.953434 -162.190651 
L 103.576198 -161.78992 
L 103.197011 -161.389189 
L 102.798392 -160.988459 
L 102.365876 -160.587728 
L 101.892026 -160.186997 
L 101.378922 -159.786266 
L 100.838461 -159.385536 
L 100.290421 -158.984805 
L 99.758826 -158.584074 
L 99.267539 -158.183344 
L 98.836131 -157.782613 
L 98.476875 -157.381882 
L 98.193379 -156.981151 
L 97.980947 -156.580421 
L 97.828354 -156.17969 
L 97.720519 -155.778959 
L 97.641424 -155.378228 
L 97.576695 -154.977498 
L 97.515432 -154.576767 
L 97.451061 -154.176036 
L 97.381236 -153.775305 
L 97.306999 -153.374575 
L 97.231527 -152.973844 
L 97.158799 -152.573113 
L 97.092487 -152.172382 
L 97.035224 -151.771652 
L 96.988313 -151.370921 
L 96.951789 -150.97019 
z
" style="stroke: #393939; stroke-width: 1.5"/>
    </defs>
    <g clip-path="url(#pa37b55648b)">
     <use xlink:href="#m55cb0ad83d" x="0" y="216" style="fill: #3c6682; stroke: #393939; stroke-width: 1.5"/>
    </g>
   </g>
   <g id="FillBetweenPolyCollection_2">
    <defs>
     <path id="mce066a0f61" d="M 198.391873 -133.929768 
L 198.262673 -133.929768 
L 198.230128 -134.531597 
L 198.187647 -135.133427 
L 198.135377 -135.735256 
L 198.074903 -136.337085 
L 198.009319 -136.938915 
L 197.942866 -137.540744 
L 197.880118 -138.142574 
L 197.824833 -138.744403 
L 197.778759 -139.346232 
L 197.74073 -139.948062 
L 197.706376 -140.549891 
L 197.668597 -141.151721 
L 197.618732 -141.75355 
L 197.548145 -142.35538 
L 197.449848 -142.957209 
L 197.319802 -143.559038 
L 197.157638 -144.160868 
L 196.96668 -144.762697 
L 196.753322 -145.364527 
L 196.525848 -145.966356 
L 196.29292 -146.568185 
L 196.06204 -147.170015 
L 195.838385 -147.771844 
L 195.624436 -148.373674 
L 195.420677 -148.975503 
L 195.227299 -149.577333 
L 195.046381 -150.179162 
L 194.883658 -150.780991 
L 194.748927 -151.382821 
L 194.654482 -151.98465 
L 194.611746 -152.58648 
L 194.626988 -153.188309 
L 194.697564 -153.790138 
L 194.810038 -154.391968 
L 194.940975 -154.993797 
L 195.060275 -155.595627 
L 195.136163 -156.197456 
L 195.14046 -156.799286 
L 195.052867 -157.401115 
L 194.863382 -158.002944 
L 194.572511 -158.604774 
L 194.18943 -159.206603 
L 193.728574 -159.808433 
L 193.205347 -160.410262 
L 192.631723 -161.012092 
L 192.012552 -161.613921 
L 191.343259 -162.21575 
L 190.60938 -162.81758 
L 189.788001 -163.419409 
L 188.850823 -164.021239 
L 187.768253 -164.623068 
L 186.5138 -165.224897 
L 185.068114 -165.826727 
L 183.422203 -166.428556 
L 181.579584 -167.030386 
L 179.557362 -167.632215 
L 177.386262 -168.234045 
L 175.109603 -168.835874 
L 172.781076 -169.437703 
L 170.461187 -170.039533 
L 168.212445 -170.641362 
L 166.093843 -171.243192 
L 164.15571 -171.845021 
L 162.43627 -172.44685 
L 160.961077 -173.04868 
L 159.745689 -173.650509 
L 158.800922 -174.252339 
L 158.13898 -174.854168 
L 157.778335 -175.455998 
L 157.745455 -176.057827 
L 158.072454 -176.659656 
L 158.791032 -177.261486 
L 159.924233 -177.863315 
L 161.478251 -178.465145 
L 163.43642 -179.066974 
L 165.756882 -179.668803 
L 168.374403 -180.270633 
L 171.205787 -180.872462 
L 174.157624 -181.474292 
L 177.134781 -182.076121 
L 180.048181 -182.677951 
L 182.820826 -183.27978 
L 185.391577 -183.881609 
L 187.716786 -184.483439 
L 189.770175 -185.085268 
L 191.541542 -185.687098 
L 193.034737 -186.288927 
L 194.265169 -186.890757 
L 195.256974 -187.492586 
L 196.039943 -188.094415 
L 196.646398 -188.696245 
L 197.108344 -189.298074 
L 197.455215 -189.899904 
L 197.71246 -190.501733 
L 197.90101 -191.103562 
L 198.037462 -191.705392 
L 198.134698 -192.307221 
L 198.20265 -192.909051 
L 198.248997 -193.51088 
L 198.405549 -193.51088 
L 198.405549 -193.51088 
L 198.451896 -192.909051 
L 198.519847 -192.307221 
L 198.617083 -191.705392 
L 198.753535 -191.103562 
L 198.942086 -190.501733 
L 199.199331 -189.899904 
L 199.546201 -189.298074 
L 200.008147 -188.696245 
L 200.614603 -188.094415 
L 201.397571 -187.492586 
L 202.389377 -186.890757 
L 203.619808 -186.288927 
L 205.113003 -185.687098 
L 206.884371 -185.085268 
L 208.937759 -184.483439 
L 211.262968 -183.881609 
L 213.83372 -183.27978 
L 216.606364 -182.677951 
L 219.519765 -182.076121 
L 222.496922 -181.474292 
L 225.448759 -180.872462 
L 228.280143 -180.270633 
L 230.897663 -179.668803 
L 233.218125 -179.066974 
L 235.176294 -178.465145 
L 236.730313 -177.863315 
L 237.863514 -177.261486 
L 238.582091 -176.659656 
L 238.909091 -176.057827 
L 238.876211 -175.455998 
L 238.515565 -174.854168 
L 237.853623 -174.252339 
L 236.908856 -173.650509 
L 235.693469 -173.04868 
L 234.218275 -172.44685 
L 232.498836 -171.845021 
L 230.560702 -171.243192 
L 228.442101 -170.641362 
L 226.193359 -170.039533 
L 223.873469 -169.437703 
L 221.544942 -168.835874 
L 219.268283 -168.234045 
L 217.097183 -167.632215 
L 215.074962 -167.030386 
L 213.232343 -166.428556 
L 211.586431 -165.826727 
L 210.140746 -165.224897 
L 208.886292 -164.623068 
L 207.803723 -164.021239 
L 206.866545 -163.419409 
L 206.045165 -162.81758 
L 205.311286 -162.21575 
L 204.641994 -161.613921 
L 204.022822 -161.012092 
L 203.449198 -160.410262 
L 202.925971 -159.808433 
L 202.465116 -159.206603 
L 202.082034 -158.604774 
L 201.791163 -158.002944 
L 201.601678 -157.401115 
L 201.514085 -156.799286 
L 201.518382 -156.197456 
L 201.59427 -155.595627 
L 201.713571 -154.993797 
L 201.844507 -154.391968 
L 201.956982 -153.790138 
L 202.027557 -153.188309 
L 202.042799 -152.58648 
L 202.000063 -151.98465 
L 201.905619 -151.382821 
L 201.770887 -150.780991 
L 201.608165 -150.179162 
L 201.427246 -149.577333 
L 201.233868 -148.975503 
L 201.030109 -148.373674 
L 200.816161 -147.771844 
L 200.592506 -147.170015 
L 200.361626 -146.568185 
L 200.128697 -145.966356 
L 199.901223 -145.364527 
L 199.687865 -144.762697 
L 199.496908 -144.160868 
L 199.334743 -143.559038 
L 199.204698 -142.957209 
L 199.106401 -142.35538 
L 199.035813 -141.75355 
L 198.985948 -141.151721 
L 198.94817 -140.549891 
L 198.913815 -139.948062 
L 198.875786 -139.346232 
L 198.829713 -138.744403 
L 198.774428 -138.142574 
L 198.711679 -137.540744 
L 198.645226 -136.938915 
L 198.579643 -136.337085 
L 198.519169 -135.735256 
L 198.466898 -135.133427 
L 198.424418 -134.531597 
L 198.391873 -133.929768 
z
" style="stroke: #393939; stroke-width: 1.5"/>
    </defs>
    <g clip-path="url(#pa37b55648b)">
     <use xlink:href="#mce066a0f61" x="0" y="216" style="fill: #45a778; stroke: #393939; stroke-width: 1.5"/>
    </g>
   </g>
   <g id="line2d_7">
    <path d="M 67.437963 45.180958 
L 126.307491 45.180958 
" clip-path="url(#pa37b55648b)" style="fill: none; stroke-dasharray: 1.875,1.125; stroke-dashoffset: 0; stroke: #393939; stroke-width: 1.5"/>
   </g>
   <g id="line2d_8">
    <path d="M 56.416457 41.138073 
L 137.328998 41.138073 
" clip-path="url(#pa37b55648b)" style="fill: none; stroke-dasharray: 3.75,1.5; stroke-dashoffset: 0; stroke: #393939; stroke-width: 1.5"/>
   </g>
   <g id="line2d_9">
    <path d="M 61.568786 37.497739 
L 132.176669 37.497739 
" clip-path="url(#pa37b55648b)" style="fill: none; stroke-dasharray: 1.875,1.125; stroke-dashoffset: 0; stroke: #393939; stroke-width: 1.5"/>
   </g>
   <g id="line2d_10">
    <path d="M 170.491777 45.968403 
L 226.162769 45.968403 
" clip-path="url(#pa37b55648b)" style="fill: none; stroke-dasharray: 1.875,1.125; stroke-dashoffset: 0; stroke: #393939; stroke-width: 1.5"/>
   </g>
   <g id="line2d_11">
    <path d="M 158.480443 41.456286 
L 238.174102 41.456286 
" clip-path="url(#pa37b55648b)" style="fill: none; stroke-dasharray: 3.75,1.5; stroke-dashoffset: 0; stroke: #393939; stroke-width: 1.5"/>
   </g>
   <g id="line2d_12">
    <path d="M 160.437154 37.938044 
L 236.217392 37.938044 
" clip-path="url(#pa37b55648b)" style="fill: none; stroke-dasharray: 1.875,1.125; stroke-dashoffset: 0; stroke: #393939; stroke-width: 1.5"/>
   </g>
   <g id="LineCollection_1">
    <path d="M 46.145455 73.00867 
L 249.054545 73.00867 
" clip-path="url(#pa37b55648b)" style="fill: none; stroke-dasharray: 5.55,2.4; stroke-dashoffset: 0; stroke: #ff0000; stroke-width: 1.5"/>
   </g>
   <g id="patch_3">
    <path d="M 36 192.24 
L 36 25.92 
" style="fill: none; stroke: #cccccc; stroke-width: 1.25; stroke-linejoin: miter; stroke-linecap: square"/>
   </g>
   <g id="patch_4">
    <path d="M 259.2 192.24 
L 259.2 25.92 
" style="fill: none; stroke: #cccccc; stroke-width: 1.25; stroke-linejoin: miter; stroke-linecap: square"/>
   </g>
   <g id="patch_5">
    <path d="M 36 192.24 
L 259.2 192.24 
" style="fill: none; stroke: #cccccc; stroke-width: 1.25; stroke-linejoin: miter; stroke-linecap: square"/>
   </g>
   <g id="patch_6">
    <path d="M 36 25.92 
L 259.2 25.92 
" style="fill: none; stroke: #cccccc; stroke-width: 1.25; stroke-linejoin: miter; stroke-linecap: square"/>
   </g>
   <g id="text_11">
    <!-- Pair-wise corr -->
    <g style="fill: #262626" transform="translate(100.890312 19.92) scale(0.14 -0.14)">
     <defs>
      <path id="DejaVuSans-50" d="M 1259 4147 
L 1259 2394 
L 2053 2394 
Q 2494 2394 2734 2622 
Q 2975 2850 2975 3272 
Q 2975 3691 2734 3919 
Q 2494 4147 2053 4147 
L 1259 4147 
z
M 628 4666 
L 2053 4666 
Q 2838 4666 3239 4311 
Q 3641 3956 3641 3272 
Q 3641 2581 3239 2228 
Q 2838 1875 2053 1875 
L 1259 1875 
L 1259 0 
L 628 0 
L 628 4666 
z
" transform="scale(0.015625)"/>
      <path id="DejaVuSans-69" d="M 603 3500 
L 1178 3500 
L 1178 0 
L 603 0 
L 603 3500 
z
M 603 4863 
L 1178 4863 
L 1178 4134 
L 603 4134 
L 603 4863 
z
" transform="scale(0.015625)"/>
      <path id="DejaVuSans-2d" d="M 313 2009 
L 1997 2009 
L 1997 1497 
L 313 1497 
L 313 2009 
z
" transform="scale(0.015625)"/>
      <path id="DejaVuSans-77" d="M 269 3500 
L 844 3500 
L 1563 769 
L 2278 3500 
L 2956 3500 
L 3675 769 
L 4391 3500 
L 4966 3500 
L 4050 0 
L 3372 0 
L 2619 2869 
L 1863 0 
L 1184 0 
L 269 3500 
z
" transform="scale(0.015625)"/>
      <path id="DejaVuSans-73" d="M 2834 3397 
L 2834 2853 
Q 2591 2978 2328 3040 
Q 2066 3103 1784 3103 
Q 1356 3103 1142 2972 
Q 928 2841 928 2578 
Q 928 2378 1081 2264 
Q 1234 2150 1697 2047 
L 1894 2003 
Q 2506 1872 2764 1633 
Q 3022 1394 3022 966 
Q 3022 478 2636 193 
Q 2250 -91 1575 -91 
Q 1294 -91 989 -36 
Q 684 19 347 128 
L 347 722 
Q 666 556 975 473 
Q 1284 391 1588 391 
Q 1994 391 2212 530 
Q 2431 669 2431 922 
Q 2431 1156 2273 1281 
Q 2116 1406 1581 1522 
L 1381 1569 
Q 847 1681 609 1914 
Q 372 2147 372 2553 
Q 372 3047 722 3315 
Q 1072 3584 1716 3584 
Q 2034 3584 2315 3537 
Q 2597 3491 2834 3397 
z
" transform="scale(0.015625)"/>
     </defs>
     <use xlink:href="#DejaVuSans-50"/>
     <use xlink:href="#DejaVuSans-61" transform="translate(55.802734 0)"/>
     <use xlink:href="#DejaVuSans-69" transform="translate(117.082031 0)"/>
     <use xlink:href="#DejaVuSans-72" transform="translate(144.865234 0)"/>
     <use xlink:href="#DejaVuSans-2d" transform="translate(179.603516 0)"/>
     <use xlink:href="#DejaVuSans-77" transform="translate(215.6875 0)"/>
     <use xlink:href="#DejaVuSans-69" transform="translate(297.474609 0)"/>
     <use xlink:href="#DejaVuSans-73" transform="translate(325.257812 0)"/>
     <use xlink:href="#DejaVuSans-65" transform="translate(377.357422 0)"/>
     <use xlink:href="#DejaVuSans-20" transform="translate(438.880859 0)"/>
     <use xlink:href="#DejaVuSans-63" transform="translate(470.667969 0)"/>
     <use xlink:href="#DejaVuSans-6f" transform="translate(525.648438 0)"/>
     <use xlink:href="#DejaVuSans-72" transform="translate(586.830078 0)"/>
     <use xlink:href="#DejaVuSans-72" transform="translate(626.193359 0)"/>
    </g>
   </g>
  </g>
 </g>
 <defs>
  <clipPath id="pa37b55648b">
   <rect x="36" y="25.92" width="223.2" height="166.32"/>
  </clipPath>
 </defs>
</svg>
