<?xml version="1.0" encoding="utf-8" standalone="no"?>
<!DOCTYPE svg PUBLIC "-//W3C//DTD SVG 1.1//EN"
  "http://www.w3.org/Graphics/SVG/1.1/DTD/svg11.dtd">
<svg xmlns:xlink="http://www.w3.org/1999/xlink" width="288pt" height="216pt" viewBox="0 0 288 216" xmlns="http://www.w3.org/2000/svg" version="1.1">
 <metadata>
  <rdf:RDF xmlns:dc="http://purl.org/dc/elements/1.1/" xmlns:cc="http://creativecommons.org/ns#" xmlns:rdf="http://www.w3.org/1999/02/22-rdf-syntax-ns#">
   <cc:Work>
    <dc:type rdf:resource="http://purl.org/dc/dcmitype/StillImage"/>
    <dc:date>2025-11-25T15:46:07.314393</dc:date>
    <dc:format>image/svg+xml</dc:format>
    <dc:creator>
     <cc:Agent>
      <dc:title>Matplotlib v3.10.0, https://matplotlib.org/</dc:title>
     </cc:Agent>
    </dc:creator>
   </cc:Work>
  </rdf:RDF>
 </metadata>
 <defs>
  <style type="text/css">*{stroke-linejoin: round; stroke-linecap: butt}</style>
 </defs>
 <g id="figure_1">
  <g id="patch_1">
   <path d="M 0 216 
L 288 216 
L 288 0 
L 0 0 
z
" style="fill: #ffffff"/>
  </g>
  <g id="axes_1">
   <g id="patch_2">
    <path d="M 36 192.24 
L 259.2 192.24 
L 259.2 25.92 
L 36 25.92 
z
" style="fill: #ffffff"/>
   </g>
   <g id="matplotlib.axis_1">
    <g id="xtick_1">
     <g id="text_1">
      <!-- D01 -->
      <g style="fill: #262626" transform="translate(48.614773 209.338437) scale(0.1 -0.1)">
       <defs>
        <path id="DejaVuSans-44" d="M 1259 4147 
L 1259 519 
L 2022 519 
Q 2988 519 3436 956 
Q 3884 1394 3884 2338 
Q 3884 3275 3436 3711 
Q 2988 4147 2022 4147 
L 1259 4147 
z
M 628 4666 
L 1925 4666 
Q 3281 4666 3915 4102 
Q 4550 3538 4550 2338 
Q 4550 1131 3912 565 
Q 3275 0 1925 0 
L 628 0 
L 628 4666 
z
" transform="scale(0.015625)"/>
        <path id="DejaVuSans-30" d="M 2034 4250 
Q 1547 4250 1301 3770 
Q 1056 3291 1056 2328 
Q 1056 1369 1301 889 
Q 1547 409 2034 409 
Q 2525 409 2770 889 
Q 3016 1369 3016 2328 
Q 3016 3291 2770 3770 
Q 2525 4250 2034 4250 
z
M 2034 4750 
Q 2819 4750 3233 4129 
Q 3647 3509 3647 2328 
Q 3647 1150 3233 529 
Q 2819 -91 2034 -91 
Q 1250 -91 836 529 
Q 422 1150 422 2328 
Q 422 3509 836 4129 
Q 1250 4750 2034 4750 
z
" transform="scale(0.015625)"/>
        <path id="DejaVuSans-31" d="M 794 531 
L 1825 531 
L 1825 4091 
L 703 3866 
L 703 4441 
L 1819 4666 
L 2450 4666 
L 2450 531 
L 3481 531 
L 3481 0 
L 794 0 
L 794 531 
z
" transform="scale(0.015625)"/>
       </defs>
       <use xlink:href="#DejaVuSans-44"/>
       <use xlink:href="#DejaVuSans-30" transform="translate(77.001953 0)"/>
       <use xlink:href="#DejaVuSans-31" transform="translate(140.625 0)"/>
      </g>
     </g>
    </g>
    <g id="xtick_2">
     <g id="text_2">
      <!-- D02 -->
      <g style="fill: #262626" transform="translate(73.978409 209.338437) scale(0.1 -0.1)">
       <defs>
        <path id="DejaVuSans-32" d="M 1228 531 
L 3431 531 
L 3431 0 
L 469 0 
L 469 531 
Q 828 903 1448 1529 
Q 2069 2156 2228 2338 
Q 2531 2678 2651 2914 
Q 2772 3150 2772 3378 
Q 2772 3750 2511 3984 
Q 2250 4219 1831 4219 
Q 1534 4219 1204 4116 
Q 875 4013 500 3803 
L 500 4441 
Q 881 4594 1212 4672 
Q 1544 4750 1819 4750 
Q 2544 4750 2975 4387 
Q 3406 4025 3406 3419 
Q 3406 3131 3298 2873 
Q 3191 2616 2906 2266 
Q 2828 2175 2409 1742 
Q 1991 1309 1228 531 
z
" transform="scale(0.015625)"/>
       </defs>
       <use xlink:href="#DejaVuSans-44"/>
       <use xlink:href="#DejaVuSans-30" transform="translate(77.001953 0)"/>
       <use xlink:href="#DejaVuSans-32" transform="translate(140.625 0)"/>
      </g>
     </g>
    </g>
    <g id="xtick_3">
     <g id="text_3">
      <!-- D03 -->
      <g style="fill: #262626" transform="translate(99.342045 209.338437) scale(0.1 -0.1)">
       <defs>
        <path id="DejaVuSans-33" d="M 2597 2516 
Q 3050 2419 3304 2112 
Q 3559 1806 3559 1356 
Q 3559 666 3084 287 
Q 2609 -91 1734 -91 
Q 1441 -91 1130 -33 
Q 819 25 488 141 
L 488 750 
Q 750 597 1062 519 
Q 1375 441 1716 441 
Q 2309 441 2620 675 
Q 2931 909 2931 1356 
Q 2931 1769 2642 2001 
Q 2353 2234 1838 2234 
L 1294 2234 
L 1294 2753 
L 1863 2753 
Q 2328 2753 2575 2939 
Q 2822 3125 2822 3475 
Q 2822 3834 2567 4026 
Q 2313 4219 1838 4219 
Q 1578 4219 1281 4162 
Q 984 4106 628 3988 
L 628 4550 
Q 988 4650 1302 4700 
Q 1616 4750 1894 4750 
Q 2613 4750 3031 4423 
Q 3450 4097 3450 3541 
Q 3450 3153 3228 2886 
Q 3006 2619 2597 2516 
z
" transform="scale(0.015625)"/>
       </defs>
       <use xlink:href="#DejaVuSans-44"/>
       <use xlink:href="#DejaVuSans-30" transform="translate(77.001953 0)"/>
       <use xlink:href="#DejaVuSans-33" transform="translate(140.625 0)"/>
      </g>
     </g>
    </g>
    <g id="xtick_4">
     <g id="text_4">
      <!-- D04 -->
      <g style="fill: #262626" transform="translate(124.705682 209.338437) scale(0.1 -0.1)">
       <defs>
        <path id="DejaVuSans-34" d="M 2419 4116 
L 825 1625 
L 2419 1625 
L 2419 4116 
z
M 2253 4666 
L 3047 4666 
L 3047 1625 
L 3713 1625 
L 3713 1100 
L 3047 1100 
L 3047 0 
L 2419 0 
L 2419 1100 
L 313 1100 
L 313 1709 
L 2253 4666 
z
" transform="scale(0.015625)"/>
       </defs>
       <use xlink:href="#DejaVuSans-44"/>
       <use xlink:href="#DejaVuSans-30" transform="translate(77.001953 0)"/>
       <use xlink:href="#DejaVuSans-34" transform="translate(140.625 0)"/>
      </g>
     </g>
    </g>
    <g id="xtick_5">
     <g id="text_5">
      <!-- D06 -->
      <g style="fill: #262626" transform="translate(150.069318 209.338437) scale(0.1 -0.1)">
       <defs>
        <path id="DejaVuSans-36" d="M 2113 2584 
Q 1688 2584 1439 2293 
Q 1191 2003 1191 1497 
Q 1191 994 1439 701 
Q 1688 409 2113 409 
Q 2538 409 2786 701 
Q 3034 994 3034 1497 
Q 3034 2003 2786 2293 
Q 2538 2584 2113 2584 
z
M 3366 4563 
L 3366 3988 
Q 3128 4100 2886 4159 
Q 2644 4219 2406 4219 
Q 1781 4219 1451 3797 
Q 1122 3375 1075 2522 
Q 1259 2794 1537 2939 
Q 1816 3084 2150 3084 
Q 2853 3084 3261 2657 
Q 3669 2231 3669 1497 
Q 3669 778 3244 343 
Q 2819 -91 2113 -91 
Q 1303 -91 875 529 
Q 447 1150 447 2328 
Q 447 3434 972 4092 
Q 1497 4750 2381 4750 
Q 2619 4750 2861 4703 
Q 3103 4656 3366 4563 
z
" transform="scale(0.015625)"/>
       </defs>
       <use xlink:href="#DejaVuSans-44"/>
       <use xlink:href="#DejaVuSans-30" transform="translate(77.001953 0)"/>
       <use xlink:href="#DejaVuSans-36" transform="translate(140.625 0)"/>
      </g>
     </g>
    </g>
    <g id="xtick_6">
     <g id="text_6">
      <!-- D08 -->
      <g style="fill: #262626" transform="translate(175.432955 209.338437) scale(0.1 -0.1)">
       <defs>
        <path id="DejaVuSans-38" d="M 2034 2216 
Q 1584 2216 1326 1975 
Q 1069 1734 1069 1313 
Q 1069 891 1326 650 
Q 1584 409 2034 409 
Q 2484 409 2743 651 
Q 3003 894 3003 1313 
Q 3003 1734 2745 1975 
Q 2488 2216 2034 2216 
z
M 1403 2484 
Q 997 2584 770 2862 
Q 544 3141 544 3541 
Q 544 4100 942 4425 
Q 1341 4750 2034 4750 
Q 2731 4750 3128 4425 
Q 3525 4100 3525 3541 
Q 3525 3141 3298 2862 
Q 3072 2584 2669 2484 
Q 3125 2378 3379 2068 
Q 3634 1759 3634 1313 
Q 3634 634 3220 271 
Q 2806 -91 2034 -91 
Q 1263 -91 848 271 
Q 434 634 434 1313 
Q 434 1759 690 2068 
Q 947 2378 1403 2484 
z
M 1172 3481 
Q 1172 3119 1398 2916 
Q 1625 2713 2034 2713 
Q 2441 2713 2670 2916 
Q 2900 3119 2900 3481 
Q 2900 3844 2670 4047 
Q 2441 4250 2034 4250 
Q 1625 4250 1398 4047 
Q 1172 3844 1172 3481 
z
" transform="scale(0.015625)"/>
       </defs>
       <use xlink:href="#DejaVuSans-44"/>
       <use xlink:href="#DejaVuSans-30" transform="translate(77.001953 0)"/>
       <use xlink:href="#DejaVuSans-38" transform="translate(140.625 0)"/>
      </g>
     </g>
    </g>
    <g id="xtick_7">
     <g id="text_7">
      <!-- D10 -->
      <g style="fill: #262626" transform="translate(200.796591 209.338437) scale(0.1 -0.1)">
       <use xlink:href="#DejaVuSans-44"/>
       <use xlink:href="#DejaVuSans-31" transform="translate(77.001953 0)"/>
       <use xlink:href="#DejaVuSans-30" transform="translate(140.625 0)"/>
      </g>
     </g>
    </g>
    <g id="xtick_8">
     <g id="text_8">
      <!-- D12 -->
      <g style="fill: #262626" transform="translate(226.160227 209.338437) scale(0.1 -0.1)">
       <use xlink:href="#DejaVuSans-44"/>
       <use xlink:href="#DejaVuSans-31" transform="translate(77.001953 0)"/>
       <use xlink:href="#DejaVuSans-32" transform="translate(140.625 0)"/>
      </g>
     </g>
    </g>
    <g id="text_9">
     <!-- Day -->
     <g style="fill: #262626" transform="translate(135.751875 224.53625) scale(0.12 -0.12)">
      <defs>
       <path id="DejaVuSans-61" d="M 2194 1759 
Q 1497 1759 1228 1600 
Q 959 1441 959 1056 
Q 959 750 1161 570 
Q 1363 391 1709 391 
Q 2188 391 2477 730 
Q 2766 1069 2766 1631 
L 2766 1759 
L 2194 1759 
z
M 3341 1997 
L 3341 0 
L 2766 0 
L 2766 531 
Q 2569 213 2275 61 
Q 1981 -91 1556 -91 
Q 1019 -91 701 211 
Q 384 513 384 1019 
Q 384 1609 779 1909 
Q 1175 2209 1959 2209 
L 2766 2209 
L 2766 2266 
Q 2766 2663 2505 2880 
Q 2244 3097 1772 3097 
Q 1472 3097 1187 3025 
Q 903 2953 641 2809 
L 641 3341 
Q 956 3463 1253 3523 
Q 1550 3584 1831 3584 
Q 2591 3584 2966 3190 
Q 3341 2797 3341 1997 
z
" transform="scale(0.015625)"/>
       <path id="DejaVuSans-79" d="M 2059 -325 
Q 1816 -950 1584 -1140 
Q 1353 -1331 966 -1331 
L 506 -1331 
L 506 -850 
L 844 -850 
Q 1081 -850 1212 -737 
Q 1344 -625 1503 -206 
L 1606 56 
L 191 3500 
L 800 3500 
L 1894 763 
L 2988 3500 
L 3597 3500 
L 2059 -325 
z
" transform="scale(0.015625)"/>
      </defs>
      <use xlink:href="#DejaVuSans-44"/>
      <use xlink:href="#DejaVuSans-61" transform="translate(77.001953 0)"/>
      <use xlink:href="#DejaVuSans-79" transform="translate(138.28125 0)"/>
     </g>
    </g>
   </g>
   <g id="matplotlib.axis_2">
    <g id="ytick_1">
     <g id="line2d_1">
      <path d="M 36 192.24 
L 259.2 192.24 
" clip-path="url(#p841330a03c)" style="fill: none; stroke: #cccccc; stroke-linecap: round"/>
     </g>
     <g id="text_10">
      <!-- 0.0 -->
      <g style="fill: #262626" transform="translate(10.596875 196.039219) scale(0.1 -0.1)">
       <defs>
        <path id="DejaVuSans-2e" d="M 684 794 
L 1344 794 
L 1344 0 
L 684 0 
L 684 794 
z
" transform="scale(0.015625)"/>
       </defs>
       <use xlink:href="#DejaVuSans-30"/>
       <use xlink:href="#DejaVuSans-2e" transform="translate(63.623047 0)"/>
       <use xlink:href="#DejaVuSans-30" transform="translate(95.410156 0)"/>
      </g>
     </g>
    </g>
    <g id="ytick_2">
     <g id="line2d_2">
      <path d="M 36 158.976 
L 259.2 158.976 
" clip-path="url(#p841330a03c)" style="fill: none; stroke: #cccccc; stroke-linecap: round"/>
     </g>
     <g id="text_11">
      <!-- 0.2 -->
      <g style="fill: #262626" transform="translate(10.596875 162.775219) scale(0.1 -0.1)">
       <use xlink:href="#DejaVuSans-30"/>
       <use xlink:href="#DejaVuSans-2e" transform="translate(63.623047 0)"/>
       <use xlink:href="#DejaVuSans-32" transform="translate(95.410156 0)"/>
      </g>
     </g>
    </g>
    <g id="ytick_3">
     <g id="line2d_3">
      <path d="M 36 125.712 
L 259.2 125.712 
" clip-path="url(#p841330a03c)" style="fill: none; stroke: #cccccc; stroke-linecap: round"/>
     </g>
     <g id="text_12">
      <!-- 0.4 -->
      <g style="fill: #262626" transform="translate(10.596875 129.511219) scale(0.1 -0.1)">
       <use xlink:href="#DejaVuSans-30"/>
       <use xlink:href="#DejaVuSans-2e" transform="translate(63.623047 0)"/>
       <use xlink:href="#DejaVuSans-34" transform="translate(95.410156 0)"/>
      </g>
     </g>
    </g>
    <g id="ytick_4">
     <g id="line2d_4">
      <path d="M 36 92.448 
L 259.2 92.448 
" clip-path="url(#p841330a03c)" style="fill: none; stroke: #cccccc; stroke-linecap: round"/>
     </g>
     <g id="text_13">
      <!-- 0.6 -->
      <g style="fill: #262626" transform="translate(10.596875 96.247219) scale(0.1 -0.1)">
       <use xlink:href="#DejaVuSans-30"/>
       <use xlink:href="#DejaVuSans-2e" transform="translate(63.623047 0)"/>
       <use xlink:href="#DejaVuSans-36" transform="translate(95.410156 0)"/>
      </g>
     </g>
    </g>
    <g id="ytick_5">
     <g id="line2d_5">
      <path d="M 36 59.184 
L 259.2 59.184 
" clip-path="url(#p841330a03c)" style="fill: none; stroke: #cccccc; stroke-linecap: round"/>
     </g>
     <g id="text_14">
      <!-- 0.8 -->
      <g style="fill: #262626" transform="translate(10.596875 62.983219) scale(0.1 -0.1)">
       <use xlink:href="#DejaVuSans-30"/>
       <use xlink:href="#DejaVuSans-2e" transform="translate(63.623047 0)"/>
       <use xlink:href="#DejaVuSans-38" transform="translate(95.410156 0)"/>
      </g>
     </g>
    </g>
    <g id="ytick_6">
     <g id="line2d_6">
      <path d="M 36 25.92 
L 259.2 25.92 
" clip-path="url(#p841330a03c)" style="fill: none; stroke: #cccccc; stroke-linecap: round"/>
     </g>
     <g id="text_15">
      <!-- 1.0 -->
      <g style="fill: #262626" transform="translate(10.596875 29.719219) scale(0.1 -0.1)">
       <use xlink:href="#DejaVuSans-31"/>
       <use xlink:href="#DejaVuSans-2e" transform="translate(63.623047 0)"/>
       <use xlink:href="#DejaVuSans-30" transform="translate(95.410156 0)"/>
      </g>
     </g>
    </g>
    <g id="text_16">
     <!-- Spearman corr. -->
     <g style="fill: #262626" transform="translate(4.10125 154.816875) rotate(-90) scale(0.12 -0.12)">
      <defs>
       <path id="DejaVuSans-53" d="M 3425 4513 
L 3425 3897 
Q 3066 4069 2747 4153 
Q 2428 4238 2131 4238 
Q 1616 4238 1336 4038 
Q 1056 3838 1056 3469 
Q 1056 3159 1242 3001 
Q 1428 2844 1947 2747 
L 2328 2669 
Q 3034 2534 3370 2195 
Q 3706 1856 3706 1288 
Q 3706 609 3251 259 
Q 2797 -91 1919 -91 
Q 1588 -91 1214 -16 
Q 841 59 441 206 
L 441 856 
Q 825 641 1194 531 
Q 1563 422 1919 422 
Q 2459 422 2753 634 
Q 3047 847 3047 1241 
Q 3047 1584 2836 1778 
Q 2625 1972 2144 2069 
L 1759 2144 
Q 1053 2284 737 2584 
Q 422 2884 422 3419 
Q 422 4038 858 4394 
Q 1294 4750 2059 4750 
Q 2388 4750 2728 4690 
Q 3069 4631 3425 4513 
z
" transform="scale(0.015625)"/>
       <path id="DejaVuSans-70" d="M 1159 525 
L 1159 -1331 
L 581 -1331 
L 581 3500 
L 1159 3500 
L 1159 2969 
Q 1341 3281 1617 3432 
Q 1894 3584 2278 3584 
Q 2916 3584 3314 3078 
Q 3713 2572 3713 1747 
Q 3713 922 3314 415 
Q 2916 -91 2278 -91 
Q 1894 -91 1617 61 
Q 1341 213 1159 525 
z
M 3116 1747 
Q 3116 2381 2855 2742 
Q 2594 3103 2138 3103 
Q 1681 3103 1420 2742 
Q 1159 2381 1159 1747 
Q 1159 1113 1420 752 
Q 1681 391 2138 391 
Q 2594 391 2855 752 
Q 3116 1113 3116 1747 
z
" transform="scale(0.015625)"/>
       <path id="DejaVuSans-65" d="M 3597 1894 
L 3597 1613 
L 953 1613 
Q 991 1019 1311 708 
Q 1631 397 2203 397 
Q 2534 397 2845 478 
Q 3156 559 3463 722 
L 3463 178 
Q 3153 47 2828 -22 
Q 2503 -91 2169 -91 
Q 1331 -91 842 396 
Q 353 884 353 1716 
Q 353 2575 817 3079 
Q 1281 3584 2069 3584 
Q 2775 3584 3186 3129 
Q 3597 2675 3597 1894 
z
M 3022 2063 
Q 3016 2534 2758 2815 
Q 2500 3097 2075 3097 
Q 1594 3097 1305 2825 
Q 1016 2553 972 2059 
L 3022 2063 
z
" transform="scale(0.015625)"/>
       <path id="DejaVuSans-72" d="M 2631 2963 
Q 2534 3019 2420 3045 
Q 2306 3072 2169 3072 
Q 1681 3072 1420 2755 
Q 1159 2438 1159 1844 
L 1159 0 
L 581 0 
L 581 3500 
L 1159 3500 
L 1159 2956 
Q 1341 3275 1631 3429 
Q 1922 3584 2338 3584 
Q 2397 3584 2469 3576 
Q 2541 3569 2628 3553 
L 2631 2963 
z
" transform="scale(0.015625)"/>
       <path id="DejaVuSans-6d" d="M 3328 2828 
Q 3544 3216 3844 3400 
Q 4144 3584 4550 3584 
Q 5097 3584 5394 3201 
Q 5691 2819 5691 2113 
L 5691 0 
L 5113 0 
L 5113 2094 
Q 5113 2597 4934 2840 
Q 4756 3084 4391 3084 
Q 3944 3084 3684 2787 
Q 3425 2491 3425 1978 
L 3425 0 
L 2847 0 
L 2847 2094 
Q 2847 2600 2669 2842 
Q 2491 3084 2119 3084 
Q 1678 3084 1418 2786 
Q 1159 2488 1159 1978 
L 1159 0 
L 581 0 
L 581 3500 
L 1159 3500 
L 1159 2956 
Q 1356 3278 1631 3431 
Q 1906 3584 2284 3584 
Q 2666 3584 2933 3390 
Q 3200 3197 3328 2828 
z
" transform="scale(0.015625)"/>
       <path id="DejaVuSans-6e" d="M 3513 2113 
L 3513 0 
L 2938 0 
L 2938 2094 
Q 2938 2591 2744 2837 
Q 2550 3084 2163 3084 
Q 1697 3084 1428 2787 
Q 1159 2491 1159 1978 
L 1159 0 
L 581 0 
L 581 3500 
L 1159 3500 
L 1159 2956 
Q 1366 3272 1645 3428 
Q 1925 3584 2291 3584 
Q 2894 3584 3203 3211 
Q 3513 2838 3513 2113 
z
" transform="scale(0.015625)"/>
       <path id="DejaVuSans-20" transform="scale(0.015625)"/>
       <path id="DejaVuSans-63" d="M 3122 3366 
L 3122 2828 
Q 2878 2963 2633 3030 
Q 2388 3097 2138 3097 
Q 1578 3097 1268 2742 
Q 959 2388 959 1747 
Q 959 1106 1268 751 
Q 1578 397 2138 397 
Q 2388 397 2633 464 
Q 2878 531 3122 666 
L 3122 134 
Q 2881 22 2623 -34 
Q 2366 -91 2075 -91 
Q 1284 -91 818 406 
Q 353 903 353 1747 
Q 353 2603 823 3093 
Q 1294 3584 2113 3584 
Q 2378 3584 2631 3529 
Q 2884 3475 3122 3366 
z
" transform="scale(0.015625)"/>
       <path id="DejaVuSans-6f" d="M 1959 3097 
Q 1497 3097 1228 2736 
Q 959 2375 959 1747 
Q 959 1119 1226 758 
Q 1494 397 1959 397 
Q 2419 397 2687 759 
Q 2956 1122 2956 1747 
Q 2956 2369 2687 2733 
Q 2419 3097 1959 3097 
z
M 1959 3584 
Q 2709 3584 3137 3096 
Q 3566 2609 3566 1747 
Q 3566 888 3137 398 
Q 2709 -91 1959 -91 
Q 1206 -91 779 398 
Q 353 888 353 1747 
Q 353 2609 779 3096 
Q 1206 3584 1959 3584 
z
" transform="scale(0.015625)"/>
      </defs>
      <use xlink:href="#DejaVuSans-53"/>
      <use xlink:href="#DejaVuSans-70" transform="translate(63.476562 0)"/>
      <use xlink:href="#DejaVuSans-65" transform="translate(126.953125 0)"/>
      <use xlink:href="#DejaVuSans-61" transform="translate(188.476562 0)"/>
      <use xlink:href="#DejaVuSans-72" transform="translate(249.755859 0)"/>
      <use xlink:href="#DejaVuSans-6d" transform="translate(289.119141 0)"/>
      <use xlink:href="#DejaVuSans-61" transform="translate(386.53125 0)"/>
      <use xlink:href="#DejaVuSans-6e" transform="translate(447.810547 0)"/>
      <use xlink:href="#DejaVuSans-20" transform="translate(511.189453 0)"/>
      <use xlink:href="#DejaVuSans-63" transform="translate(542.976562 0)"/>
      <use xlink:href="#DejaVuSans-6f" transform="translate(597.957031 0)"/>
      <use xlink:href="#DejaVuSans-72" transform="translate(659.138672 0)"/>
      <use xlink:href="#DejaVuSans-72" transform="translate(698.501953 0)"/>
      <use xlink:href="#DejaVuSans-2e" transform="translate(730.490234 0)"/>
     </g>
    </g>
   </g>
   <g id="FillBetweenPolyCollection_1">
    <defs>
     <path id="m10aa68af7e" d="M 58.843716 -80.535623 
L 58.81083 -80.535623 
L 58.798142 -81.584075 
L 58.780108 -82.632526 
L 58.757312 -83.680978 
L 58.731836 -84.729429 
L 58.706843 -85.777881 
L 58.68552 -86.826332 
L 58.669933 -87.874784 
L 58.660554 -88.923235 
L 58.656801 -89.971687 
L 58.658131 -91.020138 
L 58.664763 -92.068589 
L 58.677396 -93.117041 
L 58.696175 -94.165492 
L 58.719789 -95.213944 
L 58.745463 -96.262395 
L 58.769866 -97.310847 
L 58.790308 -98.359298 
L 58.805499 -99.40775 
L 58.815561 -100.456201 
L 58.821528 -101.504653 
L 58.824704 -102.553104 
L 58.826227 -103.601555 
L 58.826885 -104.650007 
L 58.827142 -105.698458 
L 58.827232 -106.74691 
L 58.827261 -107.795361 
L 58.82727 -108.843813 
L 58.827272 -109.892264 
L 58.827273 -110.940716 
L 58.827273 -111.989167 
L 58.827273 -113.037619 
L 58.827273 -114.08607 
L 58.827273 -115.134522 
L 58.827273 -116.182973 
L 58.827273 -117.231424 
L 58.827273 -118.279876 
L 58.827273 -119.328327 
L 58.827273 -120.376779 
L 58.827273 -121.42523 
L 58.827273 -122.473682 
L 58.827273 -123.522133 
L 58.827273 -124.570585 
L 58.827273 -125.619036 
L 58.827273 -126.667488 
L 58.827273 -127.715939 
L 58.827273 -128.76439 
L 58.827273 -129.812842 
L 58.827272 -130.861293 
L 58.827271 -131.909745 
L 58.827264 -132.958196 
L 58.827236 -134.006648 
L 58.827134 -135.055099 
L 58.826797 -136.103551 
L 58.825778 -137.152002 
L 58.822962 -138.200454 
L 58.815867 -139.248905 
L 58.799523 -140.297356 
L 58.765064 -141.345808 
L 58.698434 -142.394259 
L 58.579979 -143.442711 
L 58.385753 -144.491162 
L 58.090968 -145.539614 
L 57.67513 -146.588065 
L 57.127547 -147.636517 
L 56.451434 -148.684968 
L 55.665081 -149.73342 
L 54.799312 -150.781871 
L 53.891759 -151.830322 
L 52.979993 -152.878774 
L 52.096633 -153.927225 
L 51.268766 -154.975677 
L 50.520965 -156.024128 
L 49.877921 -157.07258 
L 49.36271 -158.121031 
L 48.990966 -159.169483 
L 48.766201 -160.217934 
L 48.681818 -161.266386 
L 48.729723 -162.314837 
L 48.908881 -163.363288 
L 49.226231 -164.41174 
L 49.688221 -165.460191 
L 50.288589 -166.508643 
L 51.000744 -167.557094 
L 51.779635 -168.605546 
L 52.572062 -169.653997 
L 53.330412 -170.702449 
L 54.024211 -171.7509 
L 54.645477 -172.799352 
L 55.206233 -173.847803 
L 55.729076 -174.896254 
L 56.234408 -175.944706 
L 56.729749 -176.993157 
L 57.205961 -178.041609 
L 57.641825 -179.09006 
L 58.01404 -180.138512 
L 58.307127 -181.186963 
L 58.518567 -182.235415 
L 58.657868 -183.283866 
L 58.741549 -184.332318 
L 58.912997 -184.332318 
L 58.912997 -184.332318 
L 58.996677 -183.283866 
L 59.135979 -182.235415 
L 59.347418 -181.186963 
L 59.640505 -180.138512 
L 60.01272 -179.09006 
L 60.448584 -178.041609 
L 60.924797 -176.993157 
L 61.420138 -175.944706 
L 61.925469 -174.896254 
L 62.448312 -173.847803 
L 63.009069 -172.799352 
L 63.630335 -171.7509 
L 64.324133 -170.702449 
L 65.082484 -169.653997 
L 65.87491 -168.605546 
L 66.653801 -167.557094 
L 67.365957 -166.508643 
L 67.966324 -165.460191 
L 68.428314 -164.41174 
L 68.745665 -163.363288 
L 68.924822 -162.314837 
L 68.972727 -161.266386 
L 68.888345 -160.217934 
L 68.663579 -159.169483 
L 68.291835 -158.121031 
L 67.776625 -157.07258 
L 67.13358 -156.024128 
L 66.385779 -154.975677 
L 65.557913 -153.927225 
L 64.674552 -152.878774 
L 63.762786 -151.830322 
L 62.855234 -150.781871 
L 61.989465 -149.73342 
L 61.203111 -148.684968 
L 60.526999 -147.636517 
L 59.979416 -146.588065 
L 59.563578 -145.539614 
L 59.268793 -144.491162 
L 59.074567 -143.442711 
L 58.956111 -142.394259 
L 58.889482 -141.345808 
L 58.855023 -140.297356 
L 58.838679 -139.248905 
L 58.831583 -138.200454 
L 58.828768 -137.152002 
L 58.827748 -136.103551 
L 58.827411 -135.055099 
L 58.82731 -134.006648 
L 58.827282 -132.958196 
L 58.827275 -131.909745 
L 58.827273 -130.861293 
L 58.827273 -129.812842 
L 58.827273 -128.76439 
L 58.827273 -127.715939 
L 58.827273 -126.667488 
L 58.827273 -125.619036 
L 58.827273 -124.570585 
L 58.827273 -123.522133 
L 58.827273 -122.473682 
L 58.827273 -121.42523 
L 58.827273 -120.376779 
L 58.827273 -119.328327 
L 58.827273 -118.279876 
L 58.827273 -117.231424 
L 58.827273 -116.182973 
L 58.827273 -115.134522 
L 58.827273 -114.08607 
L 58.827273 -113.037619 
L 58.827273 -111.989167 
L 58.827273 -110.940716 
L 58.827273 -109.892264 
L 58.827276 -108.843813 
L 58.827284 -107.795361 
L 58.827313 -106.74691 
L 58.827404 -105.698458 
L 58.827661 -104.650007 
L 58.828319 -103.601555 
L 58.829841 -102.553104 
L 58.833018 -101.504653 
L 58.838984 -100.456201 
L 58.849047 -99.40775 
L 58.864237 -98.359298 
L 58.88468 -97.310847 
L 58.909083 -96.262395 
L 58.934756 -95.213944 
L 58.958371 -94.165492 
L 58.97715 -93.117041 
L 58.989783 -92.068589 
L 58.996414 -91.020138 
L 58.997745 -89.971687 
L 58.993991 -88.923235 
L 58.984612 -87.874784 
L 58.969025 -86.826332 
L 58.947702 -85.777881 
L 58.922709 -84.729429 
L 58.897233 -83.680978 
L 58.874438 -82.632526 
L 58.856403 -81.584075 
L 58.843716 -80.535623 
z
" style="stroke: #303030; stroke-width: 1.5"/>
    </defs>
    <g clip-path="url(#p841330a03c)">
     <use xlink:href="#m10aa68af7e" x="0" y="216" style="fill: #4a326e; stroke: #303030; stroke-width: 1.5"/>
    </g>
   </g>
   <g id="FillBetweenPolyCollection_2">
    <defs>
     <path id="m2eb471da04" d="M 84.218736 -146.032848 
L 84.163082 -146.032848 
L 84.148794 -146.400674 
L 84.129173 -146.768501 
L 84.103207 -147.136328 
L 84.070097 -147.504154 
L 84.029417 -147.871981 
L 83.981276 -148.239807 
L 83.926415 -148.607634 
L 83.866242 -148.97546 
L 83.802762 -149.343287 
L 83.738416 -149.711113 
L 83.675839 -150.07894 
L 83.617577 -150.446767 
L 83.565801 -150.814593 
L 83.522062 -151.18242 
L 83.487113 -151.550246 
L 83.46082 -151.918073 
L 83.442155 -152.285899 
L 83.429282 -152.653726 
L 83.419705 -153.021552 
L 83.410479 -153.389379 
L 83.398453 -153.757205 
L 83.380537 -154.125032 
L 83.353941 -154.492859 
L 83.316378 -154.860685 
L 83.266185 -155.228512 
L 83.202353 -155.596338 
L 83.124477 -155.964165 
L 83.032635 -156.331991 
L 82.927259 -156.699818 
L 82.809025 -157.067644 
L 82.678794 -157.435471 
L 82.537616 -157.803298 
L 82.386743 -158.171124 
L 82.227627 -158.538951 
L 82.061823 -158.906777 
L 81.890792 -159.274604 
L 81.715591 -159.64243 
L 81.536545 -160.010257 
L 81.352957 -160.378083 
L 81.162988 -160.74591 
L 80.963767 -161.113737 
L 80.751758 -161.481563 
L 80.523323 -161.84939 
L 80.275383 -162.217216 
L 80.006009 -162.585043 
L 79.714816 -162.952869 
L 79.403051 -163.320696 
L 79.07338 -163.688522 
L 78.729424 -164.056349 
L 78.375195 -164.424175 
L 78.014574 -164.792002 
L 77.650938 -165.159829 
L 77.287024 -165.527655 
L 76.924998 -165.895482 
L 76.566685 -166.263308 
L 76.213904 -166.631135 
L 75.868845 -166.998961 
L 75.534463 -167.366788 
L 75.214876 -167.734614 
L 74.915736 -168.102441 
L 74.644498 -168.470268 
L 74.410492 -168.838094 
L 74.224679 -169.205921 
L 74.099021 -169.573747 
L 74.045455 -169.941574 
L 74.074591 -170.3094 
L 74.194319 -170.677227 
L 74.408564 -171.045053 
L 74.716432 -171.41288 
L 75.111891 -171.780706 
L 75.58405 -172.148533 
L 76.117984 -172.51636 
L 76.695964 -172.884186 
L 77.298942 -173.252013 
L 77.908087 -173.619839 
L 78.506242 -173.987666 
L 79.079138 -174.355492 
L 79.616272 -174.723319 
L 80.111345 -175.091145 
L 80.562201 -175.458972 
L 80.970288 -175.826799 
L 81.339699 -176.194625 
L 81.675957 -176.562452 
L 81.98476 -176.930278 
L 82.27091 -177.298105 
L 82.537602 -177.665931 
L 82.786184 -178.033758 
L 83.016353 -178.401584 
L 83.226685 -178.769411 
L 83.415336 -179.137237 
L 83.580704 -179.505064 
L 83.721946 -179.872891 
L 83.839244 -180.240717 
L 83.933837 -180.608544 
L 84.007851 -180.97637 
L 84.064012 -181.344197 
L 84.105325 -181.712023 
L 84.134781 -182.07985 
L 84.155134 -182.447676 
L 84.226685 -182.447676 
L 84.226685 -182.447676 
L 84.247037 -182.07985 
L 84.276493 -181.712023 
L 84.317806 -181.344197 
L 84.373967 -180.97637 
L 84.447981 -180.608544 
L 84.542574 -180.240717 
L 84.659872 -179.872891 
L 84.801114 -179.505064 
L 84.966482 -179.137237 
L 85.155133 -178.769411 
L 85.365466 -178.401584 
L 85.595634 -178.033758 
L 85.844216 -177.665931 
L 86.110909 -177.298105 
L 86.397058 -176.930278 
L 86.705861 -176.562452 
L 87.042119 -176.194625 
L 87.41153 -175.826799 
L 87.819618 -175.458972 
L 88.270474 -175.091145 
L 88.765546 -174.723319 
L 89.30268 -174.355492 
L 89.875576 -173.987666 
L 90.473731 -173.619839 
L 91.082876 -173.252013 
L 91.685854 -172.884186 
L 92.263834 -172.51636 
L 92.797768 -172.148533 
L 93.269927 -171.780706 
L 93.665386 -171.41288 
L 93.973254 -171.045053 
L 94.187499 -170.677227 
L 94.307227 -170.3094 
L 94.336364 -169.941574 
L 94.282798 -169.573747 
L 94.157139 -169.205921 
L 93.971327 -168.838094 
L 93.737321 -168.470268 
L 93.466083 -168.102441 
L 93.166942 -167.734614 
L 92.847355 -167.366788 
L 92.512973 -166.998961 
L 92.167914 -166.631135 
L 91.815134 -166.263308 
L 91.45682 -165.895482 
L 91.094794 -165.527655 
L 90.73088 -165.159829 
L 90.367244 -164.792002 
L 90.006623 -164.424175 
L 89.652395 -164.056349 
L 89.308438 -163.688522 
L 88.978767 -163.320696 
L 88.667002 -162.952869 
L 88.375809 -162.585043 
L 88.106436 -162.217216 
L 87.858495 -161.84939 
L 87.630061 -161.481563 
L 87.418051 -161.113737 
L 87.21883 -160.74591 
L 87.028861 -160.378083 
L 86.845273 -160.010257 
L 86.666227 -159.64243 
L 86.491027 -159.274604 
L 86.319995 -158.906777 
L 86.154191 -158.538951 
L 85.995075 -158.171124 
L 85.844202 -157.803298 
L 85.703024 -157.435471 
L 85.572793 -157.067644 
L 85.454559 -156.699818 
L 85.349183 -156.331991 
L 85.257341 -155.964165 
L 85.179465 -155.596338 
L 85.115634 -155.228512 
L 85.06544 -154.860685 
L 85.027877 -154.492859 
L 85.001281 -154.125032 
L 84.983365 -153.757205 
L 84.97134 -153.389379 
L 84.962113 -153.021552 
L 84.952536 -152.653726 
L 84.939663 -152.285899 
L 84.920998 -151.918073 
L 84.894705 -151.550246 
L 84.859756 -151.18242 
L 84.816017 -150.814593 
L 84.764241 -150.446767 
L 84.705979 -150.07894 
L 84.643402 -149.711113 
L 84.579056 -149.343287 
L 84.515576 -148.97546 
L 84.455403 -148.607634 
L 84.400542 -148.239807 
L 84.352401 -147.871981 
L 84.311722 -147.504154 
L 84.278611 -147.136328 
L 84.252645 -146.768501 
L 84.233024 -146.400674 
L 84.218736 -146.032848 
z
" style="stroke: #303030; stroke-width: 1.5"/>
    </defs>
    <g clip-path="url(#p841330a03c)">
     <use xlink:href="#m2eb471da04" x="0" y="216" style="fill: #485080; stroke: #303030; stroke-width: 1.5"/>
    </g>
   </g>
   <g id="FillBetweenPolyCollection_3">
    <defs>
     <path id="m1ef3bd73e5" d="M 109.575989 -137.921844 
L 109.533102 -137.921844 
L 109.522915 -138.322051 
L 109.509674 -138.722259 
L 109.493269 -139.122467 
L 109.473891 -139.522675 
L 109.452037 -139.922882 
L 109.428427 -140.32309 
L 109.403825 -140.723298 
L 109.378801 -141.123506 
L 109.353494 -141.523713 
L 109.327464 -141.923921 
L 109.299698 -142.324129 
L 109.268812 -142.724337 
L 109.233424 -143.124544 
L 109.192596 -143.524752 
L 109.14623 -143.92496 
L 109.095281 -144.325168 
L 109.041695 -144.725375 
L 108.988073 -145.125583 
L 108.93711 -145.525791 
L 108.890946 -145.925999 
L 108.850568 -146.326206 
L 108.815403 -146.726414 
L 108.78315 -147.126622 
L 108.749881 -147.52683 
L 108.710354 -147.927037 
L 108.658446 -148.327245 
L 108.587639 -148.727453 
L 108.491477 -149.127661 
L 108.363995 -149.527868 
L 108.200119 -149.928076 
L 107.996075 -150.328284 
L 107.749826 -150.728492 
L 107.461514 -151.128699 
L 107.133834 -151.528907 
L 106.772204 -151.929115 
L 106.384627 -152.329323 
L 105.981123 -152.72953 
L 105.572763 -153.129738 
L 105.170388 -153.529946 
L 104.783236 -153.930154 
L 104.41773 -154.330361 
L 104.07665 -154.730569 
L 103.758876 -155.130777 
L 103.459738 -155.530985 
L 103.171957 -155.931192 
L 102.887014 -156.3314 
L 102.596782 -156.731608 
L 102.295157 -157.131816 
L 101.979425 -157.532023 
L 101.651085 -157.932231 
L 101.315902 -158.332439 
L 100.983113 -158.732647 
L 100.66389 -159.132854 
L 100.36941 -159.533062 
L 100.109008 -159.93327 
L 99.888907 -160.333478 
L 99.711848 -160.733685 
L 99.577617 -161.133893 
L 99.48416 -161.534101 
L 99.428802 -161.934309 
L 99.409091 -162.334516 
L 99.423042 -162.734724 
L 99.468884 -163.134932 
L 99.544665 -163.53514 
L 99.648172 -163.935347 
L 99.777415 -164.335555 
L 99.931638 -164.735763 
L 100.112461 -165.135971 
L 100.3246 -165.536178 
L 100.575679 -165.936386 
L 100.874915 -166.336594 
L 101.23091 -166.736802 
L 101.64908 -167.137009 
L 102.129475 -167.537217 
L 102.665619 -167.937425 
L 103.244719 -168.337633 
L 103.849195 -168.73784 
L 104.459102 -169.138048 
L 105.054828 -169.538256 
L 105.619448 -169.938464 
L 106.140299 -170.338671 
L 106.609629 -170.738879 
L 107.02441 -171.139087 
L 107.385588 -171.539295 
L 107.697066 -171.939502 
L 107.964626 -172.33971 
L 108.194949 -172.739918 
L 108.394757 -173.140126 
L 108.57011 -173.540334 
L 108.725889 -173.940541 
L 108.865512 -174.340749 
L 108.990919 -174.740957 
L 109.10282 -175.141165 
L 109.201138 -175.541372 
L 109.285531 -175.94158 
L 109.355859 -176.341788 
L 109.412489 -176.741996 
L 109.456405 -177.142203 
L 109.489128 -177.542411 
L 109.619963 -177.542411 
L 109.619963 -177.542411 
L 109.652686 -177.142203 
L 109.696602 -176.741996 
L 109.753232 -176.341788 
L 109.82356 -175.94158 
L 109.907953 -175.541372 
L 110.006271 -175.141165 
L 110.118172 -174.740957 
L 110.243579 -174.340749 
L 110.383202 -173.940541 
L 110.538981 -173.540334 
L 110.714334 -173.140126 
L 110.914142 -172.739918 
L 111.144465 -172.33971 
L 111.412025 -171.939502 
L 111.723502 -171.539295 
L 112.084681 -171.139087 
L 112.499462 -170.738879 
L 112.968792 -170.338671 
L 113.489643 -169.938464 
L 114.054263 -169.538256 
L 114.649989 -169.138048 
L 115.259896 -168.73784 
L 115.864372 -168.337633 
L 116.443472 -167.937425 
L 116.979616 -167.537217 
L 117.460011 -167.137009 
L 117.878181 -166.736802 
L 118.234176 -166.336594 
L 118.533412 -165.936386 
L 118.784491 -165.536178 
L 118.99663 -165.135971 
L 119.177452 -164.735763 
L 119.331675 -164.335555 
L 119.460919 -163.935347 
L 119.564426 -163.53514 
L 119.640207 -163.134932 
L 119.686049 -162.734724 
L 119.7 -162.334516 
L 119.680289 -161.934309 
L 119.624931 -161.534101 
L 119.531474 -161.133893 
L 119.397243 -160.733685 
L 119.220184 -160.333478 
L 119.000083 -159.93327 
L 118.73968 -159.533062 
L 118.445201 -159.132854 
L 118.125978 -158.732647 
L 117.793189 -158.332439 
L 117.458006 -157.932231 
L 117.129666 -157.532023 
L 116.813934 -157.131816 
L 116.512309 -156.731608 
L 116.222077 -156.3314 
L 115.937134 -155.931192 
L 115.649352 -155.530985 
L 115.350215 -155.130777 
L 115.032441 -154.730569 
L 114.691361 -154.330361 
L 114.325855 -153.930154 
L 113.938703 -153.529946 
L 113.536328 -153.129738 
L 113.127968 -152.72953 
L 112.724464 -152.329323 
L 112.336887 -151.929115 
L 111.975257 -151.528907 
L 111.647577 -151.128699 
L 111.359265 -150.728492 
L 111.113016 -150.328284 
L 110.908972 -149.928076 
L 110.745096 -149.527868 
L 110.617614 -149.127661 
L 110.521452 -148.727453 
L 110.450645 -148.327245 
L 110.398737 -147.927037 
L 110.35921 -147.52683 
L 110.325941 -147.126622 
L 110.293687 -146.726414 
L 110.258523 -146.326206 
L 110.218145 -145.925999 
L 110.171981 -145.525791 
L 110.121018 -145.125583 
L 110.067396 -144.725375 
L 110.01381 -144.325168 
L 109.96286 -143.92496 
L 109.916495 -143.524752 
L 109.875667 -143.124544 
L 109.840279 -142.724337 
L 109.809393 -142.324129 
L 109.781627 -141.923921 
L 109.755597 -141.523713 
L 109.73029 -141.123506 
L 109.705266 -140.723298 
L 109.680664 -140.32309 
L 109.657054 -139.922882 
L 109.6352 -139.522675 
L 109.615822 -139.122467 
L 109.599417 -138.722259 
L 109.586176 -138.322051 
L 109.575989 -137.921844 
z
" style="stroke: #303030; stroke-width: 1.5"/>
    </defs>
    <g clip-path="url(#p841330a03c)">
     <use xlink:href="#m1ef3bd73e5" x="0" y="216" style="fill: #3c6682; stroke: #303030; stroke-width: 1.5"/>
    </g>
   </g>
   <g id="FillBetweenPolyCollection_4">
    <defs>
     <path id="m99a7d65207" d="M 134.942381 -155.241899 
L 134.893983 -155.241899 
L 134.882554 -155.535615 
L 134.867365 -155.829331 
L 134.847849 -156.123047 
L 134.823537 -156.416763 
L 134.794066 -156.710479 
L 134.759154 -157.004196 
L 134.718537 -157.297912 
L 134.671914 -157.591628 
L 134.618914 -157.885344 
L 134.559119 -158.17906 
L 134.492151 -158.472776 
L 134.417796 -158.766492 
L 134.336091 -159.060208 
L 134.247305 -159.353925 
L 134.151755 -159.647641 
L 134.049425 -159.941357 
L 133.939453 -160.235073 
L 133.819586 -160.528789 
L 133.685754 -160.822505 
L 133.531887 -161.116221 
L 133.350054 -161.409938 
L 133.130948 -161.703654 
L 132.864662 -161.99737 
L 132.541699 -162.291086 
L 132.154147 -162.584802 
L 131.696948 -162.878518 
L 131.169177 -163.172234 
L 130.575191 -163.465951 
L 129.925455 -163.759667 
L 129.236765 -164.053383 
L 128.531656 -164.347099 
L 127.836871 -164.640815 
L 127.180959 -164.934531 
L 126.591316 -165.228247 
L 126.091115 -165.521964 
L 125.696683 -165.81568 
L 125.415741 -166.109396 
L 125.2468 -166.403112 
L 125.179704 -166.696828 
L 125.197155 -166.990544 
L 125.276876 -167.28426 
L 125.394067 -167.577977 
L 125.523826 -167.871693 
L 125.643317 -168.165409 
L 125.733546 -168.459125 
L 125.780681 -168.752841 
L 125.776898 -169.046557 
L 125.720716 -169.340273 
L 125.616842 -169.63399 
L 125.475505 -169.927706 
L 125.311342 -170.221422 
L 125.141925 -170.515138 
L 124.986081 -170.808854 
L 124.862191 -171.10257 
L 124.786664 -171.396286 
L 124.772727 -171.690003 
L 124.829613 -171.983719 
L 124.962151 -172.277435 
L 125.170713 -172.571151 
L 125.451465 -172.864867 
L 125.796866 -173.158583 
L 126.196422 -173.452299 
L 126.637636 -173.746016 
L 127.107129 -174.039732 
L 127.591792 -174.333448 
L 128.079807 -174.627164 
L 128.561368 -174.92088 
L 129.028997 -175.214596 
L 129.477454 -175.508312 
L 129.903351 -175.802029 
L 130.304674 -176.095745 
L 130.680381 -176.389461 
L 131.030191 -176.683177 
L 131.354544 -176.976893 
L 131.654642 -177.270609 
L 131.932423 -177.564325 
L 132.190365 -177.858042 
L 132.431141 -178.151758 
L 132.657181 -178.445474 
L 132.87031 -178.73919 
L 133.071573 -179.032906 
L 133.261304 -179.326622 
L 133.439398 -179.620338 
L 133.605672 -179.914054 
L 133.760165 -180.207771 
L 133.903278 -180.501487 
L 134.035722 -180.795203 
L 134.158308 -181.088919 
L 134.271696 -181.382635 
L 134.376198 -181.676351 
L 134.471707 -181.970067 
L 134.557786 -182.263784 
L 134.633862 -182.5575 
L 134.699471 -182.851216 
L 134.754461 -183.144932 
L 134.79912 -183.438648 
L 134.834181 -183.732364 
L 134.860752 -184.02608 
L 134.880168 -184.319797 
L 134.956196 -184.319797 
L 134.956196 -184.319797 
L 134.975612 -184.02608 
L 135.002183 -183.732364 
L 135.037244 -183.438648 
L 135.081902 -183.144932 
L 135.136893 -182.851216 
L 135.202501 -182.5575 
L 135.278578 -182.263784 
L 135.364657 -181.970067 
L 135.460166 -181.676351 
L 135.564667 -181.382635 
L 135.678056 -181.088919 
L 135.800642 -180.795203 
L 135.933085 -180.501487 
L 136.076199 -180.207771 
L 136.230692 -179.914054 
L 136.396966 -179.620338 
L 136.57506 -179.326622 
L 136.76479 -179.032906 
L 136.966053 -178.73919 
L 137.179183 -178.445474 
L 137.405223 -178.151758 
L 137.645999 -177.858042 
L 137.903941 -177.564325 
L 138.181721 -177.270609 
L 138.48182 -176.976893 
L 138.806173 -176.683177 
L 139.155982 -176.389461 
L 139.53169 -176.095745 
L 139.933013 -175.802029 
L 140.35891 -175.508312 
L 140.807366 -175.214596 
L 141.274996 -174.92088 
L 141.756557 -174.627164 
L 142.244571 -174.333448 
L 142.729234 -174.039732 
L 143.198728 -173.746016 
L 143.639942 -173.452299 
L 144.039497 -173.158583 
L 144.384899 -172.864867 
L 144.66565 -172.571151 
L 144.874213 -172.277435 
L 145.00675 -171.983719 
L 145.063636 -171.690003 
L 145.049699 -171.396286 
L 144.974172 -171.10257 
L 144.850282 -170.808854 
L 144.694438 -170.515138 
L 144.525021 -170.221422 
L 144.360859 -169.927706 
L 144.219521 -169.63399 
L 144.115648 -169.340273 
L 144.059466 -169.046557 
L 144.055682 -168.752841 
L 144.102818 -168.459125 
L 144.193046 -168.165409 
L 144.312537 -167.871693 
L 144.442297 -167.577977 
L 144.559488 -167.28426 
L 144.639209 -166.990544 
L 144.656659 -166.696828 
L 144.589563 -166.403112 
L 144.420622 -166.109396 
L 144.139681 -165.81568 
L 143.745248 -165.521964 
L 143.245048 -165.228247 
L 142.655404 -164.934531 
L 141.999493 -164.640815 
L 141.304708 -164.347099 
L 140.599599 -164.053383 
L 139.910908 -163.759667 
L 139.261172 -163.465951 
L 138.667187 -163.172234 
L 138.139415 -162.878518 
L 137.682217 -162.584802 
L 137.294665 -162.291086 
L 136.971702 -161.99737 
L 136.705415 -161.703654 
L 136.486309 -161.409938 
L 136.304477 -161.116221 
L 136.150609 -160.822505 
L 136.016778 -160.528789 
L 135.896911 -160.235073 
L 135.786939 -159.941357 
L 135.684609 -159.647641 
L 135.589059 -159.353925 
L 135.500273 -159.060208 
L 135.418567 -158.766492 
L 135.344212 -158.472776 
L 135.277245 -158.17906 
L 135.21745 -157.885344 
L 135.164449 -157.591628 
L 135.117827 -157.297912 
L 135.07721 -157.004196 
L 135.042297 -156.710479 
L 135.012827 -156.416763 
L 134.988515 -156.123047 
L 134.968998 -155.829331 
L 134.95381 -155.535615 
L 134.942381 -155.241899 
z
" style="stroke: #303030; stroke-width: 1.5"/>
    </defs>
    <g clip-path="url(#p841330a03c)">
     <use xlink:href="#m99a7d65207" x="0" y="216" style="fill: #337881; stroke: #303030; stroke-width: 1.5"/>
    </g>
   </g>
   <g id="FillBetweenPolyCollection_5">
    <defs>
     <path id="m1e2feeba66" d="M 160.300844 -135.014798 
L 160.262792 -135.014798 
L 160.25409 -135.505903 
L 160.242382 -135.997008 
L 160.227046 -136.488113 
L 160.207473 -136.979218 
L 160.183123 -137.470323 
L 160.153583 -137.961428 
L 160.118629 -138.452533 
L 160.078281 -138.943638 
L 160.032847 -139.434743 
L 159.982946 -139.925848 
L 159.929488 -140.416954 
L 159.873626 -140.908059 
L 159.816651 -141.399164 
L 159.759851 -141.890269 
L 159.704338 -142.381374 
L 159.650877 -142.872479 
L 159.599734 -143.363584 
L 159.550581 -143.854689 
L 159.502486 -144.345794 
L 159.453993 -144.836899 
L 159.403283 -145.328004 
L 159.348414 -145.819109 
L 159.287604 -146.310215 
L 159.219514 -146.80132 
L 159.143525 -147.292425 
L 159.05997 -147.78353 
L 158.97029 -148.274635 
L 158.877103 -148.76574 
L 158.784151 -149.256845 
L 158.696083 -149.74795 
L 158.618093 -150.239055 
L 158.555379 -150.73016 
L 158.512502 -151.221265 
L 158.492714 -151.712371 
L 158.497367 -152.203476 
L 158.525529 -152.694581 
L 158.573897 -153.185686 
L 158.637058 -153.676791 
L 158.708066 -154.167896 
L 158.779243 -154.659001 
L 158.843059 -155.150106 
L 158.892922 -155.641211 
L 158.923738 -156.132316 
L 158.932143 -156.623421 
L 158.916381 -157.114527 
L 158.875883 -157.605632 
L 158.810651 -158.096737 
L 158.720576 -158.587842 
L 158.604839 -159.078947 
L 158.46152 -159.570052 
L 158.287466 -160.061157 
L 158.078475 -160.552262 
L 157.829742 -161.043367 
L 157.536537 -161.534472 
L 157.194985 -162.025577 
L 156.802874 -162.516682 
L 156.36036 -163.007788 
L 155.870478 -163.498893 
L 155.339377 -163.989998 
L 154.776243 -164.481103 
L 154.192901 -164.972208 
L 153.603145 -165.463313 
L 153.021865 -165.954418 
L 152.464094 -166.445523 
L 151.944086 -166.936628 
L 151.474522 -167.427733 
L 151.065939 -167.918838 
L 150.726413 -168.409944 
L 150.461494 -168.901049 
L 150.274366 -169.392154 
L 150.166161 -169.883259 
L 150.136364 -170.374364 
L 150.183222 -170.865469 
L 150.304115 -171.356574 
L 150.495837 -171.847679 
L 150.754773 -172.338784 
L 151.076981 -172.829889 
L 151.458177 -173.320994 
L 151.893653 -173.812099 
L 152.37814 -174.303205 
L 152.90563 -174.79431 
L 153.469177 -175.285415 
L 154.060736 -175.77652 
L 154.671052 -176.267625 
L 155.289704 -176.75873 
L 155.905323 -177.249835 
L 156.50603 -177.74094 
L 157.080072 -178.232045 
L 157.616589 -178.72315 
L 158.106398 -179.214255 
L 158.542676 -179.705361 
L 158.921412 -180.196466 
L 159.241562 -180.687571 
L 159.504878 -181.178676 
L 159.715467 -181.669781 
L 159.879148 -182.160886 
L 160.00274 -182.651991 
L 160.093368 -183.143096 
L 160.15789 -183.634201 
L 160.405746 -183.634201 
L 160.405746 -183.634201 
L 160.470269 -183.143096 
L 160.560897 -182.651991 
L 160.684488 -182.160886 
L 160.84817 -181.669781 
L 161.058758 -181.178676 
L 161.322074 -180.687571 
L 161.642224 -180.196466 
L 162.02096 -179.705361 
L 162.457238 -179.214255 
L 162.947048 -178.72315 
L 163.483564 -178.232045 
L 164.057606 -177.74094 
L 164.658313 -177.249835 
L 165.273932 -176.75873 
L 165.892584 -176.267625 
L 166.502901 -175.77652 
L 167.094459 -175.285415 
L 167.658007 -174.79431 
L 168.185496 -174.303205 
L 168.669983 -173.812099 
L 169.10546 -173.320994 
L 169.486655 -172.829889 
L 169.808863 -172.338784 
L 170.0678 -171.847679 
L 170.259521 -171.356574 
L 170.380415 -170.865469 
L 170.427273 -170.374364 
L 170.397475 -169.883259 
L 170.289271 -169.392154 
L 170.102142 -168.901049 
L 169.837223 -168.409944 
L 169.497697 -167.918838 
L 169.089115 -167.427733 
L 168.61955 -166.936628 
L 168.099542 -166.445523 
L 167.541772 -165.954418 
L 166.960491 -165.463313 
L 166.370735 -164.972208 
L 165.787394 -164.481103 
L 165.22426 -163.989998 
L 164.693159 -163.498893 
L 164.203276 -163.007788 
L 163.760763 -162.516682 
L 163.368652 -162.025577 
L 163.027099 -161.534472 
L 162.733894 -161.043367 
L 162.485162 -160.552262 
L 162.27617 -160.061157 
L 162.102117 -159.570052 
L 161.958797 -159.078947 
L 161.843061 -158.587842 
L 161.752985 -158.096737 
L 161.687753 -157.605632 
L 161.647256 -157.114527 
L 161.631493 -156.623421 
L 161.639898 -156.132316 
L 161.670715 -155.641211 
L 161.720578 -155.150106 
L 161.784393 -154.659001 
L 161.85557 -154.167896 
L 161.926578 -153.676791 
L 161.98974 -153.185686 
L 162.038108 -152.694581 
L 162.066269 -152.203476 
L 162.070922 -151.712371 
L 162.051134 -151.221265 
L 162.008257 -150.73016 
L 161.945543 -150.239055 
L 161.867553 -149.74795 
L 161.779486 -149.256845 
L 161.686533 -148.76574 
L 161.593347 -148.274635 
L 161.503666 -147.78353 
L 161.420111 -147.292425 
L 161.344123 -146.80132 
L 161.276032 -146.310215 
L 161.215222 -145.819109 
L 161.160354 -145.328004 
L 161.109643 -144.836899 
L 161.06115 -144.345794 
L 161.013056 -143.854689 
L 160.963903 -143.363584 
L 160.912759 -142.872479 
L 160.859298 -142.381374 
L 160.803786 -141.890269 
L 160.746985 -141.399164 
L 160.69001 -140.908059 
L 160.634148 -140.416954 
L 160.580691 -139.925848 
L 160.530789 -139.434743 
L 160.485356 -138.943638 
L 160.445007 -138.452533 
L 160.410053 -137.961428 
L 160.380513 -137.470323 
L 160.356163 -136.979218 
L 160.33659 -136.488113 
L 160.321254 -135.997008 
L 160.309547 -135.505903 
L 160.300844 -135.014798 
z
" style="stroke: #303030; stroke-width: 1.5"/>
    </defs>
    <g clip-path="url(#p841330a03c)">
     <use xlink:href="#m1e2feeba66" x="0" y="216" style="fill: #2e8e7e; stroke: #303030; stroke-width: 1.5"/>
    </g>
   </g>
   <g id="FillBetweenPolyCollection_6">
    <defs>
     <path id="ma2d961c5f2" d="M 185.662265 -97.118345 
L 185.628644 -97.118345 
L 185.619144 -97.985999 
L 185.60649 -98.853653 
L 185.590821 -99.721307 
L 185.572862 -100.588962 
L 185.553919 -101.456616 
L 185.53568 -102.32427 
L 185.519836 -103.191924 
L 185.507633 -104.059579 
L 185.499519 -104.927233 
L 185.495059 -105.794887 
L 185.49317 -106.662541 
L 185.492609 -107.530196 
L 185.492522 -108.39785 
L 185.492804 -109.265504 
L 185.494105 -110.133159 
L 185.497484 -111.000813 
L 185.503834 -111.868467 
L 185.513341 -112.736121 
L 185.525194 -113.603776 
L 185.53766 -114.47143 
L 185.548504 -115.339084 
L 185.555603 -116.206738 
L 185.557559 -117.074393 
L 185.55413 -117.942047 
L 185.546356 -118.809701 
L 185.536355 -119.677355 
L 185.526816 -120.54501 
L 185.52034 -121.412664 
L 185.518767 -122.280318 
L 185.522687 -123.147973 
L 185.531233 -124.015627 
L 185.542199 -124.883281 
L 185.552394 -125.750935 
L 185.558106 -126.61859 
L 185.555527 -127.486244 
L 185.541065 -128.353898 
L 185.511519 -129.221552 
L 185.464172 -130.089207 
L 185.396872 -130.956861 
L 185.308168 -131.824515 
L 185.197534 -132.692169 
L 185.065699 -133.559824 
L 184.915059 -134.427478 
L 184.750074 -135.295132 
L 184.577497 -136.162787 
L 184.406219 -137.030441 
L 184.246504 -137.898095 
L 184.108543 -138.765749 
L 184.000471 -139.633404 
L 183.926261 -140.501058 
L 183.884097 -141.368712 
L 183.865763 -142.236366 
L 183.857348 -143.104021 
L 183.841153 -143.971675 
L 183.798314 -144.839329 
L 183.711465 -145.706983 
L 183.566843 -146.574638 
L 183.355465 -147.442292 
L 183.073342 -148.309946 
L 182.721002 -149.177601 
L 182.302668 -150.045255 
L 181.825464 -150.912909 
L 181.298843 -151.780563 
L 180.734278 -152.648218 
L 180.145109 -153.515872 
L 179.546341 -154.383526 
L 178.954152 -155.25118 
L 178.384937 -156.118835 
L 177.853823 -156.986489 
L 177.37287 -157.854143 
L 176.949442 -158.721797 
L 176.585425 -159.589452 
L 176.277897 -160.457106 
L 176.021416 -161.32476 
L 175.811504 -162.192415 
L 175.648332 -163.060069 
L 175.539371 -163.927723 
L 175.5 -164.795377 
L 175.55165 -165.663032 
L 175.71781 -166.530686 
L 176.018853 -167.39834 
L 176.466957 -168.265994 
L 177.062308 -169.133649 
L 177.791388 -170.001303 
L 178.62762 -170.868957 
L 179.534127 -171.736611 
L 180.468022 -172.604266 
L 181.385454 -173.47192 
L 182.246592 -174.339574 
L 183.01976 -175.207229 
L 183.684129 -176.074883 
L 184.23059 -176.942537 
L 184.660845 -177.810191 
L 184.985099 -178.677846 
L 185.218987 -179.5455 
L 185.380448 -180.413154 
L 185.487119 -181.280808 
L 185.554559 -182.148463 
L 185.595354 -183.016117 
L 185.695555 -183.016117 
L 185.695555 -183.016117 
L 185.73635 -182.148463 
L 185.80379 -181.280808 
L 185.910461 -180.413154 
L 186.071922 -179.5455 
L 186.30581 -178.677846 
L 186.630064 -177.810191 
L 187.060319 -176.942537 
L 187.60678 -176.074883 
L 188.271149 -175.207229 
L 189.044318 -174.339574 
L 189.905455 -173.47192 
L 190.822887 -172.604266 
L 191.756782 -171.736611 
L 192.663289 -170.868957 
L 193.499521 -170.001303 
L 194.228601 -169.133649 
L 194.823952 -168.265994 
L 195.272056 -167.39834 
L 195.573099 -166.530686 
L 195.739259 -165.663032 
L 195.790909 -164.795377 
L 195.751538 -163.927723 
L 195.642577 -163.060069 
L 195.479405 -162.192415 
L 195.269493 -161.32476 
L 195.013012 -160.457106 
L 194.705484 -159.589452 
L 194.341467 -158.721797 
L 193.918039 -157.854143 
L 193.437086 -156.986489 
L 192.905973 -156.118835 
L 192.336757 -155.25118 
L 191.744568 -154.383526 
L 191.1458 -153.515872 
L 190.556631 -152.648218 
L 189.992066 -151.780563 
L 189.465445 -150.912909 
L 188.988241 -150.045255 
L 188.569907 -149.177601 
L 188.217567 -148.309946 
L 187.935445 -147.442292 
L 187.724066 -146.574638 
L 187.579445 -145.706983 
L 187.492595 -144.839329 
L 187.449756 -143.971675 
L 187.433561 -143.104021 
L 187.425147 -142.236366 
L 187.406812 -141.368712 
L 187.364648 -140.501058 
L 187.290438 -139.633404 
L 187.182366 -138.765749 
L 187.044405 -137.898095 
L 186.88469 -137.030441 
L 186.713412 -136.162787 
L 186.540835 -135.295132 
L 186.37585 -134.427478 
L 186.22521 -133.559824 
L 186.093375 -132.692169 
L 185.982741 -131.824515 
L 185.894037 -130.956861 
L 185.826737 -130.089207 
L 185.77939 -129.221552 
L 185.749844 -128.353898 
L 185.735382 -127.486244 
L 185.732804 -126.61859 
L 185.738515 -125.750935 
L 185.74871 -124.883281 
L 185.759676 -124.015627 
L 185.768222 -123.147973 
L 185.772142 -122.280318 
L 185.770569 -121.412664 
L 185.764093 -120.54501 
L 185.754554 -119.677355 
L 185.744553 -118.809701 
L 185.736779 -117.942047 
L 185.73335 -117.074393 
L 185.735306 -116.206738 
L 185.742405 -115.339084 
L 185.753249 -114.47143 
L 185.765715 -113.603776 
L 185.777568 -112.736121 
L 185.787076 -111.868467 
L 185.793425 -111.000813 
L 185.796804 -110.133159 
L 185.798105 -109.265504 
L 185.798387 -108.39785 
L 185.7983 -107.530196 
L 185.797739 -106.662541 
L 185.79585 -105.794887 
L 185.79139 -104.927233 
L 185.783276 -104.059579 
L 185.771073 -103.191924 
L 185.755229 -102.32427 
L 185.73699 -101.456616 
L 185.718047 -100.588962 
L 185.700088 -99.721307 
L 185.684419 -98.853653 
L 185.671765 -97.985999 
L 185.662265 -97.118345 
z
" style="stroke: #303030; stroke-width: 1.5"/>
    </defs>
    <g clip-path="url(#p841330a03c)">
     <use xlink:href="#ma2d961c5f2" x="0" y="216" style="fill: #45a778; stroke: #303030; stroke-width: 1.5"/>
    </g>
   </g>
   <g id="FillBetweenPolyCollection_7">
    <defs>
     <path id="m6d4ddb3239" d="M 211.038438 -82.01562 
L 210.979744 -82.01562 
L 210.965084 -83.07572 
L 210.945651 -84.135821 
L 210.921136 -85.195921 
L 210.891755 -86.256021 
L 210.858382 -87.316122 
L 210.822579 -88.376222 
L 210.786486 -89.436323 
L 210.752573 -90.496423 
L 210.723278 -91.556523 
L 210.700611 -92.616624 
L 210.685807 -93.676724 
L 210.679094 -94.736824 
L 210.679641 -95.796925 
L 210.685678 -96.857025 
L 210.694767 -97.917126 
L 210.704167 -98.977226 
L 210.711206 -100.037326 
L 210.713606 -101.097427 
L 210.70968 -102.157527 
L 210.698375 -103.217627 
L 210.67914 -104.277728 
L 210.651673 -105.337828 
L 210.615618 -106.397929 
L 210.57032 -107.458029 
L 210.514753 -108.518129 
L 210.447655 -109.57823 
L 210.367888 -110.63833 
L 210.274909 -111.69843 
L 210.169225 -112.758531 
L 210.052695 -113.818631 
L 209.928555 -114.878732 
L 209.80117 -115.938832 
L 209.675529 -116.998932 
L 209.556614 -118.059033 
L 209.448746 -119.119133 
L 209.355025 -120.179233 
L 209.276915 -121.239334 
L 209.214022 -122.299434 
L 209.164028 -123.359535 
L 209.122805 -124.419635 
L 209.084666 -125.479735 
L 209.042742 -126.539836 
L 208.989484 -127.599936 
L 208.917252 -128.660036 
L 208.818956 -129.720137 
L 208.688691 -130.780237 
L 208.52228 -131.840338 
L 208.317646 -132.900438 
L 208.074912 -133.960538 
L 207.796215 -135.020639 
L 207.48521 -136.080739 
L 207.146394 -137.14084 
L 206.784373 -138.20094 
L 206.403289 -139.26104 
L 206.006535 -140.321141 
L 205.596827 -141.381241 
L 205.176581 -142.441341 
L 204.74843 -143.501442 
L 204.315676 -144.561542 
L 203.882532 -145.621643 
L 203.454068 -146.681743 
L 203.03594 -147.741843 
L 202.634056 -148.801944 
L 202.254373 -149.862044 
L 201.902988 -150.922144 
L 201.586577 -151.982245 
L 201.313117 -153.042345 
L 201.092653 -154.102446 
L 200.937803 -155.162546 
L 200.863636 -156.222646 
L 200.886647 -157.282747 
L 201.022753 -158.342847 
L 201.284524 -159.402947 
L 201.678129 -160.463048 
L 202.200717 -161.523148 
L 202.838965 -162.583249 
L 203.569327 -163.643349 
L 204.36014 -164.703449 
L 205.175271 -165.76355 
L 205.978589 -166.82365 
L 206.738326 -167.88375 
L 207.430446 -168.943851 
L 208.040417 -170.003951 
L 208.563229 -171.064052 
L 209.001904 -172.124152 
L 209.365061 -173.184252 
L 209.664194 -174.244353 
L 209.911263 -175.304453 
L 210.116968 -176.364553 
L 210.289833 -177.424654 
L 210.43602 -178.484754 
L 210.559661 -179.544855 
L 210.663453 -180.604955 
L 210.749285 -181.665055 
L 210.818759 -182.725156 
L 210.87352 -183.785256 
L 210.91539 -184.845356 
L 210.946356 -185.905457 
L 210.968461 -186.965557 
L 211.049721 -186.965557 
L 211.049721 -186.965557 
L 211.071826 -185.905457 
L 211.102791 -184.845356 
L 211.144662 -183.785256 
L 211.199423 -182.725156 
L 211.268897 -181.665055 
L 211.354729 -180.604955 
L 211.458521 -179.544855 
L 211.582162 -178.484754 
L 211.728349 -177.424654 
L 211.901214 -176.364553 
L 212.106919 -175.304453 
L 212.353988 -174.244353 
L 212.653121 -173.184252 
L 213.016277 -172.124152 
L 213.454953 -171.064052 
L 213.977765 -170.003951 
L 214.587736 -168.943851 
L 215.279855 -167.88375 
L 216.039593 -166.82365 
L 216.842911 -165.76355 
L 217.658042 -164.703449 
L 218.448855 -163.643349 
L 219.179217 -162.583249 
L 219.817465 -161.523148 
L 220.340053 -160.463048 
L 220.733657 -159.402947 
L 220.995429 -158.342847 
L 221.131535 -157.282747 
L 221.154545 -156.222646 
L 221.080379 -155.162546 
L 220.925529 -154.102446 
L 220.705065 -153.042345 
L 220.431605 -151.982245 
L 220.115194 -150.922144 
L 219.763808 -149.862044 
L 219.384126 -148.801944 
L 218.982242 -147.741843 
L 218.564114 -146.681743 
L 218.135649 -145.621643 
L 217.702506 -144.561542 
L 217.269752 -143.501442 
L 216.841601 -142.441341 
L 216.421355 -141.381241 
L 216.011647 -140.321141 
L 215.614893 -139.26104 
L 215.233809 -138.20094 
L 214.871788 -137.14084 
L 214.532971 -136.080739 
L 214.221967 -135.020639 
L 213.94327 -133.960538 
L 213.700536 -132.900438 
L 213.495902 -131.840338 
L 213.329491 -130.780237 
L 213.199226 -129.720137 
L 213.10093 -128.660036 
L 213.028697 -127.599936 
L 212.975439 -126.539836 
L 212.933515 -125.479735 
L 212.895376 -124.419635 
L 212.854154 -123.359535 
L 212.80416 -122.299434 
L 212.741266 -121.239334 
L 212.663157 -120.179233 
L 212.569435 -119.119133 
L 212.461568 -118.059033 
L 212.342652 -116.998932 
L 212.217012 -115.938832 
L 212.089627 -114.878732 
L 211.965487 -113.818631 
L 211.848957 -112.758531 
L 211.743273 -111.69843 
L 211.650294 -110.63833 
L 211.570527 -109.57823 
L 211.503429 -108.518129 
L 211.447861 -107.458029 
L 211.402564 -106.397929 
L 211.366508 -105.337828 
L 211.339042 -104.277728 
L 211.319807 -103.217627 
L 211.308502 -102.157527 
L 211.304576 -101.097427 
L 211.306976 -100.037326 
L 211.314015 -98.977226 
L 211.323415 -97.917126 
L 211.332504 -96.857025 
L 211.338541 -95.796925 
L 211.339087 -94.736824 
L 211.332375 -93.676724 
L 211.31757 -92.616624 
L 211.294904 -91.556523 
L 211.265608 -90.496423 
L 211.231695 -89.436323 
L 211.195603 -88.376222 
L 211.1598 -87.316122 
L 211.126427 -86.256021 
L 211.097045 -85.195921 
L 211.07253 -84.135821 
L 211.053098 -83.07572 
L 211.038438 -82.01562 
z
" style="stroke: #303030; stroke-width: 1.5"/>
    </defs>
    <g clip-path="url(#p841330a03c)">
     <use xlink:href="#m6d4ddb3239" x="0" y="216" style="fill: #77bf67; stroke: #303030; stroke-width: 1.5"/>
    </g>
   </g>
   <g id="FillBetweenPolyCollection_8">
    <defs>
     <path id="mda516d5737" d="M 236.400522 -67.408455 
L 236.344933 -67.408455 
L 236.332963 -68.6638 
L 236.317302 -69.919144 
L 236.297426 -71.174488 
L 236.272954 -72.429833 
L 236.243713 -73.685177 
L 236.209786 -74.940522 
L 236.171526 -76.195866 
L 236.129526 -77.45121 
L 236.084543 -78.706555 
L 236.037385 -79.961899 
L 235.988777 -81.217244 
L 235.939228 -82.472588 
L 235.888944 -83.727932 
L 235.837779 -84.983277 
L 235.785269 -86.238621 
L 235.730726 -87.493965 
L 235.67338 -88.74931 
L 235.612539 -90.004654 
L 235.54774 -91.259999 
L 235.478856 -92.515343 
L 235.406151 -93.770687 
L 235.330264 -95.026032 
L 235.252158 -96.281376 
L 235.173039 -97.536721 
L 235.094266 -98.792065 
L 235.017294 -100.047409 
L 234.943642 -101.302754 
L 234.874895 -102.558098 
L 234.812731 -103.813443 
L 234.758938 -105.068787 
L 234.715403 -106.324131 
L 234.684043 -107.579476 
L 234.666657 -108.83482 
L 234.664703 -110.090164 
L 234.679008 -111.345509 
L 234.709446 -112.600853 
L 234.754635 -113.856198 
L 234.811692 -115.111542 
L 234.876107 -116.366886 
L 234.941767 -117.622231 
L 235.001146 -118.877575 
L 235.045668 -120.13292 
L 235.06622 -121.388264 
L 235.053758 -122.643608 
L 234.999985 -123.898953 
L 234.898007 -125.154297 
L 234.74293 -126.409642 
L 234.532346 -127.664986 
L 234.266653 -128.92033 
L 233.949202 -130.175675 
L 233.586238 -131.431019 
L 233.186647 -132.686363 
L 232.761487 -133.941708 
L 232.32333 -135.197052 
L 231.885426 -136.452397 
L 231.46073 -137.707741 
L 231.060858 -138.963085 
L 230.695077 -140.21843 
L 230.369424 -141.473774 
L 230.086097 -142.729119 
L 229.843214 -143.984463 
L 229.635011 -145.239807 
L 229.452488 -146.495152 
L 229.28444 -147.750496 
L 229.118774 -149.005841 
L 228.943926 -150.261185 
L 228.750232 -151.516529 
L 228.53108 -152.771874 
L 228.283733 -154.027218 
L 228.00976 -155.282562 
L 227.715069 -156.537907 
L 227.409589 -157.793251 
L 227.106671 -159.048596 
L 226.822292 -160.30394 
L 226.574121 -161.559284 
L 226.380512 -162.814629 
L 226.25942 -164.069973 
L 226.227273 -165.325318 
L 226.29781 -166.580662 
L 226.480933 -167.836006 
L 226.78165 -169.091351 
L 227.199246 -170.346695 
L 227.726805 -171.60204 
L 228.351231 -172.857384 
L 229.053843 -174.112728 
L 229.811547 -175.368073 
L 230.598503 -176.623417 
L 231.388101 -177.878761 
L 232.155012 -179.134106 
L 232.87705 -180.38945 
L 233.536619 -181.644795 
L 234.121587 -182.900139 
L 234.625525 -184.155483 
L 235.04736 -185.410828 
L 235.390546 -186.666172 
L 235.661947 -187.921517 
L 235.870607 -189.176861 
L 236.026579 -190.432205 
L 236.139937 -191.68755 
L 236.605517 -191.68755 
L 236.605517 -191.68755 
L 236.718876 -190.432205 
L 236.874848 -189.176861 
L 237.083508 -187.921517 
L 237.354908 -186.666172 
L 237.698094 -185.410828 
L 238.119929 -184.155483 
L 238.623868 -182.900139 
L 239.208835 -181.644795 
L 239.868405 -180.38945 
L 240.590443 -179.134106 
L 241.357354 -177.878761 
L 242.146952 -176.623417 
L 242.933907 -175.368073 
L 243.691611 -174.112728 
L 244.394223 -172.857384 
L 245.01865 -171.60204 
L 245.546209 -170.346695 
L 245.963805 -169.091351 
L 246.264522 -167.836006 
L 246.447645 -166.580662 
L 246.518182 -165.325318 
L 246.486034 -164.069973 
L 246.364942 -162.814629 
L 246.171333 -161.559284 
L 245.923163 -160.30394 
L 245.638783 -159.048596 
L 245.335865 -157.793251 
L 245.030385 -156.537907 
L 244.735694 -155.282562 
L 244.461721 -154.027218 
L 244.214374 -152.771874 
L 243.995222 -151.516529 
L 243.801528 -150.261185 
L 243.62668 -149.005841 
L 243.461014 -147.750496 
L 243.292967 -146.495152 
L 243.110443 -145.239807 
L 242.90224 -143.984463 
L 242.659357 -142.729119 
L 242.37603 -141.473774 
L 242.050377 -140.21843 
L 241.684596 -138.963085 
L 241.284725 -137.707741 
L 240.860028 -136.452397 
L 240.422124 -135.197052 
L 239.983967 -133.941708 
L 239.558808 -132.686363 
L 239.159217 -131.431019 
L 238.796253 -130.175675 
L 238.478801 -128.92033 
L 238.213108 -127.664986 
L 238.002524 -126.409642 
L 237.847448 -125.154297 
L 237.745469 -123.898953 
L 237.691696 -122.643608 
L 237.679235 -121.388264 
L 237.699786 -120.13292 
L 237.744309 -118.877575 
L 237.803688 -117.622231 
L 237.869348 -116.366886 
L 237.933763 -115.111542 
L 237.99082 -113.856198 
L 238.036009 -112.600853 
L 238.066447 -111.345509 
L 238.080752 -110.090164 
L 238.078798 -108.83482 
L 238.061412 -107.579476 
L 238.030051 -106.324131 
L 237.986516 -105.068787 
L 237.932723 -103.813443 
L 237.870559 -102.558098 
L 237.801813 -101.302754 
L 237.72816 -100.047409 
L 237.651188 -98.792065 
L 237.572416 -97.536721 
L 237.493296 -96.281376 
L 237.415191 -95.026032 
L 237.339304 -93.770687 
L 237.266598 -92.515343 
L 237.197715 -91.259999 
L 237.132916 -90.004654 
L 237.072075 -88.74931 
L 237.014728 -87.493965 
L 236.960186 -86.238621 
L 236.907676 -84.983277 
L 236.85651 -83.727932 
L 236.806226 -82.472588 
L 236.756678 -81.217244 
L 236.708069 -79.961899 
L 236.660911 -78.706555 
L 236.615928 -77.45121 
L 236.573928 -76.195866 
L 236.535668 -74.940522 
L 236.501741 -73.685177 
L 236.4725 -72.429833 
L 236.448028 -71.174488 
L 236.428152 -69.919144 
L 236.412491 -68.6638 
L 236.400522 -67.408455 
z
" style="stroke: #303030; stroke-width: 1.5"/>
    </defs>
    <g clip-path="url(#p841330a03c)">
     <use xlink:href="#mda516d5737" x="0" y="216" style="fill: #a9c741; stroke: #303030; stroke-width: 1.5"/>
    </g>
   </g>
   <g id="line2d_7">
    <path d="M 49.814069 58.797482 
L 67.840477 58.797482 
" clip-path="url(#p841330a03c)" style="fill: none; stroke-dasharray: 1.875,1.125; stroke-dashoffset: 0; stroke: #303030; stroke-width: 1.5"/>
   </g>
   <g id="line2d_8">
    <path d="M 48.726707 53.751185 
L 68.927839 53.751185 
" clip-path="url(#p841330a03c)" style="fill: none; stroke-dasharray: 3.75,1.5; stroke-dashoffset: 0; stroke: #303030; stroke-width: 1.5"/>
   </g>
   <g id="line2d_9">
    <path d="M 50.393333 49.33715 
L 67.261212 49.33715 
" clip-path="url(#p841330a03c)" style="fill: none; stroke-dasharray: 1.875,1.125; stroke-dashoffset: 0; stroke: #303030; stroke-width: 1.5"/>
   </g>
   <g id="line2d_10">
    <path d="M 77.715909 50.905891 
L 90.665909 50.905891 
" clip-path="url(#p841330a03c)" style="fill: none; stroke-dasharray: 1.875,1.125; stroke-dashoffset: 0; stroke: #303030; stroke-width: 1.5"/>
   </g>
   <g id="line2d_11">
    <path d="M 74.434941 47.200336 
L 93.946878 47.200336 
" clip-path="url(#p841330a03c)" style="fill: none; stroke-dasharray: 3.75,1.5; stroke-dashoffset: 0; stroke: #303030; stroke-width: 1.5"/>
   </g>
   <g id="line2d_12">
    <path d="M 74.753694 44.552462 
L 93.628124 44.552462 
" clip-path="url(#p841330a03c)" style="fill: none; stroke-dasharray: 1.875,1.125; stroke-dashoffset: 0; stroke: #303030; stroke-width: 1.5"/>
   </g>
   <g id="line2d_13">
    <path d="M 101.858283 58.320319 
L 117.250808 58.320319 
" clip-path="url(#p841330a03c)" style="fill: none; stroke-dasharray: 1.875,1.125; stroke-dashoffset: 0; stroke: #303030; stroke-width: 1.5"/>
   </g>
   <g id="line2d_14">
    <path d="M 99.42919 54.068496 
L 119.679901 54.068496 
" clip-path="url(#p841330a03c)" style="fill: none; stroke-dasharray: 3.75,1.5; stroke-dashoffset: 0; stroke: #303030; stroke-width: 1.5"/>
   </g>
   <g id="line2d_15">
    <path d="M 100.425503 50.302988 
L 118.683588 50.302988 
" clip-path="url(#p841330a03c)" style="fill: none; stroke-dasharray: 1.875,1.125; stroke-dashoffset: 0; stroke: #303030; stroke-width: 1.5"/>
   </g>
   <g id="line2d_16">
    <path d="M 125.238498 49.560546 
L 144.597865 49.560546 
" clip-path="url(#p841330a03c)" style="fill: none; stroke-dasharray: 1.875,1.125; stroke-dashoffset: 0; stroke: #303030; stroke-width: 1.5"/>
   </g>
   <g id="line2d_17">
    <path d="M 125.358828 45.863539 
L 144.477535 45.863539 
" clip-path="url(#p841330a03c)" style="fill: none; stroke-dasharray: 3.75,1.5; stroke-dashoffset: 0; stroke: #303030; stroke-width: 1.5"/>
   </g>
   <g id="line2d_18">
    <path d="M 125.488407 43.103718 
L 144.347957 43.103718 
" clip-path="url(#p841330a03c)" style="fill: none; stroke-dasharray: 1.875,1.125; stroke-dashoffset: 0; stroke: #303030; stroke-width: 1.5"/>
   </g>
   <g id="line2d_19">
    <path d="M 153.464761 50.419771 
L 167.098875 50.419771 
" clip-path="url(#p841330a03c)" style="fill: none; stroke-dasharray: 1.875,1.125; stroke-dashoffset: 0; stroke: #303030; stroke-width: 1.5"/>
   </g>
   <g id="line2d_20">
    <path d="M 150.375623 46.873589 
L 170.188013 46.873589 
" clip-path="url(#p841330a03c)" style="fill: none; stroke-dasharray: 3.75,1.5; stroke-dashoffset: 0; stroke: #303030; stroke-width: 1.5"/>
   </g>
   <g id="line2d_21">
    <path d="M 151.079553 43.166797 
L 169.484083 43.166797 
" clip-path="url(#p841330a03c)" style="fill: none; stroke-dasharray: 1.875,1.125; stroke-dashoffset: 0; stroke: #303030; stroke-width: 1.5"/>
   </g>
   <g id="line2d_22">
    <path d="M 178.886786 60.646134 
L 192.404123 60.646134 
" clip-path="url(#p841330a03c)" style="fill: none; stroke-dasharray: 1.875,1.125; stroke-dashoffset: 0; stroke: #303030; stroke-width: 1.5"/>
   </g>
   <g id="line2d_23">
    <path d="M 175.938801 54.333757 
L 195.352108 54.333757 
" clip-path="url(#p841330a03c)" style="fill: none; stroke-dasharray: 3.75,1.5; stroke-dashoffset: 0; stroke: #303030; stroke-width: 1.5"/>
   </g>
   <g id="line2d_24">
    <path d="M 175.937755 48.835397 
L 195.353154 48.835397 
" clip-path="url(#p841330a03c)" style="fill: none; stroke-dasharray: 1.875,1.125; stroke-dashoffset: 0; stroke: #303030; stroke-width: 1.5"/>
   </g>
   <g id="line2d_25">
    <path d="M 205.297408 73.863453 
L 216.720774 73.863453 
" clip-path="url(#p841330a03c)" style="fill: none; stroke-dasharray: 1.875,1.125; stroke-dashoffset: 0; stroke: #303030; stroke-width: 1.5"/>
   </g>
   <g id="line2d_26">
    <path d="M 201.441142 63.453958 
L 220.57704 63.453958 
" clip-path="url(#p841330a03c)" style="fill: none; stroke-dasharray: 3.75,1.5; stroke-dashoffset: 0; stroke: #303030; stroke-width: 1.5"/>
   </g>
   <g id="line2d_27">
    <path d="M 201.443617 56.168567 
L 220.574565 56.168567 
" clip-path="url(#p841330a03c)" style="fill: none; stroke-dasharray: 1.875,1.125; stroke-dashoffset: 0; stroke: #303030; stroke-width: 1.5"/>
   </g>
   <g id="line2d_28">
    <path d="M 230.246785 73.982844 
L 242.49867 73.982844 
" clip-path="url(#p841330a03c)" style="fill: none; stroke-dasharray: 1.875,1.125; stroke-dashoffset: 0; stroke: #303030; stroke-width: 1.5"/>
   </g>
   <g id="line2d_29">
    <path d="M 227.589231 58.944971 
L 245.156224 58.944971 
" clip-path="url(#p841330a03c)" style="fill: none; stroke-dasharray: 3.75,1.5; stroke-dashoffset: 0; stroke: #303030; stroke-width: 1.5"/>
   </g>
   <g id="line2d_30">
    <path d="M 226.365202 48.957349 
L 246.380252 48.957349 
" clip-path="url(#p841330a03c)" style="fill: none; stroke-dasharray: 1.875,1.125; stroke-dashoffset: 0; stroke: #303030; stroke-width: 1.5"/>
   </g>
   <g id="LineCollection_1">
    <path d="M 46.145455 80.670958 
L 249.054545 80.670958 
" clip-path="url(#p841330a03c)" style="fill: none; stroke-dasharray: 5.55,2.4; stroke-dashoffset: 0; stroke: #ff0000; stroke-width: 1.5"/>
   </g>
   <g id="patch_3">
    <path d="M 36 192.24 
L 36 25.92 
" style="fill: none; stroke: #cccccc; stroke-width: 1.25; stroke-linejoin: miter; stroke-linecap: square"/>
   </g>
   <g id="patch_4">
    <path d="M 259.2 192.24 
L 259.2 25.92 
" style="fill: none; stroke: #cccccc; stroke-width: 1.25; stroke-linejoin: miter; stroke-linecap: square"/>
   </g>
   <g id="patch_5">
    <path d="M 36 192.24 
L 259.2 192.24 
" style="fill: none; stroke: #cccccc; stroke-width: 1.25; stroke-linejoin: miter; stroke-linecap: square"/>
   </g>
   <g id="patch_6">
    <path d="M 36 25.92 
L 259.2 25.92 
" style="fill: none; stroke: #cccccc; stroke-width: 1.25; stroke-linejoin: miter; stroke-linecap: square"/>
   </g>
   <g id="text_17">
    <!-- Pair-wise corr -->
    <g style="fill: #262626" transform="translate(100.890312 19.92) scale(0.14 -0.14)">
     <defs>
      <path id="DejaVuSans-50" d="M 1259 4147 
L 1259 2394 
L 2053 2394 
Q 2494 2394 2734 2622 
Q 2975 2850 2975 3272 
Q 2975 3691 2734 3919 
Q 2494 4147 2053 4147 
L 1259 4147 
z
M 628 4666 
L 2053 4666 
Q 2838 4666 3239 4311 
Q 3641 3956 3641 3272 
Q 3641 2581 3239 2228 
Q 2838 1875 2053 1875 
L 1259 1875 
L 1259 0 
L 628 0 
L 628 4666 
z
" transform="scale(0.015625)"/>
      <path id="DejaVuSans-69" d="M 603 3500 
L 1178 3500 
L 1178 0 
L 603 0 
L 603 3500 
z
M 603 4863 
L 1178 4863 
L 1178 4134 
L 603 4134 
L 603 4863 
z
" transform="scale(0.015625)"/>
      <path id="DejaVuSans-2d" d="M 313 2009 
L 1997 2009 
L 1997 1497 
L 313 1497 
L 313 2009 
z
" transform="scale(0.015625)"/>
      <path id="DejaVuSans-77" d="M 269 3500 
L 844 3500 
L 1563 769 
L 2278 3500 
L 2956 3500 
L 3675 769 
L 4391 3500 
L 4966 3500 
L 4050 0 
L 3372 0 
L 2619 2869 
L 1863 0 
L 1184 0 
L 269 3500 
z
" transform="scale(0.015625)"/>
      <path id="DejaVuSans-73" d="M 2834 3397 
L 2834 2853 
Q 2591 2978 2328 3040 
Q 2066 3103 1784 3103 
Q 1356 3103 1142 2972 
Q 928 2841 928 2578 
Q 928 2378 1081 2264 
Q 1234 2150 1697 2047 
L 1894 2003 
Q 2506 1872 2764 1633 
Q 3022 1394 3022 966 
Q 3022 478 2636 193 
Q 2250 -91 1575 -91 
Q 1294 -91 989 -36 
Q 684 19 347 128 
L 347 722 
Q 666 556 975 473 
Q 1284 391 1588 391 
Q 1994 391 2212 530 
Q 2431 669 2431 922 
Q 2431 1156 2273 1281 
Q 2116 1406 1581 1522 
L 1381 1569 
Q 847 1681 609 1914 
Q 372 2147 372 2553 
Q 372 3047 722 3315 
Q 1072 3584 1716 3584 
Q 2034 3584 2315 3537 
Q 2597 3491 2834 3397 
z
" transform="scale(0.015625)"/>
     </defs>
     <use xlink:href="#DejaVuSans-50"/>
     <use xlink:href="#DejaVuSans-61" transform="translate(55.802734 0)"/>
     <use xlink:href="#DejaVuSans-69" transform="translate(117.082031 0)"/>
     <use xlink:href="#DejaVuSans-72" transform="translate(144.865234 0)"/>
     <use xlink:href="#DejaVuSans-2d" transform="translate(179.603516 0)"/>
     <use xlink:href="#DejaVuSans-77" transform="translate(215.6875 0)"/>
     <use xlink:href="#DejaVuSans-69" transform="translate(297.474609 0)"/>
     <use xlink:href="#DejaVuSans-73" transform="translate(325.257812 0)"/>
     <use xlink:href="#DejaVuSans-65" transform="translate(377.357422 0)"/>
     <use xlink:href="#DejaVuSans-20" transform="translate(438.880859 0)"/>
     <use xlink:href="#DejaVuSans-63" transform="translate(470.667969 0)"/>
     <use xlink:href="#DejaVuSans-6f" transform="translate(525.648438 0)"/>
     <use xlink:href="#DejaVuSans-72" transform="translate(586.830078 0)"/>
     <use xlink:href="#DejaVuSans-72" transform="translate(626.193359 0)"/>
    </g>
   </g>
  </g>
 </g>
 <defs>
  <clipPath id="p841330a03c">
   <rect x="36" y="25.92" width="223.2" height="166.32"/>
  </clipPath>
 </defs>
</svg>
