<?xml version="1.0" encoding="utf-8" standalone="no"?>
<!DOCTYPE svg PUBLIC "-//W3C//DTD SVG 1.1//EN"
  "http://www.w3.org/Graphics/SVG/1.1/DTD/svg11.dtd">
<svg xmlns:xlink="http://www.w3.org/1999/xlink" width="288pt" height="216pt" viewBox="0 0 288 216" xmlns="http://www.w3.org/2000/svg" version="1.1">
 <metadata>
  <rdf:RDF xmlns:dc="http://purl.org/dc/elements/1.1/" xmlns:cc="http://creativecommons.org/ns#" xmlns:rdf="http://www.w3.org/1999/02/22-rdf-syntax-ns#">
   <cc:Work>
    <dc:type rdf:resource="http://purl.org/dc/dcmitype/StillImage"/>
    <dc:date>2025-12-18T13:20:59.508590</dc:date>
    <dc:format>image/svg+xml</dc:format>
    <dc:creator>
     <cc:Agent>
      <dc:title>Matplotlib v3.10.0, https://matplotlib.org/</dc:title>
     </cc:Agent>
    </dc:creator>
   </cc:Work>
  </rdf:RDF>
 </metadata>
 <defs>
  <style type="text/css">*{stroke-linejoin: round; stroke-linecap: butt}</style>
 </defs>
 <g id="figure_1">
  <g id="patch_1">
   <path d="M 0 216 
L 288 216 
L 288 0 
L 0 0 
z
" style="fill: #ffffff"/>
  </g>
  <g id="axes_1">
   <g id="patch_2">
    <path d="M 36 192.24 
L 259.2 192.24 
L 259.2 25.92 
L 36 25.92 
z
" style="fill: #ffffff"/>
   </g>
   <g id="matplotlib.axis_1">
    <g id="xtick_1">
     <g id="text_1">
      <!-- D01 -->
      <g style="fill: #262626" transform="translate(48.614773 209.338437) scale(0.1 -0.1)">
       <defs>
        <path id="DejaVuSans-44" d="M 1259 4147 
L 1259 519 
L 2022 519 
Q 2988 519 3436 956 
Q 3884 1394 3884 2338 
Q 3884 3275 3436 3711 
Q 2988 4147 2022 4147 
L 1259 4147 
z
M 628 4666 
L 1925 4666 
Q 3281 4666 3915 4102 
Q 4550 3538 4550 2338 
Q 4550 1131 3912 565 
Q 3275 0 1925 0 
L 628 0 
L 628 4666 
z
" transform="scale(0.015625)"/>
        <path id="DejaVuSans-30" d="M 2034 4250 
Q 1547 4250 1301 3770 
Q 1056 3291 1056 2328 
Q 1056 1369 1301 889 
Q 1547 409 2034 409 
Q 2525 409 2770 889 
Q 3016 1369 3016 2328 
Q 3016 3291 2770 3770 
Q 2525 4250 2034 4250 
z
M 2034 4750 
Q 2819 4750 3233 4129 
Q 3647 3509 3647 2328 
Q 3647 1150 3233 529 
Q 2819 -91 2034 -91 
Q 1250 -91 836 529 
Q 422 1150 422 2328 
Q 422 3509 836 4129 
Q 1250 4750 2034 4750 
z
" transform="scale(0.015625)"/>
        <path id="DejaVuSans-31" d="M 794 531 
L 1825 531 
L 1825 4091 
L 703 3866 
L 703 4441 
L 1819 4666 
L 2450 4666 
L 2450 531 
L 3481 531 
L 3481 0 
L 794 0 
L 794 531 
z
" transform="scale(0.015625)"/>
       </defs>
       <use xlink:href="#DejaVuSans-44"/>
       <use xlink:href="#DejaVuSans-30" transform="translate(77.001953 0)"/>
       <use xlink:href="#DejaVuSans-31" transform="translate(140.625 0)"/>
      </g>
     </g>
    </g>
    <g id="xtick_2">
     <g id="text_2">
      <!-- D02 -->
      <g style="fill: #262626" transform="translate(73.978409 209.338437) scale(0.1 -0.1)">
       <defs>
        <path id="DejaVuSans-32" d="M 1228 531 
L 3431 531 
L 3431 0 
L 469 0 
L 469 531 
Q 828 903 1448 1529 
Q 2069 2156 2228 2338 
Q 2531 2678 2651 2914 
Q 2772 3150 2772 3378 
Q 2772 3750 2511 3984 
Q 2250 4219 1831 4219 
Q 1534 4219 1204 4116 
Q 875 4013 500 3803 
L 500 4441 
Q 881 4594 1212 4672 
Q 1544 4750 1819 4750 
Q 2544 4750 2975 4387 
Q 3406 4025 3406 3419 
Q 3406 3131 3298 2873 
Q 3191 2616 2906 2266 
Q 2828 2175 2409 1742 
Q 1991 1309 1228 531 
z
" transform="scale(0.015625)"/>
       </defs>
       <use xlink:href="#DejaVuSans-44"/>
       <use xlink:href="#DejaVuSans-30" transform="translate(77.001953 0)"/>
       <use xlink:href="#DejaVuSans-32" transform="translate(140.625 0)"/>
      </g>
     </g>
    </g>
    <g id="xtick_3">
     <g id="text_3">
      <!-- D03 -->
      <g style="fill: #262626" transform="translate(99.342045 209.338437) scale(0.1 -0.1)">
       <defs>
        <path id="DejaVuSans-33" d="M 2597 2516 
Q 3050 2419 3304 2112 
Q 3559 1806 3559 1356 
Q 3559 666 3084 287 
Q 2609 -91 1734 -91 
Q 1441 -91 1130 -33 
Q 819 25 488 141 
L 488 750 
Q 750 597 1062 519 
Q 1375 441 1716 441 
Q 2309 441 2620 675 
Q 2931 909 2931 1356 
Q 2931 1769 2642 2001 
Q 2353 2234 1838 2234 
L 1294 2234 
L 1294 2753 
L 1863 2753 
Q 2328 2753 2575 2939 
Q 2822 3125 2822 3475 
Q 2822 3834 2567 4026 
Q 2313 4219 1838 4219 
Q 1578 4219 1281 4162 
Q 984 4106 628 3988 
L 628 4550 
Q 988 4650 1302 4700 
Q 1616 4750 1894 4750 
Q 2613 4750 3031 4423 
Q 3450 4097 3450 3541 
Q 3450 3153 3228 2886 
Q 3006 2619 2597 2516 
z
" transform="scale(0.015625)"/>
       </defs>
       <use xlink:href="#DejaVuSans-44"/>
       <use xlink:href="#DejaVuSans-30" transform="translate(77.001953 0)"/>
       <use xlink:href="#DejaVuSans-33" transform="translate(140.625 0)"/>
      </g>
     </g>
    </g>
    <g id="xtick_4">
     <g id="text_4">
      <!-- D04 -->
      <g style="fill: #262626" transform="translate(124.705682 209.338437) scale(0.1 -0.1)">
       <defs>
        <path id="DejaVuSans-34" d="M 2419 4116 
L 825 1625 
L 2419 1625 
L 2419 4116 
z
M 2253 4666 
L 3047 4666 
L 3047 1625 
L 3713 1625 
L 3713 1100 
L 3047 1100 
L 3047 0 
L 2419 0 
L 2419 1100 
L 313 1100 
L 313 1709 
L 2253 4666 
z
" transform="scale(0.015625)"/>
       </defs>
       <use xlink:href="#DejaVuSans-44"/>
       <use xlink:href="#DejaVuSans-30" transform="translate(77.001953 0)"/>
       <use xlink:href="#DejaVuSans-34" transform="translate(140.625 0)"/>
      </g>
     </g>
    </g>
    <g id="xtick_5">
     <g id="text_5">
      <!-- D06 -->
      <g style="fill: #262626" transform="translate(150.069318 209.338437) scale(0.1 -0.1)">
       <defs>
        <path id="DejaVuSans-36" d="M 2113 2584 
Q 1688 2584 1439 2293 
Q 1191 2003 1191 1497 
Q 1191 994 1439 701 
Q 1688 409 2113 409 
Q 2538 409 2786 701 
Q 3034 994 3034 1497 
Q 3034 2003 2786 2293 
Q 2538 2584 2113 2584 
z
M 3366 4563 
L 3366 3988 
Q 3128 4100 2886 4159 
Q 2644 4219 2406 4219 
Q 1781 4219 1451 3797 
Q 1122 3375 1075 2522 
Q 1259 2794 1537 2939 
Q 1816 3084 2150 3084 
Q 2853 3084 3261 2657 
Q 3669 2231 3669 1497 
Q 3669 778 3244 343 
Q 2819 -91 2113 -91 
Q 1303 -91 875 529 
Q 447 1150 447 2328 
Q 447 3434 972 4092 
Q 1497 4750 2381 4750 
Q 2619 4750 2861 4703 
Q 3103 4656 3366 4563 
z
" transform="scale(0.015625)"/>
       </defs>
       <use xlink:href="#DejaVuSans-44"/>
       <use xlink:href="#DejaVuSans-30" transform="translate(77.001953 0)"/>
       <use xlink:href="#DejaVuSans-36" transform="translate(140.625 0)"/>
      </g>
     </g>
    </g>
    <g id="xtick_6">
     <g id="text_6">
      <!-- D08 -->
      <g style="fill: #262626" transform="translate(175.432955 209.338437) scale(0.1 -0.1)">
       <defs>
        <path id="DejaVuSans-38" d="M 2034 2216 
Q 1584 2216 1326 1975 
Q 1069 1734 1069 1313 
Q 1069 891 1326 650 
Q 1584 409 2034 409 
Q 2484 409 2743 651 
Q 3003 894 3003 1313 
Q 3003 1734 2745 1975 
Q 2488 2216 2034 2216 
z
M 1403 2484 
Q 997 2584 770 2862 
Q 544 3141 544 3541 
Q 544 4100 942 4425 
Q 1341 4750 2034 4750 
Q 2731 4750 3128 4425 
Q 3525 4100 3525 3541 
Q 3525 3141 3298 2862 
Q 3072 2584 2669 2484 
Q 3125 2378 3379 2068 
Q 3634 1759 3634 1313 
Q 3634 634 3220 271 
Q 2806 -91 2034 -91 
Q 1263 -91 848 271 
Q 434 634 434 1313 
Q 434 1759 690 2068 
Q 947 2378 1403 2484 
z
M 1172 3481 
Q 1172 3119 1398 2916 
Q 1625 2713 2034 2713 
Q 2441 2713 2670 2916 
Q 2900 3119 2900 3481 
Q 2900 3844 2670 4047 
Q 2441 4250 2034 4250 
Q 1625 4250 1398 4047 
Q 1172 3844 1172 3481 
z
" transform="scale(0.015625)"/>
       </defs>
       <use xlink:href="#DejaVuSans-44"/>
       <use xlink:href="#DejaVuSans-30" transform="translate(77.001953 0)"/>
       <use xlink:href="#DejaVuSans-38" transform="translate(140.625 0)"/>
      </g>
     </g>
    </g>
    <g id="xtick_7">
     <g id="text_7">
      <!-- D10 -->
      <g style="fill: #262626" transform="translate(200.796591 209.338437) scale(0.1 -0.1)">
       <use xlink:href="#DejaVuSans-44"/>
       <use xlink:href="#DejaVuSans-31" transform="translate(77.001953 0)"/>
       <use xlink:href="#DejaVuSans-30" transform="translate(140.625 0)"/>
      </g>
     </g>
    </g>
    <g id="xtick_8">
     <g id="text_8">
      <!-- D12 -->
      <g style="fill: #262626" transform="translate(226.160227 209.338437) scale(0.1 -0.1)">
       <use xlink:href="#DejaVuSans-44"/>
       <use xlink:href="#DejaVuSans-31" transform="translate(77.001953 0)"/>
       <use xlink:href="#DejaVuSans-32" transform="translate(140.625 0)"/>
      </g>
     </g>
    </g>
    <g id="text_9">
     <!-- Day -->
     <g style="fill: #262626" transform="translate(135.751875 224.53625) scale(0.12 -0.12)">
      <defs>
       <path id="DejaVuSans-61" d="M 2194 1759 
Q 1497 1759 1228 1600 
Q 959 1441 959 1056 
Q 959 750 1161 570 
Q 1363 391 1709 391 
Q 2188 391 2477 730 
Q 2766 1069 2766 1631 
L 2766 1759 
L 2194 1759 
z
M 3341 1997 
L 3341 0 
L 2766 0 
L 2766 531 
Q 2569 213 2275 61 
Q 1981 -91 1556 -91 
Q 1019 -91 701 211 
Q 384 513 384 1019 
Q 384 1609 779 1909 
Q 1175 2209 1959 2209 
L 2766 2209 
L 2766 2266 
Q 2766 2663 2505 2880 
Q 2244 3097 1772 3097 
Q 1472 3097 1187 3025 
Q 903 2953 641 2809 
L 641 3341 
Q 956 3463 1253 3523 
Q 1550 3584 1831 3584 
Q 2591 3584 2966 3190 
Q 3341 2797 3341 1997 
z
" transform="scale(0.015625)"/>
       <path id="DejaVuSans-79" d="M 2059 -325 
Q 1816 -950 1584 -1140 
Q 1353 -1331 966 -1331 
L 506 -1331 
L 506 -850 
L 844 -850 
Q 1081 -850 1212 -737 
Q 1344 -625 1503 -206 
L 1606 56 
L 191 3500 
L 800 3500 
L 1894 763 
L 2988 3500 
L 3597 3500 
L 2059 -325 
z
" transform="scale(0.015625)"/>
      </defs>
      <use xlink:href="#DejaVuSans-44"/>
      <use xlink:href="#DejaVuSans-61" transform="translate(77.001953 0)"/>
      <use xlink:href="#DejaVuSans-79" transform="translate(138.28125 0)"/>
     </g>
    </g>
   </g>
   <g id="matplotlib.axis_2">
    <g id="ytick_1">
     <g id="line2d_1">
      <path d="M 36 192.24 
L 259.2 192.24 
" clip-path="url(#pfb896c6333)" style="fill: none; stroke: #cccccc; stroke-linecap: round"/>
     </g>
     <g id="text_10">
      <!-- 0.5 -->
      <g style="fill: #262626" transform="translate(10.596875 196.039219) scale(0.1 -0.1)">
       <defs>
        <path id="DejaVuSans-2e" d="M 684 794 
L 1344 794 
L 1344 0 
L 684 0 
L 684 794 
z
" transform="scale(0.015625)"/>
        <path id="DejaVuSans-35" d="M 691 4666 
L 3169 4666 
L 3169 4134 
L 1269 4134 
L 1269 2991 
Q 1406 3038 1543 3061 
Q 1681 3084 1819 3084 
Q 2600 3084 3056 2656 
Q 3513 2228 3513 1497 
Q 3513 744 3044 326 
Q 2575 -91 1722 -91 
Q 1428 -91 1123 -41 
Q 819 9 494 109 
L 494 744 
Q 775 591 1075 516 
Q 1375 441 1709 441 
Q 2250 441 2565 725 
Q 2881 1009 2881 1497 
Q 2881 1984 2565 2268 
Q 2250 2553 1709 2553 
Q 1456 2553 1204 2497 
Q 953 2441 691 2322 
L 691 4666 
z
" transform="scale(0.015625)"/>
       </defs>
       <use xlink:href="#DejaVuSans-30"/>
       <use xlink:href="#DejaVuSans-2e" transform="translate(63.623047 0)"/>
       <use xlink:href="#DejaVuSans-35" transform="translate(95.410156 0)"/>
      </g>
     </g>
    </g>
    <g id="ytick_2">
     <g id="line2d_2">
      <path d="M 36 158.976 
L 259.2 158.976 
" clip-path="url(#pfb896c6333)" style="fill: none; stroke: #cccccc; stroke-linecap: round"/>
     </g>
     <g id="text_11">
      <!-- 0.6 -->
      <g style="fill: #262626" transform="translate(10.596875 162.775219) scale(0.1 -0.1)">
       <use xlink:href="#DejaVuSans-30"/>
       <use xlink:href="#DejaVuSans-2e" transform="translate(63.623047 0)"/>
       <use xlink:href="#DejaVuSans-36" transform="translate(95.410156 0)"/>
      </g>
     </g>
    </g>
    <g id="ytick_3">
     <g id="line2d_3">
      <path d="M 36 125.712 
L 259.2 125.712 
" clip-path="url(#pfb896c6333)" style="fill: none; stroke: #cccccc; stroke-linecap: round"/>
     </g>
     <g id="text_12">
      <!-- 0.7 -->
      <g style="fill: #262626" transform="translate(10.596875 129.511219) scale(0.1 -0.1)">
       <defs>
        <path id="DejaVuSans-37" d="M 525 4666 
L 3525 4666 
L 3525 4397 
L 1831 0 
L 1172 0 
L 2766 4134 
L 525 4134 
L 525 4666 
z
" transform="scale(0.015625)"/>
       </defs>
       <use xlink:href="#DejaVuSans-30"/>
       <use xlink:href="#DejaVuSans-2e" transform="translate(63.623047 0)"/>
       <use xlink:href="#DejaVuSans-37" transform="translate(95.410156 0)"/>
      </g>
     </g>
    </g>
    <g id="ytick_4">
     <g id="line2d_4">
      <path d="M 36 92.448 
L 259.2 92.448 
" clip-path="url(#pfb896c6333)" style="fill: none; stroke: #cccccc; stroke-linecap: round"/>
     </g>
     <g id="text_13">
      <!-- 0.8 -->
      <g style="fill: #262626" transform="translate(10.596875 96.247219) scale(0.1 -0.1)">
       <use xlink:href="#DejaVuSans-30"/>
       <use xlink:href="#DejaVuSans-2e" transform="translate(63.623047 0)"/>
       <use xlink:href="#DejaVuSans-38" transform="translate(95.410156 0)"/>
      </g>
     </g>
    </g>
    <g id="ytick_5">
     <g id="line2d_5">
      <path d="M 36 59.184 
L 259.2 59.184 
" clip-path="url(#pfb896c6333)" style="fill: none; stroke: #cccccc; stroke-linecap: round"/>
     </g>
     <g id="text_14">
      <!-- 0.9 -->
      <g style="fill: #262626" transform="translate(10.596875 62.983219) scale(0.1 -0.1)">
       <defs>
        <path id="DejaVuSans-39" d="M 703 97 
L 703 672 
Q 941 559 1184 500 
Q 1428 441 1663 441 
Q 2288 441 2617 861 
Q 2947 1281 2994 2138 
Q 2813 1869 2534 1725 
Q 2256 1581 1919 1581 
Q 1219 1581 811 2004 
Q 403 2428 403 3163 
Q 403 3881 828 4315 
Q 1253 4750 1959 4750 
Q 2769 4750 3195 4129 
Q 3622 3509 3622 2328 
Q 3622 1225 3098 567 
Q 2575 -91 1691 -91 
Q 1453 -91 1209 -44 
Q 966 3 703 97 
z
M 1959 2075 
Q 2384 2075 2632 2365 
Q 2881 2656 2881 3163 
Q 2881 3666 2632 3958 
Q 2384 4250 1959 4250 
Q 1534 4250 1286 3958 
Q 1038 3666 1038 3163 
Q 1038 2656 1286 2365 
Q 1534 2075 1959 2075 
z
" transform="scale(0.015625)"/>
       </defs>
       <use xlink:href="#DejaVuSans-30"/>
       <use xlink:href="#DejaVuSans-2e" transform="translate(63.623047 0)"/>
       <use xlink:href="#DejaVuSans-39" transform="translate(95.410156 0)"/>
      </g>
     </g>
    </g>
    <g id="ytick_6">
     <g id="line2d_6">
      <path d="M 36 25.92 
L 259.2 25.92 
" clip-path="url(#pfb896c6333)" style="fill: none; stroke: #cccccc; stroke-linecap: round"/>
     </g>
     <g id="text_15">
      <!-- 1.0 -->
      <g style="fill: #262626" transform="translate(10.596875 29.719219) scale(0.1 -0.1)">
       <use xlink:href="#DejaVuSans-31"/>
       <use xlink:href="#DejaVuSans-2e" transform="translate(63.623047 0)"/>
       <use xlink:href="#DejaVuSans-30" transform="translate(95.410156 0)"/>
      </g>
     </g>
    </g>
    <g id="text_16">
     <!-- Spearman corr. -->
     <g style="fill: #262626" transform="translate(4.10125 154.816875) rotate(-90) scale(0.12 -0.12)">
      <defs>
       <path id="DejaVuSans-53" d="M 3425 4513 
L 3425 3897 
Q 3066 4069 2747 4153 
Q 2428 4238 2131 4238 
Q 1616 4238 1336 4038 
Q 1056 3838 1056 3469 
Q 1056 3159 1242 3001 
Q 1428 2844 1947 2747 
L 2328 2669 
Q 3034 2534 3370 2195 
Q 3706 1856 3706 1288 
Q 3706 609 3251 259 
Q 2797 -91 1919 -91 
Q 1588 -91 1214 -16 
Q 841 59 441 206 
L 441 856 
Q 825 641 1194 531 
Q 1563 422 1919 422 
Q 2459 422 2753 634 
Q 3047 847 3047 1241 
Q 3047 1584 2836 1778 
Q 2625 1972 2144 2069 
L 1759 2144 
Q 1053 2284 737 2584 
Q 422 2884 422 3419 
Q 422 4038 858 4394 
Q 1294 4750 2059 4750 
Q 2388 4750 2728 4690 
Q 3069 4631 3425 4513 
z
" transform="scale(0.015625)"/>
       <path id="DejaVuSans-70" d="M 1159 525 
L 1159 -1331 
L 581 -1331 
L 581 3500 
L 1159 3500 
L 1159 2969 
Q 1341 3281 1617 3432 
Q 1894 3584 2278 3584 
Q 2916 3584 3314 3078 
Q 3713 2572 3713 1747 
Q 3713 922 3314 415 
Q 2916 -91 2278 -91 
Q 1894 -91 1617 61 
Q 1341 213 1159 525 
z
M 3116 1747 
Q 3116 2381 2855 2742 
Q 2594 3103 2138 3103 
Q 1681 3103 1420 2742 
Q 1159 2381 1159 1747 
Q 1159 1113 1420 752 
Q 1681 391 2138 391 
Q 2594 391 2855 752 
Q 3116 1113 3116 1747 
z
" transform="scale(0.015625)"/>
       <path id="DejaVuSans-65" d="M 3597 1894 
L 3597 1613 
L 953 1613 
Q 991 1019 1311 708 
Q 1631 397 2203 397 
Q 2534 397 2845 478 
Q 3156 559 3463 722 
L 3463 178 
Q 3153 47 2828 -22 
Q 2503 -91 2169 -91 
Q 1331 -91 842 396 
Q 353 884 353 1716 
Q 353 2575 817 3079 
Q 1281 3584 2069 3584 
Q 2775 3584 3186 3129 
Q 3597 2675 3597 1894 
z
M 3022 2063 
Q 3016 2534 2758 2815 
Q 2500 3097 2075 3097 
Q 1594 3097 1305 2825 
Q 1016 2553 972 2059 
L 3022 2063 
z
" transform="scale(0.015625)"/>
       <path id="DejaVuSans-72" d="M 2631 2963 
Q 2534 3019 2420 3045 
Q 2306 3072 2169 3072 
Q 1681 3072 1420 2755 
Q 1159 2438 1159 1844 
L 1159 0 
L 581 0 
L 581 3500 
L 1159 3500 
L 1159 2956 
Q 1341 3275 1631 3429 
Q 1922 3584 2338 3584 
Q 2397 3584 2469 3576 
Q 2541 3569 2628 3553 
L 2631 2963 
z
" transform="scale(0.015625)"/>
       <path id="DejaVuSans-6d" d="M 3328 2828 
Q 3544 3216 3844 3400 
Q 4144 3584 4550 3584 
Q 5097 3584 5394 3201 
Q 5691 2819 5691 2113 
L 5691 0 
L 5113 0 
L 5113 2094 
Q 5113 2597 4934 2840 
Q 4756 3084 4391 3084 
Q 3944 3084 3684 2787 
Q 3425 2491 3425 1978 
L 3425 0 
L 2847 0 
L 2847 2094 
Q 2847 2600 2669 2842 
Q 2491 3084 2119 3084 
Q 1678 3084 1418 2786 
Q 1159 2488 1159 1978 
L 1159 0 
L 581 0 
L 581 3500 
L 1159 3500 
L 1159 2956 
Q 1356 3278 1631 3431 
Q 1906 3584 2284 3584 
Q 2666 3584 2933 3390 
Q 3200 3197 3328 2828 
z
" transform="scale(0.015625)"/>
       <path id="DejaVuSans-6e" d="M 3513 2113 
L 3513 0 
L 2938 0 
L 2938 2094 
Q 2938 2591 2744 2837 
Q 2550 3084 2163 3084 
Q 1697 3084 1428 2787 
Q 1159 2491 1159 1978 
L 1159 0 
L 581 0 
L 581 3500 
L 1159 3500 
L 1159 2956 
Q 1366 3272 1645 3428 
Q 1925 3584 2291 3584 
Q 2894 3584 3203 3211 
Q 3513 2838 3513 2113 
z
" transform="scale(0.015625)"/>
       <path id="DejaVuSans-20" transform="scale(0.015625)"/>
       <path id="DejaVuSans-63" d="M 3122 3366 
L 3122 2828 
Q 2878 2963 2633 3030 
Q 2388 3097 2138 3097 
Q 1578 3097 1268 2742 
Q 959 2388 959 1747 
Q 959 1106 1268 751 
Q 1578 397 2138 397 
Q 2388 397 2633 464 
Q 2878 531 3122 666 
L 3122 134 
Q 2881 22 2623 -34 
Q 2366 -91 2075 -91 
Q 1284 -91 818 406 
Q 353 903 353 1747 
Q 353 2603 823 3093 
Q 1294 3584 2113 3584 
Q 2378 3584 2631 3529 
Q 2884 3475 3122 3366 
z
" transform="scale(0.015625)"/>
       <path id="DejaVuSans-6f" d="M 1959 3097 
Q 1497 3097 1228 2736 
Q 959 2375 959 1747 
Q 959 1119 1226 758 
Q 1494 397 1959 397 
Q 2419 397 2687 759 
Q 2956 1122 2956 1747 
Q 2956 2369 2687 2733 
Q 2419 3097 1959 3097 
z
M 1959 3584 
Q 2709 3584 3137 3096 
Q 3566 2609 3566 1747 
Q 3566 888 3137 398 
Q 2709 -91 1959 -91 
Q 1206 -91 779 398 
Q 353 888 353 1747 
Q 353 2609 779 3096 
Q 1206 3584 1959 3584 
z
" transform="scale(0.015625)"/>
      </defs>
      <use xlink:href="#DejaVuSans-53"/>
      <use xlink:href="#DejaVuSans-70" transform="translate(63.476562 0)"/>
      <use xlink:href="#DejaVuSans-65" transform="translate(126.953125 0)"/>
      <use xlink:href="#DejaVuSans-61" transform="translate(188.476562 0)"/>
      <use xlink:href="#DejaVuSans-72" transform="translate(249.755859 0)"/>
      <use xlink:href="#DejaVuSans-6d" transform="translate(289.119141 0)"/>
      <use xlink:href="#DejaVuSans-61" transform="translate(386.53125 0)"/>
      <use xlink:href="#DejaVuSans-6e" transform="translate(447.810547 0)"/>
      <use xlink:href="#DejaVuSans-20" transform="translate(511.189453 0)"/>
      <use xlink:href="#DejaVuSans-63" transform="translate(542.976562 0)"/>
      <use xlink:href="#DejaVuSans-6f" transform="translate(597.957031 0)"/>
      <use xlink:href="#DejaVuSans-72" transform="translate(659.138672 0)"/>
      <use xlink:href="#DejaVuSans-72" transform="translate(698.501953 0)"/>
      <use xlink:href="#DejaVuSans-2e" transform="translate(730.490234 0)"/>
     </g>
    </g>
   </g>
   <g id="FillBetweenPolyCollection_1">
    <defs>
     <path id="mc82058535a" d="M 58.839675 -57.689653 
L 58.814871 -57.689653 
L 58.804729 -59.045039 
L 58.790407 -60.400426 
L 58.773039 -61.755812 
L 58.755496 -63.111198 
L 58.741816 -64.466585 
L 58.735743 -65.821971 
L 58.739079 -67.177357 
L 58.750825 -68.532744 
L 58.767658 -69.88813 
L 58.785452 -71.243516 
L 58.800879 -72.598903 
L 58.812287 -73.954289 
L 58.819614 -75.309675 
L 58.823734 -76.665062 
L 58.825738 -78.020448 
L 58.826472 -79.375834 
L 58.826341 -80.731221 
L 58.825267 -82.086607 
L 58.822694 -83.441993 
L 58.817667 -84.79738 
L 58.809098 -86.152766 
L 58.796329 -87.508152 
L 58.779876 -88.863539 
L 58.761963 -90.218925 
L 58.746314 -91.574311 
L 58.736989 -92.929698 
L 58.736698 -94.285084 
L 58.745527 -95.64047 
L 58.760902 -96.995857 
L 58.778795 -98.351243 
L 58.795419 -99.706629 
L 58.808443 -101.062016 
L 58.81726 -102.417402 
L 58.822482 -103.772788 
L 58.825211 -105.128175 
L 58.826475 -106.483561 
L 58.826995 -107.838947 
L 58.827186 -109.194334 
L 58.827248 -110.54972 
L 58.827266 -111.905106 
L 58.827271 -113.260493 
L 58.827272 -114.615879 
L 58.827271 -115.971265 
L 58.827264 -117.326652 
L 58.827239 -118.682038 
L 58.827157 -120.037425 
L 58.826912 -121.392811 
L 58.826261 -122.748197 
L 58.82472 -124.103584 
L 58.821472 -125.45897 
L 58.815389 -126.814356 
L 58.805279 -128.169743 
L 58.790374 -129.525129 
L 58.770802 -130.880515 
L 58.747564 -132.235902 
L 58.721627 -133.591288 
L 58.692387 -134.946674 
L 58.656583 -136.302061 
L 58.609001 -137.657447 
L 58.545341 -139.012833 
L 58.465856 -140.36822 
L 58.377154 -141.723606 
L 58.290168 -143.078992 
L 58.214802 -144.434379 
L 58.154206 -145.789765 
L 58.102005 -147.145151 
L 58.043627 -148.500538 
L 57.960135 -149.855924 
L 57.832184 -151.21131 
L 57.643135 -152.566697 
L 57.381741 -153.922083 
L 57.044116 -155.277469 
L 56.63295 -156.632856 
L 56.152224 -157.988242 
L 55.599308 -159.343628 
L 54.960268 -160.699015 
L 54.21422 -162.054401 
L 53.347509 -163.409787 
L 52.371871 -164.765174 
L 51.337553 -166.12056 
L 50.334442 -167.475946 
L 49.479688 -168.831333 
L 48.895293 -170.186719 
L 48.681818 -171.542105 
L 48.894695 -172.897492 
L 49.529117 -174.252878 
L 50.518155 -175.608264 
L 51.745994 -176.963651 
L 53.073483 -178.319037 
L 54.368206 -179.674423 
L 55.529043 -181.02981 
L 56.497848 -182.385196 
L 57.257264 -183.740582 
L 57.819622 -185.095969 
L 58.213833 -186.451355 
L 58.47494 -187.806741 
L 58.63753 -189.162128 
L 58.732063 -190.517514 
L 58.783017 -191.8729 
L 58.871529 -191.8729 
L 58.871529 -191.8729 
L 58.922482 -190.517514 
L 59.017015 -189.162128 
L 59.179605 -187.806741 
L 59.440713 -186.451355 
L 59.834924 -185.095969 
L 60.397282 -183.740582 
L 61.156697 -182.385196 
L 62.125502 -181.02981 
L 63.286339 -179.674423 
L 64.581063 -178.319037 
L 65.908551 -176.963651 
L 67.13639 -175.608264 
L 68.125429 -174.252878 
L 68.75985 -172.897492 
L 68.972727 -171.542105 
L 68.759252 -170.186719 
L 68.174858 -168.831333 
L 67.320103 -167.475946 
L 66.316993 -166.12056 
L 65.282674 -164.765174 
L 64.307037 -163.409787 
L 63.440325 -162.054401 
L 62.694277 -160.699015 
L 62.055237 -159.343628 
L 61.502322 -157.988242 
L 61.021596 -156.632856 
L 60.610429 -155.277469 
L 60.272805 -153.922083 
L 60.01141 -152.566697 
L 59.822361 -151.21131 
L 59.694411 -149.855924 
L 59.610919 -148.500538 
L 59.552541 -147.145151 
L 59.500339 -145.789765 
L 59.439743 -144.434379 
L 59.364377 -143.078992 
L 59.277391 -141.723606 
L 59.188689 -140.36822 
L 59.109205 -139.012833 
L 59.045544 -137.657447 
L 58.997963 -136.302061 
L 58.962159 -134.946674 
L 58.932918 -133.591288 
L 58.906981 -132.235902 
L 58.883743 -130.880515 
L 58.864171 -129.525129 
L 58.849266 -128.169743 
L 58.839156 -126.814356 
L 58.833073 -125.45897 
L 58.829826 -124.103584 
L 58.828285 -122.748197 
L 58.827634 -121.392811 
L 58.827389 -120.037425 
L 58.827306 -118.682038 
L 58.827281 -117.326652 
L 58.827275 -115.971265 
L 58.827273 -114.615879 
L 58.827274 -113.260493 
L 58.827279 -111.905106 
L 58.827297 -110.54972 
L 58.82736 -109.194334 
L 58.827551 -107.838947 
L 58.828071 -106.483561 
L 58.829334 -105.128175 
L 58.832063 -103.772788 
L 58.837286 -102.417402 
L 58.846102 -101.062016 
L 58.859127 -99.706629 
L 58.87575 -98.351243 
L 58.893643 -96.995857 
L 58.909018 -95.64047 
L 58.917848 -94.285084 
L 58.917556 -92.929698 
L 58.908232 -91.574311 
L 58.892582 -90.218925 
L 58.874669 -88.863539 
L 58.858216 -87.508152 
L 58.845447 -86.152766 
L 58.836879 -84.79738 
L 58.831852 -83.441993 
L 58.829279 -82.086607 
L 58.828204 -80.731221 
L 58.828073 -79.375834 
L 58.828807 -78.020448 
L 58.830812 -76.665062 
L 58.834932 -75.309675 
L 58.842259 -73.954289 
L 58.853666 -72.598903 
L 58.869094 -71.243516 
L 58.886887 -69.88813 
L 58.903721 -68.532744 
L 58.915466 -67.177357 
L 58.918803 -65.821971 
L 58.912729 -64.466585 
L 58.899049 -63.111198 
L 58.881507 -61.755812 
L 58.864138 -60.400426 
L 58.849816 -59.045039 
L 58.839675 -57.689653 
z
" style="stroke: #303030; stroke-width: 1.5"/>
    </defs>
    <g clip-path="url(#pfb896c6333)">
     <use xlink:href="#mc82058535a" x="0" y="216" style="fill: #4a326e; stroke: #303030; stroke-width: 1.5"/>
    </g>
   </g>
   <g id="FillBetweenPolyCollection_2">
    <defs>
     <path id="m16fa7fdf33" d="M 84.209285 -117.505781 
L 84.172533 -117.505781 
L 84.16569 -118.310056 
L 84.15709 -119.114331 
L 84.146572 -119.918606 
L 84.134049 -120.722881 
L 84.119532 -121.527156 
L 84.103128 -122.331431 
L 84.085045 -123.135706 
L 84.065556 -123.939981 
L 84.044968 -124.744256 
L 84.023559 -125.548531 
L 84.001511 -126.352806 
L 83.978835 -127.157081 
L 83.95529 -127.961356 
L 83.930301 -128.765631 
L 83.902882 -129.569906 
L 83.871559 -130.374181 
L 83.834295 -131.178456 
L 83.788441 -131.982731 
L 83.730691 -132.787006 
L 83.657097 -133.59128 
L 83.563126 -134.395555 
L 83.443793 -135.19983 
L 83.293888 -136.004105 
L 83.108272 -136.80838 
L 82.882258 -137.612655 
L 82.612028 -138.41693 
L 82.295066 -139.221205 
L 81.930564 -140.02548 
L 81.519762 -140.829755 
L 81.0662 -141.63403 
L 80.575861 -142.438305 
L 80.05721 -143.24258 
L 79.521108 -144.046855 
L 78.980619 -144.85113 
L 78.450677 -145.655405 
L 77.947611 -146.45968 
L 77.488488 -147.263955 
L 77.090272 -148.06823 
L 76.768811 -148.872505 
L 76.53769 -149.67678 
L 76.407064 -150.481055 
L 76.382584 -151.28533 
L 76.464596 -152.089605 
L 76.647729 -152.89388 
L 76.921015 -153.698155 
L 77.268547 -154.50243 
L 77.670642 -155.306705 
L 78.105373 -156.11098 
L 78.550285 -156.915254 
L 78.98406 -157.719529 
L 79.387926 -158.523804 
L 79.746663 -159.328079 
L 80.049101 -160.132354 
L 80.288129 -160.936629 
L 80.460277 -161.740904 
L 80.564998 -162.545179 
L 80.603808 -163.349454 
L 80.579417 -164.153729 
L 80.494986 -164.958004 
L 80.353566 -165.762279 
L 80.157791 -166.566554 
L 79.909803 -167.370829 
L 79.611413 -168.175104 
L 79.26445 -168.979379 
L 78.871249 -169.783654 
L 78.435244 -170.587929 
L 77.961574 -171.392204 
L 77.457663 -172.196479 
L 76.933658 -173.000754 
L 76.402683 -173.805029 
L 75.880797 -174.609304 
L 75.386627 -175.413579 
L 74.940639 -176.217854 
L 74.564067 -177.022129 
L 74.277567 -177.826404 
L 74.09971 -178.630679 
L 74.045455 -179.434954 
L 74.124772 -180.239228 
L 74.341576 -181.043503 
L 74.693111 -181.847778 
L 75.169872 -182.652053 
L 75.756106 -183.456328 
L 76.430854 -184.260603 
L 77.169426 -185.064878 
L 77.945164 -185.869153 
L 78.731317 -186.673428 
L 79.502806 -187.477703 
L 80.237742 -188.281978 
L 80.918533 -189.086253 
L 81.532521 -189.890528 
L 82.072132 -190.694803 
L 82.534586 -191.499078 
L 82.921256 -192.303353 
L 83.2368 -193.107628 
L 83.488188 -193.911903 
L 83.683753 -194.716178 
L 83.832334 -195.520453 
L 83.94259 -196.324728 
L 84.022509 -197.129003 
L 84.359309 -197.129003 
L 84.359309 -197.129003 
L 84.439228 -196.324728 
L 84.549485 -195.520453 
L 84.698065 -194.716178 
L 84.89363 -193.911903 
L 85.145019 -193.107628 
L 85.460562 -192.303353 
L 85.847232 -191.499078 
L 86.309686 -190.694803 
L 86.849298 -189.890528 
L 87.463285 -189.086253 
L 88.144076 -188.281978 
L 88.879012 -187.477703 
L 89.650502 -186.673428 
L 90.436654 -185.869153 
L 91.212393 -185.064878 
L 91.950964 -184.260603 
L 92.625712 -183.456328 
L 93.211947 -182.652053 
L 93.688707 -181.847778 
L 94.040242 -181.043503 
L 94.257046 -180.239228 
L 94.336364 -179.434954 
L 94.282109 -178.630679 
L 94.104251 -177.826404 
L 93.817751 -177.022129 
L 93.441179 -176.217854 
L 92.995191 -175.413579 
L 92.501022 -174.609304 
L 91.979135 -173.805029 
L 91.44816 -173.000754 
L 90.924155 -172.196479 
L 90.420244 -171.392204 
L 89.946574 -170.587929 
L 89.510569 -169.783654 
L 89.117368 -168.979379 
L 88.770405 -168.175104 
L 88.472016 -167.370829 
L 88.224028 -166.566554 
L 88.028252 -165.762279 
L 87.886832 -164.958004 
L 87.802401 -164.153729 
L 87.778011 -163.349454 
L 87.81682 -162.545179 
L 87.921541 -161.740904 
L 88.093689 -160.936629 
L 88.332718 -160.132354 
L 88.635156 -159.328079 
L 88.993892 -158.523804 
L 89.397758 -157.719529 
L 89.831533 -156.915254 
L 90.276445 -156.11098 
L 90.711176 -155.306705 
L 91.113271 -154.50243 
L 91.460803 -153.698155 
L 91.734089 -152.89388 
L 91.917223 -152.089605 
L 91.999234 -151.28533 
L 91.974755 -150.481055 
L 91.844128 -149.67678 
L 91.613008 -148.872505 
L 91.291546 -148.06823 
L 90.89333 -147.263955 
L 90.434207 -146.45968 
L 89.931141 -145.655405 
L 89.401199 -144.85113 
L 88.86071 -144.046855 
L 88.324609 -143.24258 
L 87.805957 -142.438305 
L 87.315618 -141.63403 
L 86.862056 -140.829755 
L 86.451254 -140.02548 
L 86.086752 -139.221205 
L 85.76979 -138.41693 
L 85.49956 -137.612655 
L 85.273546 -136.80838 
L 85.08793 -136.004105 
L 84.938025 -135.19983 
L 84.818693 -134.395555 
L 84.724721 -133.59128 
L 84.651127 -132.787006 
L 84.593378 -131.982731 
L 84.547523 -131.178456 
L 84.51026 -130.374181 
L 84.478936 -129.569906 
L 84.451517 -128.765631 
L 84.426528 -127.961356 
L 84.402983 -127.157081 
L 84.380307 -126.352806 
L 84.35826 -125.548531 
L 84.33685 -124.744256 
L 84.316262 -123.939981 
L 84.296774 -123.135706 
L 84.27869 -122.331431 
L 84.262287 -121.527156 
L 84.247769 -120.722881 
L 84.235247 -119.918606 
L 84.224728 -119.114331 
L 84.216128 -118.310056 
L 84.209285 -117.505781 
z
" style="stroke: #303030; stroke-width: 1.5"/>
    </defs>
    <g clip-path="url(#pfb896c6333)">
     <use xlink:href="#m16fa7fdf33" x="0" y="216" style="fill: #485080; stroke: #303030; stroke-width: 1.5"/>
    </g>
   </g>
   <g id="FillBetweenPolyCollection_3">
    <defs>
     <path id="m7053c5ba1e" d="M 109.569769 -119.301178 
L 109.539322 -119.301178 
L 109.532335 -120.048772 
L 109.523379 -120.796365 
L 109.512468 -121.543959 
L 109.499869 -122.291552 
L 109.486116 -123.039146 
L 109.471972 -123.786739 
L 109.458312 -124.534333 
L 109.44594 -125.281927 
L 109.43537 -126.02952 
L 109.426627 -126.777114 
L 109.41911 -127.524707 
L 109.411584 -128.272301 
L 109.402315 -129.019894 
L 109.389342 -129.767488 
L 109.370831 -130.515082 
L 109.345459 -131.262675 
L 109.312709 -132.010269 
L 109.273033 -132.757862 
L 109.227834 -133.505456 
L 109.179263 -134.253049 
L 109.129889 -135.000643 
L 109.082331 -135.748237 
L 109.038906 -136.49583 
L 109.001394 -137.243424 
L 108.970916 -137.991017 
L 108.947921 -138.738611 
L 108.932232 -139.486204 
L 108.923105 -140.233798 
L 108.919267 -140.981392 
L 108.918934 -141.728985 
L 108.919841 -142.476579 
L 108.919325 -143.224172 
L 108.914485 -143.971766 
L 108.902439 -144.71936 
L 108.880631 -145.466953 
L 108.84715 -146.214547 
L 108.800986 -146.96214 
L 108.742165 -147.709734 
L 108.671743 -148.457327 
L 108.591632 -149.204921 
L 108.504319 -149.952515 
L 108.412498 -150.700108 
L 108.318705 -151.447702 
L 108.224985 -152.195295 
L 108.132634 -152.942889 
L 108.042024 -153.690482 
L 107.952489 -154.438076 
L 107.86227 -155.18567 
L 107.768507 -155.933263 
L 107.667307 -156.680857 
L 107.553938 -157.42845 
L 107.423162 -158.176044 
L 107.269753 -158.923637 
L 107.089156 -159.671231 
L 106.878197 -160.418825 
L 106.635737 -161.166418 
L 106.363109 -161.914012 
L 106.06422 -162.661605 
L 105.745244 -163.409199 
L 105.413895 -164.156792 
L 105.078349 -164.904386 
L 104.745969 -165.65198 
L 104.42201 -166.399573 
L 104.10854 -167.147167 
L 103.803813 -167.89476 
L 103.502272 -168.642354 
L 103.195332 -169.389947 
L 102.872936 -170.137541 
L 102.52575 -170.885135 
L 102.147673 -171.632728 
L 101.738224 -172.380322 
L 101.304303 -173.127915 
L 100.860868 -173.875509 
L 100.430292 -174.623102 
L 100.04039 -175.370696 
L 99.721441 -176.11829 
L 99.502709 -176.865883 
L 99.409091 -177.613477 
L 99.458421 -178.36107 
L 99.659783 -179.108664 
L 100.01292 -179.856257 
L 100.508597 -180.603851 
L 101.129686 -181.351445 
L 101.852669 -182.099038 
L 102.649396 -182.846632 
L 103.488971 -183.594225 
L 104.339753 -184.341819 
L 105.171403 -185.089413 
L 105.956877 -185.837006 
L 106.674188 -186.5846 
L 107.307682 -187.332193 
L 107.848662 -188.079787 
L 108.295239 -188.82738 
L 108.651472 -189.574974 
L 108.925965 -190.322568 
L 109.130204 -191.070161 
L 109.2769 -191.817755 
L 109.378582 -192.565348 
L 109.446583 -193.312942 
L 109.662508 -193.312942 
L 109.662508 -193.312942 
L 109.730509 -192.565348 
L 109.832191 -191.817755 
L 109.978887 -191.070161 
L 110.183126 -190.322568 
L 110.457619 -189.574974 
L 110.813852 -188.82738 
L 111.260429 -188.079787 
L 111.801408 -187.332193 
L 112.434903 -186.5846 
L 113.152213 -185.837006 
L 113.937688 -185.089413 
L 114.769338 -184.341819 
L 115.62012 -183.594225 
L 116.459695 -182.846632 
L 117.256421 -182.099038 
L 117.979405 -181.351445 
L 118.600494 -180.603851 
L 119.096171 -179.856257 
L 119.449308 -179.108664 
L 119.65067 -178.36107 
L 119.7 -177.613477 
L 119.606382 -176.865883 
L 119.38765 -176.11829 
L 119.068701 -175.370696 
L 118.678799 -174.623102 
L 118.248222 -173.875509 
L 117.804788 -173.127915 
L 117.370867 -172.380322 
L 116.961418 -171.632728 
L 116.583341 -170.885135 
L 116.236155 -170.137541 
L 115.913759 -169.389947 
L 115.606819 -168.642354 
L 115.305278 -167.89476 
L 115.000551 -167.147167 
L 114.687081 -166.399573 
L 114.363122 -165.65198 
L 114.030742 -164.904386 
L 113.695196 -164.156792 
L 113.363847 -163.409199 
L 113.044871 -162.661605 
L 112.745982 -161.914012 
L 112.473354 -161.166418 
L 112.230894 -160.418825 
L 112.019935 -159.671231 
L 111.839338 -158.923637 
L 111.685929 -158.176044 
L 111.555153 -157.42845 
L 111.441784 -156.680857 
L 111.340584 -155.933263 
L 111.246821 -155.18567 
L 111.156602 -154.438076 
L 111.067067 -153.690482 
L 110.976457 -152.942889 
L 110.884106 -152.195295 
L 110.790386 -151.447702 
L 110.696593 -150.700108 
L 110.604772 -149.952515 
L 110.517459 -149.204921 
L 110.437348 -148.457327 
L 110.366925 -147.709734 
L 110.308105 -146.96214 
L 110.261941 -146.214547 
L 110.22846 -145.466953 
L 110.206652 -144.71936 
L 110.194606 -143.971766 
L 110.189766 -143.224172 
L 110.189249 -142.476579 
L 110.190157 -141.728985 
L 110.189824 -140.981392 
L 110.185986 -140.233798 
L 110.176859 -139.486204 
L 110.16117 -138.738611 
L 110.138174 -137.991017 
L 110.107697 -137.243424 
L 110.070185 -136.49583 
L 110.02676 -135.748237 
L 109.979202 -135.000643 
L 109.929828 -134.253049 
L 109.881257 -133.505456 
L 109.836058 -132.757862 
L 109.796382 -132.010269 
L 109.763632 -131.262675 
L 109.73826 -130.515082 
L 109.719749 -129.767488 
L 109.706776 -129.019894 
L 109.697507 -128.272301 
L 109.689981 -127.524707 
L 109.682464 -126.777114 
L 109.673721 -126.02952 
L 109.663151 -125.281927 
L 109.650779 -124.534333 
L 109.637119 -123.786739 
L 109.622975 -123.039146 
L 109.609222 -122.291552 
L 109.596623 -121.543959 
L 109.585712 -120.796365 
L 109.576756 -120.048772 
L 109.569769 -119.301178 
z
" style="stroke: #303030; stroke-width: 1.5"/>
    </defs>
    <g clip-path="url(#pfb896c6333)">
     <use xlink:href="#m7053c5ba1e" x="0" y="216" style="fill: #3c6682; stroke: #303030; stroke-width: 1.5"/>
    </g>
   </g>
   <g id="FillBetweenPolyCollection_4">
    <defs>
     <path id="mc5a5f4588e" d="M 134.937278 -155.778942 
L 134.899086 -155.778942 
L 134.887117 -156.133705 
L 134.870353 -156.488468 
L 134.848432 -156.843231 
L 134.821761 -157.197994 
L 134.791732 -157.552756 
L 134.760737 -157.907519 
L 134.731924 -158.262282 
L 134.708703 -158.617045 
L 134.6941 -158.971808 
L 134.690128 -159.326571 
L 134.69735 -159.681334 
L 134.714748 -160.036096 
L 134.739955 -160.390859 
L 134.769762 -160.745622 
L 134.800773 -161.100385 
L 134.830022 -161.455148 
L 134.855395 -161.809911 
L 134.875801 -162.164673 
L 134.891085 -162.519436 
L 134.901768 -162.874199 
L 134.908723 -163.228962 
L 134.912888 -163.583725 
L 134.915045 -163.938488 
L 134.915691 -164.29325 
L 134.914967 -164.648013 
L 134.912624 -165.002776 
L 134.908023 -165.357539 
L 134.900171 -165.712302 
L 134.887853 -166.067065 
L 134.869883 -166.421828 
L 134.845468 -166.77659 
L 134.814618 -167.131353 
L 134.77844 -167.486116 
L 134.739148 -167.840879 
L 134.69965 -168.195642 
L 134.662733 -168.550405 
L 134.630065 -168.905167 
L 134.601347 -169.25993 
L 134.573994 -169.614693 
L 134.543493 -169.969456 
L 134.504355 -170.324219 
L 134.451326 -170.678982 
L 134.380405 -171.033745 
L 134.289366 -171.388507 
L 134.177722 -171.74327 
L 134.046279 -172.098033 
L 133.89658 -172.452796 
L 133.730437 -172.807559 
L 133.549612 -173.162322 
L 133.355541 -173.517084 
L 133.148975 -173.871847 
L 132.929538 -174.22661 
L 132.695428 -174.581373 
L 132.443579 -174.936136 
L 132.170511 -175.290899 
L 131.873746 -175.645661 
L 131.553228 -176.000424 
L 131.212008 -176.355187 
L 130.855664 -176.70995 
L 130.490605 -177.064713 
L 130.122031 -177.419476 
L 129.752607 -177.774239 
L 129.382468 -178.129001 
L 129.010366 -178.483764 
L 128.63503 -178.838527 
L 128.255788 -179.19329 
L 127.872156 -179.548053 
L 127.483024 -179.902816 
L 127.086608 -180.257578 
L 126.681998 -180.612341 
L 126.272135 -180.967104 
L 125.866999 -181.321867 
L 125.485415 -181.67663 
L 125.154378 -182.031393 
L 124.905944 -182.386155 
L 124.772727 -182.740918 
L 124.783365 -183.095681 
L 124.958846 -183.450444 
L 125.309822 -183.805207 
L 125.834609 -184.15997 
L 126.517774 -184.514733 
L 127.329867 -184.869495 
L 128.229224 -185.224258 
L 129.166433 -185.579021 
L 130.091025 -185.933784 
L 130.95878 -186.288547 
L 131.737555 -186.64331 
L 132.40997 -186.998072 
L 132.972528 -187.352835 
L 133.432048 -187.707598 
L 133.801029 -188.062361 
L 134.093549 -188.417124 
L 134.322653 -188.771887 
L 134.49934 -189.12665 
L 134.632695 -189.481412 
L 134.730471 -189.836175 
L 134.799617 -190.190938 
L 134.846492 -190.545701 
L 134.876807 -190.900464 
L 134.959556 -190.900464 
L 134.959556 -190.900464 
L 134.989871 -190.545701 
L 135.036746 -190.190938 
L 135.105892 -189.836175 
L 135.203669 -189.481412 
L 135.337023 -189.12665 
L 135.513711 -188.771887 
L 135.742815 -188.417124 
L 136.035335 -188.062361 
L 136.404316 -187.707598 
L 136.863836 -187.352835 
L 137.426394 -186.998072 
L 138.098808 -186.64331 
L 138.877584 -186.288547 
L 139.745339 -185.933784 
L 140.669931 -185.579021 
L 141.60714 -185.224258 
L 142.506496 -184.869495 
L 143.31859 -184.514733 
L 144.001755 -184.15997 
L 144.526542 -183.805207 
L 144.877518 -183.450444 
L 145.052998 -183.095681 
L 145.063636 -182.740918 
L 144.93042 -182.386155 
L 144.681986 -182.031393 
L 144.350949 -181.67663 
L 143.969365 -181.321867 
L 143.564229 -180.967104 
L 143.154365 -180.612341 
L 142.749756 -180.257578 
L 142.35334 -179.902816 
L 141.964208 -179.548053 
L 141.580576 -179.19329 
L 141.201334 -178.838527 
L 140.825998 -178.483764 
L 140.453896 -178.129001 
L 140.083757 -177.774239 
L 139.714333 -177.419476 
L 139.345759 -177.064713 
L 138.9807 -176.70995 
L 138.624356 -176.355187 
L 138.283135 -176.000424 
L 137.962618 -175.645661 
L 137.665852 -175.290899 
L 137.392785 -174.936136 
L 137.140936 -174.581373 
L 136.906826 -174.22661 
L 136.687389 -173.871847 
L 136.480822 -173.517084 
L 136.286752 -173.162322 
L 136.105927 -172.807559 
L 135.939784 -172.452796 
L 135.790084 -172.098033 
L 135.658642 -171.74327 
L 135.546997 -171.388507 
L 135.455959 -171.033745 
L 135.385037 -170.678982 
L 135.332009 -170.324219 
L 135.292871 -169.969456 
L 135.262369 -169.614693 
L 135.235017 -169.25993 
L 135.206299 -168.905167 
L 135.17363 -168.550405 
L 135.136714 -168.195642 
L 135.097216 -167.840879 
L 135.057924 -167.486116 
L 135.021746 -167.131353 
L 134.990896 -166.77659 
L 134.966481 -166.421828 
L 134.948511 -166.067065 
L 134.936193 -165.712302 
L 134.92834 -165.357539 
L 134.923739 -165.002776 
L 134.921397 -164.648013 
L 134.920673 -164.29325 
L 134.921319 -163.938488 
L 134.923476 -163.583725 
L 134.927641 -163.228962 
L 134.934596 -162.874199 
L 134.945278 -162.519436 
L 134.960562 -162.164673 
L 134.980969 -161.809911 
L 135.006342 -161.455148 
L 135.03559 -161.100385 
L 135.066602 -160.745622 
L 135.096409 -160.390859 
L 135.121616 -160.036096 
L 135.139014 -159.681334 
L 135.146235 -159.326571 
L 135.142264 -158.971808 
L 135.12766 -158.617045 
L 135.104439 -158.262282 
L 135.075626 -157.907519 
L 135.044631 -157.552756 
L 135.014602 -157.197994 
L 134.987932 -156.843231 
L 134.966011 -156.488468 
L 134.949247 -156.133705 
L 134.937278 -155.778942 
z
" style="stroke: #303030; stroke-width: 1.5"/>
    </defs>
    <g clip-path="url(#pfb896c6333)">
     <use xlink:href="#mc5a5f4588e" x="0" y="216" style="fill: #337881; stroke: #303030; stroke-width: 1.5"/>
    </g>
   </g>
   <g id="FillBetweenPolyCollection_5">
    <defs>
     <path id="mc7fe2bb734" d="M 160.319415 -125.747816 
L 160.244221 -125.747816 
L 160.227771 -126.433312 
L 160.206523 -127.118808 
L 160.180089 -127.804305 
L 160.148413 -128.489801 
L 160.11183 -129.175297 
L 160.071077 -129.860793 
L 160.02722 -130.54629 
L 159.981519 -131.231786 
L 159.935237 -131.917282 
L 159.889438 -132.602778 
L 159.84482 -133.288275 
L 159.801612 -133.973771 
L 159.759561 -134.659267 
L 159.718012 -135.344763 
L 159.67605 -136.03026 
L 159.632691 -136.715756 
L 159.58707 -137.401252 
L 159.53861 -138.086748 
L 159.487142 -138.772245 
L 159.432955 -139.457741 
L 159.376779 -140.143237 
L 159.319682 -140.828733 
L 159.262899 -141.51423 
L 159.207612 -142.199726 
L 159.154726 -142.885222 
L 159.104687 -143.570718 
L 159.057404 -144.256215 
L 159.012305 -144.941711 
L 158.968532 -145.627207 
L 158.925243 -146.312703 
L 158.881935 -146.9982 
L 158.838714 -147.683696 
L 158.796404 -148.369192 
L 158.756443 -149.054689 
L 158.720557 -149.740185 
L 158.690235 -150.425681 
L 158.666108 -151.111177 
L 158.647345 -151.796674 
L 158.631173 -152.48217 
L 158.612622 -153.167666 
L 158.584564 -153.853162 
L 158.538048 -154.538659 
L 158.462922 -155.224155 
L 158.348685 -155.909651 
L 158.185498 -156.595147 
L 157.965258 -157.280644 
L 157.682628 -157.96614 
L 157.335893 -158.651636 
L 156.927515 -159.337132 
L 156.464264 -160.022629 
L 155.956856 -160.708125 
L 155.419088 -161.393621 
L 154.866581 -162.079117 
L 154.31529 -162.764614 
L 153.780029 -163.45011 
L 153.273252 -164.135606 
L 152.804263 -164.821102 
L 152.37895 -165.506599 
L 151.999979 -166.192095 
L 151.667333 -166.877591 
L 151.378981 -167.563087 
L 151.131543 -168.248584 
L 150.920821 -168.93408 
L 150.742226 -169.619576 
L 150.591165 -170.305072 
L 150.463485 -170.990569 
L 150.35604 -171.676065 
L 150.267359 -172.361561 
L 150.198296 -173.047057 
L 150.152474 -173.732554 
L 150.136364 -174.41805 
L 150.158847 -175.103546 
L 150.230298 -175.789042 
L 150.361268 -176.474539 
L 150.561022 -177.160035 
L 150.83616 -177.845531 
L 151.189569 -178.531027 
L 151.619865 -179.216524 
L 152.121358 -179.90202 
L 152.684506 -180.587516 
L 153.296711 -181.273012 
L 153.943307 -181.958509 
L 154.608576 -182.644005 
L 155.276689 -183.329501 
L 155.932502 -184.014997 
L 156.562213 -184.700494 
L 157.153872 -185.38599 
L 157.697794 -186.071486 
L 158.186847 -186.756982 
L 158.61663 -187.442479 
L 158.985497 -188.127975 
L 159.294411 -188.813471 
L 159.546624 -189.498967 
L 159.747204 -190.184464 
L 159.902461 -190.86996 
L 160.019341 -191.555456 
L 160.104863 -192.240952 
L 160.16565 -192.926449 
L 160.2076 -193.611945 
L 160.356036 -193.611945 
L 160.356036 -193.611945 
L 160.397986 -192.926449 
L 160.458774 -192.240952 
L 160.544296 -191.555456 
L 160.661176 -190.86996 
L 160.816432 -190.184464 
L 161.017012 -189.498967 
L 161.269226 -188.813471 
L 161.57814 -188.127975 
L 161.947006 -187.442479 
L 162.376789 -186.756982 
L 162.865842 -186.071486 
L 163.409764 -185.38599 
L 164.001424 -184.700494 
L 164.631134 -184.014997 
L 165.286947 -183.329501 
L 165.95506 -182.644005 
L 166.62033 -181.958509 
L 167.266926 -181.273012 
L 167.879131 -180.587516 
L 168.442278 -179.90202 
L 168.943771 -179.216524 
L 169.374067 -178.531027 
L 169.727477 -177.845531 
L 170.002614 -177.160035 
L 170.202369 -176.474539 
L 170.333339 -175.789042 
L 170.404789 -175.103546 
L 170.427273 -174.41805 
L 170.411162 -173.732554 
L 170.365341 -173.047057 
L 170.296277 -172.361561 
L 170.207597 -171.676065 
L 170.100152 -170.990569 
L 169.972471 -170.305072 
L 169.82141 -169.619576 
L 169.642815 -168.93408 
L 169.432093 -168.248584 
L 169.184655 -167.563087 
L 168.896304 -166.877591 
L 168.563657 -166.192095 
L 168.184686 -165.506599 
L 167.759373 -164.821102 
L 167.290384 -164.135606 
L 166.783607 -163.45011 
L 166.248346 -162.764614 
L 165.697055 -162.079117 
L 165.144548 -161.393621 
L 164.606781 -160.708125 
L 164.099372 -160.022629 
L 163.636122 -159.337132 
L 163.227744 -158.651636 
L 162.881009 -157.96614 
L 162.598378 -157.280644 
L 162.378138 -156.595147 
L 162.214951 -155.909651 
L 162.100715 -155.224155 
L 162.025589 -154.538659 
L 161.979073 -153.853162 
L 161.951015 -153.167666 
L 161.932463 -152.48217 
L 161.916291 -151.796674 
L 161.897528 -151.111177 
L 161.873402 -150.425681 
L 161.843079 -149.740185 
L 161.807193 -149.054689 
L 161.767233 -148.369192 
L 161.724922 -147.683696 
L 161.681701 -146.9982 
L 161.638393 -146.312703 
L 161.595104 -145.627207 
L 161.551332 -144.941711 
L 161.506233 -144.256215 
L 161.458949 -143.570718 
L 161.40891 -142.885222 
L 161.356024 -142.199726 
L 161.300737 -141.51423 
L 161.243954 -140.828733 
L 161.186857 -140.143237 
L 161.130681 -139.457741 
L 161.076494 -138.772245 
L 161.025026 -138.086748 
L 160.976567 -137.401252 
L 160.930946 -136.715756 
L 160.887586 -136.03026 
L 160.845624 -135.344763 
L 160.804075 -134.659267 
L 160.762024 -133.973771 
L 160.718816 -133.288275 
L 160.674198 -132.602778 
L 160.628399 -131.917282 
L 160.582117 -131.231786 
L 160.536417 -130.54629 
L 160.49256 -129.860793 
L 160.451806 -129.175297 
L 160.415223 -128.489801 
L 160.383547 -127.804305 
L 160.357114 -127.118808 
L 160.335865 -126.433312 
L 160.319415 -125.747816 
z
" style="stroke: #303030; stroke-width: 1.5"/>
    </defs>
    <g clip-path="url(#pfb896c6333)">
     <use xlink:href="#mc7fe2bb734" x="0" y="216" style="fill: #2e8e7e; stroke: #303030; stroke-width: 1.5"/>
    </g>
   </g>
   <g id="FillBetweenPolyCollection_6">
    <defs>
     <path id="m503ee26ba8" d="M 185.666563 -63.682722 
L 185.624346 -63.682722 
L 185.61584 -65.062042 
L 185.605056 -66.441361 
L 185.591834 -67.820681 
L 185.576145 -69.200001 
L 185.558101 -70.579321 
L 185.537937 -71.958641 
L 185.515956 -73.33796 
L 185.492431 -74.71728 
L 185.467494 -76.0966 
L 185.441003 -77.47592 
L 185.412445 -78.85524 
L 185.380863 -80.234559 
L 185.344856 -81.613879 
L 185.302631 -82.993199 
L 185.252123 -84.372519 
L 185.191159 -85.751838 
L 185.117641 -87.131158 
L 185.029738 -88.510478 
L 184.926064 -89.889798 
L 184.805832 -91.269118 
L 184.668973 -92.648437 
L 184.516202 -94.027757 
L 184.349018 -95.407077 
L 184.169605 -96.786397 
L 183.980627 -98.165717 
L 183.784906 -99.545036 
L 183.585009 -100.924356 
L 183.382817 -102.303676 
L 183.179145 -103.682996 
L 182.973541 -105.062315 
L 182.764332 -106.441635 
L 182.548978 -107.820955 
L 182.324712 -109.200275 
L 182.089366 -110.579595 
L 181.84223 -111.958914 
L 181.584745 -113.338234 
L 181.320843 -114.717554 
L 181.056812 -116.096874 
L 180.80064 -117.476194 
L 180.56092 -118.855513 
L 180.34549 -120.234833 
L 180.16005 -121.614153 
L 180.007027 -122.993473 
L 179.884907 -124.372792 
L 179.78819 -125.752112 
L 179.707991 -127.131432 
L 179.633215 -128.510752 
L 179.552117 -129.890072 
L 179.453989 -131.269391 
L 179.330725 -132.648711 
L 179.177989 -134.028031 
L 178.995818 -135.407351 
L 178.788553 -136.786671 
L 178.564112 -138.16599 
L 178.33272 -139.54531 
L 178.105294 -140.92463 
L 177.89176 -142.30395 
L 177.699578 -143.683269 
L 177.532706 -145.062589 
L 177.391184 -146.441909 
L 177.271362 -147.821229 
L 177.1667 -149.200549 
L 177.068969 -150.579868 
L 176.969602 -151.959188 
L 176.860979 -153.338508 
L 176.737469 -154.717828 
L 176.596149 -156.097148 
L 176.437207 -157.476467 
L 176.264099 -158.855787 
L 176.083536 -160.235107 
L 175.905348 -161.614427 
L 175.742206 -162.993746 
L 175.609134 -164.373066 
L 175.522724 -165.752386 
L 175.5 -167.131706 
L 175.55696 -168.511026 
L 175.706941 -169.890345 
L 175.959018 -171.269665 
L 176.316714 -172.648985 
L 176.777251 -174.028305 
L 177.331494 -175.407625 
L 177.964604 -176.786944 
L 178.657298 -178.166264 
L 179.387514 -179.545584 
L 180.132225 -180.924904 
L 180.869168 -182.304223 
L 181.578312 -183.683543 
L 182.242936 -185.062863 
L 182.850292 -186.442183 
L 183.391861 -187.821503 
L 183.863254 -189.200822 
L 184.263843 -190.580142 
L 184.596176 -191.959462 
L 184.865278 -193.338782 
L 185.07789 -194.718102 
L 185.241728 -196.097421 
L 185.364816 -197.476741 
L 185.454932 -198.856061 
L 185.519198 -200.235381 
L 185.771711 -200.235381 
L 185.771711 -200.235381 
L 185.835977 -198.856061 
L 185.926093 -197.476741 
L 186.049181 -196.097421 
L 186.213019 -194.718102 
L 186.425631 -193.338782 
L 186.694733 -191.959462 
L 187.027066 -190.580142 
L 187.427655 -189.200822 
L 187.899048 -187.821503 
L 188.440617 -186.442183 
L 189.047973 -185.062863 
L 189.712597 -183.683543 
L 190.421741 -182.304223 
L 191.158684 -180.924904 
L 191.903395 -179.545584 
L 192.633611 -178.166264 
L 193.326305 -176.786944 
L 193.959415 -175.407625 
L 194.513658 -174.028305 
L 194.974195 -172.648985 
L 195.331891 -171.269665 
L 195.583968 -169.890345 
L 195.733949 -168.511026 
L 195.790909 -167.131706 
L 195.768185 -165.752386 
L 195.681776 -164.373066 
L 195.548703 -162.993746 
L 195.385561 -161.614427 
L 195.207373 -160.235107 
L 195.02681 -158.855787 
L 194.853702 -157.476467 
L 194.69476 -156.097148 
L 194.55344 -154.717828 
L 194.42993 -153.338508 
L 194.321307 -151.959188 
L 194.22194 -150.579868 
L 194.124209 -149.200549 
L 194.019547 -147.821229 
L 193.899725 -146.441909 
L 193.758203 -145.062589 
L 193.591332 -143.683269 
L 193.399149 -142.30395 
L 193.185616 -140.92463 
L 192.958189 -139.54531 
L 192.726797 -138.16599 
L 192.502356 -136.786671 
L 192.295091 -135.407351 
L 192.11292 -134.028031 
L 191.960184 -132.648711 
L 191.83692 -131.269391 
L 191.738792 -129.890072 
L 191.657694 -128.510752 
L 191.582919 -127.131432 
L 191.502719 -125.752112 
L 191.406002 -124.372792 
L 191.283882 -122.993473 
L 191.130859 -121.614153 
L 190.945419 -120.234833 
L 190.729989 -118.855513 
L 190.490269 -117.476194 
L 190.234097 -116.096874 
L 189.970066 -114.717554 
L 189.706165 -113.338234 
L 189.448679 -111.958914 
L 189.201543 -110.579595 
L 188.966197 -109.200275 
L 188.741931 -107.820955 
L 188.526577 -106.441635 
L 188.317368 -105.062315 
L 188.111764 -103.682996 
L 187.908092 -102.303676 
L 187.7059 -100.924356 
L 187.506003 -99.545036 
L 187.310282 -98.165717 
L 187.121304 -96.786397 
L 186.941891 -95.407077 
L 186.774707 -94.027757 
L 186.621937 -92.648437 
L 186.485077 -91.269118 
L 186.364845 -89.889798 
L 186.261171 -88.510478 
L 186.173268 -87.131158 
L 186.09975 -85.751838 
L 186.038786 -84.372519 
L 185.988278 -82.993199 
L 185.946053 -81.613879 
L 185.910046 -80.234559 
L 185.878464 -78.85524 
L 185.849906 -77.47592 
L 185.823416 -76.0966 
L 185.798478 -74.71728 
L 185.774953 -73.33796 
L 185.752972 -71.958641 
L 185.732808 -70.579321 
L 185.714764 -69.200001 
L 185.699075 -67.820681 
L 185.685853 -66.441361 
L 185.67507 -65.062042 
L 185.666563 -63.682722 
z
" style="stroke: #303030; stroke-width: 1.5"/>
    </defs>
    <g clip-path="url(#pfb896c6333)">
     <use xlink:href="#m503ee26ba8" x="0" y="216" style="fill: #45a778; stroke: #303030; stroke-width: 1.5"/>
    </g>
   </g>
   <g id="FillBetweenPolyCollection_7">
    <defs>
     <path id="m2883bf3e32" d="M 211.023479 -64.522008 
L 210.994703 -64.522008 
L 210.988102 -65.895146 
L 210.979599 -67.268284 
L 210.969149 -68.641422 
L 210.956898 -70.01456 
L 210.943192 -71.387698 
L 210.928528 -72.760836 
L 210.913447 -74.133974 
L 210.898385 -75.507113 
L 210.883517 -76.880251 
L 210.868645 -78.253389 
L 210.853178 -79.626527 
L 210.836246 -80.999665 
L 210.816929 -82.372803 
L 210.794558 -83.745941 
L 210.769012 -85.119079 
L 210.740897 -86.492217 
L 210.711537 -87.865356 
L 210.68275 -89.238494 
L 210.656429 -90.611632 
L 210.634048 -91.98477 
L 210.616204 -93.357908 
L 210.602334 -94.731046 
L 210.59069 -96.104184 
L 210.578569 -97.477322 
L 210.562752 -98.85046 
L 210.540039 -100.223599 
L 210.507773 -101.596737 
L 210.464242 -102.969875 
L 210.408909 -104.343013 
L 210.342451 -105.716151 
L 210.266603 -107.089289 
L 210.18384 -108.462427 
L 210.096946 -109.835565 
L 210.008535 -111.208703 
L 209.920618 -112.581842 
L 209.83432 -113.95498 
L 209.749837 -115.328118 
L 209.666643 -116.701256 
L 209.583919 -118.074394 
L 209.501053 -119.447532 
L 209.41805 -120.82067 
L 209.335683 -122.193808 
L 209.255312 -123.566946 
L 209.178381 -124.940085 
L 209.105757 -126.313223 
L 209.037102 -127.686361 
L 208.970528 -129.059499 
L 208.902662 -130.432637 
L 208.829186 -131.805775 
L 208.74572 -133.178913 
L 208.648826 -134.552051 
L 208.536845 -135.925189 
L 208.410289 -137.298328 
L 208.271628 -138.671466 
L 208.124421 -140.044604 
L 207.971962 -141.417742 
L 207.815693 -142.79088 
L 207.653758 -144.164018 
L 207.480083 -145.537156 
L 207.284296 -146.910294 
L 207.052659 -148.283433 
L 206.770015 -149.656571 
L 206.4225 -151.029709 
L 206.000565 -152.402847 
L 205.50174 -153.775985 
L 204.932534 -155.149123 
L 204.309016 -156.522261 
L 203.655889 -157.895399 
L 203.004209 -159.268537 
L 202.388185 -160.641676 
L 201.841693 -162.014814 
L 201.395116 -163.387952 
L 201.072985 -164.76109 
L 200.892609 -166.134228 
L 200.863636 -167.507366 
L 200.988294 -168.880504 
L 201.26201 -170.253642 
L 201.67418 -171.62678 
L 202.208963 -172.999919 
L 202.846118 -174.373057 
L 203.561965 -175.746195 
L 204.330532 -177.119333 
L 205.124926 -178.492471 
L 205.918831 -179.865609 
L 206.688034 -181.238747 
L 207.41177 -182.611885 
L 208.073764 -183.985023 
L 208.662822 -185.358162 
L 209.172955 -186.7313 
L 209.603025 -188.104438 
L 209.956037 -189.477576 
L 210.238171 -190.850714 
L 210.457714 -192.223852 
L 210.624035 -193.59699 
L 210.746683 -194.970128 
L 210.834695 -196.343266 
L 210.896135 -197.716405 
L 210.937841 -199.089543 
L 210.965355 -200.462681 
L 211.052827 -200.462681 
L 211.052827 -200.462681 
L 211.080341 -199.089543 
L 211.122047 -197.716405 
L 211.183487 -196.343266 
L 211.271499 -194.970128 
L 211.394146 -193.59699 
L 211.560468 -192.223852 
L 211.780011 -190.850714 
L 212.062144 -189.477576 
L 212.415156 -188.104438 
L 212.845227 -186.7313 
L 213.355359 -185.358162 
L 213.944418 -183.985023 
L 214.606412 -182.611885 
L 215.330148 -181.238747 
L 216.099351 -179.865609 
L 216.893256 -178.492471 
L 217.687649 -177.119333 
L 218.456217 -175.746195 
L 219.172063 -174.373057 
L 219.809219 -172.999919 
L 220.344002 -171.62678 
L 220.756172 -170.253642 
L 221.029888 -168.880504 
L 221.154545 -167.507366 
L 221.125573 -166.134228 
L 220.945197 -164.76109 
L 220.623066 -163.387952 
L 220.176489 -162.014814 
L 219.629997 -160.641676 
L 219.013973 -159.268537 
L 218.362293 -157.895399 
L 217.709166 -156.522261 
L 217.085648 -155.149123 
L 216.516442 -153.775985 
L 216.017617 -152.402847 
L 215.595682 -151.029709 
L 215.248166 -149.656571 
L 214.965523 -148.283433 
L 214.733886 -146.910294 
L 214.538098 -145.537156 
L 214.364424 -144.164018 
L 214.202489 -142.79088 
L 214.04622 -141.417742 
L 213.893761 -140.044604 
L 213.746554 -138.671466 
L 213.607892 -137.298328 
L 213.481337 -135.925189 
L 213.369356 -134.552051 
L 213.272462 -133.178913 
L 213.188996 -131.805775 
L 213.11552 -130.432637 
L 213.047654 -129.059499 
L 212.981079 -127.686361 
L 212.912425 -126.313223 
L 212.839801 -124.940085 
L 212.76287 -123.566946 
L 212.682499 -122.193808 
L 212.600132 -120.82067 
L 212.517129 -119.447532 
L 212.434263 -118.074394 
L 212.351539 -116.701256 
L 212.268345 -115.328118 
L 212.183862 -113.95498 
L 212.097564 -112.581842 
L 212.009647 -111.208703 
L 211.921236 -109.835565 
L 211.834342 -108.462427 
L 211.751579 -107.089289 
L 211.67573 -105.716151 
L 211.609273 -104.343013 
L 211.55394 -102.969875 
L 211.510409 -101.596737 
L 211.478143 -100.223599 
L 211.45543 -98.85046 
L 211.439612 -97.477322 
L 211.427491 -96.104184 
L 211.415848 -94.731046 
L 211.401978 -93.357908 
L 211.384134 -91.98477 
L 211.361753 -90.611632 
L 211.335432 -89.238494 
L 211.306645 -87.865356 
L 211.277285 -86.492217 
L 211.24917 -85.119079 
L 211.223624 -83.745941 
L 211.201253 -82.372803 
L 211.181935 -80.999665 
L 211.165004 -79.626527 
L 211.149537 -78.253389 
L 211.134664 -76.880251 
L 211.119797 -75.507113 
L 211.104735 -74.133974 
L 211.089654 -72.760836 
L 211.074989 -71.387698 
L 211.061283 -70.01456 
L 211.049033 -68.641422 
L 211.038582 -67.268284 
L 211.03008 -65.895146 
L 211.023479 -64.522008 
z
" style="stroke: #303030; stroke-width: 1.5"/>
    </defs>
    <g clip-path="url(#pfb896c6333)">
     <use xlink:href="#m2883bf3e32" x="0" y="216" style="fill: #77bf67; stroke: #303030; stroke-width: 1.5"/>
    </g>
   </g>
   <g id="FillBetweenPolyCollection_8">
    <defs>
     <path id="mc6250038b6" d="M 236.392421 -55.520006 
L 236.353034 -55.520006 
L 236.344678 -57.026834 
L 236.333714 -58.533662 
L 236.319715 -60.04049 
L 236.302316 -61.547318 
L 236.281259 -63.054147 
L 236.256419 -64.560975 
L 236.227821 -66.067803 
L 236.195629 -67.574631 
L 236.160092 -69.081459 
L 236.121475 -70.588287 
L 236.079961 -72.095116 
L 236.035549 -73.601944 
L 235.987979 -75.108772 
L 235.936698 -76.6156 
L 235.880895 -78.122428 
L 235.81961 -79.629256 
L 235.751911 -81.136085 
L 235.677126 -82.642913 
L 235.595073 -84.149741 
L 235.50626 -85.656569 
L 235.412004 -87.163397 
L 235.314432 -88.670226 
L 235.216349 -90.177054 
L 235.121001 -91.683882 
L 235.031734 -93.19071 
L 234.951641 -94.697538 
L 234.88322 -96.204366 
L 234.828111 -97.711195 
L 234.786955 -99.218023 
L 234.759377 -100.724851 
L 234.74409 -102.231679 
L 234.739096 -103.738507 
L 234.741943 -105.245335 
L 234.749984 -106.752164 
L 234.760629 -108.258992 
L 234.771539 -109.76582 
L 234.780765 -111.272648 
L 234.78683 -112.779476 
L 234.788762 -114.286305 
L 234.786073 -115.793133 
L 234.778703 -117.299961 
L 234.766913 -118.806789 
L 234.751145 -120.313617 
L 234.731838 -121.820445 
L 234.70922 -123.327274 
L 234.683107 -124.834102 
L 234.652732 -126.34093 
L 234.616648 -127.847758 
L 234.572738 -129.354586 
L 234.518343 -130.861415 
L 234.450493 -132.368243 
L 234.366225 -133.875071 
L 234.262909 -135.381899 
L 234.13853 -136.888727 
L 233.991868 -138.395555 
L 233.822519 -139.902384 
L 233.63075 -141.409212 
L 233.417214 -142.91604 
L 233.182566 -144.422868 
L 232.927064 -145.929696 
L 232.65023 -147.436524 
L 232.350668 -148.943353 
L 232.026084 -150.450181 
L 231.673567 -151.957009 
L 231.290106 -153.463837 
L 230.873342 -154.970665 
L 230.422465 -156.477494 
L 229.939156 -157.984322 
L 229.428469 -159.49115 
L 228.899495 -160.997978 
L 228.365693 -162.504806 
L 227.844762 -164.011634 
L 227.358005 -165.518463 
L 226.92915 -167.025291 
L 226.582721 -168.532119 
L 226.342068 -170.038947 
L 226.227273 -171.545775 
L 226.25316 -173.052603 
L 226.427667 -174.559432 
L 226.750779 -176.06626 
L 227.214199 -177.573088 
L 227.801792 -179.079916 
L 228.490792 -180.586744 
L 229.253608 -182.093573 
L 230.060031 -183.600401 
L 230.879584 -185.107229 
L 231.683734 -186.614057 
L 232.447757 -188.120885 
L 233.152062 -189.627713 
L 233.782914 -191.134542 
L 234.332528 -192.64137 
L 234.798632 -194.148198 
L 235.183618 -195.655026 
L 235.493447 -197.161854 
L 235.736467 -198.668682 
L 235.922289 -200.175511 
L 236.060821 -201.682339 
L 236.161524 -203.189167 
L 236.232907 -204.695995 
L 236.512547 -204.695995 
L 236.512547 -204.695995 
L 236.583931 -203.189167 
L 236.684634 -201.682339 
L 236.823165 -200.175511 
L 237.008987 -198.668682 
L 237.252007 -197.161854 
L 237.561836 -195.655026 
L 237.946823 -194.148198 
L 238.412927 -192.64137 
L 238.962541 -191.134542 
L 239.593393 -189.627713 
L 240.297698 -188.120885 
L 241.06172 -186.614057 
L 241.86587 -185.107229 
L 242.685423 -183.600401 
L 243.491847 -182.093573 
L 244.254663 -180.586744 
L 244.943663 -179.079916 
L 245.531256 -177.573088 
L 245.994675 -176.06626 
L 246.317788 -174.559432 
L 246.492294 -173.052603 
L 246.518182 -171.545775 
L 246.403387 -170.038947 
L 246.162734 -168.532119 
L 245.816305 -167.025291 
L 245.38745 -165.518463 
L 244.900692 -164.011634 
L 244.379762 -162.504806 
L 243.84596 -160.997978 
L 243.316986 -159.49115 
L 242.806299 -157.984322 
L 242.32299 -156.477494 
L 241.872112 -154.970665 
L 241.455349 -153.463837 
L 241.071888 -151.957009 
L 240.71937 -150.450181 
L 240.394787 -148.943353 
L 240.095224 -147.436524 
L 239.818391 -145.929696 
L 239.562888 -144.422868 
L 239.328241 -142.91604 
L 239.114705 -141.409212 
L 238.922936 -139.902384 
L 238.753586 -138.395555 
L 238.606925 -136.888727 
L 238.482546 -135.381899 
L 238.379229 -133.875071 
L 238.294961 -132.368243 
L 238.227112 -130.861415 
L 238.172716 -129.354586 
L 238.128807 -127.847758 
L 238.092723 -126.34093 
L 238.062348 -124.834102 
L 238.036235 -123.327274 
L 238.013617 -121.820445 
L 237.994309 -120.313617 
L 237.978541 -118.806789 
L 237.966752 -117.299961 
L 237.959381 -115.793133 
L 237.956693 -114.286305 
L 237.958625 -112.779476 
L 237.96469 -111.272648 
L 237.973915 -109.76582 
L 237.984825 -108.258992 
L 237.99547 -106.752164 
L 238.003512 -105.245335 
L 238.006358 -103.738507 
L 238.001365 -102.231679 
L 237.986078 -100.724851 
L 237.9585 -99.218023 
L 237.917344 -97.711195 
L 237.862235 -96.204366 
L 237.793813 -94.697538 
L 237.713721 -93.19071 
L 237.624454 -91.683882 
L 237.529105 -90.177054 
L 237.431023 -88.670226 
L 237.33345 -87.163397 
L 237.239195 -85.656569 
L 237.150382 -84.149741 
L 237.068328 -82.642913 
L 236.993543 -81.136085 
L 236.925845 -79.629256 
L 236.864559 -78.122428 
L 236.808756 -76.6156 
L 236.757476 -75.108772 
L 236.709906 -73.601944 
L 236.665494 -72.095116 
L 236.623979 -70.588287 
L 236.585363 -69.081459 
L 236.549826 -67.574631 
L 236.517633 -66.067803 
L 236.489036 -64.560975 
L 236.464196 -63.054147 
L 236.443138 -61.547318 
L 236.42574 -60.04049 
L 236.411741 -58.533662 
L 236.400777 -57.026834 
L 236.392421 -55.520006 
z
" style="stroke: #303030; stroke-width: 1.5"/>
    </defs>
    <g clip-path="url(#pfb896c6333)">
     <use xlink:href="#mc6250038b6" x="0" y="216" style="fill: #a9c741; stroke: #303030; stroke-width: 1.5"/>
    </g>
   </g>
   <g id="line2d_7">
    <path d="M 51.859712 50.563685 
L 65.794833 50.563685 
" clip-path="url(#pfb896c6333)" style="fill: none; stroke-dasharray: 1.875,1.125; stroke-dashoffset: 0; stroke: #303030; stroke-width: 1.5"/>
   </g>
   <g id="line2d_8">
    <path d="M 48.870918 45.658522 
L 68.783627 45.658522 
" clip-path="url(#pfb896c6333)" style="fill: none; stroke-dasharray: 3.75,1.5; stroke-dashoffset: 0; stroke: #303030; stroke-width: 1.5"/>
   </g>
   <g id="line2d_9">
    <path d="M 49.319639 42.194653 
L 68.334906 42.194653 
" clip-path="url(#pfb896c6333)" style="fill: none; stroke-dasharray: 1.875,1.125; stroke-dashoffset: 0; stroke: #303030; stroke-width: 1.5"/>
   </g>
   <g id="line2d_10">
    <path d="M 76.499292 63.758017 
L 91.882526 63.758017 
" clip-path="url(#pfb896c6333)" style="fill: none; stroke-dasharray: 1.875,1.125; stroke-dashoffset: 0; stroke: #303030; stroke-width: 1.5"/>
   </g>
   <g id="line2d_11">
    <path d="M 78.661192 45.828866 
L 89.720626 45.828866 
" clip-path="url(#pfb896c6333)" style="fill: none; stroke-dasharray: 3.75,1.5; stroke-dashoffset: 0; stroke: #303030; stroke-width: 1.5"/>
   </g>
   <g id="line2d_12">
    <path d="M 74.054177 36.476605 
L 94.327642 36.476605 
" clip-path="url(#pfb896c6333)" style="fill: none; stroke-dasharray: 1.875,1.125; stroke-dashoffset: 0; stroke: #303030; stroke-width: 1.5"/>
   </g>
   <g id="line2d_13">
    <path d="M 104.346568 49.420506 
L 114.762523 49.420506 
" clip-path="url(#pfb896c6333)" style="fill: none; stroke-dasharray: 1.875,1.125; stroke-dashoffset: 0; stroke: #303030; stroke-width: 1.5"/>
   </g>
   <g id="line2d_14">
    <path d="M 100.354898 41.232337 
L 118.754193 41.232337 
" clip-path="url(#pfb896c6333)" style="fill: none; stroke-dasharray: 3.75,1.5; stroke-dashoffset: 0; stroke: #303030; stroke-width: 1.5"/>
   </g>
   <g id="line2d_15">
    <path d="M 99.699102 36.808097 
L 119.409988 36.808097 
" clip-path="url(#pfb896c6333)" style="fill: none; stroke-dasharray: 1.875,1.125; stroke-dashoffset: 0; stroke: #303030; stroke-width: 1.5"/>
   </g>
   <g id="line2d_16">
    <path d="M 128.448626 36.987101 
L 141.387738 36.987101 
" clip-path="url(#pfb896c6333)" style="fill: none; stroke-dasharray: 1.875,1.125; stroke-dashoffset: 0; stroke: #303030; stroke-width: 1.5"/>
   </g>
   <g id="line2d_17">
    <path d="M 125.319147 34.145186 
L 144.517216 34.145186 
" clip-path="url(#pfb896c6333)" style="fill: none; stroke-dasharray: 3.75,1.5; stroke-dashoffset: 0; stroke: #303030; stroke-width: 1.5"/>
   </g>
   <g id="line2d_18">
    <path d="M 125.178698 32.327332 
L 144.657666 32.327332 
" clip-path="url(#pfb896c6333)" style="fill: none; stroke-dasharray: 1.875,1.125; stroke-dashoffset: 0; stroke: #303030; stroke-width: 1.5"/>
   </g>
   <g id="line2d_19">
    <path d="M 152.769651 51.123112 
L 167.793985 51.123112 
" clip-path="url(#pfb896c6333)" style="fill: none; stroke-dasharray: 1.875,1.125; stroke-dashoffset: 0; stroke: #303030; stroke-width: 1.5"/>
   </g>
   <g id="line2d_20">
    <path d="M 150.46077 44.992112 
L 170.102866 44.992112 
" clip-path="url(#pfb896c6333)" style="fill: none; stroke-dasharray: 3.75,1.5; stroke-dashoffset: 0; stroke: #303030; stroke-width: 1.5"/>
   </g>
   <g id="line2d_21">
    <path d="M 150.673214 38.560443 
L 169.890422 38.560443 
" clip-path="url(#pfb896c6333)" style="fill: none; stroke-dasharray: 1.875,1.125; stroke-dashoffset: 0; stroke: #303030; stroke-width: 1.5"/>
   </g>
   <g id="line2d_22">
    <path d="M 179.447323 84.65602 
L 191.843586 84.65602 
" clip-path="url(#pfb896c6333)" style="fill: none; stroke-dasharray: 1.875,1.125; stroke-dashoffset: 0; stroke: #303030; stroke-width: 1.5"/>
   </g>
   <g id="line2d_23">
    <path d="M 177.026984 64.837336 
L 194.263925 64.837336 
" clip-path="url(#pfb896c6333)" style="fill: none; stroke-dasharray: 3.75,1.5; stroke-dashoffset: 0; stroke: #303030; stroke-width: 1.5"/>
   </g>
   <g id="line2d_24">
    <path d="M 175.556897 47.490511 
L 195.734012 47.490511 
" clip-path="url(#pfb896c6333)" style="fill: none; stroke-dasharray: 1.875,1.125; stroke-dashoffset: 0; stroke: #303030; stroke-width: 1.5"/>
   </g>
   <g id="line2d_25">
    <path d="M 207.243044 68.845162 
L 214.775138 68.845162 
" clip-path="url(#pfb896c6333)" style="fill: none; stroke-dasharray: 1.875,1.125; stroke-dashoffset: 0; stroke: #303030; stroke-width: 1.5"/>
   </g>
   <g id="line2d_26">
    <path d="M 201.621202 53.307218 
L 220.39698 53.307218 
" clip-path="url(#pfb896c6333)" style="fill: none; stroke-dasharray: 3.75,1.5; stroke-dashoffset: 0; stroke: #303030; stroke-width: 1.5"/>
   </g>
   <g id="line2d_27">
    <path d="M 201.518867 44.890644 
L 220.499315 44.890644 
" clip-path="url(#pfb896c6333)" style="fill: none; stroke-dasharray: 1.875,1.125; stroke-dashoffset: 0; stroke: #303030; stroke-width: 1.5"/>
   </g>
   <g id="line2d_28">
    <path d="M 232.68071 68.729379 
L 240.064745 68.729379 
" clip-path="url(#pfb896c6333)" style="fill: none; stroke-dasharray: 1.875,1.125; stroke-dashoffset: 0; stroke: #303030; stroke-width: 1.5"/>
   </g>
   <g id="line2d_29">
    <path d="M 226.885407 48.784444 
L 245.860048 48.784444 
" clip-path="url(#pfb896c6333)" style="fill: none; stroke-dasharray: 3.75,1.5; stroke-dashoffset: 0; stroke: #303030; stroke-width: 1.5"/>
   </g>
   <g id="line2d_30">
    <path d="M 226.455793 41.309404 
L 246.289662 41.309404 
" clip-path="url(#pfb896c6333)" style="fill: none; stroke-dasharray: 1.875,1.125; stroke-dashoffset: 0; stroke: #303030; stroke-width: 1.5"/>
   </g>
   <g id="LineCollection_1">
    <path d="M 46.145455 99.859741 
L 249.054545 99.859741 
" clip-path="url(#pfb896c6333)" style="fill: none; stroke-dasharray: 5.55,2.4; stroke-dashoffset: 0; stroke: #ff0000; stroke-width: 1.5"/>
   </g>
   <g id="patch_3">
    <path d="M 36 192.24 
L 36 25.92 
" style="fill: none; stroke: #cccccc; stroke-width: 1.25; stroke-linejoin: miter; stroke-linecap: square"/>
   </g>
   <g id="patch_4">
    <path d="M 259.2 192.24 
L 259.2 25.92 
" style="fill: none; stroke: #cccccc; stroke-width: 1.25; stroke-linejoin: miter; stroke-linecap: square"/>
   </g>
   <g id="patch_5">
    <path d="M 36 192.24 
L 259.2 192.24 
" style="fill: none; stroke: #cccccc; stroke-width: 1.25; stroke-linejoin: miter; stroke-linecap: square"/>
   </g>
   <g id="patch_6">
    <path d="M 36 25.92 
L 259.2 25.92 
" style="fill: none; stroke: #cccccc; stroke-width: 1.25; stroke-linejoin: miter; stroke-linecap: square"/>
   </g>
   <g id="text_17">
    <!-- Pair-wise corr -->
    <g style="fill: #262626" transform="translate(100.890312 19.92) scale(0.14 -0.14)">
     <defs>
      <path id="DejaVuSans-50" d="M 1259 4147 
L 1259 2394 
L 2053 2394 
Q 2494 2394 2734 2622 
Q 2975 2850 2975 3272 
Q 2975 3691 2734 3919 
Q 2494 4147 2053 4147 
L 1259 4147 
z
M 628 4666 
L 2053 4666 
Q 2838 4666 3239 4311 
Q 3641 3956 3641 3272 
Q 3641 2581 3239 2228 
Q 2838 1875 2053 1875 
L 1259 1875 
L 1259 0 
L 628 0 
L 628 4666 
z
" transform="scale(0.015625)"/>
      <path id="DejaVuSans-69" d="M 603 3500 
L 1178 3500 
L 1178 0 
L 603 0 
L 603 3500 
z
M 603 4863 
L 1178 4863 
L 1178 4134 
L 603 4134 
L 603 4863 
z
" transform="scale(0.015625)"/>
      <path id="DejaVuSans-2d" d="M 313 2009 
L 1997 2009 
L 1997 1497 
L 313 1497 
L 313 2009 
z
" transform="scale(0.015625)"/>
      <path id="DejaVuSans-77" d="M 269 3500 
L 844 3500 
L 1563 769 
L 2278 3500 
L 2956 3500 
L 3675 769 
L 4391 3500 
L 4966 3500 
L 4050 0 
L 3372 0 
L 2619 2869 
L 1863 0 
L 1184 0 
L 269 3500 
z
" transform="scale(0.015625)"/>
      <path id="DejaVuSans-73" d="M 2834 3397 
L 2834 2853 
Q 2591 2978 2328 3040 
Q 2066 3103 1784 3103 
Q 1356 3103 1142 2972 
Q 928 2841 928 2578 
Q 928 2378 1081 2264 
Q 1234 2150 1697 2047 
L 1894 2003 
Q 2506 1872 2764 1633 
Q 3022 1394 3022 966 
Q 3022 478 2636 193 
Q 2250 -91 1575 -91 
Q 1294 -91 989 -36 
Q 684 19 347 128 
L 347 722 
Q 666 556 975 473 
Q 1284 391 1588 391 
Q 1994 391 2212 530 
Q 2431 669 2431 922 
Q 2431 1156 2273 1281 
Q 2116 1406 1581 1522 
L 1381 1569 
Q 847 1681 609 1914 
Q 372 2147 372 2553 
Q 372 3047 722 3315 
Q 1072 3584 1716 3584 
Q 2034 3584 2315 3537 
Q 2597 3491 2834 3397 
z
" transform="scale(0.015625)"/>
     </defs>
     <use xlink:href="#DejaVuSans-50"/>
     <use xlink:href="#DejaVuSans-61" transform="translate(55.802734 0)"/>
     <use xlink:href="#DejaVuSans-69" transform="translate(117.082031 0)"/>
     <use xlink:href="#DejaVuSans-72" transform="translate(144.865234 0)"/>
     <use xlink:href="#DejaVuSans-2d" transform="translate(179.603516 0)"/>
     <use xlink:href="#DejaVuSans-77" transform="translate(215.6875 0)"/>
     <use xlink:href="#DejaVuSans-69" transform="translate(297.474609 0)"/>
     <use xlink:href="#DejaVuSans-73" transform="translate(325.257812 0)"/>
     <use xlink:href="#DejaVuSans-65" transform="translate(377.357422 0)"/>
     <use xlink:href="#DejaVuSans-20" transform="translate(438.880859 0)"/>
     <use xlink:href="#DejaVuSans-63" transform="translate(470.667969 0)"/>
     <use xlink:href="#DejaVuSans-6f" transform="translate(525.648438 0)"/>
     <use xlink:href="#DejaVuSans-72" transform="translate(586.830078 0)"/>
     <use xlink:href="#DejaVuSans-72" transform="translate(626.193359 0)"/>
    </g>
   </g>
  </g>
 </g>
 <defs>
  <clipPath id="pfb896c6333">
   <rect x="36" y="25.92" width="223.2" height="166.32"/>
  </clipPath>
 </defs>
</svg>
