<?xml version="1.0" encoding="utf-8" standalone="no"?>
<!DOCTYPE svg PUBLIC "-//W3C//DTD SVG 1.1//EN"
  "http://www.w3.org/Graphics/SVG/1.1/DTD/svg11.dtd">
<svg xmlns:xlink="http://www.w3.org/1999/xlink" width="288pt" height="216pt" viewBox="0 0 288 216" xmlns="http://www.w3.org/2000/svg" version="1.1">
 <metadata>
  <rdf:RDF xmlns:dc="http://purl.org/dc/elements/1.1/" xmlns:cc="http://creativecommons.org/ns#" xmlns:rdf="http://www.w3.org/1999/02/22-rdf-syntax-ns#">
   <cc:Work>
    <dc:type rdf:resource="http://purl.org/dc/dcmitype/StillImage"/>
    <dc:date>2025-11-25T17:24:57.416439</dc:date>
    <dc:format>image/svg+xml</dc:format>
    <dc:creator>
     <cc:Agent>
      <dc:title>Matplotlib v3.10.0, https://matplotlib.org/</dc:title>
     </cc:Agent>
    </dc:creator>
   </cc:Work>
  </rdf:RDF>
 </metadata>
 <defs>
  <style type="text/css">*{stroke-linejoin: round; stroke-linecap: butt}</style>
 </defs>
 <g id="figure_1">
  <g id="patch_1">
   <path d="M 0 216 
L 288 216 
L 288 0 
L 0 0 
z
" style="fill: #ffffff"/>
  </g>
  <g id="axes_1">
   <g id="patch_2">
    <path d="M 36 192.24 
L 259.2 192.24 
L 259.2 25.92 
L 36 25.92 
z
" style="fill: #ffffff"/>
   </g>
   <g id="matplotlib.axis_1">
    <g id="xtick_1">
     <g id="text_1">
      <!-- D01 -->
      <g style="fill: #262626" transform="translate(86.660227 209.338437) scale(0.1 -0.1)">
       <defs>
        <path id="DejaVuSans-44" d="M 1259 4147 
L 1259 519 
L 2022 519 
Q 2988 519 3436 956 
Q 3884 1394 3884 2338 
Q 3884 3275 3436 3711 
Q 2988 4147 2022 4147 
L 1259 4147 
z
M 628 4666 
L 1925 4666 
Q 3281 4666 3915 4102 
Q 4550 3538 4550 2338 
Q 4550 1131 3912 565 
Q 3275 0 1925 0 
L 628 0 
L 628 4666 
z
" transform="scale(0.015625)"/>
        <path id="DejaVuSans-30" d="M 2034 4250 
Q 1547 4250 1301 3770 
Q 1056 3291 1056 2328 
Q 1056 1369 1301 889 
Q 1547 409 2034 409 
Q 2525 409 2770 889 
Q 3016 1369 3016 2328 
Q 3016 3291 2770 3770 
Q 2525 4250 2034 4250 
z
M 2034 4750 
Q 2819 4750 3233 4129 
Q 3647 3509 3647 2328 
Q 3647 1150 3233 529 
Q 2819 -91 2034 -91 
Q 1250 -91 836 529 
Q 422 1150 422 2328 
Q 422 3509 836 4129 
Q 1250 4750 2034 4750 
z
" transform="scale(0.015625)"/>
        <path id="DejaVuSans-31" d="M 794 531 
L 1825 531 
L 1825 4091 
L 703 3866 
L 703 4441 
L 1819 4666 
L 2450 4666 
L 2450 531 
L 3481 531 
L 3481 0 
L 794 0 
L 794 531 
z
" transform="scale(0.015625)"/>
       </defs>
       <use xlink:href="#DejaVuSans-44"/>
       <use xlink:href="#DejaVuSans-30" transform="translate(77.001953 0)"/>
       <use xlink:href="#DejaVuSans-31" transform="translate(140.625 0)"/>
      </g>
     </g>
    </g>
    <g id="xtick_2">
     <g id="text_2">
      <!-- D08 -->
      <g style="fill: #262626" transform="translate(188.114773 209.338437) scale(0.1 -0.1)">
       <defs>
        <path id="DejaVuSans-38" d="M 2034 2216 
Q 1584 2216 1326 1975 
Q 1069 1734 1069 1313 
Q 1069 891 1326 650 
Q 1584 409 2034 409 
Q 2484 409 2743 651 
Q 3003 894 3003 1313 
Q 3003 1734 2745 1975 
Q 2488 2216 2034 2216 
z
M 1403 2484 
Q 997 2584 770 2862 
Q 544 3141 544 3541 
Q 544 4100 942 4425 
Q 1341 4750 2034 4750 
Q 2731 4750 3128 4425 
Q 3525 4100 3525 3541 
Q 3525 3141 3298 2862 
Q 3072 2584 2669 2484 
Q 3125 2378 3379 2068 
Q 3634 1759 3634 1313 
Q 3634 634 3220 271 
Q 2806 -91 2034 -91 
Q 1263 -91 848 271 
Q 434 634 434 1313 
Q 434 1759 690 2068 
Q 947 2378 1403 2484 
z
M 1172 3481 
Q 1172 3119 1398 2916 
Q 1625 2713 2034 2713 
Q 2441 2713 2670 2916 
Q 2900 3119 2900 3481 
Q 2900 3844 2670 4047 
Q 2441 4250 2034 4250 
Q 1625 4250 1398 4047 
Q 1172 3844 1172 3481 
z
" transform="scale(0.015625)"/>
       </defs>
       <use xlink:href="#DejaVuSans-44"/>
       <use xlink:href="#DejaVuSans-30" transform="translate(77.001953 0)"/>
       <use xlink:href="#DejaVuSans-38" transform="translate(140.625 0)"/>
      </g>
     </g>
    </g>
    <g id="text_3">
     <!-- Day -->
     <g style="fill: #262626" transform="translate(135.751875 224.53625) scale(0.12 -0.12)">
      <defs>
       <path id="DejaVuSans-61" d="M 2194 1759 
Q 1497 1759 1228 1600 
Q 959 1441 959 1056 
Q 959 750 1161 570 
Q 1363 391 1709 391 
Q 2188 391 2477 730 
Q 2766 1069 2766 1631 
L 2766 1759 
L 2194 1759 
z
M 3341 1997 
L 3341 0 
L 2766 0 
L 2766 531 
Q 2569 213 2275 61 
Q 1981 -91 1556 -91 
Q 1019 -91 701 211 
Q 384 513 384 1019 
Q 384 1609 779 1909 
Q 1175 2209 1959 2209 
L 2766 2209 
L 2766 2266 
Q 2766 2663 2505 2880 
Q 2244 3097 1772 3097 
Q 1472 3097 1187 3025 
Q 903 2953 641 2809 
L 641 3341 
Q 956 3463 1253 3523 
Q 1550 3584 1831 3584 
Q 2591 3584 2966 3190 
Q 3341 2797 3341 1997 
z
" transform="scale(0.015625)"/>
       <path id="DejaVuSans-79" d="M 2059 -325 
Q 1816 -950 1584 -1140 
Q 1353 -1331 966 -1331 
L 506 -1331 
L 506 -850 
L 844 -850 
Q 1081 -850 1212 -737 
Q 1344 -625 1503 -206 
L 1606 56 
L 191 3500 
L 800 3500 
L 1894 763 
L 2988 3500 
L 3597 3500 
L 2059 -325 
z
" transform="scale(0.015625)"/>
      </defs>
      <use xlink:href="#DejaVuSans-44"/>
      <use xlink:href="#DejaVuSans-61" transform="translate(77.001953 0)"/>
      <use xlink:href="#DejaVuSans-79" transform="translate(138.28125 0)"/>
     </g>
    </g>
   </g>
   <g id="matplotlib.axis_2">
    <g id="ytick_1">
     <g id="line2d_1">
      <path d="M 36 192.24 
L 259.2 192.24 
" clip-path="url(#p0fd6c796a9)" style="fill: none; stroke: #cccccc; stroke-linecap: round"/>
     </g>
     <g id="text_4">
      <!-- 0.5 -->
      <g style="fill: #262626" transform="translate(10.596875 196.039219) scale(0.1 -0.1)">
       <defs>
        <path id="DejaVuSans-2e" d="M 684 794 
L 1344 794 
L 1344 0 
L 684 0 
L 684 794 
z
" transform="scale(0.015625)"/>
        <path id="DejaVuSans-35" d="M 691 4666 
L 3169 4666 
L 3169 4134 
L 1269 4134 
L 1269 2991 
Q 1406 3038 1543 3061 
Q 1681 3084 1819 3084 
Q 2600 3084 3056 2656 
Q 3513 2228 3513 1497 
Q 3513 744 3044 326 
Q 2575 -91 1722 -91 
Q 1428 -91 1123 -41 
Q 819 9 494 109 
L 494 744 
Q 775 591 1075 516 
Q 1375 441 1709 441 
Q 2250 441 2565 725 
Q 2881 1009 2881 1497 
Q 2881 1984 2565 2268 
Q 2250 2553 1709 2553 
Q 1456 2553 1204 2497 
Q 953 2441 691 2322 
L 691 4666 
z
" transform="scale(0.015625)"/>
       </defs>
       <use xlink:href="#DejaVuSans-30"/>
       <use xlink:href="#DejaVuSans-2e" transform="translate(63.623047 0)"/>
       <use xlink:href="#DejaVuSans-35" transform="translate(95.410156 0)"/>
      </g>
     </g>
    </g>
    <g id="ytick_2">
     <g id="line2d_2">
      <path d="M 36 158.976 
L 259.2 158.976 
" clip-path="url(#p0fd6c796a9)" style="fill: none; stroke: #cccccc; stroke-linecap: round"/>
     </g>
     <g id="text_5">
      <!-- 0.6 -->
      <g style="fill: #262626" transform="translate(10.596875 162.775219) scale(0.1 -0.1)">
       <defs>
        <path id="DejaVuSans-36" d="M 2113 2584 
Q 1688 2584 1439 2293 
Q 1191 2003 1191 1497 
Q 1191 994 1439 701 
Q 1688 409 2113 409 
Q 2538 409 2786 701 
Q 3034 994 3034 1497 
Q 3034 2003 2786 2293 
Q 2538 2584 2113 2584 
z
M 3366 4563 
L 3366 3988 
Q 3128 4100 2886 4159 
Q 2644 4219 2406 4219 
Q 1781 4219 1451 3797 
Q 1122 3375 1075 2522 
Q 1259 2794 1537 2939 
Q 1816 3084 2150 3084 
Q 2853 3084 3261 2657 
Q 3669 2231 3669 1497 
Q 3669 778 3244 343 
Q 2819 -91 2113 -91 
Q 1303 -91 875 529 
Q 447 1150 447 2328 
Q 447 3434 972 4092 
Q 1497 4750 2381 4750 
Q 2619 4750 2861 4703 
Q 3103 4656 3366 4563 
z
" transform="scale(0.015625)"/>
       </defs>
       <use xlink:href="#DejaVuSans-30"/>
       <use xlink:href="#DejaVuSans-2e" transform="translate(63.623047 0)"/>
       <use xlink:href="#DejaVuSans-36" transform="translate(95.410156 0)"/>
      </g>
     </g>
    </g>
    <g id="ytick_3">
     <g id="line2d_3">
      <path d="M 36 125.712 
L 259.2 125.712 
" clip-path="url(#p0fd6c796a9)" style="fill: none; stroke: #cccccc; stroke-linecap: round"/>
     </g>
     <g id="text_6">
      <!-- 0.7 -->
      <g style="fill: #262626" transform="translate(10.596875 129.511219) scale(0.1 -0.1)">
       <defs>
        <path id="DejaVuSans-37" d="M 525 4666 
L 3525 4666 
L 3525 4397 
L 1831 0 
L 1172 0 
L 2766 4134 
L 525 4134 
L 525 4666 
z
" transform="scale(0.015625)"/>
       </defs>
       <use xlink:href="#DejaVuSans-30"/>
       <use xlink:href="#DejaVuSans-2e" transform="translate(63.623047 0)"/>
       <use xlink:href="#DejaVuSans-37" transform="translate(95.410156 0)"/>
      </g>
     </g>
    </g>
    <g id="ytick_4">
     <g id="line2d_4">
      <path d="M 36 92.448 
L 259.2 92.448 
" clip-path="url(#p0fd6c796a9)" style="fill: none; stroke: #cccccc; stroke-linecap: round"/>
     </g>
     <g id="text_7">
      <!-- 0.8 -->
      <g style="fill: #262626" transform="translate(10.596875 96.247219) scale(0.1 -0.1)">
       <use xlink:href="#DejaVuSans-30"/>
       <use xlink:href="#DejaVuSans-2e" transform="translate(63.623047 0)"/>
       <use xlink:href="#DejaVuSans-38" transform="translate(95.410156 0)"/>
      </g>
     </g>
    </g>
    <g id="ytick_5">
     <g id="line2d_5">
      <path d="M 36 59.184 
L 259.2 59.184 
" clip-path="url(#p0fd6c796a9)" style="fill: none; stroke: #cccccc; stroke-linecap: round"/>
     </g>
     <g id="text_8">
      <!-- 0.9 -->
      <g style="fill: #262626" transform="translate(10.596875 62.983219) scale(0.1 -0.1)">
       <defs>
        <path id="DejaVuSans-39" d="M 703 97 
L 703 672 
Q 941 559 1184 500 
Q 1428 441 1663 441 
Q 2288 441 2617 861 
Q 2947 1281 2994 2138 
Q 2813 1869 2534 1725 
Q 2256 1581 1919 1581 
Q 1219 1581 811 2004 
Q 403 2428 403 3163 
Q 403 3881 828 4315 
Q 1253 4750 1959 4750 
Q 2769 4750 3195 4129 
Q 3622 3509 3622 2328 
Q 3622 1225 3098 567 
Q 2575 -91 1691 -91 
Q 1453 -91 1209 -44 
Q 966 3 703 97 
z
M 1959 2075 
Q 2384 2075 2632 2365 
Q 2881 2656 2881 3163 
Q 2881 3666 2632 3958 
Q 2384 4250 1959 4250 
Q 1534 4250 1286 3958 
Q 1038 3666 1038 3163 
Q 1038 2656 1286 2365 
Q 1534 2075 1959 2075 
z
" transform="scale(0.015625)"/>
       </defs>
       <use xlink:href="#DejaVuSans-30"/>
       <use xlink:href="#DejaVuSans-2e" transform="translate(63.623047 0)"/>
       <use xlink:href="#DejaVuSans-39" transform="translate(95.410156 0)"/>
      </g>
     </g>
    </g>
    <g id="ytick_6">
     <g id="line2d_6">
      <path d="M 36 25.92 
L 259.2 25.92 
" clip-path="url(#p0fd6c796a9)" style="fill: none; stroke: #cccccc; stroke-linecap: round"/>
     </g>
     <g id="text_9">
      <!-- 1.0 -->
      <g style="fill: #262626" transform="translate(10.596875 29.719219) scale(0.1 -0.1)">
       <use xlink:href="#DejaVuSans-31"/>
       <use xlink:href="#DejaVuSans-2e" transform="translate(63.623047 0)"/>
       <use xlink:href="#DejaVuSans-30" transform="translate(95.410156 0)"/>
      </g>
     </g>
    </g>
    <g id="text_10">
     <!-- Spearman corr. -->
     <g style="fill: #262626" transform="translate(4.10125 154.816875) rotate(-90) scale(0.12 -0.12)">
      <defs>
       <path id="DejaVuSans-53" d="M 3425 4513 
L 3425 3897 
Q 3066 4069 2747 4153 
Q 2428 4238 2131 4238 
Q 1616 4238 1336 4038 
Q 1056 3838 1056 3469 
Q 1056 3159 1242 3001 
Q 1428 2844 1947 2747 
L 2328 2669 
Q 3034 2534 3370 2195 
Q 3706 1856 3706 1288 
Q 3706 609 3251 259 
Q 2797 -91 1919 -91 
Q 1588 -91 1214 -16 
Q 841 59 441 206 
L 441 856 
Q 825 641 1194 531 
Q 1563 422 1919 422 
Q 2459 422 2753 634 
Q 3047 847 3047 1241 
Q 3047 1584 2836 1778 
Q 2625 1972 2144 2069 
L 1759 2144 
Q 1053 2284 737 2584 
Q 422 2884 422 3419 
Q 422 4038 858 4394 
Q 1294 4750 2059 4750 
Q 2388 4750 2728 4690 
Q 3069 4631 3425 4513 
z
" transform="scale(0.015625)"/>
       <path id="DejaVuSans-70" d="M 1159 525 
L 1159 -1331 
L 581 -1331 
L 581 3500 
L 1159 3500 
L 1159 2969 
Q 1341 3281 1617 3432 
Q 1894 3584 2278 3584 
Q 2916 3584 3314 3078 
Q 3713 2572 3713 1747 
Q 3713 922 3314 415 
Q 2916 -91 2278 -91 
Q 1894 -91 1617 61 
Q 1341 213 1159 525 
z
M 3116 1747 
Q 3116 2381 2855 2742 
Q 2594 3103 2138 3103 
Q 1681 3103 1420 2742 
Q 1159 2381 1159 1747 
Q 1159 1113 1420 752 
Q 1681 391 2138 391 
Q 2594 391 2855 752 
Q 3116 1113 3116 1747 
z
" transform="scale(0.015625)"/>
       <path id="DejaVuSans-65" d="M 3597 1894 
L 3597 1613 
L 953 1613 
Q 991 1019 1311 708 
Q 1631 397 2203 397 
Q 2534 397 2845 478 
Q 3156 559 3463 722 
L 3463 178 
Q 3153 47 2828 -22 
Q 2503 -91 2169 -91 
Q 1331 -91 842 396 
Q 353 884 353 1716 
Q 353 2575 817 3079 
Q 1281 3584 2069 3584 
Q 2775 3584 3186 3129 
Q 3597 2675 3597 1894 
z
M 3022 2063 
Q 3016 2534 2758 2815 
Q 2500 3097 2075 3097 
Q 1594 3097 1305 2825 
Q 1016 2553 972 2059 
L 3022 2063 
z
" transform="scale(0.015625)"/>
       <path id="DejaVuSans-72" d="M 2631 2963 
Q 2534 3019 2420 3045 
Q 2306 3072 2169 3072 
Q 1681 3072 1420 2755 
Q 1159 2438 1159 1844 
L 1159 0 
L 581 0 
L 581 3500 
L 1159 3500 
L 1159 2956 
Q 1341 3275 1631 3429 
Q 1922 3584 2338 3584 
Q 2397 3584 2469 3576 
Q 2541 3569 2628 3553 
L 2631 2963 
z
" transform="scale(0.015625)"/>
       <path id="DejaVuSans-6d" d="M 3328 2828 
Q 3544 3216 3844 3400 
Q 4144 3584 4550 3584 
Q 5097 3584 5394 3201 
Q 5691 2819 5691 2113 
L 5691 0 
L 5113 0 
L 5113 2094 
Q 5113 2597 4934 2840 
Q 4756 3084 4391 3084 
Q 3944 3084 3684 2787 
Q 3425 2491 3425 1978 
L 3425 0 
L 2847 0 
L 2847 2094 
Q 2847 2600 2669 2842 
Q 2491 3084 2119 3084 
Q 1678 3084 1418 2786 
Q 1159 2488 1159 1978 
L 1159 0 
L 581 0 
L 581 3500 
L 1159 3500 
L 1159 2956 
Q 1356 3278 1631 3431 
Q 1906 3584 2284 3584 
Q 2666 3584 2933 3390 
Q 3200 3197 3328 2828 
z
" transform="scale(0.015625)"/>
       <path id="DejaVuSans-6e" d="M 3513 2113 
L 3513 0 
L 2938 0 
L 2938 2094 
Q 2938 2591 2744 2837 
Q 2550 3084 2163 3084 
Q 1697 3084 1428 2787 
Q 1159 2491 1159 1978 
L 1159 0 
L 581 0 
L 581 3500 
L 1159 3500 
L 1159 2956 
Q 1366 3272 1645 3428 
Q 1925 3584 2291 3584 
Q 2894 3584 3203 3211 
Q 3513 2838 3513 2113 
z
" transform="scale(0.015625)"/>
       <path id="DejaVuSans-20" transform="scale(0.015625)"/>
       <path id="DejaVuSans-63" d="M 3122 3366 
L 3122 2828 
Q 2878 2963 2633 3030 
Q 2388 3097 2138 3097 
Q 1578 3097 1268 2742 
Q 959 2388 959 1747 
Q 959 1106 1268 751 
Q 1578 397 2138 397 
Q 2388 397 2633 464 
Q 2878 531 3122 666 
L 3122 134 
Q 2881 22 2623 -34 
Q 2366 -91 2075 -91 
Q 1284 -91 818 406 
Q 353 903 353 1747 
Q 353 2603 823 3093 
Q 1294 3584 2113 3584 
Q 2378 3584 2631 3529 
Q 2884 3475 3122 3366 
z
" transform="scale(0.015625)"/>
       <path id="DejaVuSans-6f" d="M 1959 3097 
Q 1497 3097 1228 2736 
Q 959 2375 959 1747 
Q 959 1119 1226 758 
Q 1494 397 1959 397 
Q 2419 397 2687 759 
Q 2956 1122 2956 1747 
Q 2956 2369 2687 2733 
Q 2419 3097 1959 3097 
z
M 1959 3584 
Q 2709 3584 3137 3096 
Q 3566 2609 3566 1747 
Q 3566 888 3137 398 
Q 2709 -91 1959 -91 
Q 1206 -91 779 398 
Q 353 888 353 1747 
Q 353 2609 779 3096 
Q 1206 3584 1959 3584 
z
" transform="scale(0.015625)"/>
      </defs>
      <use xlink:href="#DejaVuSans-53"/>
      <use xlink:href="#DejaVuSans-70" transform="translate(63.476562 0)"/>
      <use xlink:href="#DejaVuSans-65" transform="translate(126.953125 0)"/>
      <use xlink:href="#DejaVuSans-61" transform="translate(188.476562 0)"/>
      <use xlink:href="#DejaVuSans-72" transform="translate(249.755859 0)"/>
      <use xlink:href="#DejaVuSans-6d" transform="translate(289.119141 0)"/>
      <use xlink:href="#DejaVuSans-61" transform="translate(386.53125 0)"/>
      <use xlink:href="#DejaVuSans-6e" transform="translate(447.810547 0)"/>
      <use xlink:href="#DejaVuSans-20" transform="translate(511.189453 0)"/>
      <use xlink:href="#DejaVuSans-63" transform="translate(542.976562 0)"/>
      <use xlink:href="#DejaVuSans-6f" transform="translate(597.957031 0)"/>
      <use xlink:href="#DejaVuSans-72" transform="translate(659.138672 0)"/>
      <use xlink:href="#DejaVuSans-72" transform="translate(698.501953 0)"/>
      <use xlink:href="#DejaVuSans-2e" transform="translate(730.490234 0)"/>
     </g>
    </g>
   </g>
   <g id="FillBetweenPolyCollection_1">
    <defs>
     <path id="m594926f091" d="M 96.955975 -153.644584 
L 96.789479 -153.644584 
L 96.751127 -154.007397 
L 96.700566 -154.370211 
L 96.636153 -154.733024 
L 96.55667 -155.095837 
L 96.461367 -155.45865 
L 96.349859 -155.821463 
L 96.22187 -156.184276 
L 96.076876 -156.54709 
L 95.913723 -156.909903 
L 95.730344 -157.272716 
L 95.523659 -157.635529 
L 95.289701 -157.998342 
L 95.023953 -158.361155 
L 94.721806 -158.723969 
L 94.379055 -159.086782 
L 93.992341 -159.449595 
L 93.55954 -159.812408 
L 93.080102 -160.175221 
L 92.555424 -160.538034 
L 91.989254 -160.900848 
L 91.38812 -161.263661 
L 90.761665 -161.626474 
L 90.122741 -161.989287 
L 89.487098 -162.3521 
L 88.872582 -162.714913 
L 88.297807 -163.077727 
L 87.780393 -163.44054 
L 87.334939 -163.803353 
L 86.970975 -164.166166 
L 86.691163 -164.528979 
L 86.490033 -164.891792 
L 86.353477 -165.254606 
L 86.259141 -165.617419 
L 86.1777 -165.980232 
L 86.074838 -166.343045 
L 85.913621 -166.705858 
L 85.65687 -167.068671 
L 85.269211 -167.431485 
L 84.718625 -167.794298 
L 83.977544 -168.157111 
L 83.023806 -168.519924 
L 81.841813 -168.882737 
L 80.424253 -169.24555 
L 78.774433 -169.608364 
L 76.908937 -169.971177 
L 74.859939 -170.33399 
L 72.676268 -170.696803 
L 70.422336 -171.059616 
L 68.174359 -171.422429 
L 66.013822 -171.785243 
L 64.018859 -172.148056 
L 62.254827 -172.510869 
L 60.765816 -172.873682 
L 59.568919 -173.236495 
L 58.65273 -173.599308 
L 57.980814 -173.962122 
L 57.499841 -174.324935 
L 57.150965 -174.687748 
L 56.882209 -175.050561 
L 56.659228 -175.413374 
L 56.472107 -175.776187 
L 56.33678 -176.139001 
L 56.290909 -176.501814 
L 56.385399 -176.864627 
L 56.673647 -177.22744 
L 57.200983 -177.590253 
L 57.996443 -177.953066 
L 59.068236 -178.31588 
L 60.403253 -178.678693 
L 61.97011 -179.041506 
L 63.724598 -179.404319 
L 65.616221 -179.767132 
L 67.594603 -180.129945 
L 69.614766 -180.492759 
L 71.640682 -180.855572 
L 73.646787 -181.218385 
L 75.617483 -181.581198 
L 77.544965 -181.944011 
L 79.42593 -182.306824 
L 81.257961 -182.669638 
L 83.036368 -183.032451 
L 84.75219 -183.395264 
L 86.391738 -183.758077 
L 87.9377 -184.12089 
L 89.371419 -184.483703 
L 90.67572 -184.846517 
L 91.837553 -185.20933 
L 92.849868 -185.572143 
L 93.712377 -185.934956 
L 94.431199 -186.297769 
L 95.017625 -186.660582 
L 95.486408 -187.023396 
L 95.853972 -187.386209 
L 96.136883 -187.749022 
L 96.350724 -188.111835 
L 96.509432 -188.474648 
L 96.625008 -188.837461 
L 96.707488 -189.200275 
L 96.765075 -189.563088 
L 96.980379 -189.563088 
L 96.980379 -189.563088 
L 97.037966 -189.200275 
L 97.120446 -188.837461 
L 97.236022 -188.474648 
L 97.394731 -188.111835 
L 97.608572 -187.749022 
L 97.891482 -187.386209 
L 98.259046 -187.023396 
L 98.727829 -186.660582 
L 99.314256 -186.297769 
L 100.033078 -185.934956 
L 100.895586 -185.572143 
L 101.907901 -185.20933 
L 103.069735 -184.846517 
L 104.374036 -184.483703 
L 105.807755 -184.12089 
L 107.353716 -183.758077 
L 108.993264 -183.395264 
L 110.709086 -183.032451 
L 112.487494 -182.669638 
L 114.319525 -182.306824 
L 116.20049 -181.944011 
L 118.127971 -181.581198 
L 120.098668 -181.218385 
L 122.104772 -180.855572 
L 124.130689 -180.492759 
L 126.150852 -180.129945 
L 128.129233 -179.767132 
L 130.020857 -179.404319 
L 131.775344 -179.041506 
L 133.342202 -178.678693 
L 134.677219 -178.31588 
L 135.749011 -177.953066 
L 136.544471 -177.590253 
L 137.071807 -177.22744 
L 137.360056 -176.864627 
L 137.454545 -176.501814 
L 137.408674 -176.139001 
L 137.273347 -175.776187 
L 137.086227 -175.413374 
L 136.863246 -175.050561 
L 136.59449 -174.687748 
L 136.245613 -174.324935 
L 135.76464 -173.962122 
L 135.092725 -173.599308 
L 134.176535 -173.236495 
L 132.979638 -172.873682 
L 131.490628 -172.510869 
L 129.726595 -172.148056 
L 127.731632 -171.785243 
L 125.571096 -171.422429 
L 123.323118 -171.059616 
L 121.069187 -170.696803 
L 118.885515 -170.33399 
L 116.836518 -169.971177 
L 114.971022 -169.608364 
L 113.321201 -169.24555 
L 111.903642 -168.882737 
L 110.721649 -168.519924 
L 109.76791 -168.157111 
L 109.02683 -167.794298 
L 108.476243 -167.431485 
L 108.088585 -167.068671 
L 107.831834 -166.705858 
L 107.670616 -166.343045 
L 107.567754 -165.980232 
L 107.486313 -165.617419 
L 107.391978 -165.254606 
L 107.255422 -164.891792 
L 107.054291 -164.528979 
L 106.77448 -164.166166 
L 106.410516 -163.803353 
L 105.965062 -163.44054 
L 105.447648 -163.077727 
L 104.872872 -162.714913 
L 104.258356 -162.3521 
L 103.622714 -161.989287 
L 102.983789 -161.626474 
L 102.357335 -161.263661 
L 101.756201 -160.900848 
L 101.19003 -160.538034 
L 100.665352 -160.175221 
L 100.185915 -159.812408 
L 99.753113 -159.449595 
L 99.3664 -159.086782 
L 99.023648 -158.723969 
L 98.721501 -158.361155 
L 98.455753 -157.998342 
L 98.221795 -157.635529 
L 98.01511 -157.272716 
L 97.831732 -156.909903 
L 97.668579 -156.54709 
L 97.523584 -156.184276 
L 97.395596 -155.821463 
L 97.284087 -155.45865 
L 97.188784 -155.095837 
L 97.109301 -154.733024 
L 97.044888 -154.370211 
L 96.994328 -154.007397 
L 96.955975 -153.644584 
z
" style="stroke: #393939; stroke-width: 1.5"/>
    </defs>
    <g clip-path="url(#p0fd6c796a9)">
     <use xlink:href="#m594926f091" x="0" y="216" style="fill: #3c6682; stroke: #393939; stroke-width: 1.5"/>
    </g>
   </g>
   <g id="FillBetweenPolyCollection_2">
    <defs>
     <path id="m582b3e0ef9" d="M 198.403558 -130.385885 
L 198.250987 -130.385885 
L 198.211369 -131.01182 
L 198.157819 -131.637754 
L 198.088721 -132.263689 
L 198.003651 -132.889624 
L 197.903779 -133.515558 
L 197.792028 -134.141493 
L 197.672882 -134.767428 
L 197.551804 -135.393363 
L 197.434345 -136.019297 
L 197.325127 -136.645232 
L 197.226961 -137.271167 
L 197.140314 -137.897101 
L 197.063288 -138.523036 
L 196.992095 -139.148971 
L 196.921887 -139.774906 
L 196.84771 -140.40084 
L 196.765358 -141.026775 
L 196.671998 -141.65271 
L 196.56654 -142.278644 
L 196.449819 -142.904579 
L 196.324671 -143.530514 
L 196.195896 -144.156449 
L 196.070045 -144.782383 
L 195.954895 -145.408318 
L 195.858519 -146.034253 
L 195.788031 -146.660187 
L 195.748202 -147.286122 
L 195.740322 -147.912057 
L 195.761628 -148.537992 
L 195.805516 -149.163926 
L 195.862462 -149.789861 
L 195.921373 -150.415796 
L 195.970928 -151.04173 
L 196.000512 -151.667665 
L 196.00056 -152.2936 
L 195.962378 -152.919535 
L 195.877787 -153.545469 
L 195.739002 -154.171404 
L 195.539055 -154.797339 
L 195.272803 -155.423273 
L 194.938217 -156.049208 
L 194.537428 -156.675143 
L 194.07696 -157.301077 
L 193.566781 -157.927012 
L 193.018217 -158.552947 
L 192.441118 -159.178882 
L 191.841 -159.804816 
L 191.216868 -160.430751 
L 190.5602 -161.056686 
L 189.855197 -161.68262 
L 189.080036 -162.308555 
L 188.208697 -162.93449 
L 187.213005 -163.560425 
L 186.06483 -164.186359 
L 184.738659 -164.812294 
L 183.214857 -165.438229 
L 181.483693 -166.064163 
L 179.549678 -166.690098 
L 177.435159 -167.316033 
L 175.1818 -167.941968 
L 172.848771 -168.567902 
L 170.50726 -169.193837 
L 168.232138 -169.819772 
L 166.092654 -170.445706 
L 164.144653 -171.071641 
L 162.426494 -171.697576 
L 160.959767 -172.323511 
L 159.75439 -172.949445 
L 158.816284 -173.57538 
L 158.155003 -174.201315 
L 157.788798 -174.827249 
L 157.745455 -175.453184 
L 158.058574 -176.079119 
L 158.760326 -176.705054 
L 159.872622 -177.330988 
L 161.399028 -177.956923 
L 163.319375 -178.582858 
L 165.588296 -179.208792 
L 168.137895 -179.834727 
L 170.883895 -180.460662 
L 173.733931 -181.086597 
L 176.59641 -181.712531 
L 179.388434 -182.338466 
L 182.041662 -182.964401 
L 184.505492 -183.590335 
L 186.74753 -184.21627 
L 188.751818 -184.842205 
L 190.515604 -185.46814 
L 192.045586 -186.094074 
L 193.354418 -186.720009 
L 194.458033 -187.345944 
L 195.373958 -187.971878 
L 196.120497 -188.597813 
L 196.71647 -189.223748 
L 197.181106 -189.849683 
L 197.533854 -190.475617 
L 197.793936 -191.101552 
L 197.979724 -191.727487 
L 198.108045 -192.353421 
L 198.5465 -192.353421 
L 198.5465 -192.353421 
L 198.674821 -191.727487 
L 198.86061 -191.101552 
L 199.120692 -190.475617 
L 199.473439 -189.849683 
L 199.938076 -189.223748 
L 200.534048 -188.597813 
L 201.280588 -187.971878 
L 202.196512 -187.345944 
L 203.300127 -186.720009 
L 204.608959 -186.094074 
L 206.138941 -185.46814 
L 207.902728 -184.842205 
L 209.907015 -184.21627 
L 212.149053 -183.590335 
L 214.612883 -182.964401 
L 217.266112 -182.338466 
L 220.058136 -181.712531 
L 222.920614 -181.086597 
L 225.770651 -180.460662 
L 228.516651 -179.834727 
L 231.06625 -179.208792 
L 233.33517 -178.582858 
L 235.255518 -177.956923 
L 236.781924 -177.330988 
L 237.89422 -176.705054 
L 238.595971 -176.079119 
L 238.909091 -175.453184 
L 238.865747 -174.827249 
L 238.499543 -174.201315 
L 237.838262 -173.57538 
L 236.900156 -172.949445 
L 235.694779 -172.323511 
L 234.228051 -171.697576 
L 232.509893 -171.071641 
L 230.561892 -170.445706 
L 228.422407 -169.819772 
L 226.147285 -169.193837 
L 223.805775 -168.567902 
L 221.472745 -167.941968 
L 219.219387 -167.316033 
L 217.104867 -166.690098 
L 215.170852 -166.064163 
L 213.439689 -165.438229 
L 211.915887 -164.812294 
L 210.589716 -164.186359 
L 209.441541 -163.560425 
L 208.445849 -162.93449 
L 207.57451 -162.308555 
L 206.799349 -161.68262 
L 206.094345 -161.056686 
L 205.437677 -160.430751 
L 204.813545 -159.804816 
L 204.213427 -159.178882 
L 203.636328 -158.552947 
L 203.087764 -157.927012 
L 202.577586 -157.301077 
L 202.117117 -156.675143 
L 201.716329 -156.049208 
L 201.381743 -155.423273 
L 201.115491 -154.797339 
L 200.915544 -154.171404 
L 200.776758 -153.545469 
L 200.692167 -152.919535 
L 200.653985 -152.2936 
L 200.654033 -151.667665 
L 200.683618 -151.04173 
L 200.733172 -150.415796 
L 200.792083 -149.789861 
L 200.84903 -149.163926 
L 200.892918 -148.537992 
L 200.914224 -147.912057 
L 200.906343 -147.286122 
L 200.866515 -146.660187 
L 200.796027 -146.034253 
L 200.699651 -145.408318 
L 200.5845 -144.782383 
L 200.45865 -144.156449 
L 200.329874 -143.530514 
L 200.204726 -142.904579 
L 200.088006 -142.278644 
L 199.982547 -141.65271 
L 199.889187 -141.026775 
L 199.806836 -140.40084 
L 199.732659 -139.774906 
L 199.662451 -139.148971 
L 199.591258 -138.523036 
L 199.514232 -137.897101 
L 199.427584 -137.271167 
L 199.329418 -136.645232 
L 199.220201 -136.019297 
L 199.102741 -135.393363 
L 198.981663 -134.767428 
L 198.862517 -134.141493 
L 198.750766 -133.515558 
L 198.650894 -132.889624 
L 198.565824 -132.263689 
L 198.496727 -131.637754 
L 198.443177 -131.01182 
L 198.403558 -130.385885 
z
" style="stroke: #393939; stroke-width: 1.5"/>
    </defs>
    <g clip-path="url(#p0fd6c796a9)">
     <use xlink:href="#m582b3e0ef9" x="0" y="216" style="fill: #45a778; stroke: #393939; stroke-width: 1.5"/>
    </g>
   </g>
   <g id="line2d_7">
    <path d="M 66.72346 44.333925 
L 127.021994 44.333925 
" clip-path="url(#p0fd6c796a9)" style="fill: none; stroke-dasharray: 1.875,1.125; stroke-dashoffset: 0; stroke: #393939; stroke-width: 1.5"/>
   </g>
   <g id="line2d_8">
    <path d="M 56.803918 40.822052 
L 136.941536 40.822052 
" clip-path="url(#p0fd6c796a9)" style="fill: none; stroke-dasharray: 3.75,1.5; stroke-dashoffset: 0; stroke: #393939; stroke-width: 1.5"/>
   </g>
   <g id="line2d_9">
    <path d="M 59.135611 37.66581 
L 134.609843 37.66581 
" clip-path="url(#p0fd6c796a9)" style="fill: none; stroke-dasharray: 1.875,1.125; stroke-dashoffset: 0; stroke: #393939; stroke-width: 1.5"/>
   </g>
   <g id="line2d_10">
    <path d="M 170.078378 46.688168 
L 226.576167 46.688168 
" clip-path="url(#p0fd6c796a9)" style="fill: none; stroke-dasharray: 1.875,1.125; stroke-dashoffset: 0; stroke: #393939; stroke-width: 1.5"/>
   </g>
   <g id="line2d_11">
    <path d="M 158.696996 42.311708 
L 237.95755 42.311708 
" clip-path="url(#p0fd6c796a9)" style="fill: none; stroke-dasharray: 3.75,1.5; stroke-dashoffset: 0; stroke: #393939; stroke-width: 1.5"/>
   </g>
   <g id="line2d_12">
    <path d="M 161.097795 38.166604 
L 235.556751 38.166604 
" clip-path="url(#p0fd6c796a9)" style="fill: none; stroke-dasharray: 1.875,1.125; stroke-dashoffset: 0; stroke: #393939; stroke-width: 1.5"/>
   </g>
   <g id="LineCollection_1">
    <path d="M 46.145455 73.320491 
L 249.054545 73.320491 
" clip-path="url(#p0fd6c796a9)" style="fill: none; stroke-dasharray: 5.55,2.4; stroke-dashoffset: 0; stroke: #ff0000; stroke-width: 1.5"/>
   </g>
   <g id="patch_3">
    <path d="M 36 192.24 
L 36 25.92 
" style="fill: none; stroke: #cccccc; stroke-width: 1.25; stroke-linejoin: miter; stroke-linecap: square"/>
   </g>
   <g id="patch_4">
    <path d="M 259.2 192.24 
L 259.2 25.92 
" style="fill: none; stroke: #cccccc; stroke-width: 1.25; stroke-linejoin: miter; stroke-linecap: square"/>
   </g>
   <g id="patch_5">
    <path d="M 36 192.24 
L 259.2 192.24 
" style="fill: none; stroke: #cccccc; stroke-width: 1.25; stroke-linejoin: miter; stroke-linecap: square"/>
   </g>
   <g id="patch_6">
    <path d="M 36 25.92 
L 259.2 25.92 
" style="fill: none; stroke: #cccccc; stroke-width: 1.25; stroke-linejoin: miter; stroke-linecap: square"/>
   </g>
   <g id="text_11">
    <!-- Pair-wise corr -->
    <g style="fill: #262626" transform="translate(100.890312 19.92) scale(0.14 -0.14)">
     <defs>
      <path id="DejaVuSans-50" d="M 1259 4147 
L 1259 2394 
L 2053 2394 
Q 2494 2394 2734 2622 
Q 2975 2850 2975 3272 
Q 2975 3691 2734 3919 
Q 2494 4147 2053 4147 
L 1259 4147 
z
M 628 4666 
L 2053 4666 
Q 2838 4666 3239 4311 
Q 3641 3956 3641 3272 
Q 3641 2581 3239 2228 
Q 2838 1875 2053 1875 
L 1259 1875 
L 1259 0 
L 628 0 
L 628 4666 
z
" transform="scale(0.015625)"/>
      <path id="DejaVuSans-69" d="M 603 3500 
L 1178 3500 
L 1178 0 
L 603 0 
L 603 3500 
z
M 603 4863 
L 1178 4863 
L 1178 4134 
L 603 4134 
L 603 4863 
z
" transform="scale(0.015625)"/>
      <path id="DejaVuSans-2d" d="M 313 2009 
L 1997 2009 
L 1997 1497 
L 313 1497 
L 313 2009 
z
" transform="scale(0.015625)"/>
      <path id="DejaVuSans-77" d="M 269 3500 
L 844 3500 
L 1563 769 
L 2278 3500 
L 2956 3500 
L 3675 769 
L 4391 3500 
L 4966 3500 
L 4050 0 
L 3372 0 
L 2619 2869 
L 1863 0 
L 1184 0 
L 269 3500 
z
" transform="scale(0.015625)"/>
      <path id="DejaVuSans-73" d="M 2834 3397 
L 2834 2853 
Q 2591 2978 2328 3040 
Q 2066 3103 1784 3103 
Q 1356 3103 1142 2972 
Q 928 2841 928 2578 
Q 928 2378 1081 2264 
Q 1234 2150 1697 2047 
L 1894 2003 
Q 2506 1872 2764 1633 
Q 3022 1394 3022 966 
Q 3022 478 2636 193 
Q 2250 -91 1575 -91 
Q 1294 -91 989 -36 
Q 684 19 347 128 
L 347 722 
Q 666 556 975 473 
Q 1284 391 1588 391 
Q 1994 391 2212 530 
Q 2431 669 2431 922 
Q 2431 1156 2273 1281 
Q 2116 1406 1581 1522 
L 1381 1569 
Q 847 1681 609 1914 
Q 372 2147 372 2553 
Q 372 3047 722 3315 
Q 1072 3584 1716 3584 
Q 2034 3584 2315 3537 
Q 2597 3491 2834 3397 
z
" transform="scale(0.015625)"/>
     </defs>
     <use xlink:href="#DejaVuSans-50"/>
     <use xlink:href="#DejaVuSans-61" transform="translate(55.802734 0)"/>
     <use xlink:href="#DejaVuSans-69" transform="translate(117.082031 0)"/>
     <use xlink:href="#DejaVuSans-72" transform="translate(144.865234 0)"/>
     <use xlink:href="#DejaVuSans-2d" transform="translate(179.603516 0)"/>
     <use xlink:href="#DejaVuSans-77" transform="translate(215.6875 0)"/>
     <use xlink:href="#DejaVuSans-69" transform="translate(297.474609 0)"/>
     <use xlink:href="#DejaVuSans-73" transform="translate(325.257812 0)"/>
     <use xlink:href="#DejaVuSans-65" transform="translate(377.357422 0)"/>
     <use xlink:href="#DejaVuSans-20" transform="translate(438.880859 0)"/>
     <use xlink:href="#DejaVuSans-63" transform="translate(470.667969 0)"/>
     <use xlink:href="#DejaVuSans-6f" transform="translate(525.648438 0)"/>
     <use xlink:href="#DejaVuSans-72" transform="translate(586.830078 0)"/>
     <use xlink:href="#DejaVuSans-72" transform="translate(626.193359 0)"/>
    </g>
   </g>
  </g>
 </g>
 <defs>
  <clipPath id="p0fd6c796a9">
   <rect x="36" y="25.92" width="223.2" height="166.32"/>
  </clipPath>
 </defs>
</svg>
