<?xml version="1.0" encoding="utf-8" standalone="no"?>
<!DOCTYPE svg PUBLIC "-//W3C//DTD SVG 1.1//EN"
  "http://www.w3.org/Graphics/SVG/1.1/DTD/svg11.dtd">
<svg xmlns:xlink="http://www.w3.org/1999/xlink" width="288pt" height="216pt" viewBox="0 0 288 216" xmlns="http://www.w3.org/2000/svg" version="1.1">
 <metadata>
  <rdf:RDF xmlns:dc="http://purl.org/dc/elements/1.1/" xmlns:cc="http://creativecommons.org/ns#" xmlns:rdf="http://www.w3.org/1999/02/22-rdf-syntax-ns#">
   <cc:Work>
    <dc:type rdf:resource="http://purl.org/dc/dcmitype/StillImage"/>
    <dc:date>2025-11-25T17:25:21.790848</dc:date>
    <dc:format>image/svg+xml</dc:format>
    <dc:creator>
     <cc:Agent>
      <dc:title>Matplotlib v3.10.0, https://matplotlib.org/</dc:title>
     </cc:Agent>
    </dc:creator>
   </cc:Work>
  </rdf:RDF>
 </metadata>
 <defs>
  <style type="text/css">*{stroke-linejoin: round; stroke-linecap: butt}</style>
 </defs>
 <g id="figure_1">
  <g id="patch_1">
   <path d="M 0 216 
L 288 216 
L 288 0 
L 0 0 
z
" style="fill: #ffffff"/>
  </g>
  <g id="axes_1">
   <g id="patch_2">
    <path d="M 36 192.24 
L 259.2 192.24 
L 259.2 25.92 
L 36 25.92 
z
" style="fill: #ffffff"/>
   </g>
   <g id="matplotlib.axis_1">
    <g id="xtick_1">
     <g id="text_1">
      <!-- 1 -->
      <g style="fill: #262626" transform="translate(53.109659 209.338437) scale(0.1 -0.1)">
       <defs>
        <path id="DejaVuSans-31" d="M 794 531 
L 1825 531 
L 1825 4091 
L 703 3866 
L 703 4441 
L 1819 4666 
L 2450 4666 
L 2450 531 
L 3481 531 
L 3481 0 
L 794 0 
L 794 531 
z
" transform="scale(0.015625)"/>
       </defs>
       <use xlink:href="#DejaVuSans-31"/>
      </g>
     </g>
    </g>
    <g id="xtick_2">
     <g id="text_2">
      <!-- 2 -->
      <g style="fill: #262626" transform="translate(73.400568 209.338437) scale(0.1 -0.1)">
       <defs>
        <path id="DejaVuSans-32" d="M 1228 531 
L 3431 531 
L 3431 0 
L 469 0 
L 469 531 
Q 828 903 1448 1529 
Q 2069 2156 2228 2338 
Q 2531 2678 2651 2914 
Q 2772 3150 2772 3378 
Q 2772 3750 2511 3984 
Q 2250 4219 1831 4219 
Q 1534 4219 1204 4116 
Q 875 4013 500 3803 
L 500 4441 
Q 881 4594 1212 4672 
Q 1544 4750 1819 4750 
Q 2544 4750 2975 4387 
Q 3406 4025 3406 3419 
Q 3406 3131 3298 2873 
Q 3191 2616 2906 2266 
Q 2828 2175 2409 1742 
Q 1991 1309 1228 531 
z
" transform="scale(0.015625)"/>
       </defs>
       <use xlink:href="#DejaVuSans-32"/>
      </g>
     </g>
    </g>
    <g id="xtick_3">
     <g id="text_3">
      <!-- 3 -->
      <g style="fill: #262626" transform="translate(93.691477 209.338437) scale(0.1 -0.1)">
       <defs>
        <path id="DejaVuSans-33" d="M 2597 2516 
Q 3050 2419 3304 2112 
Q 3559 1806 3559 1356 
Q 3559 666 3084 287 
Q 2609 -91 1734 -91 
Q 1441 -91 1130 -33 
Q 819 25 488 141 
L 488 750 
Q 750 597 1062 519 
Q 1375 441 1716 441 
Q 2309 441 2620 675 
Q 2931 909 2931 1356 
Q 2931 1769 2642 2001 
Q 2353 2234 1838 2234 
L 1294 2234 
L 1294 2753 
L 1863 2753 
Q 2328 2753 2575 2939 
Q 2822 3125 2822 3475 
Q 2822 3834 2567 4026 
Q 2313 4219 1838 4219 
Q 1578 4219 1281 4162 
Q 984 4106 628 3988 
L 628 4550 
Q 988 4650 1302 4700 
Q 1616 4750 1894 4750 
Q 2613 4750 3031 4423 
Q 3450 4097 3450 3541 
Q 3450 3153 3228 2886 
Q 3006 2619 2597 2516 
z
" transform="scale(0.015625)"/>
       </defs>
       <use xlink:href="#DejaVuSans-33"/>
      </g>
     </g>
    </g>
    <g id="xtick_4">
     <g id="text_4">
      <!-- 4 -->
      <g style="fill: #262626" transform="translate(113.982386 209.338437) scale(0.1 -0.1)">
       <defs>
        <path id="DejaVuSans-34" d="M 2419 4116 
L 825 1625 
L 2419 1625 
L 2419 4116 
z
M 2253 4666 
L 3047 4666 
L 3047 1625 
L 3713 1625 
L 3713 1100 
L 3047 1100 
L 3047 0 
L 2419 0 
L 2419 1100 
L 313 1100 
L 313 1709 
L 2253 4666 
z
" transform="scale(0.015625)"/>
       </defs>
       <use xlink:href="#DejaVuSans-34"/>
      </g>
     </g>
    </g>
    <g id="xtick_5">
     <g id="text_5">
      <!-- 5 -->
      <g style="fill: #262626" transform="translate(134.273295 209.338437) scale(0.1 -0.1)">
       <defs>
        <path id="DejaVuSans-35" d="M 691 4666 
L 3169 4666 
L 3169 4134 
L 1269 4134 
L 1269 2991 
Q 1406 3038 1543 3061 
Q 1681 3084 1819 3084 
Q 2600 3084 3056 2656 
Q 3513 2228 3513 1497 
Q 3513 744 3044 326 
Q 2575 -91 1722 -91 
Q 1428 -91 1123 -41 
Q 819 9 494 109 
L 494 744 
Q 775 591 1075 516 
Q 1375 441 1709 441 
Q 2250 441 2565 725 
Q 2881 1009 2881 1497 
Q 2881 1984 2565 2268 
Q 2250 2553 1709 2553 
Q 1456 2553 1204 2497 
Q 953 2441 691 2322 
L 691 4666 
z
" transform="scale(0.015625)"/>
       </defs>
       <use xlink:href="#DejaVuSans-35"/>
      </g>
     </g>
    </g>
    <g id="xtick_6">
     <g id="text_6">
      <!-- 6 -->
      <g style="fill: #262626" transform="translate(154.564205 209.338437) scale(0.1 -0.1)">
       <defs>
        <path id="DejaVuSans-36" d="M 2113 2584 
Q 1688 2584 1439 2293 
Q 1191 2003 1191 1497 
Q 1191 994 1439 701 
Q 1688 409 2113 409 
Q 2538 409 2786 701 
Q 3034 994 3034 1497 
Q 3034 2003 2786 2293 
Q 2538 2584 2113 2584 
z
M 3366 4563 
L 3366 3988 
Q 3128 4100 2886 4159 
Q 2644 4219 2406 4219 
Q 1781 4219 1451 3797 
Q 1122 3375 1075 2522 
Q 1259 2794 1537 2939 
Q 1816 3084 2150 3084 
Q 2853 3084 3261 2657 
Q 3669 2231 3669 1497 
Q 3669 778 3244 343 
Q 2819 -91 2113 -91 
Q 1303 -91 875 529 
Q 447 1150 447 2328 
Q 447 3434 972 4092 
Q 1497 4750 2381 4750 
Q 2619 4750 2861 4703 
Q 3103 4656 3366 4563 
z
" transform="scale(0.015625)"/>
       </defs>
       <use xlink:href="#DejaVuSans-36"/>
      </g>
     </g>
    </g>
    <g id="xtick_7">
     <g id="text_7">
      <!-- 7 -->
      <g style="fill: #262626" transform="translate(174.855114 209.338437) scale(0.1 -0.1)">
       <defs>
        <path id="DejaVuSans-37" d="M 525 4666 
L 3525 4666 
L 3525 4397 
L 1831 0 
L 1172 0 
L 2766 4134 
L 525 4134 
L 525 4666 
z
" transform="scale(0.015625)"/>
       </defs>
       <use xlink:href="#DejaVuSans-37"/>
      </g>
     </g>
    </g>
    <g id="xtick_8">
     <g id="text_8">
      <!-- 8 -->
      <g style="fill: #262626" transform="translate(195.146023 209.338437) scale(0.1 -0.1)">
       <defs>
        <path id="DejaVuSans-38" d="M 2034 2216 
Q 1584 2216 1326 1975 
Q 1069 1734 1069 1313 
Q 1069 891 1326 650 
Q 1584 409 2034 409 
Q 2484 409 2743 651 
Q 3003 894 3003 1313 
Q 3003 1734 2745 1975 
Q 2488 2216 2034 2216 
z
M 1403 2484 
Q 997 2584 770 2862 
Q 544 3141 544 3541 
Q 544 4100 942 4425 
Q 1341 4750 2034 4750 
Q 2731 4750 3128 4425 
Q 3525 4100 3525 3541 
Q 3525 3141 3298 2862 
Q 3072 2584 2669 2484 
Q 3125 2378 3379 2068 
Q 3634 1759 3634 1313 
Q 3634 634 3220 271 
Q 2806 -91 2034 -91 
Q 1263 -91 848 271 
Q 434 634 434 1313 
Q 434 1759 690 2068 
Q 947 2378 1403 2484 
z
M 1172 3481 
Q 1172 3119 1398 2916 
Q 1625 2713 2034 2713 
Q 2441 2713 2670 2916 
Q 2900 3119 2900 3481 
Q 2900 3844 2670 4047 
Q 2441 4250 2034 4250 
Q 1625 4250 1398 4047 
Q 1172 3844 1172 3481 
z
" transform="scale(0.015625)"/>
       </defs>
       <use xlink:href="#DejaVuSans-38"/>
      </g>
     </g>
    </g>
    <g id="xtick_9">
     <g id="text_9">
      <!-- 9 -->
      <g style="fill: #262626" transform="translate(215.436932 209.338437) scale(0.1 -0.1)">
       <defs>
        <path id="DejaVuSans-39" d="M 703 97 
L 703 672 
Q 941 559 1184 500 
Q 1428 441 1663 441 
Q 2288 441 2617 861 
Q 2947 1281 2994 2138 
Q 2813 1869 2534 1725 
Q 2256 1581 1919 1581 
Q 1219 1581 811 2004 
Q 403 2428 403 3163 
Q 403 3881 828 4315 
Q 1253 4750 1959 4750 
Q 2769 4750 3195 4129 
Q 3622 3509 3622 2328 
Q 3622 1225 3098 567 
Q 2575 -91 1691 -91 
Q 1453 -91 1209 -44 
Q 966 3 703 97 
z
M 1959 2075 
Q 2384 2075 2632 2365 
Q 2881 2656 2881 3163 
Q 2881 3666 2632 3958 
Q 2384 4250 1959 4250 
Q 1534 4250 1286 3958 
Q 1038 3666 1038 3163 
Q 1038 2656 1286 2365 
Q 1534 2075 1959 2075 
z
" transform="scale(0.015625)"/>
       </defs>
       <use xlink:href="#DejaVuSans-39"/>
      </g>
     </g>
    </g>
    <g id="xtick_10">
     <g id="text_10">
      <!-- 10 -->
      <g style="fill: #262626" transform="translate(232.546591 209.338437) scale(0.1 -0.1)">
       <defs>
        <path id="DejaVuSans-30" d="M 2034 4250 
Q 1547 4250 1301 3770 
Q 1056 3291 1056 2328 
Q 1056 1369 1301 889 
Q 1547 409 2034 409 
Q 2525 409 2770 889 
Q 3016 1369 3016 2328 
Q 3016 3291 2770 3770 
Q 2525 4250 2034 4250 
z
M 2034 4750 
Q 2819 4750 3233 4129 
Q 3647 3509 3647 2328 
Q 3647 1150 3233 529 
Q 2819 -91 2034 -91 
Q 1250 -91 836 529 
Q 422 1150 422 2328 
Q 422 3509 836 4129 
Q 1250 4750 2034 4750 
z
" transform="scale(0.015625)"/>
       </defs>
       <use xlink:href="#DejaVuSans-31"/>
       <use xlink:href="#DejaVuSans-30" transform="translate(63.623047 0)"/>
      </g>
     </g>
    </g>
    <g id="text_11">
     <!-- Day -->
     <g style="fill: #262626" transform="translate(135.751875 224.53625) scale(0.12 -0.12)">
      <defs>
       <path id="DejaVuSans-44" d="M 1259 4147 
L 1259 519 
L 2022 519 
Q 2988 519 3436 956 
Q 3884 1394 3884 2338 
Q 3884 3275 3436 3711 
Q 2988 4147 2022 4147 
L 1259 4147 
z
M 628 4666 
L 1925 4666 
Q 3281 4666 3915 4102 
Q 4550 3538 4550 2338 
Q 4550 1131 3912 565 
Q 3275 0 1925 0 
L 628 0 
L 628 4666 
z
" transform="scale(0.015625)"/>
       <path id="DejaVuSans-61" d="M 2194 1759 
Q 1497 1759 1228 1600 
Q 959 1441 959 1056 
Q 959 750 1161 570 
Q 1363 391 1709 391 
Q 2188 391 2477 730 
Q 2766 1069 2766 1631 
L 2766 1759 
L 2194 1759 
z
M 3341 1997 
L 3341 0 
L 2766 0 
L 2766 531 
Q 2569 213 2275 61 
Q 1981 -91 1556 -91 
Q 1019 -91 701 211 
Q 384 513 384 1019 
Q 384 1609 779 1909 
Q 1175 2209 1959 2209 
L 2766 2209 
L 2766 2266 
Q 2766 2663 2505 2880 
Q 2244 3097 1772 3097 
Q 1472 3097 1187 3025 
Q 903 2953 641 2809 
L 641 3341 
Q 956 3463 1253 3523 
Q 1550 3584 1831 3584 
Q 2591 3584 2966 3190 
Q 3341 2797 3341 1997 
z
" transform="scale(0.015625)"/>
       <path id="DejaVuSans-79" d="M 2059 -325 
Q 1816 -950 1584 -1140 
Q 1353 -1331 966 -1331 
L 506 -1331 
L 506 -850 
L 844 -850 
Q 1081 -850 1212 -737 
Q 1344 -625 1503 -206 
L 1606 56 
L 191 3500 
L 800 3500 
L 1894 763 
L 2988 3500 
L 3597 3500 
L 2059 -325 
z
" transform="scale(0.015625)"/>
      </defs>
      <use xlink:href="#DejaVuSans-44"/>
      <use xlink:href="#DejaVuSans-61" transform="translate(77.001953 0)"/>
      <use xlink:href="#DejaVuSans-79" transform="translate(138.28125 0)"/>
     </g>
    </g>
   </g>
   <g id="matplotlib.axis_2">
    <g id="ytick_1">
     <g id="line2d_1">
      <path d="M 36 192.24 
L 259.2 192.24 
" clip-path="url(#pc44e5fa4e4)" style="fill: none; stroke: #cccccc; stroke-linecap: round"/>
     </g>
     <g id="text_12">
      <!-- 0.5 -->
      <g style="fill: #262626" transform="translate(10.596875 196.039219) scale(0.1 -0.1)">
       <defs>
        <path id="DejaVuSans-2e" d="M 684 794 
L 1344 794 
L 1344 0 
L 684 0 
L 684 794 
z
" transform="scale(0.015625)"/>
       </defs>
       <use xlink:href="#DejaVuSans-30"/>
       <use xlink:href="#DejaVuSans-2e" transform="translate(63.623047 0)"/>
       <use xlink:href="#DejaVuSans-35" transform="translate(95.410156 0)"/>
      </g>
     </g>
    </g>
    <g id="ytick_2">
     <g id="line2d_2">
      <path d="M 36 158.976 
L 259.2 158.976 
" clip-path="url(#pc44e5fa4e4)" style="fill: none; stroke: #cccccc; stroke-linecap: round"/>
     </g>
     <g id="text_13">
      <!-- 0.6 -->
      <g style="fill: #262626" transform="translate(10.596875 162.775219) scale(0.1 -0.1)">
       <use xlink:href="#DejaVuSans-30"/>
       <use xlink:href="#DejaVuSans-2e" transform="translate(63.623047 0)"/>
       <use xlink:href="#DejaVuSans-36" transform="translate(95.410156 0)"/>
      </g>
     </g>
    </g>
    <g id="ytick_3">
     <g id="line2d_3">
      <path d="M 36 125.712 
L 259.2 125.712 
" clip-path="url(#pc44e5fa4e4)" style="fill: none; stroke: #cccccc; stroke-linecap: round"/>
     </g>
     <g id="text_14">
      <!-- 0.7 -->
      <g style="fill: #262626" transform="translate(10.596875 129.511219) scale(0.1 -0.1)">
       <use xlink:href="#DejaVuSans-30"/>
       <use xlink:href="#DejaVuSans-2e" transform="translate(63.623047 0)"/>
       <use xlink:href="#DejaVuSans-37" transform="translate(95.410156 0)"/>
      </g>
     </g>
    </g>
    <g id="ytick_4">
     <g id="line2d_4">
      <path d="M 36 92.448 
L 259.2 92.448 
" clip-path="url(#pc44e5fa4e4)" style="fill: none; stroke: #cccccc; stroke-linecap: round"/>
     </g>
     <g id="text_15">
      <!-- 0.8 -->
      <g style="fill: #262626" transform="translate(10.596875 96.247219) scale(0.1 -0.1)">
       <use xlink:href="#DejaVuSans-30"/>
       <use xlink:href="#DejaVuSans-2e" transform="translate(63.623047 0)"/>
       <use xlink:href="#DejaVuSans-38" transform="translate(95.410156 0)"/>
      </g>
     </g>
    </g>
    <g id="ytick_5">
     <g id="line2d_5">
      <path d="M 36 59.184 
L 259.2 59.184 
" clip-path="url(#pc44e5fa4e4)" style="fill: none; stroke: #cccccc; stroke-linecap: round"/>
     </g>
     <g id="text_16">
      <!-- 0.9 -->
      <g style="fill: #262626" transform="translate(10.596875 62.983219) scale(0.1 -0.1)">
       <use xlink:href="#DejaVuSans-30"/>
       <use xlink:href="#DejaVuSans-2e" transform="translate(63.623047 0)"/>
       <use xlink:href="#DejaVuSans-39" transform="translate(95.410156 0)"/>
      </g>
     </g>
    </g>
    <g id="ytick_6">
     <g id="line2d_6">
      <path d="M 36 25.92 
L 259.2 25.92 
" clip-path="url(#pc44e5fa4e4)" style="fill: none; stroke: #cccccc; stroke-linecap: round"/>
     </g>
     <g id="text_17">
      <!-- 1.0 -->
      <g style="fill: #262626" transform="translate(10.596875 29.719219) scale(0.1 -0.1)">
       <use xlink:href="#DejaVuSans-31"/>
       <use xlink:href="#DejaVuSans-2e" transform="translate(63.623047 0)"/>
       <use xlink:href="#DejaVuSans-30" transform="translate(95.410156 0)"/>
      </g>
     </g>
    </g>
    <g id="text_18">
     <!-- Spearman corr. -->
     <g style="fill: #262626" transform="translate(4.10125 154.816875) rotate(-90) scale(0.12 -0.12)">
      <defs>
       <path id="DejaVuSans-53" d="M 3425 4513 
L 3425 3897 
Q 3066 4069 2747 4153 
Q 2428 4238 2131 4238 
Q 1616 4238 1336 4038 
Q 1056 3838 1056 3469 
Q 1056 3159 1242 3001 
Q 1428 2844 1947 2747 
L 2328 2669 
Q 3034 2534 3370 2195 
Q 3706 1856 3706 1288 
Q 3706 609 3251 259 
Q 2797 -91 1919 -91 
Q 1588 -91 1214 -16 
Q 841 59 441 206 
L 441 856 
Q 825 641 1194 531 
Q 1563 422 1919 422 
Q 2459 422 2753 634 
Q 3047 847 3047 1241 
Q 3047 1584 2836 1778 
Q 2625 1972 2144 2069 
L 1759 2144 
Q 1053 2284 737 2584 
Q 422 2884 422 3419 
Q 422 4038 858 4394 
Q 1294 4750 2059 4750 
Q 2388 4750 2728 4690 
Q 3069 4631 3425 4513 
z
" transform="scale(0.015625)"/>
       <path id="DejaVuSans-70" d="M 1159 525 
L 1159 -1331 
L 581 -1331 
L 581 3500 
L 1159 3500 
L 1159 2969 
Q 1341 3281 1617 3432 
Q 1894 3584 2278 3584 
Q 2916 3584 3314 3078 
Q 3713 2572 3713 1747 
Q 3713 922 3314 415 
Q 2916 -91 2278 -91 
Q 1894 -91 1617 61 
Q 1341 213 1159 525 
z
M 3116 1747 
Q 3116 2381 2855 2742 
Q 2594 3103 2138 3103 
Q 1681 3103 1420 2742 
Q 1159 2381 1159 1747 
Q 1159 1113 1420 752 
Q 1681 391 2138 391 
Q 2594 391 2855 752 
Q 3116 1113 3116 1747 
z
" transform="scale(0.015625)"/>
       <path id="DejaVuSans-65" d="M 3597 1894 
L 3597 1613 
L 953 1613 
Q 991 1019 1311 708 
Q 1631 397 2203 397 
Q 2534 397 2845 478 
Q 3156 559 3463 722 
L 3463 178 
Q 3153 47 2828 -22 
Q 2503 -91 2169 -91 
Q 1331 -91 842 396 
Q 353 884 353 1716 
Q 353 2575 817 3079 
Q 1281 3584 2069 3584 
Q 2775 3584 3186 3129 
Q 3597 2675 3597 1894 
z
M 3022 2063 
Q 3016 2534 2758 2815 
Q 2500 3097 2075 3097 
Q 1594 3097 1305 2825 
Q 1016 2553 972 2059 
L 3022 2063 
z
" transform="scale(0.015625)"/>
       <path id="DejaVuSans-72" d="M 2631 2963 
Q 2534 3019 2420 3045 
Q 2306 3072 2169 3072 
Q 1681 3072 1420 2755 
Q 1159 2438 1159 1844 
L 1159 0 
L 581 0 
L 581 3500 
L 1159 3500 
L 1159 2956 
Q 1341 3275 1631 3429 
Q 1922 3584 2338 3584 
Q 2397 3584 2469 3576 
Q 2541 3569 2628 3553 
L 2631 2963 
z
" transform="scale(0.015625)"/>
       <path id="DejaVuSans-6d" d="M 3328 2828 
Q 3544 3216 3844 3400 
Q 4144 3584 4550 3584 
Q 5097 3584 5394 3201 
Q 5691 2819 5691 2113 
L 5691 0 
L 5113 0 
L 5113 2094 
Q 5113 2597 4934 2840 
Q 4756 3084 4391 3084 
Q 3944 3084 3684 2787 
Q 3425 2491 3425 1978 
L 3425 0 
L 2847 0 
L 2847 2094 
Q 2847 2600 2669 2842 
Q 2491 3084 2119 3084 
Q 1678 3084 1418 2786 
Q 1159 2488 1159 1978 
L 1159 0 
L 581 0 
L 581 3500 
L 1159 3500 
L 1159 2956 
Q 1356 3278 1631 3431 
Q 1906 3584 2284 3584 
Q 2666 3584 2933 3390 
Q 3200 3197 3328 2828 
z
" transform="scale(0.015625)"/>
       <path id="DejaVuSans-6e" d="M 3513 2113 
L 3513 0 
L 2938 0 
L 2938 2094 
Q 2938 2591 2744 2837 
Q 2550 3084 2163 3084 
Q 1697 3084 1428 2787 
Q 1159 2491 1159 1978 
L 1159 0 
L 581 0 
L 581 3500 
L 1159 3500 
L 1159 2956 
Q 1366 3272 1645 3428 
Q 1925 3584 2291 3584 
Q 2894 3584 3203 3211 
Q 3513 2838 3513 2113 
z
" transform="scale(0.015625)"/>
       <path id="DejaVuSans-20" transform="scale(0.015625)"/>
       <path id="DejaVuSans-63" d="M 3122 3366 
L 3122 2828 
Q 2878 2963 2633 3030 
Q 2388 3097 2138 3097 
Q 1578 3097 1268 2742 
Q 959 2388 959 1747 
Q 959 1106 1268 751 
Q 1578 397 2138 397 
Q 2388 397 2633 464 
Q 2878 531 3122 666 
L 3122 134 
Q 2881 22 2623 -34 
Q 2366 -91 2075 -91 
Q 1284 -91 818 406 
Q 353 903 353 1747 
Q 353 2603 823 3093 
Q 1294 3584 2113 3584 
Q 2378 3584 2631 3529 
Q 2884 3475 3122 3366 
z
" transform="scale(0.015625)"/>
       <path id="DejaVuSans-6f" d="M 1959 3097 
Q 1497 3097 1228 2736 
Q 959 2375 959 1747 
Q 959 1119 1226 758 
Q 1494 397 1959 397 
Q 2419 397 2687 759 
Q 2956 1122 2956 1747 
Q 2956 2369 2687 2733 
Q 2419 3097 1959 3097 
z
M 1959 3584 
Q 2709 3584 3137 3096 
Q 3566 2609 3566 1747 
Q 3566 888 3137 398 
Q 2709 -91 1959 -91 
Q 1206 -91 779 398 
Q 353 888 353 1747 
Q 353 2609 779 3096 
Q 1206 3584 1959 3584 
z
" transform="scale(0.015625)"/>
      </defs>
      <use xlink:href="#DejaVuSans-53"/>
      <use xlink:href="#DejaVuSans-70" transform="translate(63.476562 0)"/>
      <use xlink:href="#DejaVuSans-65" transform="translate(126.953125 0)"/>
      <use xlink:href="#DejaVuSans-61" transform="translate(188.476562 0)"/>
      <use xlink:href="#DejaVuSans-72" transform="translate(249.755859 0)"/>
      <use xlink:href="#DejaVuSans-6d" transform="translate(289.119141 0)"/>
      <use xlink:href="#DejaVuSans-61" transform="translate(386.53125 0)"/>
      <use xlink:href="#DejaVuSans-6e" transform="translate(447.810547 0)"/>
      <use xlink:href="#DejaVuSans-20" transform="translate(511.189453 0)"/>
      <use xlink:href="#DejaVuSans-63" transform="translate(542.976562 0)"/>
      <use xlink:href="#DejaVuSans-6f" transform="translate(597.957031 0)"/>
      <use xlink:href="#DejaVuSans-72" transform="translate(659.138672 0)"/>
      <use xlink:href="#DejaVuSans-72" transform="translate(698.501953 0)"/>
      <use xlink:href="#DejaVuSans-2e" transform="translate(730.490234 0)"/>
     </g>
    </g>
   </g>
   <g id="FillBetweenPolyCollection_1">
    <defs>
     <path id="m74a2f71781" d="M 56.337747 -120.303588 
L 56.244071 -120.303588 
L 56.226988 -121.065686 
L 56.205177 -121.827784 
L 56.177874 -122.589882 
L 56.144368 -123.35198 
L 56.104061 -124.114078 
L 56.05653 -124.876176 
L 56.001603 -125.638274 
L 55.939418 -126.400372 
L 55.870475 -127.16247 
L 55.795665 -127.924568 
L 55.716279 -128.686666 
L 55.633975 -129.448764 
L 55.550719 -130.210862 
L 55.468691 -130.97296 
L 55.390155 -131.735058 
L 55.317319 -132.497156 
L 55.252175 -133.259254 
L 55.196354 -134.021352 
L 55.150992 -134.78345 
L 55.116641 -135.545548 
L 55.093218 -136.307646 
L 55.080012 -137.069744 
L 55.075742 -137.831842 
L 55.078665 -138.593939 
L 55.086726 -139.356037 
L 55.097733 -140.118135 
L 55.109543 -140.880233 
L 55.120243 -141.642331 
L 55.12831 -142.404429 
L 55.132739 -143.166527 
L 55.133124 -143.928625 
L 55.129684 -144.690723 
L 55.123243 -145.452821 
L 55.115141 -146.214919 
L 55.107093 -146.977017 
L 55.101007 -147.739115 
L 55.098766 -148.501213 
L 55.101985 -149.263311 
L 55.111781 -150.025409 
L 55.128557 -150.787507 
L 55.151833 -151.549605 
L 55.180129 -152.311703 
L 55.210924 -153.073801 
L 55.240687 -153.835899 
L 55.264979 -154.597997 
L 55.278621 -155.360095 
L 55.275917 -156.122193 
L 55.250917 -156.884291 
L 55.197692 -157.646389 
L 55.110636 -158.408487 
L 54.984745 -159.170585 
L 54.815897 -159.932682 
L 54.601098 -160.69478 
L 54.338714 -161.456878 
L 54.028653 -162.218976 
L 53.672518 -162.981074 
L 53.2737 -163.743172 
L 52.837412 -164.50527 
L 52.370649 -165.267368 
L 51.882062 -166.029466 
L 51.381733 -166.791564 
L 50.880864 -167.553662 
L 50.391374 -168.31576 
L 49.925432 -169.077858 
L 49.494947 -169.839956 
L 49.111061 -170.602054 
L 48.783672 -171.364152 
L 48.521046 -172.12625 
L 48.329516 -172.888348 
L 48.213319 -173.650446 
L 48.174545 -174.412544 
L 48.2132 -175.174642 
L 48.327352 -175.93674 
L 48.513332 -176.698838 
L 48.765959 -177.460936 
L 49.078771 -178.223034 
L 49.44424 -178.985132 
L 49.853979 -179.74723 
L 50.298951 -180.509328 
L 50.769677 -181.271425 
L 51.256468 -182.033523 
L 51.749684 -182.795621 
L 52.240009 -183.557719 
L 52.718739 -184.319817 
L 53.178061 -185.081915 
L 53.611295 -185.844013 
L 54.013087 -186.606111 
L 54.379526 -187.368209 
L 54.708182 -188.130307 
L 54.998061 -188.892405 
L 55.249487 -189.654503 
L 55.463916 -190.416601 
L 55.643718 -191.178699 
L 55.791932 -191.940797 
L 55.912022 -192.702895 
L 56.007649 -193.464993 
L 56.082471 -194.227091 
L 56.139985 -194.989189 
L 56.183412 -195.751287 
L 56.398407 -195.751287 
L 56.398407 -195.751287 
L 56.441833 -194.989189 
L 56.499348 -194.227091 
L 56.57417 -193.464993 
L 56.669796 -192.702895 
L 56.789886 -191.940797 
L 56.9381 -191.178699 
L 57.117902 -190.416601 
L 57.332331 -189.654503 
L 57.583757 -188.892405 
L 57.873636 -188.130307 
L 58.202292 -187.368209 
L 58.568731 -186.606111 
L 58.970523 -185.844013 
L 59.403757 -185.081915 
L 59.863079 -184.319817 
L 60.34181 -183.557719 
L 60.832134 -182.795621 
L 61.32535 -182.033523 
L 61.812141 -181.271425 
L 62.282867 -180.509328 
L 62.727839 -179.74723 
L 63.137579 -178.985132 
L 63.503047 -178.223034 
L 63.815859 -177.460936 
L 64.068486 -176.698838 
L 64.254466 -175.93674 
L 64.368618 -175.174642 
L 64.407273 -174.412544 
L 64.368499 -173.650446 
L 64.252302 -172.888348 
L 64.060772 -172.12625 
L 63.798146 -171.364152 
L 63.470757 -170.602054 
L 63.086871 -169.839956 
L 62.656386 -169.077858 
L 62.190444 -168.31576 
L 61.700955 -167.553662 
L 61.200086 -166.791564 
L 60.699756 -166.029466 
L 60.211169 -165.267368 
L 59.744406 -164.50527 
L 59.308118 -163.743172 
L 58.9093 -162.981074 
L 58.553165 -162.218976 
L 58.243104 -161.456878 
L 57.98072 -160.69478 
L 57.765921 -159.932682 
L 57.597073 -159.170585 
L 57.471182 -158.408487 
L 57.384126 -157.646389 
L 57.330902 -156.884291 
L 57.305901 -156.122193 
L 57.303197 -155.360095 
L 57.316839 -154.597997 
L 57.341131 -153.835899 
L 57.370894 -153.073801 
L 57.40169 -152.311703 
L 57.429985 -151.549605 
L 57.453261 -150.787507 
L 57.470037 -150.025409 
L 57.479833 -149.263311 
L 57.483052 -148.501213 
L 57.480811 -147.739115 
L 57.474726 -146.977017 
L 57.466677 -146.214919 
L 57.458575 -145.452821 
L 57.452134 -144.690723 
L 57.448695 -143.928625 
L 57.449079 -143.166527 
L 57.453508 -142.404429 
L 57.461576 -141.642331 
L 57.472276 -140.880233 
L 57.484086 -140.118135 
L 57.495093 -139.356037 
L 57.503153 -138.593939 
L 57.506076 -137.831842 
L 57.501806 -137.069744 
L 57.4886 -136.307646 
L 57.465178 -135.545548 
L 57.430827 -134.78345 
L 57.385465 -134.021352 
L 57.329643 -133.259254 
L 57.264499 -132.497156 
L 57.191663 -131.735058 
L 57.113127 -130.97296 
L 57.031099 -130.210862 
L 56.947843 -129.448764 
L 56.865539 -128.686666 
L 56.786153 -127.924568 
L 56.711343 -127.16247 
L 56.6424 -126.400372 
L 56.580215 -125.638274 
L 56.525289 -124.876176 
L 56.477758 -124.114078 
L 56.43745 -123.35198 
L 56.403944 -122.589882 
L 56.376642 -121.827784 
L 56.35483 -121.065686 
L 56.337747 -120.303588 
z
" style="stroke: #2c2c2c; stroke-width: 1.5"/>
    </defs>
    <g clip-path="url(#pc44e5fa4e4)">
     <use xlink:href="#m74a2f71781" x="0" y="216" style="fill: #492c68; stroke: #2c2c2c; stroke-width: 1.5"/>
    </g>
   </g>
   <g id="FillBetweenPolyCollection_2">
    <defs>
     <path id="m9fa3808315" d="M 76.723858 -155.278537 
L 76.439778 -155.278537 
L 76.396879 -155.667045 
L 76.344122 -156.055553 
L 76.280201 -156.44406 
L 76.203898 -156.832568 
L 76.114155 -157.221076 
L 76.010153 -157.609584 
L 75.89139 -157.998092 
L 75.757744 -158.3866 
L 75.609527 -158.775108 
L 75.44751 -159.163616 
L 75.272931 -159.552124 
L 75.087464 -159.940632 
L 74.893171 -160.32914 
L 74.692418 -160.717648 
L 74.487782 -161.106156 
L 74.281934 -161.494664 
L 74.077528 -161.883172 
L 73.877092 -162.27168 
L 73.682929 -162.660188 
L 73.49704 -163.048696 
L 73.32107 -163.437204 
L 73.156269 -163.825712 
L 73.003482 -164.21422 
L 72.863151 -164.602728 
L 72.735324 -164.991236 
L 72.619682 -165.379744 
L 72.515554 -165.768252 
L 72.421939 -166.15676 
L 72.337534 -166.545268 
L 72.260755 -166.933776 
L 72.189771 -167.322284 
L 72.12255 -167.710792 
L 72.056916 -168.0993 
L 71.990629 -168.487808 
L 71.921479 -168.876316 
L 71.847395 -169.264824 
L 71.766561 -169.653332 
L 71.677532 -170.04184 
L 71.579332 -170.430348 
L 71.471533 -170.818856 
L 71.354293 -171.207364 
L 71.228359 -171.595872 
L 71.095015 -171.98438 
L 70.955995 -172.372888 
L 70.813342 -172.761396 
L 70.669259 -173.149904 
L 70.525927 -173.538412 
L 70.385342 -173.92692 
L 70.249165 -174.315428 
L 70.118611 -174.703936 
L 69.994385 -175.092444 
L 69.876674 -175.480952 
L 69.765186 -175.86946 
L 69.659244 -176.257968 
L 69.557905 -176.646476 
L 69.460107 -177.034984 
L 69.364813 -177.423492 
L 69.27115 -177.812 
L 69.178516 -178.200508 
L 69.086667 -178.589016 
L 68.995772 -178.977524 
L 68.906438 -179.366032 
L 68.81972 -179.75454 
L 68.737119 -180.143048 
L 68.660574 -180.531556 
L 68.59245 -180.920064 
L 68.535528 -181.308572 
L 68.492987 -181.69708 
L 68.468356 -182.085588 
L 68.465455 -182.474096 
L 68.488279 -182.862604 
L 68.540853 -183.251112 
L 68.627029 -183.63962 
L 68.750253 -184.028128 
L 68.913308 -184.416636 
L 69.118055 -184.805144 
L 69.365196 -185.193652 
L 69.654095 -185.58216 
L 69.982659 -185.970668 
L 70.347326 -186.359176 
L 70.743138 -186.747684 
L 71.163918 -187.136192 
L 71.602539 -187.5247 
L 72.051248 -187.913208 
L 72.502044 -188.301716 
L 72.947054 -188.690224 
L 73.378902 -189.078732 
L 73.79102 -189.46724 
L 74.1779 -189.855748 
L 74.535262 -190.244256 
L 74.860135 -190.632764 
L 75.150855 -191.021272 
L 75.406984 -191.40978 
L 75.629175 -191.798288 
L 75.818988 -192.186796 
L 75.978686 -192.575304 
L 76.111024 -192.963812 
L 76.219046 -193.35232 
L 76.305904 -193.740828 
L 76.857733 -193.740828 
L 76.857733 -193.740828 
L 76.94459 -193.35232 
L 77.052612 -192.963812 
L 77.184951 -192.575304 
L 77.344649 -192.186796 
L 77.534461 -191.798288 
L 77.756652 -191.40978 
L 78.012781 -191.021272 
L 78.303501 -190.632764 
L 78.628375 -190.244256 
L 78.985737 -189.855748 
L 79.372617 -189.46724 
L 79.784734 -189.078732 
L 80.216582 -188.690224 
L 80.661593 -188.301716 
L 81.112388 -187.913208 
L 81.561098 -187.5247 
L 81.999718 -187.136192 
L 82.420499 -186.747684 
L 82.81631 -186.359176 
L 83.180977 -185.970668 
L 83.509542 -185.58216 
L 83.79844 -185.193652 
L 84.045582 -184.805144 
L 84.250328 -184.416636 
L 84.413383 -184.028128 
L 84.536607 -183.63962 
L 84.622783 -183.251112 
L 84.675357 -182.862604 
L 84.698182 -182.474096 
L 84.69528 -182.085588 
L 84.67065 -181.69708 
L 84.628108 -181.308572 
L 84.571187 -180.920064 
L 84.503062 -180.531556 
L 84.426517 -180.143048 
L 84.343916 -179.75454 
L 84.257199 -179.366032 
L 84.167865 -178.977524 
L 84.076969 -178.589016 
L 83.985121 -178.200508 
L 83.892486 -177.812 
L 83.798823 -177.423492 
L 83.70353 -177.034984 
L 83.605732 -176.646476 
L 83.504392 -176.257968 
L 83.39845 -175.86946 
L 83.286962 -175.480952 
L 83.169251 -175.092444 
L 83.045025 -174.703936 
L 82.914471 -174.315428 
L 82.778294 -173.92692 
L 82.637709 -173.538412 
L 82.494377 -173.149904 
L 82.350294 -172.761396 
L 82.207642 -172.372888 
L 82.068621 -171.98438 
L 81.935278 -171.595872 
L 81.809344 -171.207364 
L 81.692104 -170.818856 
L 81.584304 -170.430348 
L 81.486104 -170.04184 
L 81.397075 -169.653332 
L 81.316242 -169.264824 
L 81.242158 -168.876316 
L 81.173008 -168.487808 
L 81.106721 -168.0993 
L 81.041087 -167.710792 
L 80.973866 -167.322284 
L 80.902882 -166.933776 
L 80.826103 -166.545268 
L 80.741698 -166.15676 
L 80.648083 -165.768252 
L 80.543954 -165.379744 
L 80.428312 -164.991236 
L 80.300486 -164.602728 
L 80.160154 -164.21422 
L 80.007367 -163.825712 
L 79.842566 -163.437204 
L 79.666596 -163.048696 
L 79.480708 -162.660188 
L 79.286545 -162.27168 
L 79.086109 -161.883172 
L 78.881703 -161.494664 
L 78.675855 -161.106156 
L 78.471218 -160.717648 
L 78.270466 -160.32914 
L 78.076173 -159.940632 
L 77.890706 -159.552124 
L 77.716126 -159.163616 
L 77.554109 -158.775108 
L 77.405892 -158.3866 
L 77.272246 -157.998092 
L 77.153483 -157.609584 
L 77.049482 -157.221076 
L 76.959738 -156.832568 
L 76.883435 -156.44406 
L 76.819514 -156.055553 
L 76.766757 -155.667045 
L 76.723858 -155.278537 
z
" style="stroke: #2c2c2c; stroke-width: 1.5"/>
    </defs>
    <g clip-path="url(#pc44e5fa4e4)">
     <use xlink:href="#m9fa3808315" x="0" y="216" style="fill: #4a477c; stroke: #2c2c2c; stroke-width: 1.5"/>
    </g>
   </g>
   <g id="FillBetweenPolyCollection_3">
    <defs>
     <path id="me21060021b" d="M 97.060351 -144.22701 
L 96.685104 -144.22701 
L 96.616457 -144.716109 
L 96.528422 -145.205207 
L 96.417685 -145.694305 
L 96.281084 -146.183404 
L 96.115881 -146.672502 
L 95.920065 -147.161601 
L 95.692667 -147.650699 
L 95.434058 -148.139798 
L 95.146197 -148.628896 
L 94.832774 -149.117995 
L 94.499244 -149.607093 
L 94.1527 -150.096191 
L 93.801588 -150.58529 
L 93.455273 -151.074388 
L 93.123477 -151.563487 
L 92.815644 -152.052585 
L 92.540275 -152.541684 
L 92.304306 -153.030782 
L 92.112591 -153.519881 
L 91.967532 -154.008979 
L 91.868901 -154.498078 
L 91.813853 -154.987176 
L 91.797138 -155.476274 
L 91.811459 -155.965373 
L 91.847965 -156.454471 
L 91.896804 -156.94357 
L 91.947696 -157.432668 
L 91.990492 -157.921767 
L 92.015683 -158.410865 
L 92.014848 -158.899964 
L 91.981025 -159.389062 
L 91.909022 -159.878161 
L 91.795666 -160.367259 
L 91.639991 -160.856357 
L 91.443356 -161.345456 
L 91.209486 -161.834554 
L 90.944412 -162.323653 
L 90.656281 -162.812751 
L 90.355015 -163.30185 
L 90.051819 -163.790948 
L 89.758535 -164.280047 
L 89.486883 -164.769145 
L 89.247643 -165.258243 
L 89.049855 -165.747342 
L 88.900125 -166.23644 
L 88.802127 -166.725539 
L 88.756364 -167.214637 
L 88.760242 -167.703736 
L 88.808465 -168.192834 
L 88.8937 -168.681933 
L 89.007456 -169.171031 
L 89.141062 -169.66013 
L 89.286618 -170.149228 
L 89.437812 -170.638326 
L 89.590477 -171.127425 
L 89.742852 -171.616523 
L 89.895487 -172.105622 
L 90.050846 -172.59472 
L 90.212656 -173.083819 
L 90.385118 -173.572917 
L 90.572079 -174.062016 
L 90.776298 -174.551114 
L 90.998906 -175.040213 
L 91.239105 -175.529311 
L 91.494161 -176.018409 
L 91.759661 -176.507508 
L 92.029983 -176.996606 
L 92.298904 -177.485705 
L 92.560263 -177.974803 
L 92.808583 -178.463902 
L 93.039575 -178.953 
L 93.250487 -179.442099 
L 93.440262 -179.931197 
L 93.609513 -180.420295 
L 93.760329 -180.909394 
L 93.895968 -181.398492 
L 94.02047 -181.887591 
L 94.13823 -182.376689 
L 94.253597 -182.865788 
L 94.370503 -183.354886 
L 94.492172 -183.843985 
L 94.620904 -184.333083 
L 94.757956 -184.822182 
L 94.903513 -185.31128 
L 95.056742 -185.800378 
L 95.215931 -186.289477 
L 95.37867 -186.778575 
L 95.542093 -187.267674 
L 95.703124 -187.756772 
L 95.858721 -188.245871 
L 96.006105 -188.734969 
L 96.142931 -189.224068 
L 96.267423 -189.713166 
L 96.378431 -190.202265 
L 96.475442 -190.691363 
L 96.558535 -191.180461 
L 96.628296 -191.66956 
L 96.685706 -192.158658 
L 96.73202 -192.647757 
L 97.013434 -192.647757 
L 97.013434 -192.647757 
L 97.059749 -192.158658 
L 97.117159 -191.66956 
L 97.186919 -191.180461 
L 97.270013 -190.691363 
L 97.367024 -190.202265 
L 97.478031 -189.713166 
L 97.602523 -189.224068 
L 97.73935 -188.734969 
L 97.886733 -188.245871 
L 98.042331 -187.756772 
L 98.203361 -187.267674 
L 98.366785 -186.778575 
L 98.529524 -186.289477 
L 98.688712 -185.800378 
L 98.841942 -185.31128 
L 98.987499 -184.822182 
L 99.124551 -184.333083 
L 99.253283 -183.843985 
L 99.374952 -183.354886 
L 99.491858 -182.865788 
L 99.607225 -182.376689 
L 99.724985 -181.887591 
L 99.849486 -181.398492 
L 99.985126 -180.909394 
L 100.135942 -180.420295 
L 100.305192 -179.931197 
L 100.494968 -179.442099 
L 100.70588 -178.953 
L 100.936872 -178.463902 
L 101.185191 -177.974803 
L 101.446551 -177.485705 
L 101.715472 -176.996606 
L 101.985793 -176.507508 
L 102.251293 -176.018409 
L 102.50635 -175.529311 
L 102.746548 -175.040213 
L 102.969156 -174.551114 
L 103.173376 -174.062016 
L 103.360336 -173.572917 
L 103.532798 -173.083819 
L 103.694609 -172.59472 
L 103.849967 -172.105622 
L 104.002602 -171.616523 
L 104.154977 -171.127425 
L 104.307643 -170.638326 
L 104.458836 -170.149228 
L 104.604393 -169.66013 
L 104.737999 -169.171031 
L 104.851755 -168.681933 
L 104.93699 -168.192834 
L 104.985212 -167.703736 
L 104.989091 -167.214637 
L 104.943327 -166.725539 
L 104.845329 -166.23644 
L 104.6956 -165.747342 
L 104.497812 -165.258243 
L 104.258572 -164.769145 
L 103.98692 -164.280047 
L 103.693636 -163.790948 
L 103.39044 -163.30185 
L 103.089174 -162.812751 
L 102.801043 -162.323653 
L 102.535969 -161.834554 
L 102.302099 -161.345456 
L 102.105463 -160.856357 
L 101.949788 -160.367259 
L 101.836433 -159.878161 
L 101.76443 -159.389062 
L 101.730606 -158.899964 
L 101.729771 -158.410865 
L 101.754963 -157.921767 
L 101.797759 -157.432668 
L 101.84865 -156.94357 
L 101.897489 -156.454471 
L 101.933996 -155.965373 
L 101.948317 -155.476274 
L 101.931601 -154.987176 
L 101.876554 -154.498078 
L 101.777922 -154.008979 
L 101.632864 -153.519881 
L 101.441148 -153.030782 
L 101.205179 -152.541684 
L 100.92981 -152.052585 
L 100.621978 -151.563487 
L 100.290182 -151.074388 
L 99.943866 -150.58529 
L 99.592754 -150.096191 
L 99.24621 -149.607093 
L 98.912681 -149.117995 
L 98.599258 -148.628896 
L 98.311396 -148.139798 
L 98.052788 -147.650699 
L 97.82539 -147.161601 
L 97.629574 -146.672502 
L 97.464371 -146.183404 
L 97.32777 -145.694305 
L 97.217032 -145.205207 
L 97.128998 -144.716109 
L 97.060351 -144.22701 
z
" style="stroke: #2c2c2c; stroke-width: 1.5"/>
    </defs>
    <g clip-path="url(#pc44e5fa4e4)">
     <use xlink:href="#me21060021b" x="0" y="216" style="fill: #435a82; stroke: #2c2c2c; stroke-width: 1.5"/>
    </g>
   </g>
   <g id="FillBetweenPolyCollection_4">
    <defs>
     <path id="mde371f28b6" d="M 117.220078 -125.198307 
L 117.107195 -125.198307 
L 117.084005 -125.93778 
L 117.054061 -126.677254 
L 117.016538 -127.416727 
L 116.970916 -128.156201 
L 116.917124 -128.895674 
L 116.855647 -129.635148 
L 116.787591 -130.374621 
L 116.714685 -131.114095 
L 116.639192 -131.853568 
L 116.563753 -132.593042 
L 116.491165 -133.332515 
L 116.424115 -134.071988 
L 116.36492 -134.811462 
L 116.315287 -135.550935 
L 116.276145 -136.290409 
L 116.247543 -137.029882 
L 116.228643 -137.769356 
L 116.21779 -138.508829 
L 116.212639 -139.248303 
L 116.210333 -139.987776 
L 116.207696 -140.72725 
L 116.201433 -141.466723 
L 116.188329 -142.206197 
L 116.165426 -142.94567 
L 116.13018 -143.685144 
L 116.080591 -144.424617 
L 116.015293 -145.16409 
L 115.933596 -145.903564 
L 115.835457 -146.643037 
L 115.72139 -147.382511 
L 115.592312 -148.121984 
L 115.449341 -148.861458 
L 115.293582 -149.600931 
L 115.125948 -150.340405 
L 114.947039 -151.079878 
L 114.757135 -151.819352 
L 114.556281 -152.558825 
L 114.344473 -153.298299 
L 114.121878 -154.037772 
L 113.889048 -154.777245 
L 113.647051 -155.516719 
L 113.397476 -156.256192 
L 113.142293 -156.995666 
L 112.883596 -157.735139 
L 112.623286 -158.474613 
L 112.362793 -159.214086 
L 112.102916 -159.95356 
L 111.843863 -160.693033 
L 111.585487 -161.432507 
L 111.327693 -162.17198 
L 111.070893 -162.911454 
L 110.816395 -163.650927 
L 110.566593 -164.390401 
L 110.324902 -165.129874 
L 110.095429 -165.869347 
L 109.882467 -166.608821 
L 109.689939 -167.348294 
L 109.52094 -168.087768 
L 109.377461 -168.827241 
L 109.260369 -169.566715 
L 109.169587 -170.306188 
L 109.104422 -171.045662 
L 109.063932 -171.785135 
L 109.047273 -172.524609 
L 109.053972 -173.264082 
L 109.084143 -174.003556 
L 109.13864 -174.743029 
L 109.219172 -175.482503 
L 109.328348 -176.221976 
L 109.46961 -176.961449 
L 109.646987 -177.700923 
L 109.864644 -178.440396 
L 110.126218 -179.17987 
L 110.434037 -179.919343 
L 110.78833 -180.658817 
L 111.18661 -181.39829 
L 111.623365 -182.137764 
L 112.090173 -182.877237 
L 112.576235 -183.616711 
L 113.069278 -184.356184 
L 113.556658 -185.095658 
L 114.026503 -185.835131 
L 114.468697 -186.574604 
L 114.875568 -187.314078 
L 115.242213 -188.053551 
L 115.566458 -188.793025 
L 115.84851 -189.532498 
L 116.090419 -190.271972 
L 116.295464 -191.011445 
L 116.467568 -191.750919 
L 116.610818 -192.490392 
L 116.729139 -193.229866 
L 116.826098 -193.969339 
L 116.904846 -194.708813 
L 116.968125 -195.448286 
L 117.018326 -196.18776 
L 117.057553 -196.927233 
L 117.087674 -197.666706 
L 117.110353 -198.40618 
L 117.21692 -198.40618 
L 117.21692 -198.40618 
L 117.239599 -197.666706 
L 117.269719 -196.927233 
L 117.308946 -196.18776 
L 117.359147 -195.448286 
L 117.422426 -194.708813 
L 117.501174 -193.969339 
L 117.598134 -193.229866 
L 117.716454 -192.490392 
L 117.859705 -191.750919 
L 118.031808 -191.011445 
L 118.236853 -190.271972 
L 118.478763 -189.532498 
L 118.760815 -188.793025 
L 119.08506 -188.053551 
L 119.451705 -187.314078 
L 119.858576 -186.574604 
L 120.30077 -185.835131 
L 120.770615 -185.095658 
L 121.257995 -184.356184 
L 121.751037 -183.616711 
L 122.2371 -182.877237 
L 122.703908 -182.137764 
L 123.140663 -181.39829 
L 123.538942 -180.658817 
L 123.893236 -179.919343 
L 124.201055 -179.17987 
L 124.462629 -178.440396 
L 124.680285 -177.700923 
L 124.857663 -176.961449 
L 124.998925 -176.221976 
L 125.108101 -175.482503 
L 125.188633 -174.743029 
L 125.243129 -174.003556 
L 125.2733 -173.264082 
L 125.28 -172.524609 
L 125.263341 -171.785135 
L 125.222851 -171.045662 
L 125.157686 -170.306188 
L 125.066904 -169.566715 
L 124.949811 -168.827241 
L 124.806333 -168.087768 
L 124.637333 -167.348294 
L 124.444806 -166.608821 
L 124.231844 -165.869347 
L 124.00237 -165.129874 
L 123.76068 -164.390401 
L 123.510878 -163.650927 
L 123.256379 -162.911454 
L 122.99958 -162.17198 
L 122.741785 -161.432507 
L 122.48341 -160.693033 
L 122.224357 -159.95356 
L 121.96448 -159.214086 
L 121.703987 -158.474613 
L 121.443677 -157.735139 
L 121.184979 -156.995666 
L 120.929796 -156.256192 
L 120.680222 -155.516719 
L 120.438225 -154.777245 
L 120.205395 -154.037772 
L 119.9828 -153.298299 
L 119.770991 -152.558825 
L 119.570138 -151.819352 
L 119.380234 -151.079878 
L 119.201325 -150.340405 
L 119.03369 -149.600931 
L 118.877932 -148.861458 
L 118.73496 -148.121984 
L 118.605883 -147.382511 
L 118.491816 -146.643037 
L 118.393677 -145.903564 
L 118.31198 -145.16409 
L 118.246682 -144.424617 
L 118.197093 -143.685144 
L 118.161846 -142.94567 
L 118.138943 -142.206197 
L 118.12584 -141.466723 
L 118.119577 -140.72725 
L 118.116939 -139.987776 
L 118.114633 -139.248303 
L 118.109483 -138.508829 
L 118.09863 -137.769356 
L 118.07973 -137.029882 
L 118.051128 -136.290409 
L 118.011985 -135.550935 
L 117.962353 -134.811462 
L 117.903157 -134.071988 
L 117.836108 -133.332515 
L 117.763519 -132.593042 
L 117.688081 -131.853568 
L 117.612588 -131.114095 
L 117.539681 -130.374621 
L 117.471626 -129.635148 
L 117.410149 -128.895674 
L 117.356357 -128.156201 
L 117.310735 -127.416727 
L 117.273212 -126.677254 
L 117.243268 -125.93778 
L 117.220078 -125.198307 
z
" style="stroke: #2c2c2c; stroke-width: 1.5"/>
    </defs>
    <g clip-path="url(#pc44e5fa4e4)">
     <use xlink:href="#mde371f28b6" x="0" y="216" style="fill: #396b82; stroke: #2c2c2c; stroke-width: 1.5"/>
    </g>
   </g>
   <g id="FillBetweenPolyCollection_5">
    <defs>
     <path id="mcafad04f6c" d="M 137.558495 -126.603205 
L 137.350596 -126.603205 
L 137.315511 -127.34693 
L 137.2715 -128.090655 
L 137.217256 -128.83438 
L 137.151549 -129.578104 
L 137.073292 -130.321829 
L 136.981614 -131.065554 
L 136.875916 -131.809279 
L 136.755918 -132.553004 
L 136.621682 -133.296729 
L 136.473618 -134.040454 
L 136.312462 -134.784179 
L 136.139245 -135.527903 
L 135.955246 -136.271628 
L 135.76194 -137.015353 
L 135.560954 -137.759078 
L 135.354022 -138.502803 
L 135.142953 -139.246528 
L 134.929604 -139.990253 
L 134.715854 -140.733977 
L 134.503577 -141.477702 
L 134.294604 -142.221427 
L 134.090676 -142.965152 
L 133.893385 -143.708877 
L 133.704113 -144.452602 
L 133.523973 -145.196327 
L 133.353764 -145.940052 
L 133.193955 -146.683776 
L 133.044702 -147.427501 
L 132.905898 -148.171226 
L 132.77726 -148.914951 
L 132.658431 -149.658676 
L 132.549087 -150.402401 
L 132.449025 -151.146126 
L 132.358214 -151.889851 
L 132.276796 -152.633575 
L 132.205026 -153.3773 
L 132.143166 -154.121025 
L 132.091329 -154.86475 
L 132.049328 -155.608475 
L 132.016519 -156.3522 
L 131.991696 -157.095925 
L 131.973055 -157.839649 
L 131.95822 -158.583374 
L 131.944355 -159.327099 
L 131.928343 -160.070824 
L 131.907 -160.814549 
L 131.877316 -161.558274 
L 131.836677 -162.301999 
L 131.783055 -163.045724 
L 131.715143 -163.789448 
L 131.632427 -164.533173 
L 131.535196 -165.276898 
L 131.424487 -166.020623 
L 131.30199 -166.764348 
L 131.169906 -167.508073 
L 131.030787 -168.251798 
L 130.887351 -168.995523 
L 130.742299 -169.739247 
L 130.598134 -170.482972 
L 130.456999 -171.226697 
L 130.32056 -171.970422 
L 130.189939 -172.714147 
L 130.065733 -173.457872 
L 129.948118 -174.201597 
L 129.837055 -174.945321 
L 129.732575 -175.689046 
L 129.635126 -176.432771 
L 129.545935 -177.176496 
L 129.467327 -177.920221 
L 129.402942 -178.663946 
L 129.357803 -179.407671 
L 129.338182 -180.151396 
L 129.351266 -180.89512 
L 129.404629 -181.638845 
L 129.50555 -182.38257 
L 129.660272 -183.126295 
L 129.873266 -183.87002 
L 130.1466 -184.613745 
L 130.479512 -185.35747 
L 130.868212 -186.101195 
L 131.305984 -186.844919 
L 131.78354 -187.588644 
L 132.28962 -188.332369 
L 132.811742 -189.076094 
L 133.337043 -189.819819 
L 133.853097 -190.563544 
L 134.348656 -191.307269 
L 134.814231 -192.050993 
L 135.242475 -192.794718 
L 135.62837 -193.538443 
L 135.969213 -194.282168 
L 136.264427 -195.025893 
L 136.515264 -195.769618 
L 136.724415 -196.513343 
L 136.895601 -197.257068 
L 137.033172 -198.000792 
L 137.141746 -198.744517 
L 137.225916 -199.488242 
L 137.290017 -200.231967 
L 137.619074 -200.231967 
L 137.619074 -200.231967 
L 137.683175 -199.488242 
L 137.767345 -198.744517 
L 137.875919 -198.000792 
L 138.01349 -197.257068 
L 138.184676 -196.513343 
L 138.393827 -195.769618 
L 138.644663 -195.025893 
L 138.939878 -194.282168 
L 139.28072 -193.538443 
L 139.666616 -192.794718 
L 140.09486 -192.050993 
L 140.560435 -191.307269 
L 141.055994 -190.563544 
L 141.572048 -189.819819 
L 142.097349 -189.076094 
L 142.619471 -188.332369 
L 143.125551 -187.588644 
L 143.603107 -186.844919 
L 144.040879 -186.101195 
L 144.429579 -185.35747 
L 144.762491 -184.613745 
L 145.035825 -183.87002 
L 145.248819 -183.126295 
L 145.403541 -182.38257 
L 145.504462 -181.638845 
L 145.557824 -180.89512 
L 145.570909 -180.151396 
L 145.551288 -179.407671 
L 145.506149 -178.663946 
L 145.441764 -177.920221 
L 145.363156 -177.176496 
L 145.273965 -176.432771 
L 145.176516 -175.689046 
L 145.072036 -174.945321 
L 144.960973 -174.201597 
L 144.843358 -173.457872 
L 144.719152 -172.714147 
L 144.588531 -171.970422 
L 144.452092 -171.226697 
L 144.310957 -170.482972 
L 144.166792 -169.739247 
L 144.02174 -168.995523 
L 143.878304 -168.251798 
L 143.739184 -167.508073 
L 143.607101 -166.764348 
L 143.484604 -166.020623 
L 143.373895 -165.276898 
L 143.276664 -164.533173 
L 143.193948 -163.789448 
L 143.126036 -163.045724 
L 143.072414 -162.301999 
L 143.031775 -161.558274 
L 143.002091 -160.814549 
L 142.980748 -160.070824 
L 142.964736 -159.327099 
L 142.950871 -158.583374 
L 142.936035 -157.839649 
L 142.917395 -157.095925 
L 142.892572 -156.3522 
L 142.859763 -155.608475 
L 142.817761 -154.86475 
L 142.765925 -154.121025 
L 142.704065 -153.3773 
L 142.632295 -152.633575 
L 142.550877 -151.889851 
L 142.460066 -151.146126 
L 142.360004 -150.402401 
L 142.25066 -149.658676 
L 142.131831 -148.914951 
L 142.003193 -148.171226 
L 141.864389 -147.427501 
L 141.715136 -146.683776 
L 141.555327 -145.940052 
L 141.385118 -145.196327 
L 141.204978 -144.452602 
L 141.015706 -143.708877 
L 140.818415 -142.965152 
L 140.614487 -142.221427 
L 140.405514 -141.477702 
L 140.193237 -140.733977 
L 139.979487 -139.990253 
L 139.766137 -139.246528 
L 139.555069 -138.502803 
L 139.348137 -137.759078 
L 139.147151 -137.015353 
L 138.953845 -136.271628 
L 138.769846 -135.527903 
L 138.596629 -134.784179 
L 138.435473 -134.040454 
L 138.287409 -133.296729 
L 138.153173 -132.553004 
L 138.033175 -131.809279 
L 137.927477 -131.065554 
L 137.835799 -130.321829 
L 137.757542 -129.578104 
L 137.691835 -128.83438 
L 137.637591 -128.090655 
L 137.59358 -127.34693 
L 137.558495 -126.603205 
z
" style="stroke: #2c2c2c; stroke-width: 1.5"/>
    </defs>
    <g clip-path="url(#pc44e5fa4e4)">
     <use xlink:href="#mcafad04f6c" x="0" y="216" style="fill: #327a81; stroke: #2c2c2c; stroke-width: 1.5"/>
    </g>
   </g>
   <g id="FillBetweenPolyCollection_6">
    <defs>
     <path id="m7ed07c9b16" d="M 157.803017 -136.041411 
L 157.687893 -136.041411 
L 157.666065 -136.654615 
L 157.638436 -137.267819 
L 157.604404 -137.881024 
L 157.563606 -138.494228 
L 157.516008 -139.107433 
L 157.461948 -139.720637 
L 157.40215 -140.333842 
L 157.337676 -140.947046 
L 157.269817 -141.560251 
L 157.199928 -142.173455 
L 157.129229 -142.786659 
L 157.058588 -143.399864 
L 156.988326 -144.013068 
L 156.918085 -144.626273 
L 156.846778 -145.239477 
L 156.772647 -145.852682 
L 156.693426 -146.465886 
L 156.606598 -147.07909 
L 156.509685 -147.692295 
L 156.400536 -148.305499 
L 156.277551 -148.918704 
L 156.139782 -149.531908 
L 155.986895 -150.145113 
L 155.818995 -150.758317 
L 155.636365 -151.371522 
L 155.439171 -151.984726 
L 155.227236 -152.59793 
L 154.999933 -153.211135 
L 154.756266 -153.824339 
L 154.495118 -154.437544 
L 154.21563 -155.050748 
L 153.91763 -155.663953 
L 153.602004 -156.277157 
L 153.270935 -156.890362 
L 152.927949 -157.503566 
L 152.577764 -158.11677 
L 152.225982 -158.729975 
L 151.878691 -159.343179 
L 151.542057 -159.956384 
L 151.221961 -160.569588 
L 150.923721 -161.182793 
L 150.651892 -161.795997 
L 150.41013 -162.409202 
L 150.201078 -163.022406 
L 150.026261 -163.63561 
L 149.885995 -164.248815 
L 149.779326 -164.862019 
L 149.704045 -165.475224 
L 149.656811 -166.088428 
L 149.633404 -166.701633 
L 149.629091 -167.314837 
L 149.639091 -167.928042 
L 149.659053 -168.541246 
L 149.685493 -169.15445 
L 149.716129 -169.767655 
L 149.75005 -170.380859 
L 149.787707 -170.994064 
L 149.830724 -171.607268 
L 149.881554 -172.220473 
L 149.943026 -172.833677 
L 150.017847 -173.446882 
L 150.108131 -174.060086 
L 150.21501 -174.67329 
L 150.338398 -175.286495 
L 150.47694 -175.899699 
L 150.62817 -176.512904 
L 150.788853 -177.126108 
L 150.955478 -177.739313 
L 151.124824 -178.352517 
L 151.294509 -178.965722 
L 151.463444 -179.578926 
L 151.632097 -180.19213 
L 151.802536 -180.805335 
L 151.978207 -181.418539 
L 152.163513 -182.031744 
L 152.363209 -182.644948 
L 152.581735 -183.258153 
L 152.822568 -183.871357 
L 153.087684 -184.484562 
L 153.377198 -185.097766 
L 153.689231 -185.71097 
L 154.020002 -186.324175 
L 154.364118 -186.937379 
L 154.715026 -187.550584 
L 155.065542 -188.163788 
L 155.408418 -188.776993 
L 155.736858 -189.390197 
L 156.044957 -190.003402 
L 156.328019 -190.616606 
L 156.582742 -191.22981 
L 156.807272 -191.843015 
L 157.001142 -192.456219 
L 157.165108 -193.069424 
L 157.300931 -193.682628 
L 157.411113 -194.295833 
L 157.498628 -194.909037 
L 157.566677 -195.522242 
L 157.618461 -196.135446 
L 157.657021 -196.74865 
L 157.833888 -196.74865 
L 157.833888 -196.74865 
L 157.872448 -196.135446 
L 157.924232 -195.522242 
L 157.992281 -194.909037 
L 158.079796 -194.295833 
L 158.189978 -193.682628 
L 158.325801 -193.069424 
L 158.489767 -192.456219 
L 158.683637 -191.843015 
L 158.908167 -191.22981 
L 159.16289 -190.616606 
L 159.445952 -190.003402 
L 159.754051 -189.390197 
L 160.082491 -188.776993 
L 160.425367 -188.163788 
L 160.775883 -187.550584 
L 161.126791 -186.937379 
L 161.470907 -186.324175 
L 161.801678 -185.71097 
L 162.113711 -185.097766 
L 162.403225 -184.484562 
L 162.668341 -183.871357 
L 162.909174 -183.258153 
L 163.127701 -182.644948 
L 163.327396 -182.031744 
L 163.512702 -181.418539 
L 163.688374 -180.805335 
L 163.858812 -180.19213 
L 164.027466 -179.578926 
L 164.1964 -178.965722 
L 164.366085 -178.352517 
L 164.535431 -177.739313 
L 164.702056 -177.126108 
L 164.862739 -176.512904 
L 165.013969 -175.899699 
L 165.152511 -175.286495 
L 165.275899 -174.67329 
L 165.382778 -174.060086 
L 165.473062 -173.446882 
L 165.547883 -172.833677 
L 165.609355 -172.220473 
L 165.660185 -171.607268 
L 165.703202 -170.994064 
L 165.740859 -170.380859 
L 165.77478 -169.767655 
L 165.805416 -169.15445 
L 165.831856 -168.541246 
L 165.851818 -167.928042 
L 165.861818 -167.314837 
L 165.857506 -166.701633 
L 165.834098 -166.088428 
L 165.786864 -165.475224 
L 165.711583 -164.862019 
L 165.604914 -164.248815 
L 165.464648 -163.63561 
L 165.289831 -163.022406 
L 165.080779 -162.409202 
L 164.839017 -161.795997 
L 164.567188 -161.182793 
L 164.268948 -160.569588 
L 163.948852 -159.956384 
L 163.612218 -159.343179 
L 163.264927 -158.729975 
L 162.913145 -158.11677 
L 162.56296 -157.503566 
L 162.219974 -156.890362 
L 161.888905 -156.277157 
L 161.573279 -155.663953 
L 161.275279 -155.050748 
L 160.995791 -154.437544 
L 160.734643 -153.824339 
L 160.490976 -153.211135 
L 160.263673 -152.59793 
L 160.051738 -151.984726 
L 159.854545 -151.371522 
L 159.671914 -150.758317 
L 159.504014 -150.145113 
L 159.351127 -149.531908 
L 159.213358 -148.918704 
L 159.090373 -148.305499 
L 158.981224 -147.692295 
L 158.884311 -147.07909 
L 158.797483 -146.465886 
L 158.718263 -145.852682 
L 158.644131 -145.239477 
L 158.572824 -144.626273 
L 158.502583 -144.013068 
L 158.432321 -143.399864 
L 158.36168 -142.786659 
L 158.290981 -142.173455 
L 158.221092 -141.560251 
L 158.153233 -140.947046 
L 158.088759 -140.333842 
L 158.028961 -139.720637 
L 157.974901 -139.107433 
L 157.927303 -138.494228 
L 157.886506 -137.881024 
L 157.852473 -137.267819 
L 157.824844 -136.654615 
L 157.803017 -136.041411 
z
" style="stroke: #2c2c2c; stroke-width: 1.5"/>
    </defs>
    <g clip-path="url(#pc44e5fa4e4)">
     <use xlink:href="#m7ed07c9b16" x="0" y="216" style="fill: #2e8b7e; stroke: #2c2c2c; stroke-width: 1.5"/>
    </g>
   </g>
   <g id="FillBetweenPolyCollection_7">
    <defs>
     <path id="mfc51b0d976" d="M 178.239042 -145.250231 
L 177.833685 -145.250231 
L 177.78859 -145.741402 
L 177.736617 -146.232574 
L 177.677512 -146.723745 
L 177.611206 -147.214917 
L 177.537848 -147.706088 
L 177.45784 -148.19726 
L 177.371852 -148.688431 
L 177.280826 -149.179603 
L 177.185966 -149.670774 
L 177.088711 -150.161946 
L 176.990683 -150.653118 
L 176.893624 -151.144289 
L 176.799316 -151.635461 
L 176.709487 -152.126632 
L 176.625714 -152.617804 
L 176.549324 -153.108975 
L 176.481303 -153.600147 
L 176.422221 -154.091318 
L 176.372174 -154.58249 
L 176.330754 -155.073661 
L 176.297043 -155.564833 
L 176.269643 -156.056004 
L 176.246727 -156.547176 
L 176.226124 -157.038347 
L 176.205417 -157.529519 
L 176.182052 -158.02069 
L 176.153461 -158.511862 
L 176.117177 -159.003033 
L 176.070935 -159.494205 
L 176.012767 -159.985376 
L 175.941068 -160.476548 
L 175.854643 -160.967719 
L 175.752731 -161.458891 
L 175.635004 -161.950062 
L 175.501554 -162.441234 
L 175.352858 -162.932406 
L 175.189737 -163.423577 
L 175.013306 -163.914749 
L 174.824926 -164.40592 
L 174.62615 -164.897092 
L 174.418672 -165.388263 
L 174.204279 -165.879435 
L 173.984802 -166.370606 
L 173.762062 -166.861778 
L 173.537828 -167.352949 
L 173.313759 -167.844121 
L 173.091355 -168.335292 
L 172.871914 -168.826464 
L 172.656488 -169.317635 
L 172.445859 -169.808807 
L 172.240523 -170.299978 
L 172.040707 -170.79115 
L 171.846401 -171.282321 
L 171.657424 -171.773493 
L 171.473509 -172.264664 
L 171.294414 -172.755836 
L 171.120049 -173.247007 
L 170.9506 -173.738179 
L 170.786654 -174.22935 
L 170.629301 -174.720522 
L 170.480205 -175.211693 
L 170.341638 -175.702865 
L 170.216459 -176.194037 
L 170.108047 -176.685208 
L 170.020183 -177.17638 
L 169.956883 -177.667551 
L 169.922199 -178.158723 
L 169.92 -178.649894 
L 169.953738 -179.141066 
L 170.026233 -179.632237 
L 170.139478 -180.123409 
L 170.294482 -180.61458 
L 170.491171 -181.105752 
L 170.728338 -181.596923 
L 171.003655 -182.088095 
L 171.313748 -182.579266 
L 171.654318 -183.070438 
L 172.020307 -183.561609 
L 172.406098 -184.052781 
L 172.805729 -184.543952 
L 173.213116 -185.035124 
L 173.622268 -185.526295 
L 174.027478 -186.017467 
L 174.423499 -186.508638 
L 174.805673 -186.99981 
L 175.170033 -187.490981 
L 175.513363 -187.982153 
L 175.833225 -188.473324 
L 176.127946 -188.964496 
L 176.396585 -189.455668 
L 176.63887 -189.946839 
L 176.855123 -190.438011 
L 177.046166 -190.929182 
L 177.213232 -191.420354 
L 177.357864 -191.911525 
L 177.481828 -192.402697 
L 177.587023 -192.893868 
L 177.675408 -193.38504 
L 177.748936 -193.876211 
L 178.323791 -193.876211 
L 178.323791 -193.876211 
L 178.397319 -193.38504 
L 178.485704 -192.893868 
L 178.590899 -192.402697 
L 178.714863 -191.911525 
L 178.859495 -191.420354 
L 179.026561 -190.929182 
L 179.217604 -190.438011 
L 179.433857 -189.946839 
L 179.676142 -189.455668 
L 179.944782 -188.964496 
L 180.239503 -188.473324 
L 180.559364 -187.982153 
L 180.902695 -187.490981 
L 181.267054 -186.99981 
L 181.649228 -186.508638 
L 182.045249 -186.017467 
L 182.450459 -185.526295 
L 182.859611 -185.035124 
L 183.266998 -184.543952 
L 183.666629 -184.052781 
L 184.05242 -183.561609 
L 184.418409 -183.070438 
L 184.758979 -182.579266 
L 185.069072 -182.088095 
L 185.34439 -181.596923 
L 185.581556 -181.105752 
L 185.778246 -180.61458 
L 185.93325 -180.123409 
L 186.046494 -179.632237 
L 186.118989 -179.141066 
L 186.152727 -178.649894 
L 186.150528 -178.158723 
L 186.115845 -177.667551 
L 186.052544 -177.17638 
L 185.96468 -176.685208 
L 185.856268 -176.194037 
L 185.731089 -175.702865 
L 185.592522 -175.211693 
L 185.443427 -174.720522 
L 185.286073 -174.22935 
L 185.122127 -173.738179 
L 184.952678 -173.247007 
L 184.778313 -172.755836 
L 184.599219 -172.264664 
L 184.415303 -171.773493 
L 184.226326 -171.282321 
L 184.03202 -170.79115 
L 183.832205 -170.299978 
L 183.626869 -169.808807 
L 183.416239 -169.317635 
L 183.200814 -168.826464 
L 182.981373 -168.335292 
L 182.758969 -167.844121 
L 182.534899 -167.352949 
L 182.310665 -166.861778 
L 182.087926 -166.370606 
L 181.868448 -165.879435 
L 181.654055 -165.388263 
L 181.446577 -164.897092 
L 181.247801 -164.40592 
L 181.059421 -163.914749 
L 180.882991 -163.423577 
L 180.719869 -162.932406 
L 180.571173 -162.441234 
L 180.437723 -161.950062 
L 180.319997 -161.458891 
L 180.218084 -160.967719 
L 180.131659 -160.476548 
L 180.05996 -159.985376 
L 180.001792 -159.494205 
L 179.95555 -159.003033 
L 179.919266 -158.511862 
L 179.890675 -158.02069 
L 179.86731 -157.529519 
L 179.846603 -157.038347 
L 179.826 -156.547176 
L 179.803085 -156.056004 
L 179.775684 -155.564833 
L 179.741973 -155.073661 
L 179.700553 -154.58249 
L 179.650507 -154.091318 
L 179.591425 -153.600147 
L 179.523404 -153.108975 
L 179.447013 -152.617804 
L 179.36324 -152.126632 
L 179.273411 -151.635461 
L 179.179103 -151.144289 
L 179.082045 -150.653118 
L 178.984016 -150.161946 
L 178.886761 -149.670774 
L 178.791901 -149.179603 
L 178.700875 -148.688431 
L 178.614887 -148.19726 
L 178.534879 -147.706088 
L 178.461522 -147.214917 
L 178.395215 -146.723745 
L 178.33611 -146.232574 
L 178.284137 -145.741402 
L 178.239042 -145.250231 
z
" style="stroke: #2c2c2c; stroke-width: 1.5"/>
    </defs>
    <g clip-path="url(#pc44e5fa4e4)">
     <use xlink:href="#mfc51b0d976" x="0" y="216" style="fill: #3b9f7a; stroke: #2c2c2c; stroke-width: 1.5"/>
    </g>
   </g>
   <g id="FillBetweenPolyCollection_8">
    <defs>
     <path id="m24c5fc88ad" d="M 198.516301 -123.80578 
L 198.138244 -123.80578 
L 198.089267 -124.534212 
L 198.030776 -125.262643 
L 197.961794 -125.991074 
L 197.881453 -126.719505 
L 197.789051 -127.447936 
L 197.68411 -128.176368 
L 197.566423 -128.904799 
L 197.4361 -129.63323 
L 197.293596 -130.361661 
L 197.13973 -131.090092 
L 196.975677 -131.818524 
L 196.802939 -132.546955 
L 196.623302 -133.275386 
L 196.438762 -134.003817 
L 196.251437 -134.732248 
L 196.063469 -135.460679 
L 195.876913 -136.189111 
L 195.693627 -136.917542 
L 195.51517 -137.645973 
L 195.342712 -138.374404 
L 195.176969 -139.102835 
L 195.018158 -139.831267 
L 194.865995 -140.559698 
L 194.719711 -141.288129 
L 194.578118 -142.01656 
L 194.439695 -142.744991 
L 194.302712 -143.473423 
L 194.165366 -144.201854 
L 194.025941 -144.930285 
L 193.882963 -145.658716 
L 193.735356 -146.387147 
L 193.582571 -147.115579 
L 193.4247 -147.84401 
L 193.262533 -148.572441 
L 193.097589 -149.300872 
L 192.932074 -150.029303 
L 192.768806 -150.757735 
L 192.611072 -151.486166 
L 192.462445 -152.214597 
L 192.326568 -152.943028 
L 192.206912 -153.671459 
L 192.106524 -154.399891 
L 192.027793 -155.128322 
L 191.972231 -155.856753 
L 191.940313 -156.585184 
L 191.931361 -157.313615 
L 191.943503 -158.042047 
L 191.973701 -158.770478 
L 192.017855 -159.498909 
L 192.070978 -160.22734 
L 192.127428 -160.955771 
L 192.181192 -161.684203 
L 192.2262 -162.412634 
L 192.256652 -163.141065 
L 192.267343 -163.869496 
L 192.25396 -164.597927 
L 192.213341 -165.326359 
L 192.143677 -166.05479 
L 192.044652 -166.783221 
L 191.917499 -167.511652 
L 191.764992 -168.240083 
L 191.591354 -168.968515 
L 191.402104 -169.696946 
L 191.203835 -170.425377 
L 191.003956 -171.153808 
L 190.810389 -171.882239 
L 190.631254 -172.610671 
L 190.474552 -173.339102 
L 190.347854 -174.067533 
L 190.258012 -174.795964 
L 190.210909 -175.524395 
L 190.211249 -176.252827 
L 190.262393 -176.981258 
L 190.366251 -177.709689 
L 190.523229 -178.43812 
L 190.732229 -179.166551 
L 190.990708 -179.894983 
L 191.294786 -180.623414 
L 191.639398 -181.351845 
L 192.018494 -182.080276 
L 192.425265 -182.808707 
L 192.852395 -183.537139 
L 193.292322 -184.26557 
L 193.737506 -184.994001 
L 194.18068 -185.722432 
L 194.615079 -186.450863 
L 195.034633 -187.179295 
L 195.434129 -187.907726 
L 195.809315 -188.636157 
L 196.156957 -189.364588 
L 196.474855 -190.093019 
L 196.761801 -190.821451 
L 197.01751 -191.549882 
L 197.242507 -192.278313 
L 197.438008 -193.006744 
L 197.60577 -193.735175 
L 197.747953 -194.463607 
L 197.866977 -195.192038 
L 197.965396 -195.920469 
L 198.689149 -195.920469 
L 198.689149 -195.920469 
L 198.787568 -195.192038 
L 198.906593 -194.463607 
L 199.048776 -193.735175 
L 199.216538 -193.006744 
L 199.412038 -192.278313 
L 199.637036 -191.549882 
L 199.892744 -190.821451 
L 200.17969 -190.093019 
L 200.497588 -189.364588 
L 200.845231 -188.636157 
L 201.220416 -187.907726 
L 201.619913 -187.179295 
L 202.039467 -186.450863 
L 202.473865 -185.722432 
L 202.917039 -184.994001 
L 203.362224 -184.26557 
L 203.802151 -183.537139 
L 204.22928 -182.808707 
L 204.636051 -182.080276 
L 205.015148 -181.351845 
L 205.35976 -180.623414 
L 205.663838 -179.894983 
L 205.922317 -179.166551 
L 206.131317 -178.43812 
L 206.288294 -177.709689 
L 206.392152 -176.981258 
L 206.443296 -176.252827 
L 206.443636 -175.524395 
L 206.396534 -174.795964 
L 206.306692 -174.067533 
L 206.179993 -173.339102 
L 206.023292 -172.610671 
L 205.844157 -171.882239 
L 205.650589 -171.153808 
L 205.45071 -170.425377 
L 205.252442 -169.696946 
L 205.063191 -168.968515 
L 204.889554 -168.240083 
L 204.737047 -167.511652 
L 204.609893 -166.783221 
L 204.510868 -166.05479 
L 204.441205 -165.326359 
L 204.400586 -164.597927 
L 204.387202 -163.869496 
L 204.397893 -163.141065 
L 204.428345 -162.412634 
L 204.473353 -161.684203 
L 204.527117 -160.955771 
L 204.583567 -160.22734 
L 204.63669 -159.498909 
L 204.680844 -158.770478 
L 204.711042 -158.042047 
L 204.723184 -157.313615 
L 204.714232 -156.585184 
L 204.682315 -155.856753 
L 204.626753 -155.128322 
L 204.548021 -154.399891 
L 204.447634 -153.671459 
L 204.327977 -152.943028 
L 204.192101 -152.214597 
L 204.043474 -151.486166 
L 203.885739 -150.757735 
L 203.722471 -150.029303 
L 203.556957 -149.300872 
L 203.392012 -148.572441 
L 203.229846 -147.84401 
L 203.071974 -147.115579 
L 202.91919 -146.387147 
L 202.771582 -145.658716 
L 202.628604 -144.930285 
L 202.489179 -144.201854 
L 202.351834 -143.473423 
L 202.21485 -142.744991 
L 202.076428 -142.01656 
L 201.934835 -141.288129 
L 201.788551 -140.559698 
L 201.636387 -139.831267 
L 201.477577 -139.102835 
L 201.311833 -138.374404 
L 201.139375 -137.645973 
L 200.960918 -136.917542 
L 200.777632 -136.189111 
L 200.591076 -135.460679 
L 200.403109 -134.732248 
L 200.215784 -134.003817 
L 200.031243 -133.275386 
L 199.851606 -132.546955 
L 199.678868 -131.818524 
L 199.514815 -131.090092 
L 199.360949 -130.361661 
L 199.218446 -129.63323 
L 199.088122 -128.904799 
L 198.970435 -128.176368 
L 198.865494 -127.447936 
L 198.773093 -126.719505 
L 198.692752 -125.991074 
L 198.623769 -125.262643 
L 198.565279 -124.534212 
L 198.516301 -123.80578 
z
" style="stroke: #2c2c2c; stroke-width: 1.5"/>
    </defs>
    <g clip-path="url(#pc44e5fa4e4)">
     <use xlink:href="#m24c5fc88ad" x="0" y="216" style="fill: #60b671; stroke: #2c2c2c; stroke-width: 1.5"/>
    </g>
   </g>
   <g id="FillBetweenPolyCollection_9">
    <defs>
     <path id="m530fc9674e" d="M 218.676408 -140.022467 
L 218.559956 -140.022467 
L 218.538506 -140.573085 
L 218.511127 -141.123703 
L 218.476873 -141.674321 
L 218.434845 -142.224939 
L 218.384242 -142.775557 
L 218.324409 -143.326176 
L 218.254874 -143.876794 
L 218.175375 -144.427412 
L 218.085858 -144.97803 
L 217.986463 -145.528648 
L 217.877487 -146.079266 
L 217.759324 -146.629884 
L 217.632401 -147.180503 
L 217.497105 -147.731121 
L 217.35372 -148.281739 
L 217.202375 -148.832357 
L 217.04302 -149.382975 
L 216.875443 -149.933593 
L 216.699314 -150.484211 
L 216.514275 -151.034829 
L 216.320068 -151.585448 
L 216.116666 -152.136066 
L 215.90442 -152.686684 
L 215.684159 -153.237302 
L 215.457253 -153.78792 
L 215.225588 -154.338538 
L 214.991454 -154.889156 
L 214.757352 -155.439775 
L 214.525723 -155.990393 
L 214.298639 -156.541011 
L 214.077507 -157.091629 
L 213.862813 -157.642247 
L 213.653986 -158.192865 
L 213.449387 -158.743483 
L 213.246474 -159.294102 
L 213.042122 -159.84472 
L 212.833082 -160.395338 
L 212.616542 -160.945956 
L 212.390709 -161.496574 
L 212.155353 -162.047192 
L 211.912223 -162.59781 
L 211.665276 -163.148428 
L 211.420654 -163.699047 
L 211.186401 -164.249665 
L 210.971919 -164.800283 
L 210.787212 -165.350901 
L 210.641989 -165.901519 
L 210.544732 -166.452137 
L 210.501818 -167.002755 
L 210.516812 -167.553374 
L 210.589996 -168.103992 
L 210.718191 -168.65461 
L 210.894893 -169.205228 
L 211.110687 -169.755846 
L 211.353907 -170.306464 
L 211.61147 -170.857082 
L 211.869796 -171.407701 
L 212.115742 -171.958319 
L 212.337481 -172.508937 
L 212.525257 -173.059555 
L 212.671978 -173.610173 
L 212.773612 -174.160791 
L 212.829392 -174.711409 
L 212.841795 -175.262027 
L 212.816343 -175.812646 
L 212.76121 -176.363264 
L 212.686677 -176.913882 
L 212.60446 -177.4645 
L 212.526939 -178.015118 
L 212.466343 -178.565736 
L 212.433937 -179.116354 
L 212.439277 -179.666973 
L 212.489586 -180.217591 
L 212.589329 -180.768209 
L 212.740004 -181.318827 
L 212.940203 -181.869445 
L 213.185905 -182.420063 
L 213.470979 -182.970681 
L 213.787831 -183.5213 
L 214.128092 -184.071918 
L 214.483281 -184.622536 
L 214.845358 -185.173154 
L 215.207116 -185.723772 
L 215.562403 -186.27439 
L 215.906176 -186.825008 
L 216.234436 -187.375626 
L 216.544091 -187.926245 
L 216.832799 -188.476863 
L 217.098832 -189.027481 
L 217.340985 -189.578099 
L 217.558536 -190.128717 
L 217.751242 -190.679335 
L 217.919354 -191.229953 
L 218.063621 -191.780572 
L 218.185276 -192.33119 
L 218.285982 -192.881808 
L 218.36775 -193.432426 
L 218.432819 -193.983044 
L 218.483539 -194.533662 
L 218.752825 -194.533662 
L 218.752825 -194.533662 
L 218.803545 -193.983044 
L 218.868614 -193.432426 
L 218.950381 -192.881808 
L 219.051088 -192.33119 
L 219.172743 -191.780572 
L 219.31701 -191.229953 
L 219.485122 -190.679335 
L 219.677828 -190.128717 
L 219.895379 -189.578099 
L 220.137532 -189.027481 
L 220.403565 -188.476863 
L 220.692273 -187.926245 
L 221.001928 -187.375626 
L 221.330188 -186.825008 
L 221.67396 -186.27439 
L 222.029247 -185.723772 
L 222.391006 -185.173154 
L 222.753083 -184.622536 
L 223.108272 -184.071918 
L 223.448533 -183.5213 
L 223.765385 -182.970681 
L 224.050459 -182.420063 
L 224.29616 -181.869445 
L 224.496359 -181.318827 
L 224.647035 -180.768209 
L 224.746777 -180.217591 
L 224.797087 -179.666973 
L 224.802427 -179.116354 
L 224.770021 -178.565736 
L 224.709425 -178.015118 
L 224.631904 -177.4645 
L 224.549687 -176.913882 
L 224.475154 -176.363264 
L 224.42002 -175.812646 
L 224.394568 -175.262027 
L 224.406972 -174.711409 
L 224.462751 -174.160791 
L 224.564386 -173.610173 
L 224.711106 -173.059555 
L 224.898883 -172.508937 
L 225.120622 -171.958319 
L 225.366568 -171.407701 
L 225.624893 -170.857082 
L 225.882456 -170.306464 
L 226.125677 -169.755846 
L 226.34147 -169.205228 
L 226.518172 -168.65461 
L 226.646368 -168.103992 
L 226.719551 -167.553374 
L 226.734545 -167.002755 
L 226.691632 -166.452137 
L 226.594375 -165.901519 
L 226.449152 -165.350901 
L 226.264444 -164.800283 
L 226.049962 -164.249665 
L 225.815709 -163.699047 
L 225.571087 -163.148428 
L 225.32414 -162.59781 
L 225.081011 -162.047192 
L 224.845655 -161.496574 
L 224.619822 -160.945956 
L 224.403281 -160.395338 
L 224.194242 -159.84472 
L 223.989889 -159.294102 
L 223.786977 -158.743483 
L 223.582378 -158.192865 
L 223.37355 -157.642247 
L 223.158857 -157.091629 
L 222.937724 -156.541011 
L 222.710641 -155.990393 
L 222.479012 -155.439775 
L 222.24491 -154.889156 
L 222.010776 -154.338538 
L 221.77911 -153.78792 
L 221.552205 -153.237302 
L 221.331944 -152.686684 
L 221.119697 -152.136066 
L 220.916296 -151.585448 
L 220.722088 -151.034829 
L 220.53705 -150.484211 
L 220.36092 -149.933593 
L 220.193343 -149.382975 
L 220.033989 -148.832357 
L 219.882643 -148.281739 
L 219.739258 -147.731121 
L 219.603963 -147.180503 
L 219.47704 -146.629884 
L 219.358877 -146.079266 
L 219.249901 -145.528648 
L 219.150506 -144.97803 
L 219.060989 -144.427412 
L 218.981489 -143.876794 
L 218.911955 -143.326176 
L 218.852121 -142.775557 
L 218.801519 -142.224939 
L 218.759491 -141.674321 
L 218.725237 -141.123703 
L 218.697858 -140.573085 
L 218.676408 -140.022467 
z
" style="stroke: #2c2c2c; stroke-width: 1.5"/>
    </defs>
    <g clip-path="url(#pc44e5fa4e4)">
     <use xlink:href="#m530fc9674e" x="0" y="216" style="fill: #88c35b; stroke: #2c2c2c; stroke-width: 1.5"/>
    </g>
   </g>
   <g id="FillBetweenPolyCollection_10">
    <defs>
     <path id="m9d76cb4851" d="M 239.021207 -117.289958 
L 238.796975 -117.289958 
L 238.761431 -118.072617 
L 238.718518 -118.855276 
L 238.668058 -119.637935 
L 238.610325 -120.420593 
L 238.54613 -121.203252 
L 238.476867 -121.985911 
L 238.404495 -122.76857 
L 238.331445 -123.551228 
L 238.260459 -124.333887 
L 238.194347 -125.116546 
L 238.135704 -125.899205 
L 238.08659 -126.681863 
L 238.048237 -127.464522 
L 238.020788 -128.247181 
L 238.003137 -129.02984 
L 237.992868 -129.812498 
L 237.986325 -130.595157 
L 237.97881 -131.377816 
L 237.964882 -132.160475 
L 237.938749 -132.943133 
L 237.8947 -133.725792 
L 237.827547 -134.508451 
L 237.733044 -135.29111 
L 237.608233 -136.073769 
L 237.451711 -136.856427 
L 237.26379 -137.639086 
L 237.046547 -138.421745 
L 236.803762 -139.204404 
L 236.540757 -139.987062 
L 236.264139 -140.769721 
L 235.98147 -141.55238 
L 235.700885 -142.335039 
L 235.430672 -143.117697 
L 235.178832 -143.900356 
L 234.952654 -144.683015 
L 234.758313 -145.465674 
L 234.600506 -146.248332 
L 234.482158 -147.030991 
L 234.404188 -147.81365 
L 234.365361 -148.596309 
L 234.362233 -149.378967 
L 234.389187 -150.161626 
L 234.438581 -150.944285 
L 234.501009 -151.726944 
L 234.565686 -152.509602 
L 234.620957 -153.292261 
L 234.654927 -154.07492 
L 234.65619 -154.857579 
L 234.61463 -155.640237 
L 234.52223 -156.422896 
L 234.373823 -157.205555 
L 234.167713 -157.988214 
L 233.90608 -158.770873 
L 233.595099 -159.553531 
L 233.244746 -160.33619 
L 232.868262 -161.118849 
L 232.481322 -161.901508 
L 232.100971 -162.684166 
L 231.744422 -163.466825 
L 231.427849 -164.249484 
L 231.165273 -165.032143 
L 230.967669 -165.814801 
L 230.842357 -166.59746 
L 230.792727 -167.380119 
L 230.818313 -168.162778 
L 230.915158 -168.945436 
L 231.076436 -169.728095 
L 231.293234 -170.510754 
L 231.555411 -171.293413 
L 231.852442 -172.076071 
L 232.174187 -172.85873 
L 232.51151 -173.641389 
L 232.856719 -174.424048 
L 233.20381 -175.206706 
L 233.548518 -175.989365 
L 233.888196 -176.772024 
L 234.221554 -177.554683 
L 234.548306 -178.337342 
L 234.86877 -179.12 
L 235.183476 -179.902659 
L 235.492816 -180.685318 
L 235.796779 -181.467977 
L 236.094791 -182.250635 
L 236.385656 -183.033294 
L 236.667615 -183.815953 
L 236.938481 -184.598612 
L 237.195842 -185.38127 
L 237.437285 -186.163929 
L 237.660624 -186.946588 
L 237.864093 -187.729247 
L 238.046494 -188.511905 
L 238.207276 -189.294564 
L 238.346556 -190.077223 
L 238.465074 -190.859882 
L 238.564105 -191.64254 
L 238.645336 -192.425199 
L 238.710731 -193.207858 
L 238.76239 -193.990517 
L 238.802426 -194.773175 
L 239.015756 -194.773175 
L 239.015756 -194.773175 
L 239.055792 -193.990517 
L 239.107451 -193.207858 
L 239.172846 -192.425199 
L 239.254077 -191.64254 
L 239.353108 -190.859882 
L 239.471626 -190.077223 
L 239.610906 -189.294564 
L 239.771688 -188.511905 
L 239.954089 -187.729247 
L 240.157558 -186.946588 
L 240.380896 -186.163929 
L 240.622339 -185.38127 
L 240.8797 -184.598612 
L 241.150567 -183.815953 
L 241.432526 -183.033294 
L 241.723391 -182.250635 
L 242.021402 -181.467977 
L 242.325366 -180.685318 
L 242.634706 -179.902659 
L 242.949412 -179.12 
L 243.269876 -178.337342 
L 243.596628 -177.554683 
L 243.929986 -176.772024 
L 244.269664 -175.989365 
L 244.614372 -175.206706 
L 244.961463 -174.424048 
L 245.306672 -173.641389 
L 245.643995 -172.85873 
L 245.96574 -172.076071 
L 246.262771 -171.293413 
L 246.524947 -170.510754 
L 246.741746 -169.728095 
L 246.903024 -168.945436 
L 246.999869 -168.162778 
L 247.025455 -167.380119 
L 246.975825 -166.59746 
L 246.850512 -165.814801 
L 246.652909 -165.032143 
L 246.390333 -164.249484 
L 246.07376 -163.466825 
L 245.717211 -162.684166 
L 245.336859 -161.901508 
L 244.949919 -161.118849 
L 244.573436 -160.33619 
L 244.223083 -159.553531 
L 243.912102 -158.770873 
L 243.650469 -157.988214 
L 243.444359 -157.205555 
L 243.295952 -156.422896 
L 243.203552 -155.640237 
L 243.161992 -154.857579 
L 243.163255 -154.07492 
L 243.197225 -153.292261 
L 243.252496 -152.509602 
L 243.317173 -151.726944 
L 243.379601 -150.944285 
L 243.428995 -150.161626 
L 243.455949 -149.378967 
L 243.452821 -148.596309 
L 243.413994 -147.81365 
L 243.336024 -147.030991 
L 243.217676 -146.248332 
L 243.059869 -145.465674 
L 242.865528 -144.683015 
L 242.63935 -143.900356 
L 242.38751 -143.117697 
L 242.117297 -142.335039 
L 241.836712 -141.55238 
L 241.554043 -140.769721 
L 241.277424 -139.987062 
L 241.014419 -139.204404 
L 240.771635 -138.421745 
L 240.554392 -137.639086 
L 240.366471 -136.856427 
L 240.209949 -136.073769 
L 240.085138 -135.29111 
L 239.990635 -134.508451 
L 239.923482 -133.725792 
L 239.879432 -132.943133 
L 239.853299 -132.160475 
L 239.839372 -131.377816 
L 239.831857 -130.595157 
L 239.825314 -129.812498 
L 239.815045 -129.02984 
L 239.797393 -128.247181 
L 239.769945 -127.464522 
L 239.731591 -126.681863 
L 239.682478 -125.899205 
L 239.623835 -125.116546 
L 239.557723 -124.333887 
L 239.486737 -123.551228 
L 239.413687 -122.76857 
L 239.341315 -121.985911 
L 239.272052 -121.203252 
L 239.207857 -120.420593 
L 239.150124 -119.637935 
L 239.099664 -118.855276 
L 239.056751 -118.072617 
L 239.021207 -117.289958 
z
" style="stroke: #2c2c2c; stroke-width: 1.5"/>
    </defs>
    <g clip-path="url(#pc44e5fa4e4)">
     <use xlink:href="#m9d76cb4851" x="0" y="216" style="fill: #b2c83b; stroke: #2c2c2c; stroke-width: 1.5"/>
    </g>
   </g>
   <g id="line2d_7">
    <path d="M 51.19187 48.919551 
L 61.389948 48.919551 
" clip-path="url(#pc44e5fa4e4)" style="fill: none; stroke-dasharray: 1.875,1.125; stroke-dashoffset: 0; stroke: #2c2c2c; stroke-width: 1.5"/>
   </g>
   <g id="line2d_8">
    <path d="M 48.337821 43.144697 
L 64.243997 43.144697 
" clip-path="url(#pc44e5fa4e4)" style="fill: none; stroke-dasharray: 3.75,1.5; stroke-dashoffset: 0; stroke: #2c2c2c; stroke-width: 1.5"/>
   </g>
   <g id="line2d_9">
    <path d="M 49.088944 37.755753 
L 63.492874 37.755753 
" clip-path="url(#pc44e5fa4e4)" style="fill: none; stroke-dasharray: 1.875,1.125; stroke-dashoffset: 0; stroke: #2c2c2c; stroke-width: 1.5"/>
   </g>
   <g id="line2d_10">
    <path d="M 71.358496 44.806565 
L 81.80514 44.806565 
" clip-path="url(#pc44e5fa4e4)" style="fill: none; stroke-dasharray: 1.875,1.125; stroke-dashoffset: 0; stroke: #2c2c2c; stroke-width: 1.5"/>
   </g>
   <g id="line2d_11">
    <path d="M 69.26307 38.154111 
L 83.900567 38.154111 
" clip-path="url(#pc44e5fa4e4)" style="fill: none; stroke-dasharray: 3.75,1.5; stroke-dashoffset: 0; stroke: #2c2c2c; stroke-width: 1.5"/>
   </g>
   <g id="line2d_12">
    <path d="M 68.634829 32.335788 
L 84.528807 32.335788 
" clip-path="url(#pc44e5fa4e4)" style="fill: none; stroke-dasharray: 1.875,1.125; stroke-dashoffset: 0; stroke: #2c2c2c; stroke-width: 1.5"/>
   </g>
   <g id="line2d_13">
    <path d="M 91.934449 56.294562 
L 101.811005 56.294562 
" clip-path="url(#pc44e5fa4e4)" style="fill: none; stroke-dasharray: 1.875,1.125; stroke-dashoffset: 0; stroke: #2c2c2c; stroke-width: 1.5"/>
   </g>
   <g id="line2d_14">
    <path d="M 88.787747 49.120768 
L 104.957708 49.120768 
" clip-path="url(#pc44e5fa4e4)" style="fill: none; stroke-dasharray: 3.75,1.5; stroke-dashoffset: 0; stroke: #2c2c2c; stroke-width: 1.5"/>
   </g>
   <g id="line2d_15">
    <path d="M 90.542454 42.015484 
L 103.203001 42.015484 
" clip-path="url(#pc44e5fa4e4)" style="fill: none; stroke-dasharray: 1.875,1.125; stroke-dashoffset: 0; stroke: #2c2c2c; stroke-width: 1.5"/>
   </g>
   <g id="line2d_16">
    <path d="M 111.669655 54.808383 
L 122.657617 54.808383 
" clip-path="url(#pc44e5fa4e4)" style="fill: none; stroke-dasharray: 1.875,1.125; stroke-dashoffset: 0; stroke: #2c2c2c; stroke-width: 1.5"/>
   </g>
   <g id="line2d_17">
    <path d="M 109.294244 46.647215 
L 125.033029 46.647215 
" clip-path="url(#pc44e5fa4e4)" style="fill: none; stroke-dasharray: 3.75,1.5; stroke-dashoffset: 0; stroke: #2c2c2c; stroke-width: 1.5"/>
   </g>
   <g id="line2d_18">
    <path d="M 109.615831 38.428967 
L 124.711442 38.428967 
" clip-path="url(#pc44e5fa4e4)" style="fill: none; stroke-dasharray: 1.875,1.125; stroke-dashoffset: 0; stroke: #2c2c2c; stroke-width: 1.5"/>
   </g>
   <g id="line2d_19">
    <path d="M 132.023029 59.795375 
L 142.886062 59.795375 
" clip-path="url(#pc44e5fa4e4)" style="fill: none; stroke-dasharray: 1.875,1.125; stroke-dashoffset: 0; stroke: #2c2c2c; stroke-width: 1.5"/>
   </g>
   <g id="line2d_20">
    <path d="M 130.630957 45.686355 
L 144.278134 45.686355 
" clip-path="url(#pc44e5fa4e4)" style="fill: none; stroke-dasharray: 3.75,1.5; stroke-dashoffset: 0; stroke: #2c2c2c; stroke-width: 1.5"/>
   </g>
   <g id="line2d_21">
    <path d="M 129.366087 34.898323 
L 145.543004 34.898323 
" clip-path="url(#pc44e5fa4e4)" style="fill: none; stroke-dasharray: 1.875,1.125; stroke-dashoffset: 0; stroke: #2c2c2c; stroke-width: 1.5"/>
   </g>
   <g id="line2d_22">
    <path d="M 150.532631 53.901509 
L 164.958278 53.901509 
" clip-path="url(#pc44e5fa4e4)" style="fill: none; stroke-dasharray: 1.875,1.125; stroke-dashoffset: 0; stroke: #2c2c2c; stroke-width: 1.5"/>
   </g>
   <g id="line2d_23">
    <path d="M 149.712782 46.299337 
L 165.778127 46.299337 
" clip-path="url(#pc44e5fa4e4)" style="fill: none; stroke-dasharray: 3.75,1.5; stroke-dashoffset: 0; stroke: #2c2c2c; stroke-width: 1.5"/>
   </g>
   <g id="line2d_24">
    <path d="M 150.880392 38.537013 
L 164.610517 38.537013 
" clip-path="url(#pc44e5fa4e4)" style="fill: none; stroke-dasharray: 1.875,1.125; stroke-dashoffset: 0; stroke: #2c2c2c; stroke-width: 1.5"/>
   </g>
   <g id="line2d_25">
    <path d="M 172.264625 45.757676 
L 183.808102 45.757676 
" clip-path="url(#pc44e5fa4e4)" style="fill: none; stroke-dasharray: 1.875,1.125; stroke-dashoffset: 0; stroke: #2c2c2c; stroke-width: 1.5"/>
   </g>
   <g id="line2d_26">
    <path d="M 170.295163 40.114777 
L 185.777565 40.114777 
" clip-path="url(#pc44e5fa4e4)" style="fill: none; stroke-dasharray: 3.75,1.5; stroke-dashoffset: 0; stroke: #2c2c2c; stroke-width: 1.5"/>
   </g>
   <g id="line2d_27">
    <path d="M 170.228074 35.595849 
L 185.844653 35.595849 
" clip-path="url(#pc44e5fa4e4)" style="fill: none; stroke-dasharray: 1.875,1.125; stroke-dashoffset: 0; stroke: #2c2c2c; stroke-width: 1.5"/>
   </g>
   <g id="line2d_28">
    <path d="M 192.154356 61.947186 
L 204.500189 61.947186 
" clip-path="url(#pc44e5fa4e4)" style="fill: none; stroke-dasharray: 1.875,1.125; stroke-dashoffset: 0; stroke: #2c2c2c; stroke-width: 1.5"/>
   </g>
   <g id="line2d_29">
    <path d="M 192.259159 51.685041 
L 204.395387 51.685041 
" clip-path="url(#pc44e5fa4e4)" style="fill: none; stroke-dasharray: 3.75,1.5; stroke-dashoffset: 0; stroke: #2c2c2c; stroke-width: 1.5"/>
   </g>
   <g id="line2d_30">
    <path d="M 190.24709 41.035139 
L 206.407455 41.035139 
" clip-path="url(#pc44e5fa4e4)" style="fill: none; stroke-dasharray: 1.875,1.125; stroke-dashoffset: 0; stroke: #2c2c2c; stroke-width: 1.5"/>
   </g>
   <g id="line2d_31">
    <path d="M 212.053924 53.723101 
L 225.18244 53.723101 
" clip-path="url(#pc44e5fa4e4)" style="fill: none; stroke-dasharray: 1.875,1.125; stroke-dashoffset: 0; stroke: #2c2c2c; stroke-width: 1.5"/>
   </g>
   <g id="line2d_32">
    <path d="M 210.665278 47.572659 
L 226.571085 47.572659 
" clip-path="url(#pc44e5fa4e4)" style="fill: none; stroke-dasharray: 3.75,1.5; stroke-dashoffset: 0; stroke: #2c2c2c; stroke-width: 1.5"/>
   </g>
   <g id="line2d_33">
    <path d="M 212.517191 37.896303 
L 224.719173 37.896303 
" clip-path="url(#pc44e5fa4e4)" style="fill: none; stroke-dasharray: 1.875,1.125; stroke-dashoffset: 0; stroke: #2c2c2c; stroke-width: 1.5"/>
   </g>
   <g id="line2d_34">
    <path d="M 234.377543 66.176473 
L 243.440639 66.176473 
" clip-path="url(#pc44e5fa4e4)" style="fill: none; stroke-dasharray: 1.875,1.125; stroke-dashoffset: 0; stroke: #2c2c2c; stroke-width: 1.5"/>
   </g>
   <g id="line2d_35">
    <path d="M 231.261211 51.25382 
L 246.556971 51.25382 
" clip-path="url(#pc44e5fa4e4)" style="fill: none; stroke-dasharray: 3.75,1.5; stroke-dashoffset: 0; stroke: #2c2c2c; stroke-width: 1.5"/>
   </g>
   <g id="line2d_36">
    <path d="M 231.262185 45.601336 
L 246.555997 45.601336 
" clip-path="url(#pc44e5fa4e4)" style="fill: none; stroke-dasharray: 1.875,1.125; stroke-dashoffset: 0; stroke: #2c2c2c; stroke-width: 1.5"/>
   </g>
   <g id="LineCollection_1">
    <path d="M 46.145455 73.588532 
L 249.054545 73.588532 
" clip-path="url(#pc44e5fa4e4)" style="fill: none; stroke-dasharray: 5.55,2.4; stroke-dashoffset: 0; stroke: #ff0000; stroke-width: 1.5"/>
   </g>
   <g id="patch_3">
    <path d="M 36 192.24 
L 36 25.92 
" style="fill: none; stroke: #cccccc; stroke-width: 1.25; stroke-linejoin: miter; stroke-linecap: square"/>
   </g>
   <g id="patch_4">
    <path d="M 259.2 192.24 
L 259.2 25.92 
" style="fill: none; stroke: #cccccc; stroke-width: 1.25; stroke-linejoin: miter; stroke-linecap: square"/>
   </g>
   <g id="patch_5">
    <path d="M 36 192.24 
L 259.2 192.24 
" style="fill: none; stroke: #cccccc; stroke-width: 1.25; stroke-linejoin: miter; stroke-linecap: square"/>
   </g>
   <g id="patch_6">
    <path d="M 36 25.92 
L 259.2 25.92 
" style="fill: none; stroke: #cccccc; stroke-width: 1.25; stroke-linejoin: miter; stroke-linecap: square"/>
   </g>
   <g id="text_19">
    <!-- Pair-wise corr -->
    <g style="fill: #262626" transform="translate(100.890312 19.92) scale(0.14 -0.14)">
     <defs>
      <path id="DejaVuSans-50" d="M 1259 4147 
L 1259 2394 
L 2053 2394 
Q 2494 2394 2734 2622 
Q 2975 2850 2975 3272 
Q 2975 3691 2734 3919 
Q 2494 4147 2053 4147 
L 1259 4147 
z
M 628 4666 
L 2053 4666 
Q 2838 4666 3239 4311 
Q 3641 3956 3641 3272 
Q 3641 2581 3239 2228 
Q 2838 1875 2053 1875 
L 1259 1875 
L 1259 0 
L 628 0 
L 628 4666 
z
" transform="scale(0.015625)"/>
      <path id="DejaVuSans-69" d="M 603 3500 
L 1178 3500 
L 1178 0 
L 603 0 
L 603 3500 
z
M 603 4863 
L 1178 4863 
L 1178 4134 
L 603 4134 
L 603 4863 
z
" transform="scale(0.015625)"/>
      <path id="DejaVuSans-2d" d="M 313 2009 
L 1997 2009 
L 1997 1497 
L 313 1497 
L 313 2009 
z
" transform="scale(0.015625)"/>
      <path id="DejaVuSans-77" d="M 269 3500 
L 844 3500 
L 1563 769 
L 2278 3500 
L 2956 3500 
L 3675 769 
L 4391 3500 
L 4966 3500 
L 4050 0 
L 3372 0 
L 2619 2869 
L 1863 0 
L 1184 0 
L 269 3500 
z
" transform="scale(0.015625)"/>
      <path id="DejaVuSans-73" d="M 2834 3397 
L 2834 2853 
Q 2591 2978 2328 3040 
Q 2066 3103 1784 3103 
Q 1356 3103 1142 2972 
Q 928 2841 928 2578 
Q 928 2378 1081 2264 
Q 1234 2150 1697 2047 
L 1894 2003 
Q 2506 1872 2764 1633 
Q 3022 1394 3022 966 
Q 3022 478 2636 193 
Q 2250 -91 1575 -91 
Q 1294 -91 989 -36 
Q 684 19 347 128 
L 347 722 
Q 666 556 975 473 
Q 1284 391 1588 391 
Q 1994 391 2212 530 
Q 2431 669 2431 922 
Q 2431 1156 2273 1281 
Q 2116 1406 1581 1522 
L 1381 1569 
Q 847 1681 609 1914 
Q 372 2147 372 2553 
Q 372 3047 722 3315 
Q 1072 3584 1716 3584 
Q 2034 3584 2315 3537 
Q 2597 3491 2834 3397 
z
" transform="scale(0.015625)"/>
     </defs>
     <use xlink:href="#DejaVuSans-50"/>
     <use xlink:href="#DejaVuSans-61" transform="translate(55.802734 0)"/>
     <use xlink:href="#DejaVuSans-69" transform="translate(117.082031 0)"/>
     <use xlink:href="#DejaVuSans-72" transform="translate(144.865234 0)"/>
     <use xlink:href="#DejaVuSans-2d" transform="translate(179.603516 0)"/>
     <use xlink:href="#DejaVuSans-77" transform="translate(215.6875 0)"/>
     <use xlink:href="#DejaVuSans-69" transform="translate(297.474609 0)"/>
     <use xlink:href="#DejaVuSans-73" transform="translate(325.257812 0)"/>
     <use xlink:href="#DejaVuSans-65" transform="translate(377.357422 0)"/>
     <use xlink:href="#DejaVuSans-20" transform="translate(438.880859 0)"/>
     <use xlink:href="#DejaVuSans-63" transform="translate(470.667969 0)"/>
     <use xlink:href="#DejaVuSans-6f" transform="translate(525.648438 0)"/>
     <use xlink:href="#DejaVuSans-72" transform="translate(586.830078 0)"/>
     <use xlink:href="#DejaVuSans-72" transform="translate(626.193359 0)"/>
    </g>
   </g>
  </g>
 </g>
 <defs>
  <clipPath id="pc44e5fa4e4">
   <rect x="36" y="25.92" width="223.2" height="166.32"/>
  </clipPath>
 </defs>
</svg>
