<?xml version="1.0" encoding="utf-8" standalone="no"?>
<!DOCTYPE svg PUBLIC "-//W3C//DTD SVG 1.1//EN"
  "http://www.w3.org/Graphics/SVG/1.1/DTD/svg11.dtd">
<svg xmlns:xlink="http://www.w3.org/1999/xlink" width="504pt" height="288pt" viewBox="0 0 504 288" xmlns="http://www.w3.org/2000/svg" version="1.1">
 <metadata>
  <rdf:RDF xmlns:dc="http://purl.org/dc/elements/1.1/" xmlns:cc="http://creativecommons.org/ns#" xmlns:rdf="http://www.w3.org/1999/02/22-rdf-syntax-ns#">
   <cc:Work>
    <dc:type rdf:resource="http://purl.org/dc/dcmitype/StillImage"/>
    <dc:date>2025-11-25T17:18:46.061967</dc:date>
    <dc:format>image/svg+xml</dc:format>
    <dc:creator>
     <cc:Agent>
      <dc:title>Matplotlib v3.10.0, https://matplotlib.org/</dc:title>
     </cc:Agent>
    </dc:creator>
   </cc:Work>
  </rdf:RDF>
 </metadata>
 <defs>
  <style type="text/css">*{stroke-linejoin: round; stroke-linecap: butt}</style>
 </defs>
 <g id="figure_1">
  <g id="patch_1">
   <path d="M 0 288 
L 504 288 
L 504 0 
L 0 0 
z
" style="fill: #ffffff"/>
  </g>
  <g id="axes_1">
   <g id="patch_2">
    <path d="M 63 256.32 
L 453.6 256.32 
L 453.6 34.56 
L 63 34.56 
z
" style="fill: #ffffff"/>
   </g>
   <g id="patch_3">
    <path d="M 72.765 256.32 
L 92.295 256.32 
L 92.295 255.731684 
L 72.765 255.731684 
z
" clip-path="url(#pf141e64602)" style="fill: #1f77b4"/>
   </g>
   <g id="patch_4">
    <path d="M 111.825 256.32 
L 131.355 256.32 
L 131.355 256.32 
L 111.825 256.32 
z
" clip-path="url(#pf141e64602)" style="fill: #1f77b4"/>
   </g>
   <g id="patch_5">
    <path d="M 150.885 256.32 
L 170.415 256.32 
L 170.415 256.313164 
L 150.885 256.313164 
z
" clip-path="url(#pf141e64602)" style="fill: #1f77b4"/>
   </g>
   <g id="patch_6">
    <path d="M 189.945 256.32 
L 209.475 256.32 
L 209.475 255.995781 
L 189.945 255.995781 
z
" clip-path="url(#pf141e64602)" style="fill: #1f77b4"/>
   </g>
   <g id="patch_7">
    <path d="M 229.005 256.32 
L 248.535 256.32 
L 248.535 255.709836 
L 229.005 255.709836 
z
" clip-path="url(#pf141e64602)" style="fill: #1f77b4"/>
   </g>
   <g id="patch_8">
    <path d="M 268.065 256.32 
L 287.595 256.32 
L 287.595 255.856625 
L 268.065 255.856625 
z
" clip-path="url(#pf141e64602)" style="fill: #1f77b4"/>
   </g>
   <g id="patch_9">
    <path d="M 307.125 256.32 
L 326.655 256.32 
L 326.655 255.096087 
L 307.125 255.096087 
z
" clip-path="url(#pf141e64602)" style="fill: #1f77b4"/>
   </g>
   <g id="patch_10">
    <path d="M 346.185 256.32 
L 365.715 256.32 
L 365.715 254.648629 
L 346.185 254.648629 
z
" clip-path="url(#pf141e64602)" style="fill: #1f77b4"/>
   </g>
   <g id="patch_11">
    <path d="M 385.245 256.32 
L 404.775 256.32 
L 404.775 256.092632 
L 385.245 256.092632 
z
" clip-path="url(#pf141e64602)" style="fill: #1f77b4"/>
   </g>
   <g id="patch_12">
    <path d="M 424.305 256.32 
L 443.835 256.32 
L 443.835 256.17116 
L 424.305 256.17116 
z
" clip-path="url(#pf141e64602)" style="fill: #1f77b4"/>
   </g>
   <g id="patch_13">
    <path d="M 72.765 255.731684 
L 92.295 255.731684 
L 92.295 244.496898 
L 72.765 244.496898 
z
" clip-path="url(#pf141e64602)" style="fill: #ff7f0e"/>
   </g>
   <g id="patch_14">
    <path d="M 111.825 256.32 
L 131.355 256.32 
L 131.355 244.058624 
L 111.825 244.058624 
z
" clip-path="url(#pf141e64602)" style="fill: #ff7f0e"/>
   </g>
   <g id="patch_15">
    <path d="M 150.885 256.313164 
L 170.415 256.313164 
L 170.415 243.522201 
L 150.885 243.522201 
z
" clip-path="url(#pf141e64602)" style="fill: #ff7f0e"/>
   </g>
   <g id="patch_16">
    <path d="M 189.945 255.995781 
L 209.475 255.995781 
L 209.475 243.025745 
L 189.945 243.025745 
z
" clip-path="url(#pf141e64602)" style="fill: #ff7f0e"/>
   </g>
   <g id="patch_17">
    <path d="M 229.005 255.709836 
L 248.535 255.709836 
L 248.535 242.184755 
L 229.005 242.184755 
z
" clip-path="url(#pf141e64602)" style="fill: #ff7f0e"/>
   </g>
   <g id="patch_18">
    <path d="M 268.065 255.856625 
L 287.595 255.856625 
L 287.595 242.04123 
L 268.065 242.04123 
z
" clip-path="url(#pf141e64602)" style="fill: #ff7f0e"/>
   </g>
   <g id="patch_19">
    <path d="M 307.125 255.096087 
L 326.655 255.096087 
L 326.655 241.237887 
L 307.125 241.237887 
z
" clip-path="url(#pf141e64602)" style="fill: #ff7f0e"/>
   </g>
   <g id="patch_20">
    <path d="M 346.185 254.648629 
L 365.715 254.648629 
L 365.715 239.85332 
L 346.185 239.85332 
z
" clip-path="url(#pf141e64602)" style="fill: #ff7f0e"/>
   </g>
   <g id="patch_21">
    <path d="M 385.245 256.092632 
L 404.775 256.092632 
L 404.775 241.395772 
L 385.245 241.395772 
z
" clip-path="url(#pf141e64602)" style="fill: #ff7f0e"/>
   </g>
   <g id="patch_22">
    <path d="M 424.305 256.17116 
L 443.835 256.17116 
L 443.835 242.527044 
L 424.305 242.527044 
z
" clip-path="url(#pf141e64602)" style="fill: #ff7f0e"/>
   </g>
   <g id="patch_23">
    <path d="M 72.765 244.496898 
L 92.295 244.496898 
L 92.295 244.437241 
L 72.765 244.437241 
z
" clip-path="url(#pf141e64602)" style="fill: #2ca02c"/>
   </g>
   <g id="patch_24">
    <path d="M 111.825 256.32 
L 131.355 256.32 
L 131.355 256.32 
L 111.825 256.32 
z
" clip-path="url(#pf141e64602)" style="fill: #2ca02c"/>
   </g>
   <g id="patch_25">
    <path d="M 150.885 243.522201 
L 170.415 243.522201 
L 170.415 243.303978 
L 150.885 243.303978 
z
" clip-path="url(#pf141e64602)" style="fill: #2ca02c"/>
   </g>
   <g id="patch_26">
    <path d="M 189.945 243.025745 
L 209.475 243.025745 
L 209.475 242.575066 
L 189.945 242.575066 
z
" clip-path="url(#pf141e64602)" style="fill: #2ca02c"/>
   </g>
   <g id="patch_27">
    <path d="M 229.005 242.184755 
L 248.535 242.184755 
L 248.535 241.379569 
L 229.005 241.379569 
z
" clip-path="url(#pf141e64602)" style="fill: #2ca02c"/>
   </g>
   <g id="patch_28">
    <path d="M 268.065 242.04123 
L 287.595 242.04123 
L 287.595 240.296306 
L 268.065 240.296306 
z
" clip-path="url(#pf141e64602)" style="fill: #2ca02c"/>
   </g>
   <g id="patch_29">
    <path d="M 307.125 241.237887 
L 326.655 241.237887 
L 326.655 239.644774 
L 307.125 239.644774 
z
" clip-path="url(#pf141e64602)" style="fill: #2ca02c"/>
   </g>
   <g id="patch_30">
    <path d="M 346.185 239.85332 
L 365.715 239.85332 
L 365.715 237.688516 
L 346.185 237.688516 
z
" clip-path="url(#pf141e64602)" style="fill: #2ca02c"/>
   </g>
   <g id="patch_31">
    <path d="M 385.245 241.395772 
L 404.775 241.395772 
L 404.775 238.96683 
L 385.245 238.96683 
z
" clip-path="url(#pf141e64602)" style="fill: #2ca02c"/>
   </g>
   <g id="patch_32">
    <path d="M 424.305 242.527044 
L 443.835 242.527044 
L 443.835 241.158459 
L 424.305 241.158459 
z
" clip-path="url(#pf141e64602)" style="fill: #2ca02c"/>
   </g>
   <g id="patch_33">
    <path d="M 72.765 244.437241 
L 92.295 244.437241 
L 92.295 237.710816 
L 72.765 237.710816 
z
" clip-path="url(#pf141e64602)" style="fill: #d62728"/>
   </g>
   <g id="patch_34">
    <path d="M 111.825 244.058624 
L 131.355 244.058624 
L 131.355 238.29868 
L 111.825 238.29868 
z
" clip-path="url(#pf141e64602)" style="fill: #d62728"/>
   </g>
   <g id="patch_35">
    <path d="M 150.885 243.303978 
L 170.415 243.303978 
L 170.415 237.83292 
L 150.885 237.83292 
z
" clip-path="url(#pf141e64602)" style="fill: #d62728"/>
   </g>
   <g id="patch_36">
    <path d="M 189.945 242.575066 
L 209.475 242.575066 
L 209.475 238.062075 
L 189.945 238.062075 
z
" clip-path="url(#pf141e64602)" style="fill: #d62728"/>
   </g>
   <g id="patch_37">
    <path d="M 229.005 241.379569 
L 248.535 241.379569 
L 248.535 236.858614 
L 229.005 236.858614 
z
" clip-path="url(#pf141e64602)" style="fill: #d62728"/>
   </g>
   <g id="patch_38">
    <path d="M 268.065 240.296306 
L 287.595 240.296306 
L 287.595 236.45767 
L 268.065 236.45767 
z
" clip-path="url(#pf141e64602)" style="fill: #d62728"/>
   </g>
   <g id="patch_39">
    <path d="M 307.125 239.644774 
L 326.655 239.644774 
L 326.655 235.475935 
L 307.125 235.475935 
z
" clip-path="url(#pf141e64602)" style="fill: #d62728"/>
   </g>
   <g id="patch_40">
    <path d="M 346.185 237.688516 
L 365.715 237.688516 
L 365.715 233.323653 
L 346.185 233.323653 
z
" clip-path="url(#pf141e64602)" style="fill: #d62728"/>
   </g>
   <g id="patch_41">
    <path d="M 385.245 238.96683 
L 404.775 238.96683 
L 404.775 235.294879 
L 385.245 235.294879 
z
" clip-path="url(#pf141e64602)" style="fill: #d62728"/>
   </g>
   <g id="patch_42">
    <path d="M 424.305 241.158459 
L 443.835 241.158459 
L 443.835 237.045885 
L 424.305 237.045885 
z
" clip-path="url(#pf141e64602)" style="fill: #d62728"/>
   </g>
   <g id="patch_43">
    <path d="M 72.765 256.32 
L 92.295 256.32 
L 92.295 256.32 
L 72.765 256.32 
z
" clip-path="url(#pf141e64602)" style="fill: #9467bd"/>
   </g>
   <g id="patch_44">
    <path d="M 111.825 238.29868 
L 131.355 238.29868 
L 131.355 237.615965 
L 111.825 237.615965 
z
" clip-path="url(#pf141e64602)" style="fill: #9467bd"/>
   </g>
   <g id="patch_45">
    <path d="M 150.885 237.83292 
L 170.415 237.83292 
L 170.415 236.843666 
L 150.885 236.843666 
z
" clip-path="url(#pf141e64602)" style="fill: #9467bd"/>
   </g>
   <g id="patch_46">
    <path d="M 189.945 238.062075 
L 209.475 238.062075 
L 209.475 237.963708 
L 189.945 237.963708 
z
" clip-path="url(#pf141e64602)" style="fill: #9467bd"/>
   </g>
   <g id="patch_47">
    <path d="M 229.005 236.858614 
L 248.535 236.858614 
L 248.535 236.528566 
L 229.005 236.528566 
z
" clip-path="url(#pf141e64602)" style="fill: #9467bd"/>
   </g>
   <g id="patch_48">
    <path d="M 268.065 236.45767 
L 287.595 236.45767 
L 287.595 236.400933 
L 268.065 236.400933 
z
" clip-path="url(#pf141e64602)" style="fill: #9467bd"/>
   </g>
   <g id="patch_49">
    <path d="M 307.125 256.32 
L 326.655 256.32 
L 326.655 256.32 
L 307.125 256.32 
z
" clip-path="url(#pf141e64602)" style="fill: #9467bd"/>
   </g>
   <g id="patch_50">
    <path d="M 346.185 256.32 
L 365.715 256.32 
L 365.715 256.32 
L 346.185 256.32 
z
" clip-path="url(#pf141e64602)" style="fill: #9467bd"/>
   </g>
   <g id="patch_51">
    <path d="M 385.245 256.32 
L 404.775 256.32 
L 404.775 256.32 
L 385.245 256.32 
z
" clip-path="url(#pf141e64602)" style="fill: #9467bd"/>
   </g>
   <g id="patch_52">
    <path d="M 424.305 256.32 
L 443.835 256.32 
L 443.835 256.32 
L 424.305 256.32 
z
" clip-path="url(#pf141e64602)" style="fill: #9467bd"/>
   </g>
   <g id="patch_53">
    <path d="M 72.765 237.710816 
L 92.295 237.710816 
L 92.295 228.625798 
L 72.765 228.625798 
z
" clip-path="url(#pf141e64602)" style="fill: #8c564b"/>
   </g>
   <g id="patch_54">
    <path d="M 111.825 237.615965 
L 131.355 237.615965 
L 131.355 225.617538 
L 111.825 225.617538 
z
" clip-path="url(#pf141e64602)" style="fill: #8c564b"/>
   </g>
   <g id="patch_55">
    <path d="M 150.885 236.843666 
L 170.415 236.843666 
L 170.415 218.810579 
L 150.885 218.810579 
z
" clip-path="url(#pf141e64602)" style="fill: #8c564b"/>
   </g>
   <g id="patch_56">
    <path d="M 189.945 237.963708 
L 209.475 237.963708 
L 209.475 218.48761 
L 189.945 218.48761 
z
" clip-path="url(#pf141e64602)" style="fill: #8c564b"/>
   </g>
   <g id="patch_57">
    <path d="M 229.005 236.528566 
L 248.535 236.528566 
L 248.535 215.667713 
L 229.005 215.667713 
z
" clip-path="url(#pf141e64602)" style="fill: #8c564b"/>
   </g>
   <g id="patch_58">
    <path d="M 268.065 236.400933 
L 287.595 236.400933 
L 287.595 214.98951 
L 268.065 214.98951 
z
" clip-path="url(#pf141e64602)" style="fill: #8c564b"/>
   </g>
   <g id="patch_59">
    <path d="M 307.125 235.475935 
L 326.655 235.475935 
L 326.655 215.927984 
L 307.125 215.927984 
z
" clip-path="url(#pf141e64602)" style="fill: #8c564b"/>
   </g>
   <g id="patch_60">
    <path d="M 346.185 233.323653 
L 365.715 233.323653 
L 365.715 214.747188 
L 346.185 214.747188 
z
" clip-path="url(#pf141e64602)" style="fill: #8c564b"/>
   </g>
   <g id="patch_61">
    <path d="M 385.245 235.294879 
L 404.775 235.294879 
L 404.775 217.760578 
L 385.245 217.760578 
z
" clip-path="url(#pf141e64602)" style="fill: #8c564b"/>
   </g>
   <g id="patch_62">
    <path d="M 424.305 237.045885 
L 443.835 237.045885 
L 443.835 220.785972 
L 424.305 220.785972 
z
" clip-path="url(#pf141e64602)" style="fill: #8c564b"/>
   </g>
   <g id="patch_63">
    <path d="M 72.765 228.625798 
L 92.295 228.625798 
L 92.295 221.48586 
L 72.765 221.48586 
z
" clip-path="url(#pf141e64602)" style="fill: #e377c2"/>
   </g>
   <g id="patch_64">
    <path d="M 111.825 225.617538 
L 131.355 225.617538 
L 131.355 211.25805 
L 111.825 211.25805 
z
" clip-path="url(#pf141e64602)" style="fill: #e377c2"/>
   </g>
   <g id="patch_65">
    <path d="M 150.885 218.810579 
L 170.415 218.810579 
L 170.415 200.695437 
L 150.885 200.695437 
z
" clip-path="url(#pf141e64602)" style="fill: #e377c2"/>
   </g>
   <g id="patch_66">
    <path d="M 189.945 218.48761 
L 209.475 218.48761 
L 209.475 199.274034 
L 189.945 199.274034 
z
" clip-path="url(#pf141e64602)" style="fill: #e377c2"/>
   </g>
   <g id="patch_67">
    <path d="M 229.005 215.667713 
L 248.535 215.667713 
L 248.535 196.118251 
L 229.005 196.118251 
z
" clip-path="url(#pf141e64602)" style="fill: #e377c2"/>
   </g>
   <g id="patch_68">
    <path d="M 268.065 214.98951 
L 287.595 214.98951 
L 287.595 194.852606 
L 268.065 194.852606 
z
" clip-path="url(#pf141e64602)" style="fill: #e377c2"/>
   </g>
   <g id="patch_69">
    <path d="M 307.125 215.927984 
L 326.655 215.927984 
L 326.655 195.436735 
L 307.125 195.436735 
z
" clip-path="url(#pf141e64602)" style="fill: #e377c2"/>
   </g>
   <g id="patch_70">
    <path d="M 346.185 214.747188 
L 365.715 214.747188 
L 365.715 196.321866 
L 346.185 196.321866 
z
" clip-path="url(#pf141e64602)" style="fill: #e377c2"/>
   </g>
   <g id="patch_71">
    <path d="M 385.245 217.760578 
L 404.775 217.760578 
L 404.775 199.327008 
L 385.245 199.327008 
z
" clip-path="url(#pf141e64602)" style="fill: #e377c2"/>
   </g>
   <g id="patch_72">
    <path d="M 424.305 220.785972 
L 443.835 220.785972 
L 443.835 202.968318 
L 424.305 202.968318 
z
" clip-path="url(#pf141e64602)" style="fill: #e377c2"/>
   </g>
   <g id="patch_73">
    <path d="M 72.765 221.48586 
L 92.295 221.48586 
L 92.295 212.82999 
L 72.765 212.82999 
z
" clip-path="url(#pf141e64602)" style="fill: #7f7f7f"/>
   </g>
   <g id="patch_74">
    <path d="M 111.825 211.25805 
L 131.355 211.25805 
L 131.355 201.748091 
L 111.825 201.748091 
z
" clip-path="url(#pf141e64602)" style="fill: #7f7f7f"/>
   </g>
   <g id="patch_75">
    <path d="M 150.885 200.695437 
L 170.415 200.695437 
L 170.415 197.669338 
L 150.885 197.669338 
z
" clip-path="url(#pf141e64602)" style="fill: #7f7f7f"/>
   </g>
   <g id="patch_76">
    <path d="M 189.945 199.274034 
L 209.475 199.274034 
L 209.475 198.740432 
L 189.945 198.740432 
z
" clip-path="url(#pf141e64602)" style="fill: #7f7f7f"/>
   </g>
   <g id="patch_77">
    <path d="M 229.005 196.118251 
L 248.535 196.118251 
L 248.535 196.051926 
L 229.005 196.051926 
z
" clip-path="url(#pf141e64602)" style="fill: #7f7f7f"/>
   </g>
   <g id="patch_78">
    <path d="M 268.065 194.852606 
L 287.595 194.852606 
L 287.595 194.600803 
L 268.065 194.600803 
z
" clip-path="url(#pf141e64602)" style="fill: #7f7f7f"/>
   </g>
   <g id="patch_79">
    <path d="M 307.125 256.32 
L 326.655 256.32 
L 326.655 256.32 
L 307.125 256.32 
z
" clip-path="url(#pf141e64602)" style="fill: #7f7f7f"/>
   </g>
   <g id="patch_80">
    <path d="M 346.185 256.32 
L 365.715 256.32 
L 365.715 256.32 
L 346.185 256.32 
z
" clip-path="url(#pf141e64602)" style="fill: #7f7f7f"/>
   </g>
   <g id="patch_81">
    <path d="M 385.245 256.32 
L 404.775 256.32 
L 404.775 256.32 
L 385.245 256.32 
z
" clip-path="url(#pf141e64602)" style="fill: #7f7f7f"/>
   </g>
   <g id="patch_82">
    <path d="M 424.305 202.968318 
L 443.835 202.968318 
L 443.835 202.903451 
L 424.305 202.903451 
z
" clip-path="url(#pf141e64602)" style="fill: #7f7f7f"/>
   </g>
   <g id="patch_83">
    <path d="M 72.765 212.82999 
L 92.295 212.82999 
L 92.295 202.792205 
L 72.765 202.792205 
z
" clip-path="url(#pf141e64602)" style="fill: #bcbd22"/>
   </g>
   <g id="patch_84">
    <path d="M 111.825 201.748091 
L 131.355 201.748091 
L 131.355 193.44068 
L 111.825 193.44068 
z
" clip-path="url(#pf141e64602)" style="fill: #bcbd22"/>
   </g>
   <g id="patch_85">
    <path d="M 150.885 197.669338 
L 170.415 197.669338 
L 170.415 191.686502 
L 150.885 191.686502 
z
" clip-path="url(#pf141e64602)" style="fill: #bcbd22"/>
   </g>
   <g id="patch_86">
    <path d="M 189.945 198.740432 
L 209.475 198.740432 
L 209.475 193.929405 
L 189.945 193.929405 
z
" clip-path="url(#pf141e64602)" style="fill: #bcbd22"/>
   </g>
   <g id="patch_87">
    <path d="M 229.005 196.051926 
L 248.535 196.051926 
L 248.535 193.631378 
L 229.005 193.631378 
z
" clip-path="url(#pf141e64602)" style="fill: #bcbd22"/>
   </g>
   <g id="patch_88">
    <path d="M 268.065 194.600803 
L 287.595 194.600803 
L 287.595 192.215814 
L 268.065 192.215814 
z
" clip-path="url(#pf141e64602)" style="fill: #bcbd22"/>
   </g>
   <g id="patch_89">
    <path d="M 307.125 195.436735 
L 326.655 195.436735 
L 326.655 193.087707 
L 307.125 193.087707 
z
" clip-path="url(#pf141e64602)" style="fill: #bcbd22"/>
   </g>
   <g id="patch_90">
    <path d="M 346.185 196.321866 
L 365.715 196.321866 
L 365.715 194.64176 
L 346.185 194.64176 
z
" clip-path="url(#pf141e64602)" style="fill: #bcbd22"/>
   </g>
   <g id="patch_91">
    <path d="M 385.245 199.327008 
L 404.775 199.327008 
L 404.775 198.220071 
L 385.245 198.220071 
z
" clip-path="url(#pf141e64602)" style="fill: #bcbd22"/>
   </g>
   <g id="patch_92">
    <path d="M 424.305 202.903451 
L 443.835 202.903451 
L 443.835 201.561467 
L 424.305 201.561467 
z
" clip-path="url(#pf141e64602)" style="fill: #bcbd22"/>
   </g>
   <g id="patch_93">
    <path d="M 72.765 202.792205 
L 92.295 202.792205 
L 92.295 174.980856 
L 72.765 174.980856 
z
" clip-path="url(#pf141e64602)" style="fill: #17becf"/>
   </g>
   <g id="patch_94">
    <path d="M 111.825 193.44068 
L 131.355 193.44068 
L 131.355 166.15396 
L 111.825 166.15396 
z
" clip-path="url(#pf141e64602)" style="fill: #17becf"/>
   </g>
   <g id="patch_95">
    <path d="M 150.885 191.686502 
L 170.415 191.686502 
L 170.415 163.635375 
L 150.885 163.635375 
z
" clip-path="url(#pf141e64602)" style="fill: #17becf"/>
   </g>
   <g id="patch_96">
    <path d="M 189.945 193.929405 
L 209.475 193.929405 
L 209.475 168.398062 
L 189.945 168.398062 
z
" clip-path="url(#pf141e64602)" style="fill: #17becf"/>
   </g>
   <g id="patch_97">
    <path d="M 229.005 193.631378 
L 248.535 193.631378 
L 248.535 170.619988 
L 229.005 170.619988 
z
" clip-path="url(#pf141e64602)" style="fill: #17becf"/>
   </g>
   <g id="patch_98">
    <path d="M 268.065 192.215814 
L 287.595 192.215814 
L 287.595 170.738324 
L 268.065 170.738324 
z
" clip-path="url(#pf141e64602)" style="fill: #17becf"/>
   </g>
   <g id="patch_99">
    <path d="M 307.125 193.087707 
L 326.655 193.087707 
L 326.655 175.422517 
L 307.125 175.422517 
z
" clip-path="url(#pf141e64602)" style="fill: #17becf"/>
   </g>
   <g id="patch_100">
    <path d="M 346.185 194.64176 
L 365.715 194.64176 
L 365.715 178.213684 
L 346.185 178.213684 
z
" clip-path="url(#pf141e64602)" style="fill: #17becf"/>
   </g>
   <g id="patch_101">
    <path d="M 385.245 198.220071 
L 404.775 198.220071 
L 404.775 183.19635 
L 385.245 183.19635 
z
" clip-path="url(#pf141e64602)" style="fill: #17becf"/>
   </g>
   <g id="patch_102">
    <path d="M 424.305 201.561467 
L 443.835 201.561467 
L 443.835 185.699825 
L 424.305 185.699825 
z
" clip-path="url(#pf141e64602)" style="fill: #17becf"/>
   </g>
   <g id="patch_103">
    <path d="M 72.765 174.980856 
L 92.295 174.980856 
L 92.295 174.918037 
L 72.765 174.918037 
z
" clip-path="url(#pf141e64602)" style="fill: #1f77b4"/>
   </g>
   <g id="patch_104">
    <path d="M 111.825 256.32 
L 131.355 256.32 
L 131.355 256.32 
L 111.825 256.32 
z
" clip-path="url(#pf141e64602)" style="fill: #1f77b4"/>
   </g>
   <g id="patch_105">
    <path d="M 150.885 163.635375 
L 170.415 163.635375 
L 170.415 163.184419 
L 150.885 163.184419 
z
" clip-path="url(#pf141e64602)" style="fill: #1f77b4"/>
   </g>
   <g id="patch_106">
    <path d="M 189.945 168.398062 
L 209.475 168.398062 
L 209.475 166.425034 
L 189.945 166.425034 
z
" clip-path="url(#pf141e64602)" style="fill: #1f77b4"/>
   </g>
   <g id="patch_107">
    <path d="M 229.005 170.619988 
L 248.535 170.619988 
L 248.535 167.044416 
L 229.005 167.044416 
z
" clip-path="url(#pf141e64602)" style="fill: #1f77b4"/>
   </g>
   <g id="patch_108">
    <path d="M 268.065 170.738324 
L 287.595 170.738324 
L 287.595 166.242291 
L 268.065 166.242291 
z
" clip-path="url(#pf141e64602)" style="fill: #1f77b4"/>
   </g>
   <g id="patch_109">
    <path d="M 307.125 175.422517 
L 326.655 175.422517 
L 326.655 170.806913 
L 307.125 170.806913 
z
" clip-path="url(#pf141e64602)" style="fill: #1f77b4"/>
   </g>
   <g id="patch_110">
    <path d="M 346.185 178.213684 
L 365.715 178.213684 
L 365.715 173.419271 
L 346.185 173.419271 
z
" clip-path="url(#pf141e64602)" style="fill: #1f77b4"/>
   </g>
   <g id="patch_111">
    <path d="M 385.245 183.19635 
L 404.775 183.19635 
L 404.775 180.134879 
L 385.245 180.134879 
z
" clip-path="url(#pf141e64602)" style="fill: #1f77b4"/>
   </g>
   <g id="patch_112">
    <path d="M 424.305 185.699825 
L 443.835 185.699825 
L 443.835 182.186746 
L 424.305 182.186746 
z
" clip-path="url(#pf141e64602)" style="fill: #1f77b4"/>
   </g>
   <g id="patch_113">
    <path d="M 72.765 174.918037 
L 92.295 174.918037 
L 92.295 146.227448 
L 72.765 146.227448 
z
" clip-path="url(#pf141e64602)" style="fill: #ff7f0e"/>
   </g>
   <g id="patch_114">
    <path d="M 111.825 166.15396 
L 131.355 166.15396 
L 131.355 138.480943 
L 111.825 138.480943 
z
" clip-path="url(#pf141e64602)" style="fill: #ff7f0e"/>
   </g>
   <g id="patch_115">
    <path d="M 150.885 163.184419 
L 170.415 163.184419 
L 170.415 132.889389 
L 150.885 132.889389 
z
" clip-path="url(#pf141e64602)" style="fill: #ff7f0e"/>
   </g>
   <g id="patch_116">
    <path d="M 189.945 166.425034 
L 209.475 166.425034 
L 209.475 132.598796 
L 189.945 132.598796 
z
" clip-path="url(#pf141e64602)" style="fill: #ff7f0e"/>
   </g>
   <g id="patch_117">
    <path d="M 229.005 167.044416 
L 248.535 167.044416 
L 248.535 134.989655 
L 229.005 134.989655 
z
" clip-path="url(#pf141e64602)" style="fill: #ff7f0e"/>
   </g>
   <g id="patch_118">
    <path d="M 268.065 166.242291 
L 287.595 166.242291 
L 287.595 134.974648 
L 268.065 134.974648 
z
" clip-path="url(#pf141e64602)" style="fill: #ff7f0e"/>
   </g>
   <g id="patch_119">
    <path d="M 307.125 170.806913 
L 326.655 170.806913 
L 326.655 140.76279 
L 307.125 140.76279 
z
" clip-path="url(#pf141e64602)" style="fill: #ff7f0e"/>
   </g>
   <g id="patch_120">
    <path d="M 346.185 173.419271 
L 365.715 173.419271 
L 365.715 143.742402 
L 346.185 143.742402 
z
" clip-path="url(#pf141e64602)" style="fill: #ff7f0e"/>
   </g>
   <g id="patch_121">
    <path d="M 385.245 180.134879 
L 404.775 180.134879 
L 404.775 149.183738 
L 385.245 149.183738 
z
" clip-path="url(#pf141e64602)" style="fill: #ff7f0e"/>
   </g>
   <g id="patch_122">
    <path d="M 424.305 182.186746 
L 443.835 182.186746 
L 443.835 152.987503 
L 424.305 152.987503 
z
" clip-path="url(#pf141e64602)" style="fill: #ff7f0e"/>
   </g>
   <g id="patch_123">
    <path d="M 72.765 256.32 
L 92.295 256.32 
L 92.295 256.32 
L 72.765 256.32 
z
" clip-path="url(#pf141e64602)" style="fill: #2ca02c"/>
   </g>
   <g id="patch_124">
    <path d="M 111.825 256.32 
L 131.355 256.32 
L 131.355 256.32 
L 111.825 256.32 
z
" clip-path="url(#pf141e64602)" style="fill: #2ca02c"/>
   </g>
   <g id="patch_125">
    <path d="M 150.885 256.32 
L 170.415 256.32 
L 170.415 256.32 
L 150.885 256.32 
z
" clip-path="url(#pf141e64602)" style="fill: #2ca02c"/>
   </g>
   <g id="patch_126">
    <path d="M 189.945 256.32 
L 209.475 256.32 
L 209.475 256.32 
L 189.945 256.32 
z
" clip-path="url(#pf141e64602)" style="fill: #2ca02c"/>
   </g>
   <g id="patch_127">
    <path d="M 229.005 134.989655 
L 248.535 134.989655 
L 248.535 134.513535 
L 229.005 134.513535 
z
" clip-path="url(#pf141e64602)" style="fill: #2ca02c"/>
   </g>
   <g id="patch_128">
    <path d="M 268.065 134.974648 
L 287.595 134.974648 
L 287.595 134.459958 
L 268.065 134.459958 
z
" clip-path="url(#pf141e64602)" style="fill: #2ca02c"/>
   </g>
   <g id="patch_129">
    <path d="M 307.125 140.76279 
L 326.655 140.76279 
L 326.655 139.566872 
L 307.125 139.566872 
z
" clip-path="url(#pf141e64602)" style="fill: #2ca02c"/>
   </g>
   <g id="patch_130">
    <path d="M 346.185 143.742402 
L 365.715 143.742402 
L 365.715 142.374306 
L 346.185 142.374306 
z
" clip-path="url(#pf141e64602)" style="fill: #2ca02c"/>
   </g>
   <g id="patch_131">
    <path d="M 385.245 149.183738 
L 404.775 149.183738 
L 404.775 148.248877 
L 385.245 148.248877 
z
" clip-path="url(#pf141e64602)" style="fill: #2ca02c"/>
   </g>
   <g id="patch_132">
    <path d="M 424.305 152.987503 
L 443.835 152.987503 
L 443.835 152.591165 
L 424.305 152.591165 
z
" clip-path="url(#pf141e64602)" style="fill: #2ca02c"/>
   </g>
   <g id="patch_133">
    <path d="M 72.765 146.227448 
L 92.295 146.227448 
L 92.295 133.625054 
L 72.765 133.625054 
z
" clip-path="url(#pf141e64602)" style="fill: #d62728"/>
   </g>
   <g id="patch_134">
    <path d="M 111.825 138.480943 
L 131.355 138.480943 
L 131.355 123.036714 
L 111.825 123.036714 
z
" clip-path="url(#pf141e64602)" style="fill: #d62728"/>
   </g>
   <g id="patch_135">
    <path d="M 150.885 132.889389 
L 170.415 132.889389 
L 170.415 118.380491 
L 150.885 118.380491 
z
" clip-path="url(#pf141e64602)" style="fill: #d62728"/>
   </g>
   <g id="patch_136">
    <path d="M 189.945 132.598796 
L 209.475 132.598796 
L 209.475 118.821799 
L 189.945 118.821799 
z
" clip-path="url(#pf141e64602)" style="fill: #d62728"/>
   </g>
   <g id="patch_137">
    <path d="M 229.005 134.513535 
L 248.535 134.513535 
L 248.535 119.423293 
L 229.005 119.423293 
z
" clip-path="url(#pf141e64602)" style="fill: #d62728"/>
   </g>
   <g id="patch_138">
    <path d="M 268.065 134.459958 
L 287.595 134.459958 
L 287.595 117.519104 
L 268.065 117.519104 
z
" clip-path="url(#pf141e64602)" style="fill: #d62728"/>
   </g>
   <g id="patch_139">
    <path d="M 307.125 139.566872 
L 326.655 139.566872 
L 326.655 120.441371 
L 307.125 120.441371 
z
" clip-path="url(#pf141e64602)" style="fill: #d62728"/>
   </g>
   <g id="patch_140">
    <path d="M 346.185 142.374306 
L 365.715 142.374306 
L 365.715 121.660075 
L 346.185 121.660075 
z
" clip-path="url(#pf141e64602)" style="fill: #d62728"/>
   </g>
   <g id="patch_141">
    <path d="M 385.245 148.248877 
L 404.775 148.248877 
L 404.775 128.087988 
L 385.245 128.087988 
z
" clip-path="url(#pf141e64602)" style="fill: #d62728"/>
   </g>
   <g id="patch_142">
    <path d="M 424.305 152.591165 
L 443.835 152.591165 
L 443.835 129.821774 
L 424.305 129.821774 
z
" clip-path="url(#pf141e64602)" style="fill: #d62728"/>
   </g>
   <g id="patch_143">
    <path d="M 72.765 133.625054 
L 92.295 133.625054 
L 92.295 126.366973 
L 72.765 126.366973 
z
" clip-path="url(#pf141e64602)" style="fill: #9467bd"/>
   </g>
   <g id="patch_144">
    <path d="M 111.825 123.036714 
L 131.355 123.036714 
L 131.355 120.006248 
L 111.825 120.006248 
z
" clip-path="url(#pf141e64602)" style="fill: #9467bd"/>
   </g>
   <g id="patch_145">
    <path d="M 150.885 118.380491 
L 170.415 118.380491 
L 170.415 116.424064 
L 150.885 116.424064 
z
" clip-path="url(#pf141e64602)" style="fill: #9467bd"/>
   </g>
   <g id="patch_146">
    <path d="M 189.945 118.821799 
L 209.475 118.821799 
L 209.475 116.868228 
L 189.945 116.868228 
z
" clip-path="url(#pf141e64602)" style="fill: #9467bd"/>
   </g>
   <g id="patch_147">
    <path d="M 229.005 119.423293 
L 248.535 119.423293 
L 248.535 117.253121 
L 229.005 117.253121 
z
" clip-path="url(#pf141e64602)" style="fill: #9467bd"/>
   </g>
   <g id="patch_148">
    <path d="M 268.065 117.519104 
L 287.595 117.519104 
L 287.595 115.560709 
L 268.065 115.560709 
z
" clip-path="url(#pf141e64602)" style="fill: #9467bd"/>
   </g>
   <g id="patch_149">
    <path d="M 307.125 120.441371 
L 326.655 120.441371 
L 326.655 117.806176 
L 307.125 117.806176 
z
" clip-path="url(#pf141e64602)" style="fill: #9467bd"/>
   </g>
   <g id="patch_150">
    <path d="M 346.185 121.660075 
L 365.715 121.660075 
L 365.715 119.266588 
L 346.185 119.266588 
z
" clip-path="url(#pf141e64602)" style="fill: #9467bd"/>
   </g>
   <g id="patch_151">
    <path d="M 385.245 128.087988 
L 404.775 128.087988 
L 404.775 126.175481 
L 385.245 126.175481 
z
" clip-path="url(#pf141e64602)" style="fill: #9467bd"/>
   </g>
   <g id="patch_152">
    <path d="M 424.305 129.821774 
L 443.835 129.821774 
L 443.835 126.560644 
L 424.305 126.560644 
z
" clip-path="url(#pf141e64602)" style="fill: #9467bd"/>
   </g>
   <g id="patch_153">
    <path d="M 72.765 126.366973 
L 92.295 126.366973 
L 92.295 118.509511 
L 72.765 118.509511 
z
" clip-path="url(#pf141e64602)" style="fill: #8c564b"/>
   </g>
   <g id="patch_154">
    <path d="M 111.825 120.006248 
L 131.355 120.006248 
L 131.355 110.754254 
L 111.825 110.754254 
z
" clip-path="url(#pf141e64602)" style="fill: #8c564b"/>
   </g>
   <g id="patch_155">
    <path d="M 150.885 116.424064 
L 170.415 116.424064 
L 170.415 107.080768 
L 150.885 107.080768 
z
" clip-path="url(#pf141e64602)" style="fill: #8c564b"/>
   </g>
   <g id="patch_156">
    <path d="M 189.945 116.868228 
L 209.475 116.868228 
L 209.475 106.262156 
L 189.945 106.262156 
z
" clip-path="url(#pf141e64602)" style="fill: #8c564b"/>
   </g>
   <g id="patch_157">
    <path d="M 229.005 117.253121 
L 248.535 117.253121 
L 248.535 105.807722 
L 229.005 105.807722 
z
" clip-path="url(#pf141e64602)" style="fill: #8c564b"/>
   </g>
   <g id="patch_158">
    <path d="M 268.065 115.560709 
L 287.595 115.560709 
L 287.595 103.239004 
L 268.065 103.239004 
z
" clip-path="url(#pf141e64602)" style="fill: #8c564b"/>
   </g>
   <g id="patch_159">
    <path d="M 307.125 117.806176 
L 326.655 117.806176 
L 326.655 104.158243 
L 307.125 104.158243 
z
" clip-path="url(#pf141e64602)" style="fill: #8c564b"/>
   </g>
   <g id="patch_160">
    <path d="M 346.185 119.266588 
L 365.715 119.266588 
L 365.715 104.407235 
L 346.185 104.407235 
z
" clip-path="url(#pf141e64602)" style="fill: #8c564b"/>
   </g>
   <g id="patch_161">
    <path d="M 385.245 126.175481 
L 404.775 126.175481 
L 404.775 110.302666 
L 385.245 110.302666 
z
" clip-path="url(#pf141e64602)" style="fill: #8c564b"/>
   </g>
   <g id="patch_162">
    <path d="M 424.305 126.560644 
L 443.835 126.560644 
L 443.835 112.608292 
L 424.305 112.608292 
z
" clip-path="url(#pf141e64602)" style="fill: #8c564b"/>
   </g>
   <g id="patch_163">
    <path d="M 72.765 118.509511 
L 92.295 118.509511 
L 92.295 104.815767 
L 72.765 104.815767 
z
" clip-path="url(#pf141e64602)" style="fill: #e377c2"/>
   </g>
   <g id="patch_164">
    <path d="M 111.825 110.754254 
L 131.355 110.754254 
L 131.355 94.717475 
L 111.825 94.717475 
z
" clip-path="url(#pf141e64602)" style="fill: #e377c2"/>
   </g>
   <g id="patch_165">
    <path d="M 150.885 107.080768 
L 170.415 107.080768 
L 170.415 91.412712 
L 150.885 91.412712 
z
" clip-path="url(#pf141e64602)" style="fill: #e377c2"/>
   </g>
   <g id="patch_166">
    <path d="M 189.945 106.262156 
L 209.475 106.262156 
L 209.475 90.396632 
L 189.945 90.396632 
z
" clip-path="url(#pf141e64602)" style="fill: #e377c2"/>
   </g>
   <g id="patch_167">
    <path d="M 229.005 105.807722 
L 248.535 105.807722 
L 248.535 87.363317 
L 229.005 87.363317 
z
" clip-path="url(#pf141e64602)" style="fill: #e377c2"/>
   </g>
   <g id="patch_168">
    <path d="M 268.065 103.239004 
L 287.595 103.239004 
L 287.595 84.544931 
L 268.065 84.544931 
z
" clip-path="url(#pf141e64602)" style="fill: #e377c2"/>
   </g>
   <g id="patch_169">
    <path d="M 307.125 104.158243 
L 326.655 104.158243 
L 326.655 84.545154 
L 307.125 84.545154 
z
" clip-path="url(#pf141e64602)" style="fill: #e377c2"/>
   </g>
   <g id="patch_170">
    <path d="M 346.185 104.407235 
L 365.715 104.407235 
L 365.715 85.003485 
L 346.185 85.003485 
z
" clip-path="url(#pf141e64602)" style="fill: #e377c2"/>
   </g>
   <g id="patch_171">
    <path d="M 385.245 110.302666 
L 404.775 110.302666 
L 404.775 89.324348 
L 385.245 89.324348 
z
" clip-path="url(#pf141e64602)" style="fill: #e377c2"/>
   </g>
   <g id="patch_172">
    <path d="M 424.305 112.608292 
L 443.835 112.608292 
L 443.835 92.459543 
L 424.305 92.459543 
z
" clip-path="url(#pf141e64602)" style="fill: #e377c2"/>
   </g>
   <g id="patch_173">
    <path d="M 72.765 104.815767 
L 92.295 104.815767 
L 92.295 104.693424 
L 72.765 104.693424 
z
" clip-path="url(#pf141e64602)" style="fill: #7f7f7f"/>
   </g>
   <g id="patch_174">
    <path d="M 111.825 94.717475 
L 131.355 94.717475 
L 131.355 92.181256 
L 111.825 92.181256 
z
" clip-path="url(#pf141e64602)" style="fill: #7f7f7f"/>
   </g>
   <g id="patch_175">
    <path d="M 150.885 91.412712 
L 170.415 91.412712 
L 170.415 88.619472 
L 150.885 88.619472 
z
" clip-path="url(#pf141e64602)" style="fill: #7f7f7f"/>
   </g>
   <g id="patch_176">
    <path d="M 189.945 90.396632 
L 209.475 90.396632 
L 209.475 87.586279 
L 189.945 87.586279 
z
" clip-path="url(#pf141e64602)" style="fill: #7f7f7f"/>
   </g>
   <g id="patch_177">
    <path d="M 229.005 87.363317 
L 248.535 87.363317 
L 248.535 82.268196 
L 229.005 82.268196 
z
" clip-path="url(#pf141e64602)" style="fill: #7f7f7f"/>
   </g>
   <g id="patch_178">
    <path d="M 268.065 84.544931 
L 287.595 84.544931 
L 287.595 82.504438 
L 268.065 82.504438 
z
" clip-path="url(#pf141e64602)" style="fill: #7f7f7f"/>
   </g>
   <g id="patch_179">
    <path d="M 307.125 84.545154 
L 326.655 84.545154 
L 326.655 78.952351 
L 307.125 78.952351 
z
" clip-path="url(#pf141e64602)" style="fill: #7f7f7f"/>
   </g>
   <g id="patch_180">
    <path d="M 346.185 85.003485 
L 365.715 85.003485 
L 365.715 79.910012 
L 346.185 79.910012 
z
" clip-path="url(#pf141e64602)" style="fill: #7f7f7f"/>
   </g>
   <g id="patch_181">
    <path d="M 385.245 89.324348 
L 404.775 89.324348 
L 404.775 84.330828 
L 385.245 84.330828 
z
" clip-path="url(#pf141e64602)" style="fill: #7f7f7f"/>
   </g>
   <g id="patch_182">
    <path d="M 424.305 92.459543 
L 443.835 92.459543 
L 443.835 89.302973 
L 424.305 89.302973 
z
" clip-path="url(#pf141e64602)" style="fill: #7f7f7f"/>
   </g>
   <g id="patch_183">
    <path d="M 72.765 104.693424 
L 92.295 104.693424 
L 92.295 104.590458 
L 72.765 104.590458 
z
" clip-path="url(#pf141e64602)" style="fill: #bcbd22"/>
   </g>
   <g id="patch_184">
    <path d="M 111.825 92.181256 
L 131.355 92.181256 
L 131.355 92.087755 
L 111.825 92.087755 
z
" clip-path="url(#pf141e64602)" style="fill: #bcbd22"/>
   </g>
   <g id="patch_185">
    <path d="M 150.885 256.32 
L 170.415 256.32 
L 170.415 256.32 
L 150.885 256.32 
z
" clip-path="url(#pf141e64602)" style="fill: #bcbd22"/>
   </g>
   <g id="patch_186">
    <path d="M 189.945 256.32 
L 209.475 256.32 
L 209.475 256.32 
L 189.945 256.32 
z
" clip-path="url(#pf141e64602)" style="fill: #bcbd22"/>
   </g>
   <g id="patch_187">
    <path d="M 229.005 256.32 
L 248.535 256.32 
L 248.535 256.32 
L 229.005 256.32 
z
" clip-path="url(#pf141e64602)" style="fill: #bcbd22"/>
   </g>
   <g id="patch_188">
    <path d="M 268.065 256.32 
L 287.595 256.32 
L 287.595 256.32 
L 268.065 256.32 
z
" clip-path="url(#pf141e64602)" style="fill: #bcbd22"/>
   </g>
   <g id="patch_189">
    <path d="M 307.125 256.32 
L 326.655 256.32 
L 326.655 256.32 
L 307.125 256.32 
z
" clip-path="url(#pf141e64602)" style="fill: #bcbd22"/>
   </g>
   <g id="patch_190">
    <path d="M 346.185 256.32 
L 365.715 256.32 
L 365.715 256.32 
L 346.185 256.32 
z
" clip-path="url(#pf141e64602)" style="fill: #bcbd22"/>
   </g>
   <g id="patch_191">
    <path d="M 385.245 256.32 
L 404.775 256.32 
L 404.775 256.32 
L 385.245 256.32 
z
" clip-path="url(#pf141e64602)" style="fill: #bcbd22"/>
   </g>
   <g id="patch_192">
    <path d="M 424.305 89.302973 
L 443.835 89.302973 
L 443.835 89.137196 
L 424.305 89.137196 
z
" clip-path="url(#pf141e64602)" style="fill: #bcbd22"/>
   </g>
   <g id="patch_193">
    <path d="M 72.765 104.590458 
L 92.295 104.590458 
L 92.295 102.671607 
L 72.765 102.671607 
z
" clip-path="url(#pf141e64602)" style="fill: #17becf"/>
   </g>
   <g id="patch_194">
    <path d="M 111.825 92.087755 
L 131.355 92.087755 
L 131.355 87.362346 
L 111.825 87.362346 
z
" clip-path="url(#pf141e64602)" style="fill: #17becf"/>
   </g>
   <g id="patch_195">
    <path d="M 150.885 88.619472 
L 170.415 88.619472 
L 170.415 82.482716 
L 150.885 82.482716 
z
" clip-path="url(#pf141e64602)" style="fill: #17becf"/>
   </g>
   <g id="patch_196">
    <path d="M 189.945 87.586279 
L 209.475 87.586279 
L 209.475 80.89528 
L 189.945 80.89528 
z
" clip-path="url(#pf141e64602)" style="fill: #17becf"/>
   </g>
   <g id="patch_197">
    <path d="M 229.005 82.268196 
L 248.535 82.268196 
L 248.535 74.890027 
L 229.005 74.890027 
z
" clip-path="url(#pf141e64602)" style="fill: #17becf"/>
   </g>
   <g id="patch_198">
    <path d="M 268.065 82.504438 
L 287.595 82.504438 
L 287.595 73.499424 
L 268.065 73.499424 
z
" clip-path="url(#pf141e64602)" style="fill: #17becf"/>
   </g>
   <g id="patch_199">
    <path d="M 307.125 78.952351 
L 326.655 78.952351 
L 326.655 71.526966 
L 307.125 71.526966 
z
" clip-path="url(#pf141e64602)" style="fill: #17becf"/>
   </g>
   <g id="patch_200">
    <path d="M 346.185 79.910012 
L 365.715 79.910012 
L 365.715 73.49182 
L 346.185 73.49182 
z
" clip-path="url(#pf141e64602)" style="fill: #17becf"/>
   </g>
   <g id="patch_201">
    <path d="M 385.245 84.330828 
L 404.775 84.330828 
L 404.775 73.742858 
L 385.245 73.742858 
z
" clip-path="url(#pf141e64602)" style="fill: #17becf"/>
   </g>
   <g id="patch_202">
    <path d="M 424.305 89.137196 
L 443.835 89.137196 
L 443.835 80.839482 
L 424.305 80.839482 
z
" clip-path="url(#pf141e64602)" style="fill: #17becf"/>
   </g>
   <g id="patch_203">
    <path d="M 72.765 102.671607 
L 92.295 102.671607 
L 92.295 100.97428 
L 72.765 100.97428 
z
" clip-path="url(#pf141e64602)" style="fill: #1f77b4"/>
   </g>
   <g id="patch_204">
    <path d="M 111.825 87.362346 
L 131.355 87.362346 
L 131.355 86.246196 
L 111.825 86.246196 
z
" clip-path="url(#pf141e64602)" style="fill: #1f77b4"/>
   </g>
   <g id="patch_205">
    <path d="M 150.885 82.482716 
L 170.415 82.482716 
L 170.415 81.449202 
L 150.885 81.449202 
z
" clip-path="url(#pf141e64602)" style="fill: #1f77b4"/>
   </g>
   <g id="patch_206">
    <path d="M 189.945 80.89528 
L 209.475 80.89528 
L 209.475 80.209559 
L 189.945 80.209559 
z
" clip-path="url(#pf141e64602)" style="fill: #1f77b4"/>
   </g>
   <g id="patch_207">
    <path d="M 229.005 74.890027 
L 248.535 74.890027 
L 248.535 73.915307 
L 229.005 73.915307 
z
" clip-path="url(#pf141e64602)" style="fill: #1f77b4"/>
   </g>
   <g id="patch_208">
    <path d="M 268.065 73.499424 
L 287.595 73.499424 
L 287.595 72.682353 
L 268.065 72.682353 
z
" clip-path="url(#pf141e64602)" style="fill: #1f77b4"/>
   </g>
   <g id="patch_209">
    <path d="M 307.125 256.32 
L 326.655 256.32 
L 326.655 256.32 
L 307.125 256.32 
z
" clip-path="url(#pf141e64602)" style="fill: #1f77b4"/>
   </g>
   <g id="patch_210">
    <path d="M 346.185 73.49182 
L 365.715 73.49182 
L 365.715 73.27481 
L 346.185 73.27481 
z
" clip-path="url(#pf141e64602)" style="fill: #1f77b4"/>
   </g>
   <g id="patch_211">
    <path d="M 385.245 256.32 
L 404.775 256.32 
L 404.775 256.32 
L 385.245 256.32 
z
" clip-path="url(#pf141e64602)" style="fill: #1f77b4"/>
   </g>
   <g id="patch_212">
    <path d="M 424.305 256.32 
L 443.835 256.32 
L 443.835 256.32 
L 424.305 256.32 
z
" clip-path="url(#pf141e64602)" style="fill: #1f77b4"/>
   </g>
   <g id="matplotlib.axis_1">
    <g id="xtick_1">
     <g id="line2d_1">
      <path d="M 82.53 256.32 
L 82.53 34.56 
" clip-path="url(#pf141e64602)" style="fill: none; stroke: #b0b0b0; stroke-width: 0.8; stroke-linecap: square"/>
     </g>
     <g id="line2d_2">
      <defs>
       <path id="m8aca09070e" d="M 0 0 
L 0 3.5 
" style="stroke: #000000; stroke-width: 0.8"/>
      </defs>
      <g>
       <use xlink:href="#m8aca09070e" x="82.53" y="256.32" style="stroke: #000000; stroke-width: 0.8"/>
      </g>
     </g>
     <g id="text_1">
      <!-- 01 -->
      <g transform="translate(85.289375 276.045) rotate(-90) scale(0.1 -0.1)">
       <defs>
        <path id="DejaVuSans-30" d="M 2034 4250 
Q 1547 4250 1301 3770 
Q 1056 3291 1056 2328 
Q 1056 1369 1301 889 
Q 1547 409 2034 409 
Q 2525 409 2770 889 
Q 3016 1369 3016 2328 
Q 3016 3291 2770 3770 
Q 2525 4250 2034 4250 
z
M 2034 4750 
Q 2819 4750 3233 4129 
Q 3647 3509 3647 2328 
Q 3647 1150 3233 529 
Q 2819 -91 2034 -91 
Q 1250 -91 836 529 
Q 422 1150 422 2328 
Q 422 3509 836 4129 
Q 1250 4750 2034 4750 
z
" transform="scale(0.015625)"/>
        <path id="DejaVuSans-31" d="M 794 531 
L 1825 531 
L 1825 4091 
L 703 3866 
L 703 4441 
L 1819 4666 
L 2450 4666 
L 2450 531 
L 3481 531 
L 3481 0 
L 794 0 
L 794 531 
z
" transform="scale(0.015625)"/>
       </defs>
       <use xlink:href="#DejaVuSans-30"/>
       <use xlink:href="#DejaVuSans-31" transform="translate(63.623047 0)"/>
      </g>
     </g>
    </g>
    <g id="xtick_2">
     <g id="line2d_3">
      <path d="M 121.59 256.32 
L 121.59 34.56 
" clip-path="url(#pf141e64602)" style="fill: none; stroke: #b0b0b0; stroke-width: 0.8; stroke-linecap: square"/>
     </g>
     <g id="line2d_4">
      <g>
       <use xlink:href="#m8aca09070e" x="121.59" y="256.32" style="stroke: #000000; stroke-width: 0.8"/>
      </g>
     </g>
     <g id="text_2">
      <!-- 02 -->
      <g transform="translate(124.349375 276.045) rotate(-90) scale(0.1 -0.1)">
       <defs>
        <path id="DejaVuSans-32" d="M 1228 531 
L 3431 531 
L 3431 0 
L 469 0 
L 469 531 
Q 828 903 1448 1529 
Q 2069 2156 2228 2338 
Q 2531 2678 2651 2914 
Q 2772 3150 2772 3378 
Q 2772 3750 2511 3984 
Q 2250 4219 1831 4219 
Q 1534 4219 1204 4116 
Q 875 4013 500 3803 
L 500 4441 
Q 881 4594 1212 4672 
Q 1544 4750 1819 4750 
Q 2544 4750 2975 4387 
Q 3406 4025 3406 3419 
Q 3406 3131 3298 2873 
Q 3191 2616 2906 2266 
Q 2828 2175 2409 1742 
Q 1991 1309 1228 531 
z
" transform="scale(0.015625)"/>
       </defs>
       <use xlink:href="#DejaVuSans-30"/>
       <use xlink:href="#DejaVuSans-32" transform="translate(63.623047 0)"/>
      </g>
     </g>
    </g>
    <g id="xtick_3">
     <g id="line2d_5">
      <path d="M 160.65 256.32 
L 160.65 34.56 
" clip-path="url(#pf141e64602)" style="fill: none; stroke: #b0b0b0; stroke-width: 0.8; stroke-linecap: square"/>
     </g>
     <g id="line2d_6">
      <g>
       <use xlink:href="#m8aca09070e" x="160.65" y="256.32" style="stroke: #000000; stroke-width: 0.8"/>
      </g>
     </g>
     <g id="text_3">
      <!-- 03 -->
      <g transform="translate(163.409375 276.045) rotate(-90) scale(0.1 -0.1)">
       <defs>
        <path id="DejaVuSans-33" d="M 2597 2516 
Q 3050 2419 3304 2112 
Q 3559 1806 3559 1356 
Q 3559 666 3084 287 
Q 2609 -91 1734 -91 
Q 1441 -91 1130 -33 
Q 819 25 488 141 
L 488 750 
Q 750 597 1062 519 
Q 1375 441 1716 441 
Q 2309 441 2620 675 
Q 2931 909 2931 1356 
Q 2931 1769 2642 2001 
Q 2353 2234 1838 2234 
L 1294 2234 
L 1294 2753 
L 1863 2753 
Q 2328 2753 2575 2939 
Q 2822 3125 2822 3475 
Q 2822 3834 2567 4026 
Q 2313 4219 1838 4219 
Q 1578 4219 1281 4162 
Q 984 4106 628 3988 
L 628 4550 
Q 988 4650 1302 4700 
Q 1616 4750 1894 4750 
Q 2613 4750 3031 4423 
Q 3450 4097 3450 3541 
Q 3450 3153 3228 2886 
Q 3006 2619 2597 2516 
z
" transform="scale(0.015625)"/>
       </defs>
       <use xlink:href="#DejaVuSans-30"/>
       <use xlink:href="#DejaVuSans-33" transform="translate(63.623047 0)"/>
      </g>
     </g>
    </g>
    <g id="xtick_4">
     <g id="line2d_7">
      <path d="M 199.71 256.32 
L 199.71 34.56 
" clip-path="url(#pf141e64602)" style="fill: none; stroke: #b0b0b0; stroke-width: 0.8; stroke-linecap: square"/>
     </g>
     <g id="line2d_8">
      <g>
       <use xlink:href="#m8aca09070e" x="199.71" y="256.32" style="stroke: #000000; stroke-width: 0.8"/>
      </g>
     </g>
     <g id="text_4">
      <!-- 04 -->
      <g transform="translate(202.469375 276.045) rotate(-90) scale(0.1 -0.1)">
       <defs>
        <path id="DejaVuSans-34" d="M 2419 4116 
L 825 1625 
L 2419 1625 
L 2419 4116 
z
M 2253 4666 
L 3047 4666 
L 3047 1625 
L 3713 1625 
L 3713 1100 
L 3047 1100 
L 3047 0 
L 2419 0 
L 2419 1100 
L 313 1100 
L 313 1709 
L 2253 4666 
z
" transform="scale(0.015625)"/>
       </defs>
       <use xlink:href="#DejaVuSans-30"/>
       <use xlink:href="#DejaVuSans-34" transform="translate(63.623047 0)"/>
      </g>
     </g>
    </g>
    <g id="xtick_5">
     <g id="line2d_9">
      <path d="M 238.77 256.32 
L 238.77 34.56 
" clip-path="url(#pf141e64602)" style="fill: none; stroke: #b0b0b0; stroke-width: 0.8; stroke-linecap: square"/>
     </g>
     <g id="line2d_10">
      <g>
       <use xlink:href="#m8aca09070e" x="238.77" y="256.32" style="stroke: #000000; stroke-width: 0.8"/>
      </g>
     </g>
     <g id="text_5">
      <!-- 05 -->
      <g transform="translate(241.529375 276.045) rotate(-90) scale(0.1 -0.1)">
       <defs>
        <path id="DejaVuSans-35" d="M 691 4666 
L 3169 4666 
L 3169 4134 
L 1269 4134 
L 1269 2991 
Q 1406 3038 1543 3061 
Q 1681 3084 1819 3084 
Q 2600 3084 3056 2656 
Q 3513 2228 3513 1497 
Q 3513 744 3044 326 
Q 2575 -91 1722 -91 
Q 1428 -91 1123 -41 
Q 819 9 494 109 
L 494 744 
Q 775 591 1075 516 
Q 1375 441 1709 441 
Q 2250 441 2565 725 
Q 2881 1009 2881 1497 
Q 2881 1984 2565 2268 
Q 2250 2553 1709 2553 
Q 1456 2553 1204 2497 
Q 953 2441 691 2322 
L 691 4666 
z
" transform="scale(0.015625)"/>
       </defs>
       <use xlink:href="#DejaVuSans-30"/>
       <use xlink:href="#DejaVuSans-35" transform="translate(63.623047 0)"/>
      </g>
     </g>
    </g>
    <g id="xtick_6">
     <g id="line2d_11">
      <path d="M 277.83 256.32 
L 277.83 34.56 
" clip-path="url(#pf141e64602)" style="fill: none; stroke: #b0b0b0; stroke-width: 0.8; stroke-linecap: square"/>
     </g>
     <g id="line2d_12">
      <g>
       <use xlink:href="#m8aca09070e" x="277.83" y="256.32" style="stroke: #000000; stroke-width: 0.8"/>
      </g>
     </g>
     <g id="text_6">
      <!-- 06 -->
      <g transform="translate(280.589375 276.045) rotate(-90) scale(0.1 -0.1)">
       <defs>
        <path id="DejaVuSans-36" d="M 2113 2584 
Q 1688 2584 1439 2293 
Q 1191 2003 1191 1497 
Q 1191 994 1439 701 
Q 1688 409 2113 409 
Q 2538 409 2786 701 
Q 3034 994 3034 1497 
Q 3034 2003 2786 2293 
Q 2538 2584 2113 2584 
z
M 3366 4563 
L 3366 3988 
Q 3128 4100 2886 4159 
Q 2644 4219 2406 4219 
Q 1781 4219 1451 3797 
Q 1122 3375 1075 2522 
Q 1259 2794 1537 2939 
Q 1816 3084 2150 3084 
Q 2853 3084 3261 2657 
Q 3669 2231 3669 1497 
Q 3669 778 3244 343 
Q 2819 -91 2113 -91 
Q 1303 -91 875 529 
Q 447 1150 447 2328 
Q 447 3434 972 4092 
Q 1497 4750 2381 4750 
Q 2619 4750 2861 4703 
Q 3103 4656 3366 4563 
z
" transform="scale(0.015625)"/>
       </defs>
       <use xlink:href="#DejaVuSans-30"/>
       <use xlink:href="#DejaVuSans-36" transform="translate(63.623047 0)"/>
      </g>
     </g>
    </g>
    <g id="xtick_7">
     <g id="line2d_13">
      <path d="M 316.89 256.32 
L 316.89 34.56 
" clip-path="url(#pf141e64602)" style="fill: none; stroke: #b0b0b0; stroke-width: 0.8; stroke-linecap: square"/>
     </g>
     <g id="line2d_14">
      <g>
       <use xlink:href="#m8aca09070e" x="316.89" y="256.32" style="stroke: #000000; stroke-width: 0.8"/>
      </g>
     </g>
     <g id="text_7">
      <!-- 07 -->
      <g transform="translate(319.649375 276.045) rotate(-90) scale(0.1 -0.1)">
       <defs>
        <path id="DejaVuSans-37" d="M 525 4666 
L 3525 4666 
L 3525 4397 
L 1831 0 
L 1172 0 
L 2766 4134 
L 525 4134 
L 525 4666 
z
" transform="scale(0.015625)"/>
       </defs>
       <use xlink:href="#DejaVuSans-30"/>
       <use xlink:href="#DejaVuSans-37" transform="translate(63.623047 0)"/>
      </g>
     </g>
    </g>
    <g id="xtick_8">
     <g id="line2d_15">
      <path d="M 355.95 256.32 
L 355.95 34.56 
" clip-path="url(#pf141e64602)" style="fill: none; stroke: #b0b0b0; stroke-width: 0.8; stroke-linecap: square"/>
     </g>
     <g id="line2d_16">
      <g>
       <use xlink:href="#m8aca09070e" x="355.95" y="256.32" style="stroke: #000000; stroke-width: 0.8"/>
      </g>
     </g>
     <g id="text_8">
      <!-- 08 -->
      <g transform="translate(358.709375 276.045) rotate(-90) scale(0.1 -0.1)">
       <defs>
        <path id="DejaVuSans-38" d="M 2034 2216 
Q 1584 2216 1326 1975 
Q 1069 1734 1069 1313 
Q 1069 891 1326 650 
Q 1584 409 2034 409 
Q 2484 409 2743 651 
Q 3003 894 3003 1313 
Q 3003 1734 2745 1975 
Q 2488 2216 2034 2216 
z
M 1403 2484 
Q 997 2584 770 2862 
Q 544 3141 544 3541 
Q 544 4100 942 4425 
Q 1341 4750 2034 4750 
Q 2731 4750 3128 4425 
Q 3525 4100 3525 3541 
Q 3525 3141 3298 2862 
Q 3072 2584 2669 2484 
Q 3125 2378 3379 2068 
Q 3634 1759 3634 1313 
Q 3634 634 3220 271 
Q 2806 -91 2034 -91 
Q 1263 -91 848 271 
Q 434 634 434 1313 
Q 434 1759 690 2068 
Q 947 2378 1403 2484 
z
M 1172 3481 
Q 1172 3119 1398 2916 
Q 1625 2713 2034 2713 
Q 2441 2713 2670 2916 
Q 2900 3119 2900 3481 
Q 2900 3844 2670 4047 
Q 2441 4250 2034 4250 
Q 1625 4250 1398 4047 
Q 1172 3844 1172 3481 
z
" transform="scale(0.015625)"/>
       </defs>
       <use xlink:href="#DejaVuSans-30"/>
       <use xlink:href="#DejaVuSans-38" transform="translate(63.623047 0)"/>
      </g>
     </g>
    </g>
    <g id="xtick_9">
     <g id="line2d_17">
      <path d="M 395.01 256.32 
L 395.01 34.56 
" clip-path="url(#pf141e64602)" style="fill: none; stroke: #b0b0b0; stroke-width: 0.8; stroke-linecap: square"/>
     </g>
     <g id="line2d_18">
      <g>
       <use xlink:href="#m8aca09070e" x="395.01" y="256.32" style="stroke: #000000; stroke-width: 0.8"/>
      </g>
     </g>
     <g id="text_9">
      <!-- 09 -->
      <g transform="translate(397.769375 276.045) rotate(-90) scale(0.1 -0.1)">
       <defs>
        <path id="DejaVuSans-39" d="M 703 97 
L 703 672 
Q 941 559 1184 500 
Q 1428 441 1663 441 
Q 2288 441 2617 861 
Q 2947 1281 2994 2138 
Q 2813 1869 2534 1725 
Q 2256 1581 1919 1581 
Q 1219 1581 811 2004 
Q 403 2428 403 3163 
Q 403 3881 828 4315 
Q 1253 4750 1959 4750 
Q 2769 4750 3195 4129 
Q 3622 3509 3622 2328 
Q 3622 1225 3098 567 
Q 2575 -91 1691 -91 
Q 1453 -91 1209 -44 
Q 966 3 703 97 
z
M 1959 2075 
Q 2384 2075 2632 2365 
Q 2881 2656 2881 3163 
Q 2881 3666 2632 3958 
Q 2384 4250 1959 4250 
Q 1534 4250 1286 3958 
Q 1038 3666 1038 3163 
Q 1038 2656 1286 2365 
Q 1534 2075 1959 2075 
z
" transform="scale(0.015625)"/>
       </defs>
       <use xlink:href="#DejaVuSans-30"/>
       <use xlink:href="#DejaVuSans-39" transform="translate(63.623047 0)"/>
      </g>
     </g>
    </g>
    <g id="xtick_10">
     <g id="line2d_19">
      <path d="M 434.07 256.32 
L 434.07 34.56 
" clip-path="url(#pf141e64602)" style="fill: none; stroke: #b0b0b0; stroke-width: 0.8; stroke-linecap: square"/>
     </g>
     <g id="line2d_20">
      <g>
       <use xlink:href="#m8aca09070e" x="434.07" y="256.32" style="stroke: #000000; stroke-width: 0.8"/>
      </g>
     </g>
     <g id="text_10">
      <!-- 10 -->
      <g transform="translate(436.829375 276.045) rotate(-90) scale(0.1 -0.1)">
       <use xlink:href="#DejaVuSans-31"/>
       <use xlink:href="#DejaVuSans-30" transform="translate(63.623047 0)"/>
      </g>
     </g>
    </g>
    <g id="text_11">
     <!-- timepoints -->
     <g transform="translate(231.647656 287.643438) scale(0.1 -0.1)">
      <defs>
       <path id="DejaVuSans-74" d="M 1172 4494 
L 1172 3500 
L 2356 3500 
L 2356 3053 
L 1172 3053 
L 1172 1153 
Q 1172 725 1289 603 
Q 1406 481 1766 481 
L 2356 481 
L 2356 0 
L 1766 0 
Q 1100 0 847 248 
Q 594 497 594 1153 
L 594 3053 
L 172 3053 
L 172 3500 
L 594 3500 
L 594 4494 
L 1172 4494 
z
" transform="scale(0.015625)"/>
       <path id="DejaVuSans-69" d="M 603 3500 
L 1178 3500 
L 1178 0 
L 603 0 
L 603 3500 
z
M 603 4863 
L 1178 4863 
L 1178 4134 
L 603 4134 
L 603 4863 
z
" transform="scale(0.015625)"/>
       <path id="DejaVuSans-6d" d="M 3328 2828 
Q 3544 3216 3844 3400 
Q 4144 3584 4550 3584 
Q 5097 3584 5394 3201 
Q 5691 2819 5691 2113 
L 5691 0 
L 5113 0 
L 5113 2094 
Q 5113 2597 4934 2840 
Q 4756 3084 4391 3084 
Q 3944 3084 3684 2787 
Q 3425 2491 3425 1978 
L 3425 0 
L 2847 0 
L 2847 2094 
Q 2847 2600 2669 2842 
Q 2491 3084 2119 3084 
Q 1678 3084 1418 2786 
Q 1159 2488 1159 1978 
L 1159 0 
L 581 0 
L 581 3500 
L 1159 3500 
L 1159 2956 
Q 1356 3278 1631 3431 
Q 1906 3584 2284 3584 
Q 2666 3584 2933 3390 
Q 3200 3197 3328 2828 
z
" transform="scale(0.015625)"/>
       <path id="DejaVuSans-65" d="M 3597 1894 
L 3597 1613 
L 953 1613 
Q 991 1019 1311 708 
Q 1631 397 2203 397 
Q 2534 397 2845 478 
Q 3156 559 3463 722 
L 3463 178 
Q 3153 47 2828 -22 
Q 2503 -91 2169 -91 
Q 1331 -91 842 396 
Q 353 884 353 1716 
Q 353 2575 817 3079 
Q 1281 3584 2069 3584 
Q 2775 3584 3186 3129 
Q 3597 2675 3597 1894 
z
M 3022 2063 
Q 3016 2534 2758 2815 
Q 2500 3097 2075 3097 
Q 1594 3097 1305 2825 
Q 1016 2553 972 2059 
L 3022 2063 
z
" transform="scale(0.015625)"/>
       <path id="DejaVuSans-70" d="M 1159 525 
L 1159 -1331 
L 581 -1331 
L 581 3500 
L 1159 3500 
L 1159 2969 
Q 1341 3281 1617 3432 
Q 1894 3584 2278 3584 
Q 2916 3584 3314 3078 
Q 3713 2572 3713 1747 
Q 3713 922 3314 415 
Q 2916 -91 2278 -91 
Q 1894 -91 1617 61 
Q 1341 213 1159 525 
z
M 3116 1747 
Q 3116 2381 2855 2742 
Q 2594 3103 2138 3103 
Q 1681 3103 1420 2742 
Q 1159 2381 1159 1747 
Q 1159 1113 1420 752 
Q 1681 391 2138 391 
Q 2594 391 2855 752 
Q 3116 1113 3116 1747 
z
" transform="scale(0.015625)"/>
       <path id="DejaVuSans-6f" d="M 1959 3097 
Q 1497 3097 1228 2736 
Q 959 2375 959 1747 
Q 959 1119 1226 758 
Q 1494 397 1959 397 
Q 2419 397 2687 759 
Q 2956 1122 2956 1747 
Q 2956 2369 2687 2733 
Q 2419 3097 1959 3097 
z
M 1959 3584 
Q 2709 3584 3137 3096 
Q 3566 2609 3566 1747 
Q 3566 888 3137 398 
Q 2709 -91 1959 -91 
Q 1206 -91 779 398 
Q 353 888 353 1747 
Q 353 2609 779 3096 
Q 1206 3584 1959 3584 
z
" transform="scale(0.015625)"/>
       <path id="DejaVuSans-6e" d="M 3513 2113 
L 3513 0 
L 2938 0 
L 2938 2094 
Q 2938 2591 2744 2837 
Q 2550 3084 2163 3084 
Q 1697 3084 1428 2787 
Q 1159 2491 1159 1978 
L 1159 0 
L 581 0 
L 581 3500 
L 1159 3500 
L 1159 2956 
Q 1366 3272 1645 3428 
Q 1925 3584 2291 3584 
Q 2894 3584 3203 3211 
Q 3513 2838 3513 2113 
z
" transform="scale(0.015625)"/>
       <path id="DejaVuSans-73" d="M 2834 3397 
L 2834 2853 
Q 2591 2978 2328 3040 
Q 2066 3103 1784 3103 
Q 1356 3103 1142 2972 
Q 928 2841 928 2578 
Q 928 2378 1081 2264 
Q 1234 2150 1697 2047 
L 1894 2003 
Q 2506 1872 2764 1633 
Q 3022 1394 3022 966 
Q 3022 478 2636 193 
Q 2250 -91 1575 -91 
Q 1294 -91 989 -36 
Q 684 19 347 128 
L 347 722 
Q 666 556 975 473 
Q 1284 391 1588 391 
Q 1994 391 2212 530 
Q 2431 669 2431 922 
Q 2431 1156 2273 1281 
Q 2116 1406 1581 1522 
L 1381 1569 
Q 847 1681 609 1914 
Q 372 2147 372 2553 
Q 372 3047 722 3315 
Q 1072 3584 1716 3584 
Q 2034 3584 2315 3537 
Q 2597 3491 2834 3397 
z
" transform="scale(0.015625)"/>
      </defs>
      <use xlink:href="#DejaVuSans-74"/>
      <use xlink:href="#DejaVuSans-69" transform="translate(39.208984 0)"/>
      <use xlink:href="#DejaVuSans-6d" transform="translate(66.992188 0)"/>
      <use xlink:href="#DejaVuSans-65" transform="translate(164.404297 0)"/>
      <use xlink:href="#DejaVuSans-70" transform="translate(225.927734 0)"/>
      <use xlink:href="#DejaVuSans-6f" transform="translate(289.404297 0)"/>
      <use xlink:href="#DejaVuSans-69" transform="translate(350.585938 0)"/>
      <use xlink:href="#DejaVuSans-6e" transform="translate(378.369141 0)"/>
      <use xlink:href="#DejaVuSans-74" transform="translate(441.748047 0)"/>
      <use xlink:href="#DejaVuSans-73" transform="translate(480.957031 0)"/>
     </g>
    </g>
   </g>
   <g id="matplotlib.axis_2">
    <g id="ytick_1">
     <g id="line2d_21">
      <defs>
       <path id="m17a10d0a08" d="M 0 0 
L -3.5 0 
" style="stroke: #000000; stroke-width: 0.8"/>
      </defs>
      <g>
       <use xlink:href="#m17a10d0a08" x="63" y="256.32" style="stroke: #000000; stroke-width: 0.8"/>
      </g>
     </g>
     <g id="text_12">
      <!-- 0.0 -->
      <g transform="translate(40.096875 260.119219) scale(0.1 -0.1)">
       <defs>
        <path id="DejaVuSans-2e" d="M 684 794 
L 1344 794 
L 1344 0 
L 684 0 
L 684 794 
z
" transform="scale(0.015625)"/>
       </defs>
       <use xlink:href="#DejaVuSans-30"/>
       <use xlink:href="#DejaVuSans-2e" transform="translate(63.623047 0)"/>
       <use xlink:href="#DejaVuSans-30" transform="translate(95.410156 0)"/>
      </g>
     </g>
    </g>
    <g id="ytick_2">
     <g id="line2d_22">
      <g>
       <use xlink:href="#m17a10d0a08" x="63" y="211.968" style="stroke: #000000; stroke-width: 0.8"/>
      </g>
     </g>
     <g id="text_13">
      <!-- 0.2 -->
      <g transform="translate(40.096875 215.767219) scale(0.1 -0.1)">
       <use xlink:href="#DejaVuSans-30"/>
       <use xlink:href="#DejaVuSans-2e" transform="translate(63.623047 0)"/>
       <use xlink:href="#DejaVuSans-32" transform="translate(95.410156 0)"/>
      </g>
     </g>
    </g>
    <g id="ytick_3">
     <g id="line2d_23">
      <g>
       <use xlink:href="#m17a10d0a08" x="63" y="167.616" style="stroke: #000000; stroke-width: 0.8"/>
      </g>
     </g>
     <g id="text_14">
      <!-- 0.4 -->
      <g transform="translate(40.096875 171.415219) scale(0.1 -0.1)">
       <use xlink:href="#DejaVuSans-30"/>
       <use xlink:href="#DejaVuSans-2e" transform="translate(63.623047 0)"/>
       <use xlink:href="#DejaVuSans-34" transform="translate(95.410156 0)"/>
      </g>
     </g>
    </g>
    <g id="ytick_4">
     <g id="line2d_24">
      <g>
       <use xlink:href="#m17a10d0a08" x="63" y="123.264" style="stroke: #000000; stroke-width: 0.8"/>
      </g>
     </g>
     <g id="text_15">
      <!-- 0.6 -->
      <g transform="translate(40.096875 127.063219) scale(0.1 -0.1)">
       <use xlink:href="#DejaVuSans-30"/>
       <use xlink:href="#DejaVuSans-2e" transform="translate(63.623047 0)"/>
       <use xlink:href="#DejaVuSans-36" transform="translate(95.410156 0)"/>
      </g>
     </g>
    </g>
    <g id="ytick_5">
     <g id="line2d_25">
      <g>
       <use xlink:href="#m17a10d0a08" x="63" y="78.912" style="stroke: #000000; stroke-width: 0.8"/>
      </g>
     </g>
     <g id="text_16">
      <!-- 0.8 -->
      <g transform="translate(40.096875 82.711219) scale(0.1 -0.1)">
       <use xlink:href="#DejaVuSans-30"/>
       <use xlink:href="#DejaVuSans-2e" transform="translate(63.623047 0)"/>
       <use xlink:href="#DejaVuSans-38" transform="translate(95.410156 0)"/>
      </g>
     </g>
    </g>
    <g id="ytick_6">
     <g id="line2d_26">
      <g>
       <use xlink:href="#m17a10d0a08" x="63" y="34.56" style="stroke: #000000; stroke-width: 0.8"/>
      </g>
     </g>
     <g id="text_17">
      <!-- 1.0 -->
      <g transform="translate(40.096875 38.359219) scale(0.1 -0.1)">
       <use xlink:href="#DejaVuSans-31"/>
       <use xlink:href="#DejaVuSans-2e" transform="translate(63.623047 0)"/>
       <use xlink:href="#DejaVuSans-30" transform="translate(95.410156 0)"/>
      </g>
     </g>
    </g>
   </g>
   <g id="patch_213">
    <path d="M 63 256.32 
L 63 34.56 
" style="fill: none; stroke: #000000; stroke-width: 0.8; stroke-linejoin: miter; stroke-linecap: square"/>
   </g>
   <g id="patch_214">
    <path d="M 63 256.32 
L 453.6 256.32 
" style="fill: none; stroke: #000000; stroke-width: 0.8; stroke-linejoin: miter; stroke-linecap: square"/>
   </g>
   <g id="legend_1">
    <g id="patch_215">
     <path d="M 460.6 350.800625 
L 723.523438 350.800625 
Q 725.523438 350.800625 725.523438 348.800625 
L 725.523438 41.56 
Q 725.523438 39.56 723.523438 39.56 
L 460.6 39.56 
Q 458.6 39.56 458.6 41.56 
L 458.6 348.800625 
Q 458.6 350.800625 460.6 350.800625 
z
" style="fill: #ffffff; opacity: 0.8; stroke: #cccccc; stroke-linejoin: miter"/>
    </g>
    <g id="patch_216">
     <path d="M 462.6 51.158437 
L 482.6 51.158437 
L 482.6 44.158437 
L 462.6 44.158437 
z
" style="fill: #1f77b4"/>
    </g>
    <g id="text_18">
     <!-- Amphid socket -->
     <g transform="translate(490.6 51.158437) scale(0.1 -0.1)">
      <defs>
       <path id="DejaVuSans-41" d="M 2188 4044 
L 1331 1722 
L 3047 1722 
L 2188 4044 
z
M 1831 4666 
L 2547 4666 
L 4325 0 
L 3669 0 
L 3244 1197 
L 1141 1197 
L 716 0 
L 50 0 
L 1831 4666 
z
" transform="scale(0.015625)"/>
       <path id="DejaVuSans-68" d="M 3513 2113 
L 3513 0 
L 2938 0 
L 2938 2094 
Q 2938 2591 2744 2837 
Q 2550 3084 2163 3084 
Q 1697 3084 1428 2787 
Q 1159 2491 1159 1978 
L 1159 0 
L 581 0 
L 581 4863 
L 1159 4863 
L 1159 2956 
Q 1366 3272 1645 3428 
Q 1925 3584 2291 3584 
Q 2894 3584 3203 3211 
Q 3513 2838 3513 2113 
z
" transform="scale(0.015625)"/>
       <path id="DejaVuSans-64" d="M 2906 2969 
L 2906 4863 
L 3481 4863 
L 3481 0 
L 2906 0 
L 2906 525 
Q 2725 213 2448 61 
Q 2172 -91 1784 -91 
Q 1150 -91 751 415 
Q 353 922 353 1747 
Q 353 2572 751 3078 
Q 1150 3584 1784 3584 
Q 2172 3584 2448 3432 
Q 2725 3281 2906 2969 
z
M 947 1747 
Q 947 1113 1208 752 
Q 1469 391 1925 391 
Q 2381 391 2643 752 
Q 2906 1113 2906 1747 
Q 2906 2381 2643 2742 
Q 2381 3103 1925 3103 
Q 1469 3103 1208 2742 
Q 947 2381 947 1747 
z
" transform="scale(0.015625)"/>
       <path id="DejaVuSans-20" transform="scale(0.015625)"/>
       <path id="DejaVuSans-63" d="M 3122 3366 
L 3122 2828 
Q 2878 2963 2633 3030 
Q 2388 3097 2138 3097 
Q 1578 3097 1268 2742 
Q 959 2388 959 1747 
Q 959 1106 1268 751 
Q 1578 397 2138 397 
Q 2388 397 2633 464 
Q 2878 531 3122 666 
L 3122 134 
Q 2881 22 2623 -34 
Q 2366 -91 2075 -91 
Q 1284 -91 818 406 
Q 353 903 353 1747 
Q 353 2603 823 3093 
Q 1294 3584 2113 3584 
Q 2378 3584 2631 3529 
Q 2884 3475 3122 3366 
z
" transform="scale(0.015625)"/>
       <path id="DejaVuSans-6b" d="M 581 4863 
L 1159 4863 
L 1159 1991 
L 2875 3500 
L 3609 3500 
L 1753 1863 
L 3688 0 
L 2938 0 
L 1159 1709 
L 1159 0 
L 581 0 
L 581 4863 
z
" transform="scale(0.015625)"/>
      </defs>
      <use xlink:href="#DejaVuSans-41"/>
      <use xlink:href="#DejaVuSans-6d" transform="translate(68.408203 0)"/>
      <use xlink:href="#DejaVuSans-70" transform="translate(165.820312 0)"/>
      <use xlink:href="#DejaVuSans-68" transform="translate(229.296875 0)"/>
      <use xlink:href="#DejaVuSans-69" transform="translate(292.675781 0)"/>
      <use xlink:href="#DejaVuSans-64" transform="translate(320.458984 0)"/>
      <use xlink:href="#DejaVuSans-20" transform="translate(383.935547 0)"/>
      <use xlink:href="#DejaVuSans-73" transform="translate(415.722656 0)"/>
      <use xlink:href="#DejaVuSans-6f" transform="translate(467.822266 0)"/>
      <use xlink:href="#DejaVuSans-63" transform="translate(529.003906 0)"/>
      <use xlink:href="#DejaVuSans-6b" transform="translate(583.984375 0)"/>
      <use xlink:href="#DejaVuSans-65" transform="translate(638.269531 0)"/>
      <use xlink:href="#DejaVuSans-74" transform="translate(699.792969 0)"/>
     </g>
    </g>
    <g id="patch_217">
     <path d="M 462.6 65.836563 
L 482.6 65.836563 
L 482.6 58.836563 
L 462.6 58.836563 
z
" style="fill: #ff7f0e"/>
    </g>
    <g id="text_19">
     <!-- Anal muscle -->
     <g transform="translate(490.6 65.836563) scale(0.1 -0.1)">
      <defs>
       <path id="DejaVuSans-61" d="M 2194 1759 
Q 1497 1759 1228 1600 
Q 959 1441 959 1056 
Q 959 750 1161 570 
Q 1363 391 1709 391 
Q 2188 391 2477 730 
Q 2766 1069 2766 1631 
L 2766 1759 
L 2194 1759 
z
M 3341 1997 
L 3341 0 
L 2766 0 
L 2766 531 
Q 2569 213 2275 61 
Q 1981 -91 1556 -91 
Q 1019 -91 701 211 
Q 384 513 384 1019 
Q 384 1609 779 1909 
Q 1175 2209 1959 2209 
L 2766 2209 
L 2766 2266 
Q 2766 2663 2505 2880 
Q 2244 3097 1772 3097 
Q 1472 3097 1187 3025 
Q 903 2953 641 2809 
L 641 3341 
Q 956 3463 1253 3523 
Q 1550 3584 1831 3584 
Q 2591 3584 2966 3190 
Q 3341 2797 3341 1997 
z
" transform="scale(0.015625)"/>
       <path id="DejaVuSans-6c" d="M 603 4863 
L 1178 4863 
L 1178 0 
L 603 0 
L 603 4863 
z
" transform="scale(0.015625)"/>
       <path id="DejaVuSans-75" d="M 544 1381 
L 544 3500 
L 1119 3500 
L 1119 1403 
Q 1119 906 1312 657 
Q 1506 409 1894 409 
Q 2359 409 2629 706 
Q 2900 1003 2900 1516 
L 2900 3500 
L 3475 3500 
L 3475 0 
L 2900 0 
L 2900 538 
Q 2691 219 2414 64 
Q 2138 -91 1772 -91 
Q 1169 -91 856 284 
Q 544 659 544 1381 
z
M 1991 3584 
L 1991 3584 
z
" transform="scale(0.015625)"/>
      </defs>
      <use xlink:href="#DejaVuSans-41"/>
      <use xlink:href="#DejaVuSans-6e" transform="translate(68.408203 0)"/>
      <use xlink:href="#DejaVuSans-61" transform="translate(131.787109 0)"/>
      <use xlink:href="#DejaVuSans-6c" transform="translate(193.066406 0)"/>
      <use xlink:href="#DejaVuSans-20" transform="translate(220.849609 0)"/>
      <use xlink:href="#DejaVuSans-6d" transform="translate(252.636719 0)"/>
      <use xlink:href="#DejaVuSans-75" transform="translate(350.048828 0)"/>
      <use xlink:href="#DejaVuSans-73" transform="translate(413.427734 0)"/>
      <use xlink:href="#DejaVuSans-63" transform="translate(465.527344 0)"/>
      <use xlink:href="#DejaVuSans-6c" transform="translate(520.507812 0)"/>
      <use xlink:href="#DejaVuSans-65" transform="translate(548.291016 0)"/>
     </g>
    </g>
    <g id="patch_218">
     <path d="M 462.6 80.514687 
L 482.6 80.514687 
L 482.6 73.514687 
L 462.6 73.514687 
z
" style="fill: #2ca02c"/>
    </g>
    <g id="text_20">
     <!-- Coelomocytes -->
     <g transform="translate(490.6 80.514687) scale(0.1 -0.1)">
      <defs>
       <path id="DejaVuSans-43" d="M 4122 4306 
L 4122 3641 
Q 3803 3938 3442 4084 
Q 3081 4231 2675 4231 
Q 1875 4231 1450 3742 
Q 1025 3253 1025 2328 
Q 1025 1406 1450 917 
Q 1875 428 2675 428 
Q 3081 428 3442 575 
Q 3803 722 4122 1019 
L 4122 359 
Q 3791 134 3420 21 
Q 3050 -91 2638 -91 
Q 1578 -91 968 557 
Q 359 1206 359 2328 
Q 359 3453 968 4101 
Q 1578 4750 2638 4750 
Q 3056 4750 3426 4639 
Q 3797 4528 4122 4306 
z
" transform="scale(0.015625)"/>
       <path id="DejaVuSans-79" d="M 2059 -325 
Q 1816 -950 1584 -1140 
Q 1353 -1331 966 -1331 
L 506 -1331 
L 506 -850 
L 844 -850 
Q 1081 -850 1212 -737 
Q 1344 -625 1503 -206 
L 1606 56 
L 191 3500 
L 800 3500 
L 1894 763 
L 2988 3500 
L 3597 3500 
L 2059 -325 
z
" transform="scale(0.015625)"/>
      </defs>
      <use xlink:href="#DejaVuSans-43"/>
      <use xlink:href="#DejaVuSans-6f" transform="translate(69.824219 0)"/>
      <use xlink:href="#DejaVuSans-65" transform="translate(131.005859 0)"/>
      <use xlink:href="#DejaVuSans-6c" transform="translate(192.529297 0)"/>
      <use xlink:href="#DejaVuSans-6f" transform="translate(220.3125 0)"/>
      <use xlink:href="#DejaVuSans-6d" transform="translate(281.494141 0)"/>
      <use xlink:href="#DejaVuSans-6f" transform="translate(378.90625 0)"/>
      <use xlink:href="#DejaVuSans-63" transform="translate(440.087891 0)"/>
      <use xlink:href="#DejaVuSans-79" transform="translate(495.068359 0)"/>
      <use xlink:href="#DejaVuSans-74" transform="translate(554.248047 0)"/>
      <use xlink:href="#DejaVuSans-65" transform="translate(593.457031 0)"/>
      <use xlink:href="#DejaVuSans-73" transform="translate(654.980469 0)"/>
     </g>
    </g>
    <g id="patch_219">
     <path d="M 462.6 95.192813 
L 482.6 95.192813 
L 482.6 88.192813 
L 462.6 88.192813 
z
" style="fill: #d62728"/>
    </g>
    <g id="text_21">
     <!-- Distal tip cell -->
     <g transform="translate(490.6 95.192813) scale(0.1 -0.1)">
      <defs>
       <path id="DejaVuSans-44" d="M 1259 4147 
L 1259 519 
L 2022 519 
Q 2988 519 3436 956 
Q 3884 1394 3884 2338 
Q 3884 3275 3436 3711 
Q 2988 4147 2022 4147 
L 1259 4147 
z
M 628 4666 
L 1925 4666 
Q 3281 4666 3915 4102 
Q 4550 3538 4550 2338 
Q 4550 1131 3912 565 
Q 3275 0 1925 0 
L 628 0 
L 628 4666 
z
" transform="scale(0.015625)"/>
      </defs>
      <use xlink:href="#DejaVuSans-44"/>
      <use xlink:href="#DejaVuSans-69" transform="translate(77.001953 0)"/>
      <use xlink:href="#DejaVuSans-73" transform="translate(104.785156 0)"/>
      <use xlink:href="#DejaVuSans-74" transform="translate(156.884766 0)"/>
      <use xlink:href="#DejaVuSans-61" transform="translate(196.09375 0)"/>
      <use xlink:href="#DejaVuSans-6c" transform="translate(257.373047 0)"/>
      <use xlink:href="#DejaVuSans-20" transform="translate(285.15625 0)"/>
      <use xlink:href="#DejaVuSans-74" transform="translate(316.943359 0)"/>
      <use xlink:href="#DejaVuSans-69" transform="translate(356.152344 0)"/>
      <use xlink:href="#DejaVuSans-70" transform="translate(383.935547 0)"/>
      <use xlink:href="#DejaVuSans-20" transform="translate(447.412109 0)"/>
      <use xlink:href="#DejaVuSans-63" transform="translate(479.199219 0)"/>
      <use xlink:href="#DejaVuSans-65" transform="translate(534.179688 0)"/>
      <use xlink:href="#DejaVuSans-6c" transform="translate(595.703125 0)"/>
      <use xlink:href="#DejaVuSans-6c" transform="translate(623.486328 0)"/>
     </g>
    </g>
    <g id="patch_220">
     <path d="M 462.6 109.870938 
L 482.6 109.870938 
L 482.6 102.870938 
L 462.6 102.870938 
z
" style="fill: #9467bd"/>
    </g>
    <g id="text_22">
     <!-- Germline -->
     <g transform="translate(490.6 109.870938) scale(0.1 -0.1)">
      <defs>
       <path id="DejaVuSans-47" d="M 3809 666 
L 3809 1919 
L 2778 1919 
L 2778 2438 
L 4434 2438 
L 4434 434 
Q 4069 175 3628 42 
Q 3188 -91 2688 -91 
Q 1594 -91 976 548 
Q 359 1188 359 2328 
Q 359 3472 976 4111 
Q 1594 4750 2688 4750 
Q 3144 4750 3555 4637 
Q 3966 4525 4313 4306 
L 4313 3634 
Q 3963 3931 3569 4081 
Q 3175 4231 2741 4231 
Q 1884 4231 1454 3753 
Q 1025 3275 1025 2328 
Q 1025 1384 1454 906 
Q 1884 428 2741 428 
Q 3075 428 3337 486 
Q 3600 544 3809 666 
z
" transform="scale(0.015625)"/>
       <path id="DejaVuSans-72" d="M 2631 2963 
Q 2534 3019 2420 3045 
Q 2306 3072 2169 3072 
Q 1681 3072 1420 2755 
Q 1159 2438 1159 1844 
L 1159 0 
L 581 0 
L 581 3500 
L 1159 3500 
L 1159 2956 
Q 1341 3275 1631 3429 
Q 1922 3584 2338 3584 
Q 2397 3584 2469 3576 
Q 2541 3569 2628 3553 
L 2631 2963 
z
" transform="scale(0.015625)"/>
      </defs>
      <use xlink:href="#DejaVuSans-47"/>
      <use xlink:href="#DejaVuSans-65" transform="translate(77.490234 0)"/>
      <use xlink:href="#DejaVuSans-72" transform="translate(139.013672 0)"/>
      <use xlink:href="#DejaVuSans-6d" transform="translate(178.376953 0)"/>
      <use xlink:href="#DejaVuSans-6c" transform="translate(275.789062 0)"/>
      <use xlink:href="#DejaVuSans-69" transform="translate(303.572266 0)"/>
      <use xlink:href="#DejaVuSans-6e" transform="translate(331.355469 0)"/>
      <use xlink:href="#DejaVuSans-65" transform="translate(394.734375 0)"/>
     </g>
    </g>
    <g id="patch_221">
     <path d="M 462.6 124.549062 
L 482.6 124.549062 
L 482.6 117.549062 
L 462.6 117.549062 
z
" style="fill: #8c564b"/>
    </g>
    <g id="text_23">
     <!-- Glia -->
     <g transform="translate(490.6 124.549062) scale(0.1 -0.1)">
      <use xlink:href="#DejaVuSans-47"/>
      <use xlink:href="#DejaVuSans-6c" transform="translate(77.490234 0)"/>
      <use xlink:href="#DejaVuSans-69" transform="translate(105.273438 0)"/>
      <use xlink:href="#DejaVuSans-61" transform="translate(133.056641 0)"/>
     </g>
    </g>
    <g id="patch_222">
     <path d="M 462.6 139.227188 
L 482.6 139.227188 
L 482.6 132.227188 
L 462.6 132.227188 
z
" style="fill: #e377c2"/>
    </g>
    <g id="text_24">
     <!-- Gonadal -->
     <g transform="translate(490.6 139.227188) scale(0.1 -0.1)">
      <use xlink:href="#DejaVuSans-47"/>
      <use xlink:href="#DejaVuSans-6f" transform="translate(77.490234 0)"/>
      <use xlink:href="#DejaVuSans-6e" transform="translate(138.671875 0)"/>
      <use xlink:href="#DejaVuSans-61" transform="translate(202.050781 0)"/>
      <use xlink:href="#DejaVuSans-64" transform="translate(263.330078 0)"/>
      <use xlink:href="#DejaVuSans-61" transform="translate(326.806641 0)"/>
      <use xlink:href="#DejaVuSans-6c" transform="translate(388.085938 0)"/>
     </g>
    </g>
    <g id="patch_223">
     <path d="M 462.6 153.905312 
L 482.6 153.905312 
L 482.6 146.905312 
L 462.6 146.905312 
z
" style="fill: #7f7f7f"/>
    </g>
    <g id="text_25">
     <!-- Hypodermal cells -->
     <g transform="translate(490.6 153.905312) scale(0.1 -0.1)">
      <defs>
       <path id="DejaVuSans-48" d="M 628 4666 
L 1259 4666 
L 1259 2753 
L 3553 2753 
L 3553 4666 
L 4184 4666 
L 4184 0 
L 3553 0 
L 3553 2222 
L 1259 2222 
L 1259 0 
L 628 0 
L 628 4666 
z
" transform="scale(0.015625)"/>
      </defs>
      <use xlink:href="#DejaVuSans-48"/>
      <use xlink:href="#DejaVuSans-79" transform="translate(75.195312 0)"/>
      <use xlink:href="#DejaVuSans-70" transform="translate(134.375 0)"/>
      <use xlink:href="#DejaVuSans-6f" transform="translate(197.851562 0)"/>
      <use xlink:href="#DejaVuSans-64" transform="translate(259.033203 0)"/>
      <use xlink:href="#DejaVuSans-65" transform="translate(322.509766 0)"/>
      <use xlink:href="#DejaVuSans-72" transform="translate(384.033203 0)"/>
      <use xlink:href="#DejaVuSans-6d" transform="translate(423.396484 0)"/>
      <use xlink:href="#DejaVuSans-61" transform="translate(520.808594 0)"/>
      <use xlink:href="#DejaVuSans-6c" transform="translate(582.087891 0)"/>
      <use xlink:href="#DejaVuSans-20" transform="translate(609.871094 0)"/>
      <use xlink:href="#DejaVuSans-63" transform="translate(641.658203 0)"/>
      <use xlink:href="#DejaVuSans-65" transform="translate(696.638672 0)"/>
      <use xlink:href="#DejaVuSans-6c" transform="translate(758.162109 0)"/>
      <use xlink:href="#DejaVuSans-6c" transform="translate(785.945312 0)"/>
      <use xlink:href="#DejaVuSans-73" transform="translate(813.728516 0)"/>
     </g>
    </g>
    <g id="patch_224">
     <path d="M 462.6 168.583438 
L 482.6 168.583438 
L 482.6 161.583438 
L 462.6 161.583438 
z
" style="fill: #bcbd22"/>
    </g>
    <g id="text_26">
     <!-- Intestinal-rectal valve -->
     <g transform="translate(490.6 168.583438) scale(0.1 -0.1)">
      <defs>
       <path id="DejaVuSans-49" d="M 628 4666 
L 1259 4666 
L 1259 0 
L 628 0 
L 628 4666 
z
" transform="scale(0.015625)"/>
       <path id="DejaVuSans-2d" d="M 313 2009 
L 1997 2009 
L 1997 1497 
L 313 1497 
L 313 2009 
z
" transform="scale(0.015625)"/>
       <path id="DejaVuSans-76" d="M 191 3500 
L 800 3500 
L 1894 563 
L 2988 3500 
L 3597 3500 
L 2284 0 
L 1503 0 
L 191 3500 
z
" transform="scale(0.015625)"/>
      </defs>
      <use xlink:href="#DejaVuSans-49"/>
      <use xlink:href="#DejaVuSans-6e" transform="translate(29.492188 0)"/>
      <use xlink:href="#DejaVuSans-74" transform="translate(92.871094 0)"/>
      <use xlink:href="#DejaVuSans-65" transform="translate(132.080078 0)"/>
      <use xlink:href="#DejaVuSans-73" transform="translate(193.603516 0)"/>
      <use xlink:href="#DejaVuSans-74" transform="translate(245.703125 0)"/>
      <use xlink:href="#DejaVuSans-69" transform="translate(284.912109 0)"/>
      <use xlink:href="#DejaVuSans-6e" transform="translate(312.695312 0)"/>
      <use xlink:href="#DejaVuSans-61" transform="translate(376.074219 0)"/>
      <use xlink:href="#DejaVuSans-6c" transform="translate(437.353516 0)"/>
      <use xlink:href="#DejaVuSans-2d" transform="translate(465.136719 0)"/>
      <use xlink:href="#DejaVuSans-72" transform="translate(501.220703 0)"/>
      <use xlink:href="#DejaVuSans-65" transform="translate(540.083984 0)"/>
      <use xlink:href="#DejaVuSans-63" transform="translate(601.607422 0)"/>
      <use xlink:href="#DejaVuSans-74" transform="translate(656.587891 0)"/>
      <use xlink:href="#DejaVuSans-61" transform="translate(695.796875 0)"/>
      <use xlink:href="#DejaVuSans-6c" transform="translate(757.076172 0)"/>
      <use xlink:href="#DejaVuSans-20" transform="translate(784.859375 0)"/>
      <use xlink:href="#DejaVuSans-76" transform="translate(816.646484 0)"/>
      <use xlink:href="#DejaVuSans-61" transform="translate(875.826172 0)"/>
      <use xlink:href="#DejaVuSans-6c" transform="translate(937.105469 0)"/>
      <use xlink:href="#DejaVuSans-76" transform="translate(964.888672 0)"/>
      <use xlink:href="#DejaVuSans-65" transform="translate(1024.068359 0)"/>
     </g>
    </g>
    <g id="patch_225">
     <path d="M 462.6 183.261562 
L 482.6 183.261562 
L 482.6 176.261562 
L 462.6 176.261562 
z
" style="fill: #17becf"/>
    </g>
    <g id="text_27">
     <!-- Intestine -->
     <g transform="translate(490.6 183.261562) scale(0.1 -0.1)">
      <use xlink:href="#DejaVuSans-49"/>
      <use xlink:href="#DejaVuSans-6e" transform="translate(29.492188 0)"/>
      <use xlink:href="#DejaVuSans-74" transform="translate(92.871094 0)"/>
      <use xlink:href="#DejaVuSans-65" transform="translate(132.080078 0)"/>
      <use xlink:href="#DejaVuSans-73" transform="translate(193.603516 0)"/>
      <use xlink:href="#DejaVuSans-74" transform="translate(245.703125 0)"/>
      <use xlink:href="#DejaVuSans-69" transform="translate(284.912109 0)"/>
      <use xlink:href="#DejaVuSans-6e" transform="translate(312.695312 0)"/>
      <use xlink:href="#DejaVuSans-65" transform="translate(376.074219 0)"/>
     </g>
    </g>
    <g id="patch_226">
     <path d="M 462.6 197.939687 
L 482.6 197.939687 
L 482.6 190.939687 
L 462.6 190.939687 
z
" style="fill: #1f77b4"/>
    </g>
    <g id="text_28">
     <!-- Marginal cell -->
     <g transform="translate(490.6 197.939687) scale(0.1 -0.1)">
      <defs>
       <path id="DejaVuSans-4d" d="M 628 4666 
L 1569 4666 
L 2759 1491 
L 3956 4666 
L 4897 4666 
L 4897 0 
L 4281 0 
L 4281 4097 
L 3078 897 
L 2444 897 
L 1241 4097 
L 1241 0 
L 628 0 
L 628 4666 
z
" transform="scale(0.015625)"/>
       <path id="DejaVuSans-67" d="M 2906 1791 
Q 2906 2416 2648 2759 
Q 2391 3103 1925 3103 
Q 1463 3103 1205 2759 
Q 947 2416 947 1791 
Q 947 1169 1205 825 
Q 1463 481 1925 481 
Q 2391 481 2648 825 
Q 2906 1169 2906 1791 
z
M 3481 434 
Q 3481 -459 3084 -895 
Q 2688 -1331 1869 -1331 
Q 1566 -1331 1297 -1286 
Q 1028 -1241 775 -1147 
L 775 -588 
Q 1028 -725 1275 -790 
Q 1522 -856 1778 -856 
Q 2344 -856 2625 -561 
Q 2906 -266 2906 331 
L 2906 616 
Q 2728 306 2450 153 
Q 2172 0 1784 0 
Q 1141 0 747 490 
Q 353 981 353 1791 
Q 353 2603 747 3093 
Q 1141 3584 1784 3584 
Q 2172 3584 2450 3431 
Q 2728 3278 2906 2969 
L 2906 3500 
L 3481 3500 
L 3481 434 
z
" transform="scale(0.015625)"/>
      </defs>
      <use xlink:href="#DejaVuSans-4d"/>
      <use xlink:href="#DejaVuSans-61" transform="translate(86.279297 0)"/>
      <use xlink:href="#DejaVuSans-72" transform="translate(147.558594 0)"/>
      <use xlink:href="#DejaVuSans-67" transform="translate(186.921875 0)"/>
      <use xlink:href="#DejaVuSans-69" transform="translate(250.398438 0)"/>
      <use xlink:href="#DejaVuSans-6e" transform="translate(278.181641 0)"/>
      <use xlink:href="#DejaVuSans-61" transform="translate(341.560547 0)"/>
      <use xlink:href="#DejaVuSans-6c" transform="translate(402.839844 0)"/>
      <use xlink:href="#DejaVuSans-20" transform="translate(430.623047 0)"/>
      <use xlink:href="#DejaVuSans-63" transform="translate(462.410156 0)"/>
      <use xlink:href="#DejaVuSans-65" transform="translate(517.390625 0)"/>
      <use xlink:href="#DejaVuSans-6c" transform="translate(578.914062 0)"/>
      <use xlink:href="#DejaVuSans-6c" transform="translate(606.697266 0)"/>
     </g>
    </g>
    <g id="patch_227">
     <path d="M 462.6 212.617812 
L 482.6 212.617812 
L 482.6 205.617812 
L 462.6 205.617812 
z
" style="fill: #ff7f0e"/>
    </g>
    <g id="text_29">
     <!-- Muscle -->
     <g transform="translate(490.6 212.617812) scale(0.1 -0.1)">
      <use xlink:href="#DejaVuSans-4d"/>
      <use xlink:href="#DejaVuSans-75" transform="translate(86.279297 0)"/>
      <use xlink:href="#DejaVuSans-73" transform="translate(149.658203 0)"/>
      <use xlink:href="#DejaVuSans-63" transform="translate(201.757812 0)"/>
      <use xlink:href="#DejaVuSans-6c" transform="translate(256.738281 0)"/>
      <use xlink:href="#DejaVuSans-65" transform="translate(284.521484 0)"/>
     </g>
    </g>
    <g id="patch_228">
     <path d="M 462.6 227.295937 
L 482.6 227.295937 
L 482.6 220.295937 
L 462.6 220.295937 
z
" style="fill: #2ca02c"/>
    </g>
    <g id="text_30">
     <!-- Neurons -->
     <g transform="translate(490.6 227.295937) scale(0.1 -0.1)">
      <defs>
       <path id="DejaVuSans-4e" d="M 628 4666 
L 1478 4666 
L 3547 763 
L 3547 4666 
L 4159 4666 
L 4159 0 
L 3309 0 
L 1241 3903 
L 1241 0 
L 628 0 
L 628 4666 
z
" transform="scale(0.015625)"/>
      </defs>
      <use xlink:href="#DejaVuSans-4e"/>
      <use xlink:href="#DejaVuSans-65" transform="translate(74.804688 0)"/>
      <use xlink:href="#DejaVuSans-75" transform="translate(136.328125 0)"/>
      <use xlink:href="#DejaVuSans-72" transform="translate(199.707031 0)"/>
      <use xlink:href="#DejaVuSans-6f" transform="translate(238.570312 0)"/>
      <use xlink:href="#DejaVuSans-6e" transform="translate(299.751953 0)"/>
      <use xlink:href="#DejaVuSans-73" transform="translate(363.130859 0)"/>
     </g>
    </g>
    <g id="patch_229">
     <path d="M 462.6 241.974062 
L 482.6 241.974062 
L 482.6 234.974062 
L 462.6 234.974062 
z
" style="fill: #d62728"/>
    </g>
    <g id="text_31">
     <!-- Spermatheca -->
     <g transform="translate(490.6 241.974062) scale(0.1 -0.1)">
      <defs>
       <path id="DejaVuSans-53" d="M 3425 4513 
L 3425 3897 
Q 3066 4069 2747 4153 
Q 2428 4238 2131 4238 
Q 1616 4238 1336 4038 
Q 1056 3838 1056 3469 
Q 1056 3159 1242 3001 
Q 1428 2844 1947 2747 
L 2328 2669 
Q 3034 2534 3370 2195 
Q 3706 1856 3706 1288 
Q 3706 609 3251 259 
Q 2797 -91 1919 -91 
Q 1588 -91 1214 -16 
Q 841 59 441 206 
L 441 856 
Q 825 641 1194 531 
Q 1563 422 1919 422 
Q 2459 422 2753 634 
Q 3047 847 3047 1241 
Q 3047 1584 2836 1778 
Q 2625 1972 2144 2069 
L 1759 2144 
Q 1053 2284 737 2584 
Q 422 2884 422 3419 
Q 422 4038 858 4394 
Q 1294 4750 2059 4750 
Q 2388 4750 2728 4690 
Q 3069 4631 3425 4513 
z
" transform="scale(0.015625)"/>
      </defs>
      <use xlink:href="#DejaVuSans-53"/>
      <use xlink:href="#DejaVuSans-70" transform="translate(63.476562 0)"/>
      <use xlink:href="#DejaVuSans-65" transform="translate(126.953125 0)"/>
      <use xlink:href="#DejaVuSans-72" transform="translate(188.476562 0)"/>
      <use xlink:href="#DejaVuSans-6d" transform="translate(227.839844 0)"/>
      <use xlink:href="#DejaVuSans-61" transform="translate(325.251953 0)"/>
      <use xlink:href="#DejaVuSans-74" transform="translate(386.53125 0)"/>
      <use xlink:href="#DejaVuSans-68" transform="translate(425.740234 0)"/>
      <use xlink:href="#DejaVuSans-65" transform="translate(489.119141 0)"/>
      <use xlink:href="#DejaVuSans-63" transform="translate(550.642578 0)"/>
      <use xlink:href="#DejaVuSans-61" transform="translate(605.623047 0)"/>
     </g>
    </g>
    <g id="patch_230">
     <path d="M 462.6 256.652187 
L 482.6 256.652187 
L 482.6 249.652187 
L 462.6 249.652187 
z
" style="fill: #9467bd"/>
    </g>
    <g id="text_32">
     <!-- Spermatheca-Uterine junction -->
     <g transform="translate(490.6 256.652187) scale(0.1 -0.1)">
      <defs>
       <path id="DejaVuSans-55" d="M 556 4666 
L 1191 4666 
L 1191 1831 
Q 1191 1081 1462 751 
Q 1734 422 2344 422 
Q 2950 422 3222 751 
Q 3494 1081 3494 1831 
L 3494 4666 
L 4128 4666 
L 4128 1753 
Q 4128 841 3676 375 
Q 3225 -91 2344 -91 
Q 1459 -91 1007 375 
Q 556 841 556 1753 
L 556 4666 
z
" transform="scale(0.015625)"/>
       <path id="DejaVuSans-6a" d="M 603 3500 
L 1178 3500 
L 1178 -63 
Q 1178 -731 923 -1031 
Q 669 -1331 103 -1331 
L -116 -1331 
L -116 -844 
L 38 -844 
Q 366 -844 484 -692 
Q 603 -541 603 -63 
L 603 3500 
z
M 603 4863 
L 1178 4863 
L 1178 4134 
L 603 4134 
L 603 4863 
z
" transform="scale(0.015625)"/>
      </defs>
      <use xlink:href="#DejaVuSans-53"/>
      <use xlink:href="#DejaVuSans-70" transform="translate(63.476562 0)"/>
      <use xlink:href="#DejaVuSans-65" transform="translate(126.953125 0)"/>
      <use xlink:href="#DejaVuSans-72" transform="translate(188.476562 0)"/>
      <use xlink:href="#DejaVuSans-6d" transform="translate(227.839844 0)"/>
      <use xlink:href="#DejaVuSans-61" transform="translate(325.251953 0)"/>
      <use xlink:href="#DejaVuSans-74" transform="translate(386.53125 0)"/>
      <use xlink:href="#DejaVuSans-68" transform="translate(425.740234 0)"/>
      <use xlink:href="#DejaVuSans-65" transform="translate(489.119141 0)"/>
      <use xlink:href="#DejaVuSans-63" transform="translate(550.642578 0)"/>
      <use xlink:href="#DejaVuSans-61" transform="translate(605.623047 0)"/>
      <use xlink:href="#DejaVuSans-2d" transform="translate(666.902344 0)"/>
      <use xlink:href="#DejaVuSans-55" transform="translate(702.986328 0)"/>
      <use xlink:href="#DejaVuSans-74" transform="translate(776.179688 0)"/>
      <use xlink:href="#DejaVuSans-65" transform="translate(815.388672 0)"/>
      <use xlink:href="#DejaVuSans-72" transform="translate(876.912109 0)"/>
      <use xlink:href="#DejaVuSans-69" transform="translate(918.025391 0)"/>
      <use xlink:href="#DejaVuSans-6e" transform="translate(945.808594 0)"/>
      <use xlink:href="#DejaVuSans-65" transform="translate(1009.1875 0)"/>
      <use xlink:href="#DejaVuSans-20" transform="translate(1070.710938 0)"/>
      <use xlink:href="#DejaVuSans-6a" transform="translate(1102.498047 0)"/>
      <use xlink:href="#DejaVuSans-75" transform="translate(1130.28125 0)"/>
      <use xlink:href="#DejaVuSans-6e" transform="translate(1193.660156 0)"/>
      <use xlink:href="#DejaVuSans-63" transform="translate(1257.039062 0)"/>
      <use xlink:href="#DejaVuSans-74" transform="translate(1312.019531 0)"/>
      <use xlink:href="#DejaVuSans-69" transform="translate(1351.228516 0)"/>
      <use xlink:href="#DejaVuSans-6f" transform="translate(1379.011719 0)"/>
      <use xlink:href="#DejaVuSans-6e" transform="translate(1440.193359 0)"/>
     </g>
    </g>
    <g id="patch_231">
     <path d="M 462.6 271.330312 
L 482.6 271.330312 
L 482.6 264.330312 
L 462.6 264.330312 
z
" style="fill: #8c564b"/>
    </g>
    <g id="text_33">
     <!-- Unassigned sheath cells -->
     <g transform="translate(490.6 271.330312) scale(0.1 -0.1)">
      <use xlink:href="#DejaVuSans-55"/>
      <use xlink:href="#DejaVuSans-6e" transform="translate(73.193359 0)"/>
      <use xlink:href="#DejaVuSans-61" transform="translate(136.572266 0)"/>
      <use xlink:href="#DejaVuSans-73" transform="translate(197.851562 0)"/>
      <use xlink:href="#DejaVuSans-73" transform="translate(249.951172 0)"/>
      <use xlink:href="#DejaVuSans-69" transform="translate(302.050781 0)"/>
      <use xlink:href="#DejaVuSans-67" transform="translate(329.833984 0)"/>
      <use xlink:href="#DejaVuSans-6e" transform="translate(393.310547 0)"/>
      <use xlink:href="#DejaVuSans-65" transform="translate(456.689453 0)"/>
      <use xlink:href="#DejaVuSans-64" transform="translate(518.212891 0)"/>
      <use xlink:href="#DejaVuSans-20" transform="translate(581.689453 0)"/>
      <use xlink:href="#DejaVuSans-73" transform="translate(613.476562 0)"/>
      <use xlink:href="#DejaVuSans-68" transform="translate(665.576172 0)"/>
      <use xlink:href="#DejaVuSans-65" transform="translate(728.955078 0)"/>
      <use xlink:href="#DejaVuSans-61" transform="translate(790.478516 0)"/>
      <use xlink:href="#DejaVuSans-74" transform="translate(851.757812 0)"/>
      <use xlink:href="#DejaVuSans-68" transform="translate(890.966797 0)"/>
      <use xlink:href="#DejaVuSans-20" transform="translate(954.345703 0)"/>
      <use xlink:href="#DejaVuSans-63" transform="translate(986.132812 0)"/>
      <use xlink:href="#DejaVuSans-65" transform="translate(1041.113281 0)"/>
      <use xlink:href="#DejaVuSans-6c" transform="translate(1102.636719 0)"/>
      <use xlink:href="#DejaVuSans-6c" transform="translate(1130.419922 0)"/>
      <use xlink:href="#DejaVuSans-73" transform="translate(1158.203125 0)"/>
     </g>
    </g>
    <g id="patch_232">
     <path d="M 462.6 286.008437 
L 482.6 286.008437 
L 482.6 279.008437 
L 462.6 279.008437 
z
" style="fill: #e377c2"/>
    </g>
    <g id="text_34">
     <!-- Uterine-vulval cells -->
     <g transform="translate(490.6 286.008437) scale(0.1 -0.1)">
      <use xlink:href="#DejaVuSans-55"/>
      <use xlink:href="#DejaVuSans-74" transform="translate(73.193359 0)"/>
      <use xlink:href="#DejaVuSans-65" transform="translate(112.402344 0)"/>
      <use xlink:href="#DejaVuSans-72" transform="translate(173.925781 0)"/>
      <use xlink:href="#DejaVuSans-69" transform="translate(215.039062 0)"/>
      <use xlink:href="#DejaVuSans-6e" transform="translate(242.822266 0)"/>
      <use xlink:href="#DejaVuSans-65" transform="translate(306.201172 0)"/>
      <use xlink:href="#DejaVuSans-2d" transform="translate(367.724609 0)"/>
      <use xlink:href="#DejaVuSans-76" transform="translate(401.183594 0)"/>
      <use xlink:href="#DejaVuSans-75" transform="translate(460.363281 0)"/>
      <use xlink:href="#DejaVuSans-6c" transform="translate(523.742188 0)"/>
      <use xlink:href="#DejaVuSans-76" transform="translate(551.525391 0)"/>
      <use xlink:href="#DejaVuSans-61" transform="translate(610.705078 0)"/>
      <use xlink:href="#DejaVuSans-6c" transform="translate(671.984375 0)"/>
      <use xlink:href="#DejaVuSans-20" transform="translate(699.767578 0)"/>
      <use xlink:href="#DejaVuSans-63" transform="translate(731.554688 0)"/>
      <use xlink:href="#DejaVuSans-65" transform="translate(786.535156 0)"/>
      <use xlink:href="#DejaVuSans-6c" transform="translate(848.058594 0)"/>
      <use xlink:href="#DejaVuSans-6c" transform="translate(875.841797 0)"/>
      <use xlink:href="#DejaVuSans-73" transform="translate(903.625 0)"/>
     </g>
    </g>
    <g id="patch_233">
     <path d="M 462.6 300.686562 
L 482.6 300.686562 
L 482.6 293.686562 
L 462.6 293.686562 
z
" style="fill: #7f7f7f"/>
    </g>
    <g id="text_35">
     <!-- Vulval cell -->
     <g transform="translate(490.6 300.686562) scale(0.1 -0.1)">
      <defs>
       <path id="DejaVuSans-56" d="M 1831 0 
L 50 4666 
L 709 4666 
L 2188 738 
L 3669 4666 
L 4325 4666 
L 2547 0 
L 1831 0 
z
" transform="scale(0.015625)"/>
      </defs>
      <use xlink:href="#DejaVuSans-56"/>
      <use xlink:href="#DejaVuSans-75" transform="translate(61.658203 0)"/>
      <use xlink:href="#DejaVuSans-6c" transform="translate(125.037109 0)"/>
      <use xlink:href="#DejaVuSans-76" transform="translate(152.820312 0)"/>
      <use xlink:href="#DejaVuSans-61" transform="translate(212 0)"/>
      <use xlink:href="#DejaVuSans-6c" transform="translate(273.279297 0)"/>
      <use xlink:href="#DejaVuSans-20" transform="translate(301.0625 0)"/>
      <use xlink:href="#DejaVuSans-63" transform="translate(332.849609 0)"/>
      <use xlink:href="#DejaVuSans-65" transform="translate(387.830078 0)"/>
      <use xlink:href="#DejaVuSans-6c" transform="translate(449.353516 0)"/>
      <use xlink:href="#DejaVuSans-6c" transform="translate(477.136719 0)"/>
     </g>
    </g>
    <g id="patch_234">
     <path d="M 462.6 315.364687 
L 482.6 315.364687 
L 482.6 308.364687 
L 462.6 308.364687 
z
" style="fill: #bcbd22"/>
    </g>
    <g id="text_36">
     <!-- arcade, marginal and pharyngeal muscle cells -->
     <g transform="translate(490.6 315.364687) scale(0.1 -0.1)">
      <defs>
       <path id="DejaVuSans-2c" d="M 750 794 
L 1409 794 
L 1409 256 
L 897 -744 
L 494 -744 
L 750 256 
L 750 794 
z
" transform="scale(0.015625)"/>
      </defs>
      <use xlink:href="#DejaVuSans-61"/>
      <use xlink:href="#DejaVuSans-72" transform="translate(61.279297 0)"/>
      <use xlink:href="#DejaVuSans-63" transform="translate(100.142578 0)"/>
      <use xlink:href="#DejaVuSans-61" transform="translate(155.123047 0)"/>
      <use xlink:href="#DejaVuSans-64" transform="translate(216.402344 0)"/>
      <use xlink:href="#DejaVuSans-65" transform="translate(279.878906 0)"/>
      <use xlink:href="#DejaVuSans-2c" transform="translate(341.402344 0)"/>
      <use xlink:href="#DejaVuSans-20" transform="translate(373.189453 0)"/>
      <use xlink:href="#DejaVuSans-6d" transform="translate(404.976562 0)"/>
      <use xlink:href="#DejaVuSans-61" transform="translate(502.388672 0)"/>
      <use xlink:href="#DejaVuSans-72" transform="translate(563.667969 0)"/>
      <use xlink:href="#DejaVuSans-67" transform="translate(603.03125 0)"/>
      <use xlink:href="#DejaVuSans-69" transform="translate(666.507812 0)"/>
      <use xlink:href="#DejaVuSans-6e" transform="translate(694.291016 0)"/>
      <use xlink:href="#DejaVuSans-61" transform="translate(757.669922 0)"/>
      <use xlink:href="#DejaVuSans-6c" transform="translate(818.949219 0)"/>
      <use xlink:href="#DejaVuSans-20" transform="translate(846.732422 0)"/>
      <use xlink:href="#DejaVuSans-61" transform="translate(878.519531 0)"/>
      <use xlink:href="#DejaVuSans-6e" transform="translate(939.798828 0)"/>
      <use xlink:href="#DejaVuSans-64" transform="translate(1003.177734 0)"/>
      <use xlink:href="#DejaVuSans-20" transform="translate(1066.654297 0)"/>
      <use xlink:href="#DejaVuSans-70" transform="translate(1098.441406 0)"/>
      <use xlink:href="#DejaVuSans-68" transform="translate(1161.917969 0)"/>
      <use xlink:href="#DejaVuSans-61" transform="translate(1225.296875 0)"/>
      <use xlink:href="#DejaVuSans-72" transform="translate(1286.576172 0)"/>
      <use xlink:href="#DejaVuSans-79" transform="translate(1327.689453 0)"/>
      <use xlink:href="#DejaVuSans-6e" transform="translate(1386.869141 0)"/>
      <use xlink:href="#DejaVuSans-67" transform="translate(1450.248047 0)"/>
      <use xlink:href="#DejaVuSans-65" transform="translate(1513.724609 0)"/>
      <use xlink:href="#DejaVuSans-61" transform="translate(1575.248047 0)"/>
      <use xlink:href="#DejaVuSans-6c" transform="translate(1636.527344 0)"/>
      <use xlink:href="#DejaVuSans-20" transform="translate(1664.310547 0)"/>
      <use xlink:href="#DejaVuSans-6d" transform="translate(1696.097656 0)"/>
      <use xlink:href="#DejaVuSans-75" transform="translate(1793.509766 0)"/>
      <use xlink:href="#DejaVuSans-73" transform="translate(1856.888672 0)"/>
      <use xlink:href="#DejaVuSans-63" transform="translate(1908.988281 0)"/>
      <use xlink:href="#DejaVuSans-6c" transform="translate(1963.96875 0)"/>
      <use xlink:href="#DejaVuSans-65" transform="translate(1991.751953 0)"/>
      <use xlink:href="#DejaVuSans-20" transform="translate(2053.275391 0)"/>
      <use xlink:href="#DejaVuSans-63" transform="translate(2085.0625 0)"/>
      <use xlink:href="#DejaVuSans-65" transform="translate(2140.042969 0)"/>
      <use xlink:href="#DejaVuSans-6c" transform="translate(2201.566406 0)"/>
      <use xlink:href="#DejaVuSans-6c" transform="translate(2229.349609 0)"/>
      <use xlink:href="#DejaVuSans-73" transform="translate(2257.132812 0)"/>
     </g>
    </g>
    <g id="patch_235">
     <path d="M 462.6 330.042812 
L 482.6 330.042812 
L 482.6 323.042812 
L 462.6 323.042812 
z
" style="fill: #17becf"/>
    </g>
    <g id="text_37">
     <!-- hmc -->
     <g transform="translate(490.6 330.042812) scale(0.1 -0.1)">
      <use xlink:href="#DejaVuSans-68"/>
      <use xlink:href="#DejaVuSans-6d" transform="translate(63.378906 0)"/>
      <use xlink:href="#DejaVuSans-63" transform="translate(160.791016 0)"/>
     </g>
    </g>
    <g id="patch_236">
     <path d="M 462.6 344.720937 
L 482.6 344.720937 
L 482.6 337.720937 
L 462.6 337.720937 
z
" style="fill: #1f77b4"/>
    </g>
    <g id="text_38">
     <!-- vulval cells and the epidermis -->
     <g transform="translate(490.6 344.720937) scale(0.1 -0.1)">
      <use xlink:href="#DejaVuSans-76"/>
      <use xlink:href="#DejaVuSans-75" transform="translate(59.179688 0)"/>
      <use xlink:href="#DejaVuSans-6c" transform="translate(122.558594 0)"/>
      <use xlink:href="#DejaVuSans-76" transform="translate(150.341797 0)"/>
      <use xlink:href="#DejaVuSans-61" transform="translate(209.521484 0)"/>
      <use xlink:href="#DejaVuSans-6c" transform="translate(270.800781 0)"/>
      <use xlink:href="#DejaVuSans-20" transform="translate(298.583984 0)"/>
      <use xlink:href="#DejaVuSans-63" transform="translate(330.371094 0)"/>
      <use xlink:href="#DejaVuSans-65" transform="translate(385.351562 0)"/>
      <use xlink:href="#DejaVuSans-6c" transform="translate(446.875 0)"/>
      <use xlink:href="#DejaVuSans-6c" transform="translate(474.658203 0)"/>
      <use xlink:href="#DejaVuSans-73" transform="translate(502.441406 0)"/>
      <use xlink:href="#DejaVuSans-20" transform="translate(554.541016 0)"/>
      <use xlink:href="#DejaVuSans-61" transform="translate(586.328125 0)"/>
      <use xlink:href="#DejaVuSans-6e" transform="translate(647.607422 0)"/>
      <use xlink:href="#DejaVuSans-64" transform="translate(710.986328 0)"/>
      <use xlink:href="#DejaVuSans-20" transform="translate(774.462891 0)"/>
      <use xlink:href="#DejaVuSans-74" transform="translate(806.25 0)"/>
      <use xlink:href="#DejaVuSans-68" transform="translate(845.458984 0)"/>
      <use xlink:href="#DejaVuSans-65" transform="translate(908.837891 0)"/>
      <use xlink:href="#DejaVuSans-20" transform="translate(970.361328 0)"/>
      <use xlink:href="#DejaVuSans-65" transform="translate(1002.148438 0)"/>
      <use xlink:href="#DejaVuSans-70" transform="translate(1063.671875 0)"/>
      <use xlink:href="#DejaVuSans-69" transform="translate(1127.148438 0)"/>
      <use xlink:href="#DejaVuSans-64" transform="translate(1154.931641 0)"/>
      <use xlink:href="#DejaVuSans-65" transform="translate(1218.408203 0)"/>
      <use xlink:href="#DejaVuSans-72" transform="translate(1279.931641 0)"/>
      <use xlink:href="#DejaVuSans-6d" transform="translate(1319.294922 0)"/>
      <use xlink:href="#DejaVuSans-69" transform="translate(1416.707031 0)"/>
      <use xlink:href="#DejaVuSans-73" transform="translate(1444.490234 0)"/>
     </g>
    </g>
   </g>
  </g>
 </g>
 <defs>
  <clipPath id="pf141e64602">
   <rect x="63" y="34.56" width="390.6" height="221.76"/>
  </clipPath>
 </defs>
</svg>
