<?xml version="1.0" encoding="utf-8" standalone="no"?>
<!DOCTYPE svg PUBLIC "-//W3C//DTD SVG 1.1//EN"
  "http://www.w3.org/Graphics/SVG/1.1/DTD/svg11.dtd">
<svg xmlns:xlink="http://www.w3.org/1999/xlink" width="288pt" height="216pt" viewBox="0 0 288 216" xmlns="http://www.w3.org/2000/svg" version="1.1">
 <metadata>
  <rdf:RDF xmlns:dc="http://purl.org/dc/elements/1.1/" xmlns:cc="http://creativecommons.org/ns#" xmlns:rdf="http://www.w3.org/1999/02/22-rdf-syntax-ns#">
   <cc:Work>
    <dc:type rdf:resource="http://purl.org/dc/dcmitype/StillImage"/>
    <dc:date>2025-11-25T15:46:35.592378</dc:date>
    <dc:format>image/svg+xml</dc:format>
    <dc:creator>
     <cc:Agent>
      <dc:title>Matplotlib v3.10.0, https://matplotlib.org/</dc:title>
     </cc:Agent>
    </dc:creator>
   </cc:Work>
  </rdf:RDF>
 </metadata>
 <defs>
  <style type="text/css">*{stroke-linejoin: round; stroke-linecap: butt}</style>
 </defs>
 <g id="figure_1">
  <g id="patch_1">
   <path d="M 0 216 
L 288 216 
L 288 0 
L 0 0 
z
" style="fill: #ffffff"/>
  </g>
  <g id="axes_1">
   <g id="patch_2">
    <path d="M 36 192.24 
L 259.2 192.24 
L 259.2 25.92 
L 36 25.92 
z
" style="fill: #ffffff"/>
   </g>
   <g id="matplotlib.axis_1">
    <g id="xtick_1">
     <g id="text_1">
      <!-- D01 -->
      <g style="fill: #262626" transform="translate(46.078409 209.338437) scale(0.1 -0.1)">
       <defs>
        <path id="DejaVuSans-44" d="M 1259 4147 
L 1259 519 
L 2022 519 
Q 2988 519 3436 956 
Q 3884 1394 3884 2338 
Q 3884 3275 3436 3711 
Q 2988 4147 2022 4147 
L 1259 4147 
z
M 628 4666 
L 1925 4666 
Q 3281 4666 3915 4102 
Q 4550 3538 4550 2338 
Q 4550 1131 3912 565 
Q 3275 0 1925 0 
L 628 0 
L 628 4666 
z
" transform="scale(0.015625)"/>
        <path id="DejaVuSans-30" d="M 2034 4250 
Q 1547 4250 1301 3770 
Q 1056 3291 1056 2328 
Q 1056 1369 1301 889 
Q 1547 409 2034 409 
Q 2525 409 2770 889 
Q 3016 1369 3016 2328 
Q 3016 3291 2770 3770 
Q 2525 4250 2034 4250 
z
M 2034 4750 
Q 2819 4750 3233 4129 
Q 3647 3509 3647 2328 
Q 3647 1150 3233 529 
Q 2819 -91 2034 -91 
Q 1250 -91 836 529 
Q 422 1150 422 2328 
Q 422 3509 836 4129 
Q 1250 4750 2034 4750 
z
" transform="scale(0.015625)"/>
        <path id="DejaVuSans-31" d="M 794 531 
L 1825 531 
L 1825 4091 
L 703 3866 
L 703 4441 
L 1819 4666 
L 2450 4666 
L 2450 531 
L 3481 531 
L 3481 0 
L 794 0 
L 794 531 
z
" transform="scale(0.015625)"/>
       </defs>
       <use xlink:href="#DejaVuSans-44"/>
       <use xlink:href="#DejaVuSans-30" transform="translate(77.001953 0)"/>
       <use xlink:href="#DejaVuSans-31" transform="translate(140.625 0)"/>
      </g>
     </g>
    </g>
    <g id="xtick_2">
     <g id="text_2">
      <!-- D02 -->
      <g style="fill: #262626" transform="translate(66.369318 209.338437) scale(0.1 -0.1)">
       <defs>
        <path id="DejaVuSans-32" d="M 1228 531 
L 3431 531 
L 3431 0 
L 469 0 
L 469 531 
Q 828 903 1448 1529 
Q 2069 2156 2228 2338 
Q 2531 2678 2651 2914 
Q 2772 3150 2772 3378 
Q 2772 3750 2511 3984 
Q 2250 4219 1831 4219 
Q 1534 4219 1204 4116 
Q 875 4013 500 3803 
L 500 4441 
Q 881 4594 1212 4672 
Q 1544 4750 1819 4750 
Q 2544 4750 2975 4387 
Q 3406 4025 3406 3419 
Q 3406 3131 3298 2873 
Q 3191 2616 2906 2266 
Q 2828 2175 2409 1742 
Q 1991 1309 1228 531 
z
" transform="scale(0.015625)"/>
       </defs>
       <use xlink:href="#DejaVuSans-44"/>
       <use xlink:href="#DejaVuSans-30" transform="translate(77.001953 0)"/>
       <use xlink:href="#DejaVuSans-32" transform="translate(140.625 0)"/>
      </g>
     </g>
    </g>
    <g id="xtick_3">
     <g id="text_3">
      <!-- D03 -->
      <g style="fill: #262626" transform="translate(86.660227 209.338437) scale(0.1 -0.1)">
       <defs>
        <path id="DejaVuSans-33" d="M 2597 2516 
Q 3050 2419 3304 2112 
Q 3559 1806 3559 1356 
Q 3559 666 3084 287 
Q 2609 -91 1734 -91 
Q 1441 -91 1130 -33 
Q 819 25 488 141 
L 488 750 
Q 750 597 1062 519 
Q 1375 441 1716 441 
Q 2309 441 2620 675 
Q 2931 909 2931 1356 
Q 2931 1769 2642 2001 
Q 2353 2234 1838 2234 
L 1294 2234 
L 1294 2753 
L 1863 2753 
Q 2328 2753 2575 2939 
Q 2822 3125 2822 3475 
Q 2822 3834 2567 4026 
Q 2313 4219 1838 4219 
Q 1578 4219 1281 4162 
Q 984 4106 628 3988 
L 628 4550 
Q 988 4650 1302 4700 
Q 1616 4750 1894 4750 
Q 2613 4750 3031 4423 
Q 3450 4097 3450 3541 
Q 3450 3153 3228 2886 
Q 3006 2619 2597 2516 
z
" transform="scale(0.015625)"/>
       </defs>
       <use xlink:href="#DejaVuSans-44"/>
       <use xlink:href="#DejaVuSans-30" transform="translate(77.001953 0)"/>
       <use xlink:href="#DejaVuSans-33" transform="translate(140.625 0)"/>
      </g>
     </g>
    </g>
    <g id="xtick_4">
     <g id="text_4">
      <!-- D04 -->
      <g style="fill: #262626" transform="translate(106.951136 209.338437) scale(0.1 -0.1)">
       <defs>
        <path id="DejaVuSans-34" d="M 2419 4116 
L 825 1625 
L 2419 1625 
L 2419 4116 
z
M 2253 4666 
L 3047 4666 
L 3047 1625 
L 3713 1625 
L 3713 1100 
L 3047 1100 
L 3047 0 
L 2419 0 
L 2419 1100 
L 313 1100 
L 313 1709 
L 2253 4666 
z
" transform="scale(0.015625)"/>
       </defs>
       <use xlink:href="#DejaVuSans-44"/>
       <use xlink:href="#DejaVuSans-30" transform="translate(77.001953 0)"/>
       <use xlink:href="#DejaVuSans-34" transform="translate(140.625 0)"/>
      </g>
     </g>
    </g>
    <g id="xtick_5">
     <g id="text_5">
      <!-- D05 -->
      <g style="fill: #262626" transform="translate(127.242045 209.338437) scale(0.1 -0.1)">
       <defs>
        <path id="DejaVuSans-35" d="M 691 4666 
L 3169 4666 
L 3169 4134 
L 1269 4134 
L 1269 2991 
Q 1406 3038 1543 3061 
Q 1681 3084 1819 3084 
Q 2600 3084 3056 2656 
Q 3513 2228 3513 1497 
Q 3513 744 3044 326 
Q 2575 -91 1722 -91 
Q 1428 -91 1123 -41 
Q 819 9 494 109 
L 494 744 
Q 775 591 1075 516 
Q 1375 441 1709 441 
Q 2250 441 2565 725 
Q 2881 1009 2881 1497 
Q 2881 1984 2565 2268 
Q 2250 2553 1709 2553 
Q 1456 2553 1204 2497 
Q 953 2441 691 2322 
L 691 4666 
z
" transform="scale(0.015625)"/>
       </defs>
       <use xlink:href="#DejaVuSans-44"/>
       <use xlink:href="#DejaVuSans-30" transform="translate(77.001953 0)"/>
       <use xlink:href="#DejaVuSans-35" transform="translate(140.625 0)"/>
      </g>
     </g>
    </g>
    <g id="xtick_6">
     <g id="text_6">
      <!-- D06 -->
      <g style="fill: #262626" transform="translate(147.532955 209.338437) scale(0.1 -0.1)">
       <defs>
        <path id="DejaVuSans-36" d="M 2113 2584 
Q 1688 2584 1439 2293 
Q 1191 2003 1191 1497 
Q 1191 994 1439 701 
Q 1688 409 2113 409 
Q 2538 409 2786 701 
Q 3034 994 3034 1497 
Q 3034 2003 2786 2293 
Q 2538 2584 2113 2584 
z
M 3366 4563 
L 3366 3988 
Q 3128 4100 2886 4159 
Q 2644 4219 2406 4219 
Q 1781 4219 1451 3797 
Q 1122 3375 1075 2522 
Q 1259 2794 1537 2939 
Q 1816 3084 2150 3084 
Q 2853 3084 3261 2657 
Q 3669 2231 3669 1497 
Q 3669 778 3244 343 
Q 2819 -91 2113 -91 
Q 1303 -91 875 529 
Q 447 1150 447 2328 
Q 447 3434 972 4092 
Q 1497 4750 2381 4750 
Q 2619 4750 2861 4703 
Q 3103 4656 3366 4563 
z
" transform="scale(0.015625)"/>
       </defs>
       <use xlink:href="#DejaVuSans-44"/>
       <use xlink:href="#DejaVuSans-30" transform="translate(77.001953 0)"/>
       <use xlink:href="#DejaVuSans-36" transform="translate(140.625 0)"/>
      </g>
     </g>
    </g>
    <g id="xtick_7">
     <g id="text_7">
      <!-- D07 -->
      <g style="fill: #262626" transform="translate(167.823864 209.338437) scale(0.1 -0.1)">
       <defs>
        <path id="DejaVuSans-37" d="M 525 4666 
L 3525 4666 
L 3525 4397 
L 1831 0 
L 1172 0 
L 2766 4134 
L 525 4134 
L 525 4666 
z
" transform="scale(0.015625)"/>
       </defs>
       <use xlink:href="#DejaVuSans-44"/>
       <use xlink:href="#DejaVuSans-30" transform="translate(77.001953 0)"/>
       <use xlink:href="#DejaVuSans-37" transform="translate(140.625 0)"/>
      </g>
     </g>
    </g>
    <g id="xtick_8">
     <g id="text_8">
      <!-- D08 -->
      <g style="fill: #262626" transform="translate(188.114773 209.338437) scale(0.1 -0.1)">
       <defs>
        <path id="DejaVuSans-38" d="M 2034 2216 
Q 1584 2216 1326 1975 
Q 1069 1734 1069 1313 
Q 1069 891 1326 650 
Q 1584 409 2034 409 
Q 2484 409 2743 651 
Q 3003 894 3003 1313 
Q 3003 1734 2745 1975 
Q 2488 2216 2034 2216 
z
M 1403 2484 
Q 997 2584 770 2862 
Q 544 3141 544 3541 
Q 544 4100 942 4425 
Q 1341 4750 2034 4750 
Q 2731 4750 3128 4425 
Q 3525 4100 3525 3541 
Q 3525 3141 3298 2862 
Q 3072 2584 2669 2484 
Q 3125 2378 3379 2068 
Q 3634 1759 3634 1313 
Q 3634 634 3220 271 
Q 2806 -91 2034 -91 
Q 1263 -91 848 271 
Q 434 634 434 1313 
Q 434 1759 690 2068 
Q 947 2378 1403 2484 
z
M 1172 3481 
Q 1172 3119 1398 2916 
Q 1625 2713 2034 2713 
Q 2441 2713 2670 2916 
Q 2900 3119 2900 3481 
Q 2900 3844 2670 4047 
Q 2441 4250 2034 4250 
Q 1625 4250 1398 4047 
Q 1172 3844 1172 3481 
z
" transform="scale(0.015625)"/>
       </defs>
       <use xlink:href="#DejaVuSans-44"/>
       <use xlink:href="#DejaVuSans-30" transform="translate(77.001953 0)"/>
       <use xlink:href="#DejaVuSans-38" transform="translate(140.625 0)"/>
      </g>
     </g>
    </g>
    <g id="xtick_9">
     <g id="text_9">
      <!-- D09 -->
      <g style="fill: #262626" transform="translate(208.405682 209.338437) scale(0.1 -0.1)">
       <defs>
        <path id="DejaVuSans-39" d="M 703 97 
L 703 672 
Q 941 559 1184 500 
Q 1428 441 1663 441 
Q 2288 441 2617 861 
Q 2947 1281 2994 2138 
Q 2813 1869 2534 1725 
Q 2256 1581 1919 1581 
Q 1219 1581 811 2004 
Q 403 2428 403 3163 
Q 403 3881 828 4315 
Q 1253 4750 1959 4750 
Q 2769 4750 3195 4129 
Q 3622 3509 3622 2328 
Q 3622 1225 3098 567 
Q 2575 -91 1691 -91 
Q 1453 -91 1209 -44 
Q 966 3 703 97 
z
M 1959 2075 
Q 2384 2075 2632 2365 
Q 2881 2656 2881 3163 
Q 2881 3666 2632 3958 
Q 2384 4250 1959 4250 
Q 1534 4250 1286 3958 
Q 1038 3666 1038 3163 
Q 1038 2656 1286 2365 
Q 1534 2075 1959 2075 
z
" transform="scale(0.015625)"/>
       </defs>
       <use xlink:href="#DejaVuSans-44"/>
       <use xlink:href="#DejaVuSans-30" transform="translate(77.001953 0)"/>
       <use xlink:href="#DejaVuSans-39" transform="translate(140.625 0)"/>
      </g>
     </g>
    </g>
    <g id="xtick_10">
     <g id="text_10">
      <!-- D10 -->
      <g style="fill: #262626" transform="translate(228.696591 209.338437) scale(0.1 -0.1)">
       <use xlink:href="#DejaVuSans-44"/>
       <use xlink:href="#DejaVuSans-31" transform="translate(77.001953 0)"/>
       <use xlink:href="#DejaVuSans-30" transform="translate(140.625 0)"/>
      </g>
     </g>
    </g>
    <g id="text_11">
     <!-- Day -->
     <g style="fill: #262626" transform="translate(135.751875 224.53625) scale(0.12 -0.12)">
      <defs>
       <path id="DejaVuSans-61" d="M 2194 1759 
Q 1497 1759 1228 1600 
Q 959 1441 959 1056 
Q 959 750 1161 570 
Q 1363 391 1709 391 
Q 2188 391 2477 730 
Q 2766 1069 2766 1631 
L 2766 1759 
L 2194 1759 
z
M 3341 1997 
L 3341 0 
L 2766 0 
L 2766 531 
Q 2569 213 2275 61 
Q 1981 -91 1556 -91 
Q 1019 -91 701 211 
Q 384 513 384 1019 
Q 384 1609 779 1909 
Q 1175 2209 1959 2209 
L 2766 2209 
L 2766 2266 
Q 2766 2663 2505 2880 
Q 2244 3097 1772 3097 
Q 1472 3097 1187 3025 
Q 903 2953 641 2809 
L 641 3341 
Q 956 3463 1253 3523 
Q 1550 3584 1831 3584 
Q 2591 3584 2966 3190 
Q 3341 2797 3341 1997 
z
" transform="scale(0.015625)"/>
       <path id="DejaVuSans-79" d="M 2059 -325 
Q 1816 -950 1584 -1140 
Q 1353 -1331 966 -1331 
L 506 -1331 
L 506 -850 
L 844 -850 
Q 1081 -850 1212 -737 
Q 1344 -625 1503 -206 
L 1606 56 
L 191 3500 
L 800 3500 
L 1894 763 
L 2988 3500 
L 3597 3500 
L 2059 -325 
z
" transform="scale(0.015625)"/>
      </defs>
      <use xlink:href="#DejaVuSans-44"/>
      <use xlink:href="#DejaVuSans-61" transform="translate(77.001953 0)"/>
      <use xlink:href="#DejaVuSans-79" transform="translate(138.28125 0)"/>
     </g>
    </g>
   </g>
   <g id="matplotlib.axis_2">
    <g id="ytick_1">
     <g id="line2d_1">
      <path d="M 36 192.24 
L 259.2 192.24 
" clip-path="url(#p038718672c)" style="fill: none; stroke: #cccccc; stroke-linecap: round"/>
     </g>
     <g id="text_12">
      <!-- 0.0 -->
      <g style="fill: #262626" transform="translate(10.596875 196.039219) scale(0.1 -0.1)">
       <defs>
        <path id="DejaVuSans-2e" d="M 684 794 
L 1344 794 
L 1344 0 
L 684 0 
L 684 794 
z
" transform="scale(0.015625)"/>
       </defs>
       <use xlink:href="#DejaVuSans-30"/>
       <use xlink:href="#DejaVuSans-2e" transform="translate(63.623047 0)"/>
       <use xlink:href="#DejaVuSans-30" transform="translate(95.410156 0)"/>
      </g>
     </g>
    </g>
    <g id="ytick_2">
     <g id="line2d_2">
      <path d="M 36 158.976 
L 259.2 158.976 
" clip-path="url(#p038718672c)" style="fill: none; stroke: #cccccc; stroke-linecap: round"/>
     </g>
     <g id="text_13">
      <!-- 0.2 -->
      <g style="fill: #262626" transform="translate(10.596875 162.775219) scale(0.1 -0.1)">
       <use xlink:href="#DejaVuSans-30"/>
       <use xlink:href="#DejaVuSans-2e" transform="translate(63.623047 0)"/>
       <use xlink:href="#DejaVuSans-32" transform="translate(95.410156 0)"/>
      </g>
     </g>
    </g>
    <g id="ytick_3">
     <g id="line2d_3">
      <path d="M 36 125.712 
L 259.2 125.712 
" clip-path="url(#p038718672c)" style="fill: none; stroke: #cccccc; stroke-linecap: round"/>
     </g>
     <g id="text_14">
      <!-- 0.4 -->
      <g style="fill: #262626" transform="translate(10.596875 129.511219) scale(0.1 -0.1)">
       <use xlink:href="#DejaVuSans-30"/>
       <use xlink:href="#DejaVuSans-2e" transform="translate(63.623047 0)"/>
       <use xlink:href="#DejaVuSans-34" transform="translate(95.410156 0)"/>
      </g>
     </g>
    </g>
    <g id="ytick_4">
     <g id="line2d_4">
      <path d="M 36 92.448 
L 259.2 92.448 
" clip-path="url(#p038718672c)" style="fill: none; stroke: #cccccc; stroke-linecap: round"/>
     </g>
     <g id="text_15">
      <!-- 0.6 -->
      <g style="fill: #262626" transform="translate(10.596875 96.247219) scale(0.1 -0.1)">
       <use xlink:href="#DejaVuSans-30"/>
       <use xlink:href="#DejaVuSans-2e" transform="translate(63.623047 0)"/>
       <use xlink:href="#DejaVuSans-36" transform="translate(95.410156 0)"/>
      </g>
     </g>
    </g>
    <g id="ytick_5">
     <g id="line2d_5">
      <path d="M 36 59.184 
L 259.2 59.184 
" clip-path="url(#p038718672c)" style="fill: none; stroke: #cccccc; stroke-linecap: round"/>
     </g>
     <g id="text_16">
      <!-- 0.8 -->
      <g style="fill: #262626" transform="translate(10.596875 62.983219) scale(0.1 -0.1)">
       <use xlink:href="#DejaVuSans-30"/>
       <use xlink:href="#DejaVuSans-2e" transform="translate(63.623047 0)"/>
       <use xlink:href="#DejaVuSans-38" transform="translate(95.410156 0)"/>
      </g>
     </g>
    </g>
    <g id="ytick_6">
     <g id="line2d_6">
      <path d="M 36 25.92 
L 259.2 25.92 
" clip-path="url(#p038718672c)" style="fill: none; stroke: #cccccc; stroke-linecap: round"/>
     </g>
     <g id="text_17">
      <!-- 1.0 -->
      <g style="fill: #262626" transform="translate(10.596875 29.719219) scale(0.1 -0.1)">
       <use xlink:href="#DejaVuSans-31"/>
       <use xlink:href="#DejaVuSans-2e" transform="translate(63.623047 0)"/>
       <use xlink:href="#DejaVuSans-30" transform="translate(95.410156 0)"/>
      </g>
     </g>
    </g>
    <g id="text_18">
     <!-- Spearman corr. -->
     <g style="fill: #262626" transform="translate(4.10125 154.816875) rotate(-90) scale(0.12 -0.12)">
      <defs>
       <path id="DejaVuSans-53" d="M 3425 4513 
L 3425 3897 
Q 3066 4069 2747 4153 
Q 2428 4238 2131 4238 
Q 1616 4238 1336 4038 
Q 1056 3838 1056 3469 
Q 1056 3159 1242 3001 
Q 1428 2844 1947 2747 
L 2328 2669 
Q 3034 2534 3370 2195 
Q 3706 1856 3706 1288 
Q 3706 609 3251 259 
Q 2797 -91 1919 -91 
Q 1588 -91 1214 -16 
Q 841 59 441 206 
L 441 856 
Q 825 641 1194 531 
Q 1563 422 1919 422 
Q 2459 422 2753 634 
Q 3047 847 3047 1241 
Q 3047 1584 2836 1778 
Q 2625 1972 2144 2069 
L 1759 2144 
Q 1053 2284 737 2584 
Q 422 2884 422 3419 
Q 422 4038 858 4394 
Q 1294 4750 2059 4750 
Q 2388 4750 2728 4690 
Q 3069 4631 3425 4513 
z
" transform="scale(0.015625)"/>
       <path id="DejaVuSans-70" d="M 1159 525 
L 1159 -1331 
L 581 -1331 
L 581 3500 
L 1159 3500 
L 1159 2969 
Q 1341 3281 1617 3432 
Q 1894 3584 2278 3584 
Q 2916 3584 3314 3078 
Q 3713 2572 3713 1747 
Q 3713 922 3314 415 
Q 2916 -91 2278 -91 
Q 1894 -91 1617 61 
Q 1341 213 1159 525 
z
M 3116 1747 
Q 3116 2381 2855 2742 
Q 2594 3103 2138 3103 
Q 1681 3103 1420 2742 
Q 1159 2381 1159 1747 
Q 1159 1113 1420 752 
Q 1681 391 2138 391 
Q 2594 391 2855 752 
Q 3116 1113 3116 1747 
z
" transform="scale(0.015625)"/>
       <path id="DejaVuSans-65" d="M 3597 1894 
L 3597 1613 
L 953 1613 
Q 991 1019 1311 708 
Q 1631 397 2203 397 
Q 2534 397 2845 478 
Q 3156 559 3463 722 
L 3463 178 
Q 3153 47 2828 -22 
Q 2503 -91 2169 -91 
Q 1331 -91 842 396 
Q 353 884 353 1716 
Q 353 2575 817 3079 
Q 1281 3584 2069 3584 
Q 2775 3584 3186 3129 
Q 3597 2675 3597 1894 
z
M 3022 2063 
Q 3016 2534 2758 2815 
Q 2500 3097 2075 3097 
Q 1594 3097 1305 2825 
Q 1016 2553 972 2059 
L 3022 2063 
z
" transform="scale(0.015625)"/>
       <path id="DejaVuSans-72" d="M 2631 2963 
Q 2534 3019 2420 3045 
Q 2306 3072 2169 3072 
Q 1681 3072 1420 2755 
Q 1159 2438 1159 1844 
L 1159 0 
L 581 0 
L 581 3500 
L 1159 3500 
L 1159 2956 
Q 1341 3275 1631 3429 
Q 1922 3584 2338 3584 
Q 2397 3584 2469 3576 
Q 2541 3569 2628 3553 
L 2631 2963 
z
" transform="scale(0.015625)"/>
       <path id="DejaVuSans-6d" d="M 3328 2828 
Q 3544 3216 3844 3400 
Q 4144 3584 4550 3584 
Q 5097 3584 5394 3201 
Q 5691 2819 5691 2113 
L 5691 0 
L 5113 0 
L 5113 2094 
Q 5113 2597 4934 2840 
Q 4756 3084 4391 3084 
Q 3944 3084 3684 2787 
Q 3425 2491 3425 1978 
L 3425 0 
L 2847 0 
L 2847 2094 
Q 2847 2600 2669 2842 
Q 2491 3084 2119 3084 
Q 1678 3084 1418 2786 
Q 1159 2488 1159 1978 
L 1159 0 
L 581 0 
L 581 3500 
L 1159 3500 
L 1159 2956 
Q 1356 3278 1631 3431 
Q 1906 3584 2284 3584 
Q 2666 3584 2933 3390 
Q 3200 3197 3328 2828 
z
" transform="scale(0.015625)"/>
       <path id="DejaVuSans-6e" d="M 3513 2113 
L 3513 0 
L 2938 0 
L 2938 2094 
Q 2938 2591 2744 2837 
Q 2550 3084 2163 3084 
Q 1697 3084 1428 2787 
Q 1159 2491 1159 1978 
L 1159 0 
L 581 0 
L 581 3500 
L 1159 3500 
L 1159 2956 
Q 1366 3272 1645 3428 
Q 1925 3584 2291 3584 
Q 2894 3584 3203 3211 
Q 3513 2838 3513 2113 
z
" transform="scale(0.015625)"/>
       <path id="DejaVuSans-20" transform="scale(0.015625)"/>
       <path id="DejaVuSans-63" d="M 3122 3366 
L 3122 2828 
Q 2878 2963 2633 3030 
Q 2388 3097 2138 3097 
Q 1578 3097 1268 2742 
Q 959 2388 959 1747 
Q 959 1106 1268 751 
Q 1578 397 2138 397 
Q 2388 397 2633 464 
Q 2878 531 3122 666 
L 3122 134 
Q 2881 22 2623 -34 
Q 2366 -91 2075 -91 
Q 1284 -91 818 406 
Q 353 903 353 1747 
Q 353 2603 823 3093 
Q 1294 3584 2113 3584 
Q 2378 3584 2631 3529 
Q 2884 3475 3122 3366 
z
" transform="scale(0.015625)"/>
       <path id="DejaVuSans-6f" d="M 1959 3097 
Q 1497 3097 1228 2736 
Q 959 2375 959 1747 
Q 959 1119 1226 758 
Q 1494 397 1959 397 
Q 2419 397 2687 759 
Q 2956 1122 2956 1747 
Q 2956 2369 2687 2733 
Q 2419 3097 1959 3097 
z
M 1959 3584 
Q 2709 3584 3137 3096 
Q 3566 2609 3566 1747 
Q 3566 888 3137 398 
Q 2709 -91 1959 -91 
Q 1206 -91 779 398 
Q 353 888 353 1747 
Q 353 2609 779 3096 
Q 1206 3584 1959 3584 
z
" transform="scale(0.015625)"/>
      </defs>
      <use xlink:href="#DejaVuSans-53"/>
      <use xlink:href="#DejaVuSans-70" transform="translate(63.476562 0)"/>
      <use xlink:href="#DejaVuSans-65" transform="translate(126.953125 0)"/>
      <use xlink:href="#DejaVuSans-61" transform="translate(188.476562 0)"/>
      <use xlink:href="#DejaVuSans-72" transform="translate(249.755859 0)"/>
      <use xlink:href="#DejaVuSans-6d" transform="translate(289.119141 0)"/>
      <use xlink:href="#DejaVuSans-61" transform="translate(386.53125 0)"/>
      <use xlink:href="#DejaVuSans-6e" transform="translate(447.810547 0)"/>
      <use xlink:href="#DejaVuSans-20" transform="translate(511.189453 0)"/>
      <use xlink:href="#DejaVuSans-63" transform="translate(542.976562 0)"/>
      <use xlink:href="#DejaVuSans-6f" transform="translate(597.957031 0)"/>
      <use xlink:href="#DejaVuSans-72" transform="translate(659.138672 0)"/>
      <use xlink:href="#DejaVuSans-72" transform="translate(698.501953 0)"/>
      <use xlink:href="#DejaVuSans-2e" transform="translate(730.490234 0)"/>
     </g>
    </g>
   </g>
   <g id="FillBetweenPolyCollection_1">
    <defs>
     <path id="m4ecd35455e" d="M 56.348881 -145.258025 
L 56.232937 -145.258025 
L 56.211523 -145.747872 
L 56.184169 -146.23772 
L 56.14996 -146.727567 
L 56.108087 -147.217415 
L 56.057929 -147.707262 
L 55.999142 -148.197109 
L 55.931745 -148.686957 
L 55.856184 -149.176804 
L 55.773367 -149.666651 
L 55.68466 -150.156499 
L 55.591832 -150.646346 
L 55.496953 -151.136193 
L 55.402251 -151.626041 
L 55.309929 -152.115888 
L 55.221983 -152.605735 
L 55.140025 -153.095583 
L 55.065144 -153.58543 
L 54.997834 -154.075278 
L 54.937998 -154.565125 
L 54.885037 -155.054972 
L 54.838012 -155.54482 
L 54.795873 -156.034667 
L 54.7577 -156.524514 
L 54.722937 -157.014362 
L 54.691571 -157.504209 
L 54.664224 -157.994056 
L 54.64213 -158.483904 
L 54.627017 -158.973751 
L 54.620873 -159.463598 
L 54.625659 -159.953446 
L 54.642993 -160.443293 
L 54.673847 -160.93314 
L 54.718313 -161.422988 
L 54.77545 -161.912835 
L 54.843229 -162.402683 
L 54.918589 -162.89253 
L 54.997561 -163.382377 
L 55.075461 -163.872225 
L 55.147109 -164.362072 
L 55.207055 -164.851919 
L 55.249797 -165.341767 
L 55.269977 -165.831614 
L 55.26255 -166.321461 
L 55.222944 -166.811309 
L 55.147195 -167.301156 
L 55.032081 -167.791003 
L 54.875236 -168.280851 
L 54.675261 -168.770698 
L 54.431815 -169.260546 
L 54.145682 -169.750393 
L 53.818824 -170.24024 
L 53.454391 -170.730088 
L 53.056716 -171.219935 
L 52.631271 -171.709782 
L 52.184594 -172.19963 
L 51.724171 -172.689477 
L 51.258284 -173.179324 
L 50.795803 -173.669172 
L 50.345936 -174.159019 
L 49.917938 -174.648866 
L 49.520794 -175.138714 
L 49.162899 -175.628561 
L 48.851768 -176.118409 
L 48.593789 -176.608256 
L 48.394057 -177.098103 
L 48.256283 -177.587951 
L 48.182787 -178.077798 
L 48.174545 -178.567645 
L 48.231287 -179.057493 
L 48.351588 -179.54734 
L 48.532964 -180.037187 
L 48.771927 -180.527035 
L 49.064025 -181.016882 
L 49.403865 -181.506729 
L 49.785147 -181.996577 
L 50.200734 -182.486424 
L 50.642774 -182.976271 
L 51.102893 -183.466119 
L 51.572448 -183.955966 
L 52.042837 -184.445814 
L 52.505826 -184.935661 
L 52.953867 -185.425508 
L 53.380384 -185.915356 
L 53.779986 -186.405203 
L 54.148598 -186.89505 
L 54.483501 -187.384898 
L 54.783297 -187.874745 
L 55.047788 -188.364592 
L 55.277816 -188.85444 
L 55.475065 -189.344287 
L 55.64185 -189.834134 
L 55.78092 -190.323982 
L 55.895266 -190.813829 
L 55.987963 -191.303677 
L 56.06204 -191.793524 
L 56.120382 -192.283371 
L 56.16565 -192.773219 
L 56.200242 -193.263066 
L 56.226264 -193.752913 
L 56.355554 -193.752913 
L 56.355554 -193.752913 
L 56.381577 -193.263066 
L 56.416169 -192.773219 
L 56.461437 -192.283371 
L 56.519778 -191.793524 
L 56.593856 -191.303677 
L 56.686552 -190.813829 
L 56.800898 -190.323982 
L 56.939968 -189.834134 
L 57.106754 -189.344287 
L 57.304002 -188.85444 
L 57.53403 -188.364592 
L 57.798521 -187.874745 
L 58.098317 -187.384898 
L 58.43322 -186.89505 
L 58.801832 -186.405203 
L 59.201434 -185.915356 
L 59.627951 -185.425508 
L 60.075992 -184.935661 
L 60.538981 -184.445814 
L 61.00937 -183.955966 
L 61.478925 -183.466119 
L 61.939044 -182.976271 
L 62.381084 -182.486424 
L 62.796671 -181.996577 
L 63.177954 -181.506729 
L 63.517794 -181.016882 
L 63.809891 -180.527035 
L 64.048854 -180.037187 
L 64.23023 -179.54734 
L 64.350531 -179.057493 
L 64.407273 -178.567645 
L 64.399031 -178.077798 
L 64.325535 -177.587951 
L 64.187761 -177.098103 
L 63.988029 -176.608256 
L 63.730051 -176.118409 
L 63.418919 -175.628561 
L 63.061024 -175.138714 
L 62.66388 -174.648866 
L 62.235882 -174.159019 
L 61.786015 -173.669172 
L 61.323534 -173.179324 
L 60.857647 -172.689477 
L 60.397225 -172.19963 
L 59.950547 -171.709782 
L 59.525102 -171.219935 
L 59.127427 -170.730088 
L 58.762994 -170.24024 
L 58.436136 -169.750393 
L 58.150003 -169.260546 
L 57.906557 -168.770698 
L 57.706582 -168.280851 
L 57.549737 -167.791003 
L 57.434623 -167.301156 
L 57.358874 -166.811309 
L 57.319268 -166.321461 
L 57.311841 -165.831614 
L 57.332021 -165.341767 
L 57.374763 -164.851919 
L 57.434709 -164.362072 
L 57.506357 -163.872225 
L 57.584257 -163.382377 
L 57.663229 -162.89253 
L 57.738589 -162.402683 
L 57.806369 -161.912835 
L 57.863505 -161.422988 
L 57.907971 -160.93314 
L 57.938825 -160.443293 
L 57.956159 -159.953446 
L 57.960945 -159.463598 
L 57.954801 -158.973751 
L 57.939688 -158.483904 
L 57.917595 -157.994056 
L 57.890247 -157.504209 
L 57.858881 -157.014362 
L 57.824119 -156.524514 
L 57.785945 -156.034667 
L 57.743806 -155.54482 
L 57.696782 -155.054972 
L 57.64382 -154.565125 
L 57.583984 -154.075278 
L 57.516674 -153.58543 
L 57.441793 -153.095583 
L 57.359835 -152.605735 
L 57.27189 -152.115888 
L 57.179568 -151.626041 
L 57.084865 -151.136193 
L 56.989986 -150.646346 
L 56.897158 -150.156499 
L 56.808451 -149.666651 
L 56.725635 -149.176804 
L 56.650074 -148.686957 
L 56.582676 -148.197109 
L 56.523889 -147.707262 
L 56.473731 -147.217415 
L 56.431858 -146.727567 
L 56.39765 -146.23772 
L 56.370295 -145.747872 
L 56.348881 -145.258025 
z
" style="stroke: #2c2c2c; stroke-width: 1.5"/>
    </defs>
    <g clip-path="url(#p038718672c)">
     <use xlink:href="#m4ecd35455e" x="0" y="216" style="fill: #492c68; stroke: #2c2c2c; stroke-width: 1.5"/>
    </g>
   </g>
   <g id="FillBetweenPolyCollection_2">
    <defs>
     <path id="m36f236b1d4" d="M 76.67036 -155.353024 
L 76.493276 -155.353024 
L 76.462997 -155.724166 
L 76.424785 -156.095309 
L 76.37733 -156.466451 
L 76.3193 -156.837594 
L 76.249381 -157.208737 
L 76.16632 -157.579879 
L 76.06897 -157.951022 
L 75.956344 -158.322164 
L 75.827666 -158.693307 
L 75.682438 -159.06445 
L 75.520513 -159.435592 
L 75.342177 -159.806735 
L 75.148234 -160.177877 
L 74.94009 -160.54902 
L 74.719815 -160.920163 
L 74.490169 -161.291305 
L 74.254579 -161.662448 
L 74.017041 -162.033591 
L 73.781956 -162.404733 
L 73.553881 -162.775876 
L 73.337222 -163.147018 
L 73.135892 -163.518161 
L 72.95296 -163.889304 
L 72.790328 -164.260446 
L 72.648486 -164.631589 
L 72.526362 -165.002731 
L 72.421301 -165.373874 
L 72.329173 -165.745017 
L 72.24462 -166.116159 
L 72.161408 -166.487302 
L 72.072875 -166.858444 
L 71.972425 -167.229587 
L 71.854041 -167.60073 
L 71.712769 -167.971872 
L 71.545139 -168.343015 
L 71.349493 -168.714158 
L 71.126188 -169.0853 
L 70.877662 -169.456443 
L 70.608351 -169.827585 
L 70.324472 -170.198728 
L 70.033672 -170.569871 
L 69.744594 -170.941013 
L 69.466366 -171.312156 
L 69.208079 -171.683298 
L 68.978268 -172.054441 
L 68.78446 -172.425584 
L 68.632778 -172.796726 
L 68.527662 -173.167869 
L 68.47168 -173.539011 
L 68.465455 -173.910154 
L 68.507691 -174.281297 
L 68.595308 -174.652439 
L 68.723659 -175.023582 
L 68.886833 -175.394724 
L 69.078029 -175.765867 
L 69.289988 -176.13701 
L 69.515445 -176.508152 
L 69.747586 -176.879295 
L 69.980477 -177.250438 
L 70.209408 -177.62158 
L 70.431142 -177.992723 
L 70.644026 -178.363865 
L 70.847957 -178.735008 
L 71.044205 -179.106151 
L 71.235114 -179.477293 
L 71.423707 -179.848436 
L 71.613251 -180.219578 
L 71.806823 -180.590721 
L 72.00693 -180.961864 
L 72.215219 -181.333006 
L 72.432305 -181.704149 
L 72.657737 -182.075291 
L 72.890072 -182.446434 
L 73.127074 -182.817577 
L 73.365967 -183.188719 
L 73.603738 -183.559862 
L 73.837424 -183.931005 
L 74.064367 -184.302147 
L 74.282404 -184.67329 
L 74.489972 -185.044432 
L 74.686131 -185.415575 
L 74.870514 -185.786718 
L 75.043213 -186.15786 
L 75.204638 -186.529003 
L 75.355358 -186.900145 
L 75.495967 -187.271288 
L 75.626969 -187.642431 
L 75.748717 -188.013573 
L 75.861395 -188.384716 
L 75.965036 -188.755858 
L 76.059578 -189.127001 
L 76.144931 -189.498144 
L 76.221049 -189.869286 
L 76.287996 -190.240429 
L 76.34598 -190.611572 
L 76.395382 -190.982714 
L 76.436745 -191.353857 
L 76.470757 -191.724999 
L 76.498205 -192.096142 
L 76.665431 -192.096142 
L 76.665431 -192.096142 
L 76.692879 -191.724999 
L 76.726891 -191.353857 
L 76.768255 -190.982714 
L 76.817657 -190.611572 
L 76.875641 -190.240429 
L 76.942587 -189.869286 
L 77.018706 -189.498144 
L 77.104059 -189.127001 
L 77.1986 -188.755858 
L 77.302241 -188.384716 
L 77.414919 -188.013573 
L 77.536667 -187.642431 
L 77.667669 -187.271288 
L 77.808278 -186.900145 
L 77.958999 -186.529003 
L 78.120424 -186.15786 
L 78.293123 -185.786718 
L 78.477505 -185.415575 
L 78.673664 -185.044432 
L 78.881232 -184.67329 
L 79.099269 -184.302147 
L 79.326212 -183.931005 
L 79.559898 -183.559862 
L 79.797669 -183.188719 
L 80.036562 -182.817577 
L 80.273564 -182.446434 
L 80.5059 -182.075291 
L 80.731331 -181.704149 
L 80.948418 -181.333006 
L 81.156706 -180.961864 
L 81.356813 -180.590721 
L 81.550385 -180.219578 
L 81.739929 -179.848436 
L 81.928522 -179.477293 
L 82.119431 -179.106151 
L 82.315679 -178.735008 
L 82.51961 -178.363865 
L 82.732494 -177.992723 
L 82.954228 -177.62158 
L 83.18316 -177.250438 
L 83.41605 -176.879295 
L 83.648192 -176.508152 
L 83.873648 -176.13701 
L 84.085607 -175.765867 
L 84.276804 -175.394724 
L 84.439977 -175.023582 
L 84.568328 -174.652439 
L 84.655945 -174.281297 
L 84.698182 -173.910154 
L 84.691956 -173.539011 
L 84.635974 -173.167869 
L 84.530858 -172.796726 
L 84.379177 -172.425584 
L 84.185368 -172.054441 
L 83.955558 -171.683298 
L 83.69727 -171.312156 
L 83.419043 -170.941013 
L 83.129964 -170.569871 
L 82.839165 -170.198728 
L 82.555285 -169.827585 
L 82.285974 -169.456443 
L 82.037448 -169.0853 
L 81.814144 -168.714158 
L 81.618498 -168.343015 
L 81.450868 -167.971872 
L 81.309595 -167.60073 
L 81.191211 -167.229587 
L 81.090762 -166.858444 
L 81.002229 -166.487302 
L 80.919017 -166.116159 
L 80.834463 -165.745017 
L 80.742335 -165.373874 
L 80.637274 -165.002731 
L 80.51515 -164.631589 
L 80.373308 -164.260446 
L 80.210676 -163.889304 
L 80.027744 -163.518161 
L 79.826415 -163.147018 
L 79.609756 -162.775876 
L 79.38168 -162.404733 
L 79.146595 -162.033591 
L 78.909057 -161.662448 
L 78.673467 -161.291305 
L 78.443822 -160.920163 
L 78.223546 -160.54902 
L 78.015403 -160.177877 
L 77.82146 -159.806735 
L 77.643123 -159.435592 
L 77.481198 -159.06445 
L 77.335971 -158.693307 
L 77.207293 -158.322164 
L 77.094666 -157.951022 
L 76.997317 -157.579879 
L 76.914255 -157.208737 
L 76.844336 -156.837594 
L 76.786307 -156.466451 
L 76.738851 -156.095309 
L 76.700639 -155.724166 
L 76.67036 -155.353024 
z
" style="stroke: #2c2c2c; stroke-width: 1.5"/>
    </defs>
    <g clip-path="url(#p038718672c)">
     <use xlink:href="#m36f236b1d4" x="0" y="216" style="fill: #4a477c; stroke: #2c2c2c; stroke-width: 1.5"/>
    </g>
   </g>
   <g id="FillBetweenPolyCollection_3">
    <defs>
     <path id="m263ff49320" d="M 96.987664 -159.038648 
L 96.757791 -159.038648 
L 96.717328 -159.329109 
L 96.666892 -159.61957 
L 96.605544 -159.910031 
L 96.532725 -160.200492 
L 96.448368 -160.490952 
L 96.352961 -160.781413 
L 96.247561 -161.071874 
L 96.133724 -161.362335 
L 96.013361 -161.652796 
L 95.888528 -161.943257 
L 95.761176 -162.233718 
L 95.632893 -162.524178 
L 95.504687 -162.814639 
L 95.376843 -163.1051 
L 95.248887 -163.395561 
L 95.119664 -163.686022 
L 94.987513 -163.976483 
L 94.850506 -164.266944 
L 94.706705 -164.557405 
L 94.554377 -164.847865 
L 94.392119 -165.138326 
L 94.21889 -165.428787 
L 94.033914 -165.719248 
L 93.836534 -166.009709 
L 93.626041 -166.30017 
L 93.401544 -166.590631 
L 93.161964 -166.881091 
L 92.906153 -167.171552 
L 92.633158 -167.462013 
L 92.342584 -167.752474 
L 92.034988 -168.042935 
L 91.712229 -168.333396 
L 91.377679 -168.623857 
L 91.03626 -168.914318 
L 90.694269 -169.204778 
L 90.359025 -169.495239 
L 90.038385 -169.7857 
L 89.740215 -170.076161 
L 89.471877 -170.366622 
L 89.23981 -170.657083 
L 89.049234 -170.947544 
L 88.903974 -171.238004 
L 88.806393 -171.528465 
L 88.757383 -171.818926 
L 88.756364 -172.109387 
L 88.80128 -172.399848 
L 88.888568 -172.690309 
L 89.013116 -172.98077 
L 89.168266 -173.271231 
L 89.345901 -173.561691 
L 89.536683 -173.852152 
L 89.730474 -174.142613 
L 89.916947 -174.433074 
L 90.086358 -174.723535 
L 90.230403 -175.013996 
L 90.34305 -175.304457 
L 90.421231 -175.594917 
L 90.465262 -175.885378 
L 90.478927 -176.175839 
L 90.469158 -176.4663 
L 90.445366 -176.756761 
L 90.418481 -177.047222 
L 90.399846 -177.337683 
L 90.400113 -177.628144 
L 90.428292 -177.918604 
L 90.491062 -178.209065 
L 90.59242 -178.499526 
L 90.733666 -178.789987 
L 90.913682 -179.080448 
L 91.129407 -179.370909 
L 91.376415 -179.66137 
L 91.649481 -179.95183 
L 91.943067 -180.242291 
L 92.251682 -180.532752 
L 92.570102 -180.823213 
L 92.89348 -181.113674 
L 93.217374 -181.404135 
L 93.537744 -181.694596 
L 93.850944 -181.985056 
L 94.153739 -182.275517 
L 94.443336 -182.565978 
L 94.717433 -182.856439 
L 94.974258 -183.1469 
L 95.21259 -183.437361 
L 95.431746 -183.727822 
L 95.631533 -184.018283 
L 95.812168 -184.308743 
L 95.974193 -184.599204 
L 96.118372 -184.889665 
L 96.245621 -185.180126 
L 96.35694 -185.470587 
L 96.453383 -185.761048 
L 96.536037 -186.051509 
L 96.606022 -186.341969 
L 96.664487 -186.63243 
L 96.712611 -186.922891 
L 96.75159 -187.213352 
L 96.782621 -187.503813 
L 96.806877 -187.794274 
L 96.938578 -187.794274 
L 96.938578 -187.794274 
L 96.962834 -187.503813 
L 96.993865 -187.213352 
L 97.032844 -186.922891 
L 97.080967 -186.63243 
L 97.139432 -186.341969 
L 97.209417 -186.051509 
L 97.292072 -185.761048 
L 97.388515 -185.470587 
L 97.499834 -185.180126 
L 97.627082 -184.889665 
L 97.771262 -184.599204 
L 97.933286 -184.308743 
L 98.113922 -184.018283 
L 98.313709 -183.727822 
L 98.532865 -183.437361 
L 98.771197 -183.1469 
L 99.028021 -182.856439 
L 99.302118 -182.565978 
L 99.591715 -182.275517 
L 99.894511 -181.985056 
L 100.207711 -181.694596 
L 100.52808 -181.404135 
L 100.851974 -181.113674 
L 101.175352 -180.823213 
L 101.493773 -180.532752 
L 101.802388 -180.242291 
L 102.095974 -179.95183 
L 102.369039 -179.66137 
L 102.616047 -179.370909 
L 102.831773 -179.080448 
L 103.011788 -178.789987 
L 103.153034 -178.499526 
L 103.254392 -178.209065 
L 103.317162 -177.918604 
L 103.345341 -177.628144 
L 103.345609 -177.337683 
L 103.326974 -177.047222 
L 103.300089 -176.756761 
L 103.276296 -176.4663 
L 103.266528 -176.175839 
L 103.280192 -175.885378 
L 103.324224 -175.594917 
L 103.402404 -175.304457 
L 103.515052 -175.013996 
L 103.659097 -174.723535 
L 103.828508 -174.433074 
L 104.014981 -174.142613 
L 104.208772 -173.852152 
L 104.399554 -173.561691 
L 104.577189 -173.271231 
L 104.732339 -172.98077 
L 104.856887 -172.690309 
L 104.944175 -172.399848 
L 104.989091 -172.109387 
L 104.988072 -171.818926 
L 104.939061 -171.528465 
L 104.841481 -171.238004 
L 104.696221 -170.947544 
L 104.505644 -170.657083 
L 104.273577 -170.366622 
L 104.005239 -170.076161 
L 103.707069 -169.7857 
L 103.38643 -169.495239 
L 103.051185 -169.204778 
L 102.709194 -168.914318 
L 102.367775 -168.623857 
L 102.033226 -168.333396 
L 101.710467 -168.042935 
L 101.402871 -167.752474 
L 101.112296 -167.462013 
L 100.839301 -167.171552 
L 100.58349 -166.881091 
L 100.343911 -166.590631 
L 100.119414 -166.30017 
L 99.90892 -166.009709 
L 99.711541 -165.719248 
L 99.526565 -165.428787 
L 99.353335 -165.138326 
L 99.191078 -164.847865 
L 99.038749 -164.557405 
L 98.894948 -164.266944 
L 98.757941 -163.976483 
L 98.62579 -163.686022 
L 98.496568 -163.395561 
L 98.368612 -163.1051 
L 98.240767 -162.814639 
L 98.112561 -162.524178 
L 97.984278 -162.233718 
L 97.856927 -161.943257 
L 97.732094 -161.652796 
L 97.61173 -161.362335 
L 97.497893 -161.071874 
L 97.392493 -160.781413 
L 97.297086 -160.490952 
L 97.212729 -160.200492 
L 97.139911 -159.910031 
L 97.078562 -159.61957 
L 97.028126 -159.329109 
L 96.987664 -159.038648 
z
" style="stroke: #2c2c2c; stroke-width: 1.5"/>
    </defs>
    <g clip-path="url(#p038718672c)">
     <use xlink:href="#m263ff49320" x="0" y="216" style="fill: #435a82; stroke: #2c2c2c; stroke-width: 1.5"/>
    </g>
   </g>
   <g id="FillBetweenPolyCollection_4">
    <defs>
     <path id="m6b0ad22775" d="M 117.261598 -151.174397 
L 117.065675 -151.174397 
L 117.028254 -151.582685 
L 116.981104 -151.990973 
L 116.923515 -152.399261 
L 116.855388 -152.807549 
L 116.777423 -153.215837 
L 116.691227 -153.624125 
L 116.59933 -154.032413 
L 116.505067 -154.440701 
L 116.412323 -154.848989 
L 116.325163 -155.257277 
L 116.247381 -155.665565 
L 116.182055 -156.073853 
L 116.131164 -156.482141 
L 116.09535 -156.890429 
L 116.073873 -157.298716 
L 116.06477 -157.707004 
L 116.065188 -158.115292 
L 116.071845 -158.52358 
L 116.081499 -158.931868 
L 116.091368 -159.340156 
L 116.099393 -159.748444 
L 116.104317 -160.156732 
L 116.10556 -160.56502 
L 116.102925 -160.973308 
L 116.096216 -161.381596 
L 116.084818 -161.789884 
L 116.067357 -162.198172 
L 116.041471 -162.60646 
L 116.003755 -163.014748 
L 115.949871 -163.423036 
L 115.874806 -163.831324 
L 115.773247 -164.239612 
L 115.639998 -164.6479 
L 115.470409 -165.056188 
L 115.260759 -165.464476 
L 115.008575 -165.872764 
L 114.712869 -166.281052 
L 114.374292 -166.68934 
L 113.99523 -167.097628 
L 113.579833 -167.505916 
L 113.134009 -167.914204 
L 112.665356 -168.322492 
L 112.183042 -168.73078 
L 111.697608 -169.139068 
L 111.220664 -169.547356 
L 110.764485 -169.955644 
L 110.34148 -170.363932 
L 109.963572 -170.77222 
L 109.641506 -171.180508 
L 109.384135 -171.588796 
L 109.19776 -171.997084 
L 109.085569 -172.405372 
L 109.047273 -172.81366 
L 109.078964 -173.221948 
L 109.173266 -173.630236 
L 109.31977 -174.038524 
L 109.505755 -174.446812 
L 109.717137 -174.8551 
L 109.939573 -175.263388 
L 110.159603 -175.671676 
L 110.365733 -176.079964 
L 110.549319 -176.488252 
L 110.70517 -176.89654 
L 110.831795 -177.304828 
L 110.93128 -177.713116 
L 111.008808 -178.121404 
L 111.071899 -178.529692 
L 111.129478 -178.93798 
L 111.190879 -179.346268 
L 111.264912 -179.754556 
L 111.359093 -180.162844 
L 111.479101 -180.571132 
L 111.62849 -180.97942 
L 111.808655 -181.387708 
L 112.019001 -181.795996 
L 112.257264 -182.204284 
L 112.519922 -182.612572 
L 112.802613 -183.02086 
L 113.100532 -183.429148 
L 113.408758 -183.837436 
L 113.722495 -184.245724 
L 114.037225 -184.654012 
L 114.348789 -185.0623 
L 114.653411 -185.470588 
L 114.947688 -185.878876 
L 115.228577 -186.287163 
L 115.493394 -186.695451 
L 115.739832 -187.103739 
L 115.966004 -187.512027 
L 116.170505 -187.920315 
L 116.352476 -188.328603 
L 116.511651 -188.736891 
L 116.648373 -189.145179 
L 116.763574 -189.553467 
L 116.858703 -189.961755 
L 116.935626 -190.370043 
L 116.996489 -190.778331 
L 117.043581 -191.186619 
L 117.079191 -191.594907 
L 117.248082 -191.594907 
L 117.248082 -191.594907 
L 117.283692 -191.186619 
L 117.330783 -190.778331 
L 117.391647 -190.370043 
L 117.46857 -189.961755 
L 117.563699 -189.553467 
L 117.678899 -189.145179 
L 117.815621 -188.736891 
L 117.974796 -188.328603 
L 118.156768 -187.920315 
L 118.361269 -187.512027 
L 118.58744 -187.103739 
L 118.833878 -186.695451 
L 119.098696 -186.287163 
L 119.379585 -185.878876 
L 119.673862 -185.470588 
L 119.978483 -185.0623 
L 120.290048 -184.654012 
L 120.604778 -184.245724 
L 120.918514 -183.837436 
L 121.226741 -183.429148 
L 121.52466 -183.02086 
L 121.80735 -182.612572 
L 122.070008 -182.204284 
L 122.308272 -181.795996 
L 122.518617 -181.387708 
L 122.698782 -180.97942 
L 122.848172 -180.571132 
L 122.96818 -180.162844 
L 123.062361 -179.754556 
L 123.136394 -179.346268 
L 123.197794 -178.93798 
L 123.255373 -178.529692 
L 123.318465 -178.121404 
L 123.395992 -177.713116 
L 123.495478 -177.304828 
L 123.622103 -176.89654 
L 123.777954 -176.488252 
L 123.961539 -176.079964 
L 124.167669 -175.671676 
L 124.3877 -175.263388 
L 124.610135 -174.8551 
L 124.821518 -174.446812 
L 125.007502 -174.038524 
L 125.154006 -173.630236 
L 125.248308 -173.221948 
L 125.28 -172.81366 
L 125.241704 -172.405372 
L 125.129513 -171.997084 
L 124.943137 -171.588796 
L 124.685767 -171.180508 
L 124.3637 -170.77222 
L 123.985793 -170.363932 
L 123.562788 -169.955644 
L 123.106608 -169.547356 
L 122.629665 -169.139068 
L 122.14423 -168.73078 
L 121.661917 -168.322492 
L 121.193263 -167.914204 
L 120.747439 -167.505916 
L 120.332043 -167.097628 
L 119.952981 -166.68934 
L 119.614404 -166.281052 
L 119.318698 -165.872764 
L 119.066514 -165.464476 
L 118.856864 -165.056188 
L 118.687274 -164.6479 
L 118.554026 -164.239612 
L 118.452467 -163.831324 
L 118.377402 -163.423036 
L 118.323517 -163.014748 
L 118.285801 -162.60646 
L 118.259916 -162.198172 
L 118.242455 -161.789884 
L 118.231057 -161.381596 
L 118.224348 -160.973308 
L 118.221713 -160.56502 
L 118.222955 -160.156732 
L 118.22788 -159.748444 
L 118.235905 -159.340156 
L 118.245774 -158.931868 
L 118.255428 -158.52358 
L 118.262084 -158.115292 
L 118.262503 -157.707004 
L 118.253399 -157.298716 
L 118.231922 -156.890429 
L 118.196108 -156.482141 
L 118.145218 -156.073853 
L 118.079892 -155.665565 
L 118.00211 -155.257277 
L 117.914949 -154.848989 
L 117.822206 -154.440701 
L 117.727943 -154.032413 
L 117.636046 -153.624125 
L 117.549849 -153.215837 
L 117.471884 -152.807549 
L 117.403758 -152.399261 
L 117.346169 -151.990973 
L 117.299019 -151.582685 
L 117.261598 -151.174397 
z
" style="stroke: #2c2c2c; stroke-width: 1.5"/>
    </defs>
    <g clip-path="url(#p038718672c)">
     <use xlink:href="#m6b0ad22775" x="0" y="216" style="fill: #396b82; stroke: #2c2c2c; stroke-width: 1.5"/>
    </g>
   </g>
   <g id="FillBetweenPolyCollection_5">
    <defs>
     <path id="me0c1edecd4" d="M 137.545443 -157.857577 
L 137.363648 -157.857577 
L 137.330074 -158.192688 
L 137.287345 -158.527799 
L 137.234101 -158.862909 
L 137.169085 -159.19802 
L 137.091206 -159.533131 
L 136.999568 -159.868241 
L 136.893456 -160.203352 
L 136.772286 -160.538463 
L 136.635493 -160.873573 
L 136.482397 -161.208684 
L 136.312044 -161.543795 
L 136.123071 -161.878905 
L 135.913624 -162.214016 
L 135.681363 -162.549127 
L 135.423585 -162.884237 
L 135.137475 -163.219348 
L 134.820481 -163.554459 
L 134.470787 -163.889569 
L 134.087836 -164.22468 
L 133.672846 -164.55979 
L 133.229249 -164.894901 
L 132.762978 -165.230012 
L 132.282542 -165.565122 
L 131.798842 -165.900233 
L 131.324715 -166.235344 
L 130.874193 -166.570454 
L 130.461548 -166.905565 
L 130.100186 -167.240676 
L 129.801499 -167.575786 
L 129.573799 -167.910897 
L 129.421475 -168.246008 
L 129.34447 -168.581118 
L 129.338182 -168.916229 
L 129.393808 -169.25134 
L 129.49912 -169.58645 
L 129.639584 -169.921561 
L 129.799698 -170.256672 
L 129.964386 -170.591782 
L 130.120274 -170.926893 
L 130.256706 -171.262004 
L 130.366385 -171.597114 
L 130.445602 -171.932225 
L 130.494056 -172.267335 
L 130.514343 -172.602446 
L 130.511222 -172.937557 
L 130.490786 -173.272667 
L 130.459666 -173.607778 
L 130.424348 -173.942889 
L 130.390684 -174.277999 
L 130.363591 -174.61311 
L 130.346938 -174.948221 
L 130.343576 -175.283331 
L 130.355445 -175.618442 
L 130.383725 -175.953553 
L 130.428979 -176.288663 
L 130.491272 -176.623774 
L 130.570244 -176.958885 
L 130.665157 -177.293995 
L 130.774924 -177.629106 
L 130.898127 -177.964217 
L 131.033052 -178.299327 
L 131.17776 -178.634438 
L 131.330176 -178.969549 
L 131.488231 -179.304659 
L 131.650027 -179.63977 
L 131.814022 -179.97488 
L 131.979207 -180.309991 
L 132.14525 -180.645102 
L 132.312579 -180.980212 
L 132.482369 -181.315323 
L 132.656429 -181.650434 
L 132.83698 -181.985544 
L 133.026357 -182.320655 
L 133.226656 -182.655766 
L 133.439386 -182.990876 
L 133.665182 -183.325987 
L 133.903611 -183.661098 
L 134.153115 -183.996208 
L 134.411091 -184.331319 
L 134.674095 -184.66643 
L 134.938135 -185.00154 
L 135.19901 -185.336651 
L 135.452639 -185.671762 
L 135.695349 -186.006872 
L 135.924075 -186.341983 
L 136.136485 -186.677094 
L 136.331007 -187.012204 
L 136.50679 -187.347315 
L 136.663623 -187.682425 
L 136.801817 -188.017536 
L 136.922094 -188.352647 
L 137.025479 -188.687757 
L 137.113208 -189.022868 
L 137.18666 -189.357979 
L 137.247292 -189.693089 
L 137.296596 -190.0282 
L 137.336057 -190.363311 
L 137.367112 -190.698421 
L 137.391126 -191.033532 
L 137.517965 -191.033532 
L 137.517965 -191.033532 
L 137.541979 -190.698421 
L 137.573034 -190.363311 
L 137.612495 -190.0282 
L 137.661799 -189.693089 
L 137.722431 -189.357979 
L 137.795883 -189.022868 
L 137.883612 -188.687757 
L 137.986997 -188.352647 
L 138.107274 -188.017536 
L 138.245468 -187.682425 
L 138.402301 -187.347315 
L 138.578084 -187.012204 
L 138.772606 -186.677094 
L 138.985016 -186.341983 
L 139.213742 -186.006872 
L 139.456451 -185.671762 
L 139.710081 -185.336651 
L 139.970956 -185.00154 
L 140.234996 -184.66643 
L 140.498 -184.331319 
L 140.755976 -183.996208 
L 141.00548 -183.661098 
L 141.243909 -183.325987 
L 141.469705 -182.990876 
L 141.682435 -182.655766 
L 141.882733 -182.320655 
L 142.072111 -181.985544 
L 142.252662 -181.650434 
L 142.426722 -181.315323 
L 142.596512 -180.980212 
L 142.763841 -180.645102 
L 142.929884 -180.309991 
L 143.095069 -179.97488 
L 143.259064 -179.63977 
L 143.42086 -179.304659 
L 143.578915 -178.969549 
L 143.731331 -178.634438 
L 143.876038 -178.299327 
L 144.010964 -177.964217 
L 144.134166 -177.629106 
L 144.243933 -177.293995 
L 144.338847 -176.958885 
L 144.417819 -176.623774 
L 144.480112 -176.288663 
L 144.525366 -175.953553 
L 144.553646 -175.618442 
L 144.565514 -175.283331 
L 144.562152 -174.948221 
L 144.5455 -174.61311 
L 144.518407 -174.277999 
L 144.484743 -173.942889 
L 144.449425 -173.607778 
L 144.418305 -173.272667 
L 144.397869 -172.937557 
L 144.394748 -172.602446 
L 144.415035 -172.267335 
L 144.463489 -171.932225 
L 144.542706 -171.597114 
L 144.652385 -171.262004 
L 144.788817 -170.926893 
L 144.944705 -170.591782 
L 145.109393 -170.256672 
L 145.269507 -169.921561 
L 145.409971 -169.58645 
L 145.515283 -169.25134 
L 145.570909 -168.916229 
L 145.564621 -168.581118 
L 145.487616 -168.246008 
L 145.335292 -167.910897 
L 145.107592 -167.575786 
L 144.808905 -167.240676 
L 144.447543 -166.905565 
L 144.034898 -166.570454 
L 143.584376 -166.235344 
L 143.110248 -165.900233 
L 142.626549 -165.565122 
L 142.146113 -165.230012 
L 141.679842 -164.894901 
L 141.236245 -164.55979 
L 140.821255 -164.22468 
L 140.438304 -163.889569 
L 140.08861 -163.554459 
L 139.771616 -163.219348 
L 139.485506 -162.884237 
L 139.227728 -162.549127 
L 138.995467 -162.214016 
L 138.78602 -161.878905 
L 138.597047 -161.543795 
L 138.426694 -161.208684 
L 138.273598 -160.873573 
L 138.136805 -160.538463 
L 138.015635 -160.203352 
L 137.909523 -159.868241 
L 137.817884 -159.533131 
L 137.740006 -159.19802 
L 137.67499 -158.862909 
L 137.621745 -158.527799 
L 137.579016 -158.192688 
L 137.545443 -157.857577 
z
" style="stroke: #2c2c2c; stroke-width: 1.5"/>
    </defs>
    <g clip-path="url(#p038718672c)">
     <use xlink:href="#me0c1edecd4" x="0" y="216" style="fill: #327a81; stroke: #2c2c2c; stroke-width: 1.5"/>
    </g>
   </g>
   <g id="FillBetweenPolyCollection_6">
    <defs>
     <path id="mf2cca5f6e2" d="M 157.836638 -160.59536 
L 157.654271 -160.59536 
L 157.618134 -160.891238 
L 157.571305 -161.187117 
L 157.512045 -161.482995 
L 157.438802 -161.778873 
L 157.350372 -162.074752 
L 157.246049 -162.37063 
L 157.125741 -162.666509 
L 156.990041 -162.962387 
L 156.840233 -163.258265 
L 156.678219 -163.554144 
L 156.50639 -163.850022 
L 156.327453 -164.1459 
L 156.144248 -164.441779 
L 155.95959 -164.737657 
L 155.776164 -165.033535 
L 155.596487 -165.329414 
L 155.422947 -165.625292 
L 155.257871 -165.921171 
L 155.103616 -166.217049 
L 154.962607 -166.512927 
L 154.837312 -166.808806 
L 154.730106 -167.104684 
L 154.643039 -167.400562 
L 154.577513 -167.696441 
L 154.53393 -167.992319 
L 154.511359 -168.288198 
L 154.507269 -168.584076 
L 154.517408 -168.879954 
L 154.535827 -169.175833 
L 154.555093 -169.471711 
L 154.566666 -169.767589 
L 154.561424 -170.063468 
L 154.530285 -170.359346 
L 154.464878 -170.655224 
L 154.35821 -170.951103 
L 154.205253 -171.246981 
L 154.003411 -171.54286 
L 153.752817 -171.838738 
L 153.456433 -172.134616 
L 153.119945 -172.430495 
L 152.751462 -172.726373 
L 152.361062 -173.022251 
L 151.960208 -173.31813 
L 151.561101 -173.614008 
L 151.176003 -173.909887 
L 150.816574 -174.205765 
L 150.493254 -174.501643 
L 150.214716 -174.797522 
L 149.987418 -175.0934 
L 149.815283 -175.389278 
L 149.699536 -175.685157 
L 149.638748 -175.981035 
L 149.629091 -176.276913 
L 149.664824 -176.572792 
L 149.738971 -176.86867 
L 149.844126 -177.164549 
L 149.97329 -177.460427 
L 150.120614 -177.756305 
L 150.281942 -178.052184 
L 150.455057 -178.348062 
L 150.639599 -178.64394 
L 150.836665 -178.939819 
L 151.048181 -179.235697 
L 151.276154 -179.531576 
L 151.521954 -179.827454 
L 151.785749 -180.123332 
L 152.066192 -180.419211 
L 152.360397 -180.715089 
L 152.664189 -181.010967 
L 152.972565 -181.306846 
L 153.280263 -181.602724 
L 153.582334 -181.898603 
L 153.874631 -182.194481 
L 154.154127 -182.490359 
L 154.419059 -182.786238 
L 154.668881 -183.082116 
L 154.904073 -183.377994 
L 155.125856 -183.673873 
L 155.335866 -183.969751 
L 155.53584 -184.265629 
L 155.727349 -184.561508 
L 155.911611 -184.857386 
L 156.089371 -185.153265 
L 156.260869 -185.449143 
L 156.425869 -185.745021 
L 156.583742 -186.0409 
L 156.733578 -186.336778 
L 156.874319 -186.632656 
L 157.0049 -186.928535 
L 157.124371 -187.224413 
L 157.232008 -187.520292 
L 157.327384 -187.81617 
L 157.41042 -188.112048 
L 157.481386 -188.407927 
L 157.540878 -188.703805 
L 157.589767 -188.999683 
L 157.629129 -189.295562 
L 157.660163 -189.59144 
L 157.684113 -189.887318 
L 157.806796 -189.887318 
L 157.806796 -189.887318 
L 157.830746 -189.59144 
L 157.86178 -189.295562 
L 157.901142 -188.999683 
L 157.950031 -188.703805 
L 158.009523 -188.407927 
L 158.080489 -188.112048 
L 158.163525 -187.81617 
L 158.258901 -187.520292 
L 158.366538 -187.224413 
L 158.486009 -186.928535 
L 158.61659 -186.632656 
L 158.757331 -186.336778 
L 158.907167 -186.0409 
L 159.06504 -185.745021 
L 159.23004 -185.449143 
L 159.401538 -185.153265 
L 159.579298 -184.857386 
L 159.76356 -184.561508 
L 159.955069 -184.265629 
L 160.155043 -183.969751 
L 160.365053 -183.673873 
L 160.586836 -183.377994 
L 160.822028 -183.082116 
L 161.07185 -182.786238 
L 161.336782 -182.490359 
L 161.616278 -182.194481 
L 161.908575 -181.898603 
L 162.210646 -181.602724 
L 162.518344 -181.306846 
L 162.82672 -181.010967 
L 163.130512 -180.715089 
L 163.424717 -180.419211 
L 163.70516 -180.123332 
L 163.968955 -179.827454 
L 164.214755 -179.531576 
L 164.442728 -179.235697 
L 164.654244 -178.939819 
L 164.851311 -178.64394 
L 165.035852 -178.348062 
L 165.208967 -178.052184 
L 165.370295 -177.756305 
L 165.517619 -177.460427 
L 165.646783 -177.164549 
L 165.751938 -176.86867 
L 165.826085 -176.572792 
L 165.861818 -176.276913 
L 165.852161 -175.981035 
L 165.791373 -175.685157 
L 165.675626 -175.389278 
L 165.503491 -175.0934 
L 165.276193 -174.797522 
L 164.997656 -174.501643 
L 164.674335 -174.205765 
L 164.314906 -173.909887 
L 163.929808 -173.614008 
L 163.530701 -173.31813 
L 163.129847 -173.022251 
L 162.739447 -172.726373 
L 162.370964 -172.430495 
L 162.034476 -172.134616 
L 161.738092 -171.838738 
L 161.487499 -171.54286 
L 161.285656 -171.246981 
L 161.132699 -170.951103 
L 161.026031 -170.655224 
L 160.960624 -170.359346 
L 160.929485 -170.063468 
L 160.924243 -169.767589 
L 160.935816 -169.471711 
L 160.955082 -169.175833 
L 160.973501 -168.879954 
L 160.98364 -168.584076 
L 160.979551 -168.288198 
L 160.956979 -167.992319 
L 160.913396 -167.696441 
L 160.84787 -167.400562 
L 160.760803 -167.104684 
L 160.653598 -166.808806 
L 160.528302 -166.512927 
L 160.387293 -166.217049 
L 160.233038 -165.921171 
L 160.067962 -165.625292 
L 159.894422 -165.329414 
L 159.714746 -165.033535 
L 159.531319 -164.737657 
L 159.346661 -164.441779 
L 159.163456 -164.1459 
L 158.984519 -163.850022 
L 158.812691 -163.554144 
L 158.650676 -163.258265 
L 158.500868 -162.962387 
L 158.365168 -162.666509 
L 158.24486 -162.37063 
L 158.140537 -162.074752 
L 158.052107 -161.778873 
L 157.978864 -161.482995 
L 157.919604 -161.187117 
L 157.872775 -160.891238 
L 157.836638 -160.59536 
z
" style="stroke: #2c2c2c; stroke-width: 1.5"/>
    </defs>
    <g clip-path="url(#p038718672c)">
     <use xlink:href="#mf2cca5f6e2" x="0" y="216" style="fill: #2e8b7e; stroke: #2c2c2c; stroke-width: 1.5"/>
    </g>
   </g>
   <g id="FillBetweenPolyCollection_7">
    <defs>
     <path id="m9e61239e92" d="M 178.232463 -167.295817 
L 177.840264 -167.295817 
L 177.798378 -167.464417 
L 177.750204 -167.633016 
L 177.695425 -167.801616 
L 177.63385 -167.970216 
L 177.565434 -168.138816 
L 177.490305 -168.307416 
L 177.408777 -168.476015 
L 177.321359 -168.644615 
L 177.228757 -168.813215 
L 177.13186 -168.981815 
L 177.03172 -169.150415 
L 176.929522 -169.319015 
L 176.826545 -169.487614 
L 176.724112 -169.656214 
L 176.623543 -169.824814 
L 176.526103 -169.993414 
L 176.432953 -170.162014 
L 176.345104 -170.330613 
L 176.263388 -170.499213 
L 176.188426 -170.667813 
L 176.120622 -170.836413 
L 176.060154 -171.005013 
L 176.006988 -171.173612 
L 175.96089 -171.342212 
L 175.921451 -171.510812 
L 175.888102 -171.679412 
L 175.860145 -171.848012 
L 175.836759 -172.016611 
L 175.817017 -172.185211 
L 175.799883 -172.353811 
L 175.784206 -172.522411 
L 175.76871 -172.691011 
L 175.751981 -172.859611 
L 175.732449 -173.02821 
L 175.708384 -173.19681 
L 175.6779 -173.36541 
L 175.638969 -173.53401 
L 175.589457 -173.70261 
L 175.527174 -173.871209 
L 175.449948 -174.039809 
L 175.355711 -174.208409 
L 175.242595 -174.377009 
L 175.109037 -174.545609 
L 174.953885 -174.714208 
L 174.77649 -174.882808 
L 174.57679 -175.051408 
L 174.355363 -175.220008 
L 174.113464 -175.388608 
L 173.853017 -175.557208 
L 173.576588 -175.725807 
L 173.287317 -175.894407 
L 172.988824 -176.063007 
L 172.685097 -176.231607 
L 172.380351 -176.400207 
L 172.078895 -176.568806 
L 171.78498 -176.737406 
L 171.502675 -176.906006 
L 171.235744 -177.074606 
L 170.987553 -177.243206 
L 170.761007 -177.411805 
L 170.558507 -177.580405 
L 170.38195 -177.749005 
L 170.23275 -177.917605 
L 170.111885 -178.086205 
L 170.019963 -178.254804 
L 169.957298 -178.423404 
L 169.92399 -178.592004 
L 169.92 -178.760604 
L 169.945211 -178.929204 
L 169.999472 -179.097804 
L 170.082616 -179.266403 
L 170.194456 -179.435003 
L 170.334758 -179.603603 
L 170.503186 -179.772203 
L 170.69924 -179.940803 
L 170.922176 -180.109402 
L 171.170935 -180.278002 
L 171.444073 -180.446602 
L 171.739711 -180.615202 
L 172.055503 -180.783802 
L 172.38864 -180.952401 
L 172.735877 -181.121001 
L 173.093592 -181.289601 
L 173.457876 -181.458201 
L 173.824638 -181.626801 
L 174.189734 -181.7954 
L 174.549095 -181.964 
L 174.898859 -182.1326 
L 175.235491 -182.3012 
L 175.555886 -182.4698 
L 175.857453 -182.6384 
L 176.138165 -182.806999 
L 176.396592 -182.975599 
L 176.631896 -183.144199 
L 176.843807 -183.312799 
L 177.032576 -183.481399 
L 177.198908 -183.649998 
L 177.343888 -183.818598 
L 177.4689 -183.987198 
L 178.603827 -183.987198 
L 178.603827 -183.987198 
L 178.728839 -183.818598 
L 178.873819 -183.649998 
L 179.040151 -183.481399 
L 179.22892 -183.312799 
L 179.440831 -183.144199 
L 179.676135 -182.975599 
L 179.934562 -182.806999 
L 180.215275 -182.6384 
L 180.516841 -182.4698 
L 180.837236 -182.3012 
L 181.173868 -182.1326 
L 181.523632 -181.964 
L 181.882993 -181.7954 
L 182.248089 -181.626801 
L 182.614852 -181.458201 
L 182.979135 -181.289601 
L 183.336851 -181.121001 
L 183.684088 -180.952401 
L 184.017225 -180.783802 
L 184.333017 -180.615202 
L 184.628654 -180.446602 
L 184.901792 -180.278002 
L 185.150552 -180.109402 
L 185.373487 -179.940803 
L 185.569541 -179.772203 
L 185.737969 -179.603603 
L 185.878271 -179.435003 
L 185.990112 -179.266403 
L 186.073255 -179.097804 
L 186.127516 -178.929204 
L 186.152727 -178.760604 
L 186.148737 -178.592004 
L 186.115429 -178.423404 
L 186.052764 -178.254804 
L 185.960842 -178.086205 
L 185.839977 -177.917605 
L 185.690777 -177.749005 
L 185.514221 -177.580405 
L 185.311721 -177.411805 
L 185.085174 -177.243206 
L 184.836984 -177.074606 
L 184.570053 -176.906006 
L 184.287747 -176.737406 
L 183.993833 -176.568806 
L 183.692376 -176.400207 
L 183.38763 -176.231607 
L 183.083903 -176.063007 
L 182.785411 -175.894407 
L 182.496139 -175.725807 
L 182.21971 -175.557208 
L 181.959263 -175.388608 
L 181.717364 -175.220008 
L 181.495938 -175.051408 
L 181.296237 -174.882808 
L 181.118843 -174.714208 
L 180.96369 -174.545609 
L 180.830132 -174.377009 
L 180.717016 -174.208409 
L 180.622779 -174.039809 
L 180.545553 -173.871209 
L 180.48327 -173.70261 
L 180.433758 -173.53401 
L 180.394827 -173.36541 
L 180.364343 -173.19681 
L 180.340279 -173.02821 
L 180.320746 -172.859611 
L 180.304017 -172.691011 
L 180.288521 -172.522411 
L 180.272844 -172.353811 
L 180.25571 -172.185211 
L 180.235968 -172.016611 
L 180.212582 -171.848012 
L 180.184625 -171.679412 
L 180.151277 -171.510812 
L 180.111837 -171.342212 
L 180.06574 -171.173612 
L 180.012574 -171.005013 
L 179.952106 -170.836413 
L 179.884301 -170.667813 
L 179.809339 -170.499213 
L 179.727623 -170.330613 
L 179.639774 -170.162014 
L 179.546624 -169.993414 
L 179.449184 -169.824814 
L 179.348616 -169.656214 
L 179.246183 -169.487614 
L 179.143205 -169.319015 
L 179.041008 -169.150415 
L 178.940868 -168.981815 
L 178.84397 -168.813215 
L 178.751368 -168.644615 
L 178.663951 -168.476015 
L 178.582422 -168.307416 
L 178.507293 -168.138816 
L 178.438877 -167.970216 
L 178.377302 -167.801616 
L 178.322524 -167.633016 
L 178.274349 -167.464417 
L 178.232463 -167.295817 
z
" style="stroke: #2c2c2c; stroke-width: 1.5"/>
    </defs>
    <g clip-path="url(#p038718672c)">
     <use xlink:href="#m9e61239e92" x="0" y="216" style="fill: #3b9f7a; stroke: #2c2c2c; stroke-width: 1.5"/>
    </g>
   </g>
   <g id="FillBetweenPolyCollection_8">
    <defs>
     <path id="ma54cdfb5d5" d="M 198.513648 -153.585442 
L 198.140898 -153.585442 
L 198.092206 -153.942603 
L 198.03416 -154.299764 
L 197.965894 -154.656925 
L 197.886694 -155.014086 
L 197.796058 -155.371246 
L 197.693747 -155.728407 
L 197.579836 -156.085568 
L 197.454746 -156.442729 
L 197.319264 -156.799889 
L 197.174538 -157.15705 
L 197.022052 -157.514211 
L 196.863579 -157.871372 
L 196.701104 -158.228533 
L 196.536745 -158.585693 
L 196.372645 -158.942854 
L 196.210873 -159.300015 
L 196.053318 -159.657176 
L 195.901601 -160.014336 
L 195.756999 -160.371497 
L 195.620397 -160.728658 
L 195.492265 -161.085819 
L 195.372665 -161.44298 
L 195.261283 -161.80014 
L 195.157486 -162.157301 
L 195.060398 -162.514462 
L 194.96899 -162.871623 
L 194.882167 -163.228783 
L 194.798858 -163.585944 
L 194.718089 -163.943105 
L 194.639043 -164.300266 
L 194.561092 -164.657427 
L 194.483805 -165.014587 
L 194.406927 -165.371748 
L 194.330336 -165.728909 
L 194.253973 -166.08607 
L 194.177759 -166.443231 
L 194.101506 -166.800391 
L 194.024833 -167.157552 
L 193.947087 -167.514713 
L 193.867299 -167.871874 
L 193.784167 -168.229034 
L 193.696081 -168.586195 
L 193.601186 -168.943356 
L 193.497489 -169.300517 
L 193.383004 -169.657678 
L 193.255911 -170.014838 
L 193.114738 -170.371999 
L 192.958528 -170.72916 
L 192.786995 -171.086321 
L 192.600633 -171.443481 
L 192.400788 -171.800642 
L 192.189667 -172.157803 
L 191.970289 -172.514964 
L 191.746381 -172.872125 
L 191.522225 -173.229285 
L 191.302465 -173.586446 
L 191.091898 -173.943607 
L 190.895255 -174.300768 
L 190.716991 -174.657928 
L 190.561103 -175.015089 
L 190.430988 -175.37225 
L 190.329342 -175.729411 
L 190.258107 -176.086572 
L 190.21847 -176.443732 
L 190.210909 -176.800893 
L 190.235268 -177.158054 
L 190.290866 -177.515215 
L 190.37662 -177.872375 
L 190.49117 -178.229536 
L 190.632995 -178.586697 
L 190.800515 -178.943858 
L 190.992164 -179.301019 
L 191.206431 -179.658179 
L 191.441871 -180.01534 
L 191.697084 -180.372501 
L 191.970664 -180.729662 
L 192.261137 -181.086822 
L 192.566881 -181.443983 
L 192.886056 -181.801144 
L 193.216544 -182.158305 
L 193.555908 -182.515466 
L 193.901385 -182.872626 
L 194.249911 -183.229787 
L 194.598178 -183.586948 
L 194.942723 -183.944109 
L 195.280041 -184.30127 
L 195.606714 -184.65843 
L 195.919537 -185.015591 
L 196.215649 -185.372752 
L 196.492634 -185.729913 
L 196.74861 -186.087073 
L 196.982273 -186.444234 
L 197.192922 -186.801395 
L 197.380443 -187.158556 
L 197.545263 -187.515717 
L 197.688286 -187.872877 
L 197.810806 -188.230038 
L 197.914413 -188.587199 
L 198.000898 -188.94436 
L 198.653648 -188.94436 
L 198.653648 -188.94436 
L 198.740133 -188.587199 
L 198.84374 -188.230038 
L 198.966259 -187.872877 
L 199.109282 -187.515717 
L 199.274102 -187.158556 
L 199.461623 -186.801395 
L 199.672273 -186.444234 
L 199.905936 -186.087073 
L 200.161911 -185.729913 
L 200.438896 -185.372752 
L 200.735008 -185.015591 
L 201.047832 -184.65843 
L 201.374504 -184.30127 
L 201.711823 -183.944109 
L 202.056368 -183.586948 
L 202.404634 -183.229787 
L 202.75316 -182.872626 
L 203.098637 -182.515466 
L 203.438001 -182.158305 
L 203.768489 -181.801144 
L 204.087665 -181.443983 
L 204.393409 -181.086822 
L 204.683881 -180.729662 
L 204.957462 -180.372501 
L 205.212674 -180.01534 
L 205.448115 -179.658179 
L 205.662382 -179.301019 
L 205.85403 -178.943858 
L 206.02155 -178.586697 
L 206.163375 -178.229536 
L 206.277925 -177.872375 
L 206.363679 -177.515215 
L 206.419278 -177.158054 
L 206.443636 -176.800893 
L 206.436075 -176.443732 
L 206.396439 -176.086572 
L 206.325203 -175.729411 
L 206.223557 -175.37225 
L 206.093443 -175.015089 
L 205.937555 -174.657928 
L 205.75929 -174.300768 
L 205.562647 -173.943607 
L 205.352081 -173.586446 
L 205.132321 -173.229285 
L 204.908164 -172.872125 
L 204.684256 -172.514964 
L 204.464878 -172.157803 
L 204.253757 -171.800642 
L 204.053913 -171.443481 
L 203.867551 -171.086321 
L 203.696017 -170.72916 
L 203.539807 -170.371999 
L 203.398634 -170.014838 
L 203.271541 -169.657678 
L 203.157056 -169.300517 
L 203.05336 -168.943356 
L 202.958464 -168.586195 
L 202.870378 -168.229034 
L 202.787247 -167.871874 
L 202.707459 -167.514713 
L 202.629712 -167.157552 
L 202.553039 -166.800391 
L 202.476787 -166.443231 
L 202.400573 -166.08607 
L 202.32421 -165.728909 
L 202.247619 -165.371748 
L 202.170741 -165.014587 
L 202.093453 -164.657427 
L 202.015502 -164.300266 
L 201.936456 -163.943105 
L 201.855688 -163.585944 
L 201.772378 -163.228783 
L 201.685555 -162.871623 
L 201.594147 -162.514462 
L 201.49706 -162.157301 
L 201.393263 -161.80014 
L 201.28188 -161.44298 
L 201.16228 -161.085819 
L 201.034149 -160.728658 
L 200.897547 -160.371497 
L 200.752945 -160.014336 
L 200.601227 -159.657176 
L 200.443673 -159.300015 
L 200.281901 -158.942854 
L 200.117801 -158.585693 
L 199.953441 -158.228533 
L 199.790967 -157.871372 
L 199.632493 -157.514211 
L 199.480008 -157.15705 
L 199.335282 -156.799889 
L 199.1998 -156.442729 
L 199.07471 -156.085568 
L 198.960799 -155.728407 
L 198.858488 -155.371246 
L 198.767851 -155.014086 
L 198.688652 -154.656925 
L 198.620385 -154.299764 
L 198.562339 -153.942603 
L 198.513648 -153.585442 
z
" style="stroke: #2c2c2c; stroke-width: 1.5"/>
    </defs>
    <g clip-path="url(#p038718672c)">
     <use xlink:href="#ma54cdfb5d5" x="0" y="216" style="fill: #60b671; stroke: #2c2c2c; stroke-width: 1.5"/>
    </g>
   </g>
   <g id="FillBetweenPolyCollection_9">
    <defs>
     <path id="m2a820ed639" d="M 218.66637 -155.935331 
L 218.569993 -155.935331 
L 218.551303 -156.275913 
L 218.528041 -156.616496 
L 218.500194 -156.957079 
L 218.468194 -157.297661 
L 218.433003 -157.638244 
L 218.39612 -157.978827 
L 218.359505 -158.319409 
L 218.325416 -158.659992 
L 218.296145 -159.000575 
L 218.273721 -159.341157 
L 218.259584 -159.68174 
L 218.254322 -160.022323 
L 218.257489 -160.362905 
L 218.267556 -160.703488 
L 218.282007 -161.044071 
L 218.297562 -161.384653 
L 218.310513 -161.725236 
L 218.317102 -162.065819 
L 218.313921 -162.406401 
L 218.298252 -162.746984 
L 218.268319 -163.087567 
L 218.223413 -163.428149 
L 218.163856 -163.768732 
L 218.090812 -164.109315 
L 218.005956 -164.449897 
L 217.911046 -164.79048 
L 217.807475 -165.131063 
L 217.695896 -165.471645 
L 217.576007 -165.812228 
L 217.446585 -166.152811 
L 217.305777 -166.493393 
L 217.151619 -166.833976 
L 216.982683 -167.174559 
L 216.798671 -167.515141 
L 216.600814 -167.855724 
L 216.391913 -168.196307 
L 216.175975 -168.536889 
L 215.957481 -168.877472 
L 215.740448 -169.218055 
L 215.527504 -169.558637 
L 215.319217 -169.89922 
L 215.113892 -170.239803 
L 214.907899 -170.580385 
L 214.696502 -170.920968 
L 214.474996 -171.26155 
L 214.239886 -171.602133 
L 213.98983 -171.942716 
L 213.726121 -172.283298 
L 213.452592 -172.623881 
L 213.17499 -172.964464 
L 212.899982 -173.305046 
L 212.634026 -173.645629 
L 212.382374 -173.986212 
L 212.148409 -174.326794 
L 211.933432 -174.667377 
L 211.73689 -175.00796 
L 211.556959 -175.348542 
L 211.391301 -175.689125 
L 211.237838 -176.029708 
L 211.095356 -176.37029 
L 210.963844 -176.710873 
L 210.844512 -177.051456 
L 210.739512 -177.392038 
L 210.651421 -177.732621 
L 210.582623 -178.073204 
L 210.53471 -178.413786 
L 210.508076 -178.754369 
L 210.501818 -179.094952 
L 210.514009 -179.435534 
L 210.542344 -179.776117 
L 210.585033 -180.1167 
L 210.641754 -180.457282 
L 210.714404 -180.797865 
L 210.807415 -181.138448 
L 210.927489 -181.47903 
L 211.082726 -181.819613 
L 211.281276 -182.160196 
L 211.529815 -182.500778 
L 211.832135 -182.841361 
L 212.188196 -183.181944 
L 212.593803 -183.522526 
L 213.040967 -183.863109 
L 213.51883 -184.203692 
L 214.014901 -184.544274 
L 214.516355 -184.884857 
L 215.011137 -185.22544 
L 215.488729 -185.566022 
L 215.940555 -185.906605 
L 216.360067 -186.247188 
L 216.742632 -186.58777 
L 217.085333 -186.928353 
L 217.386767 -187.268936 
L 217.646876 -187.609518 
L 217.866815 -187.950101 
L 218.048807 -188.290684 
L 218.195975 -188.631266 
L 218.31213 -188.971849 
L 218.401504 -189.312431 
L 218.468477 -189.653014 
L 218.767886 -189.653014 
L 218.767886 -189.653014 
L 218.83486 -189.312431 
L 218.924234 -188.971849 
L 219.040389 -188.631266 
L 219.187557 -188.290684 
L 219.369548 -187.950101 
L 219.589487 -187.609518 
L 219.849597 -187.268936 
L 220.15103 -186.928353 
L 220.493731 -186.58777 
L 220.876296 -186.247188 
L 221.295808 -185.906605 
L 221.747634 -185.566022 
L 222.225227 -185.22544 
L 222.720008 -184.884857 
L 223.221463 -184.544274 
L 223.717534 -184.203692 
L 224.195396 -183.863109 
L 224.642561 -183.522526 
L 225.048168 -183.181944 
L 225.404229 -182.841361 
L 225.706549 -182.500778 
L 225.955087 -182.160196 
L 226.153638 -181.819613 
L 226.308874 -181.47903 
L 226.428949 -181.138448 
L 226.52196 -180.797865 
L 226.59461 -180.457282 
L 226.651331 -180.1167 
L 226.69402 -179.776117 
L 226.722355 -179.435534 
L 226.734545 -179.094952 
L 226.728287 -178.754369 
L 226.701654 -178.413786 
L 226.65374 -178.073204 
L 226.584942 -177.732621 
L 226.496852 -177.392038 
L 226.391852 -177.051456 
L 226.27252 -176.710873 
L 226.141007 -176.37029 
L 225.998525 -176.029708 
L 225.845063 -175.689125 
L 225.679405 -175.348542 
L 225.499473 -175.00796 
L 225.302932 -174.667377 
L 225.087955 -174.326794 
L 224.85399 -173.986212 
L 224.602338 -173.645629 
L 224.336382 -173.305046 
L 224.061374 -172.964464 
L 223.783772 -172.623881 
L 223.510242 -172.283298 
L 223.246533 -171.942716 
L 222.996478 -171.602133 
L 222.761367 -171.26155 
L 222.539861 -170.920968 
L 222.328465 -170.580385 
L 222.122472 -170.239803 
L 221.917147 -169.89922 
L 221.70886 -169.558637 
L 221.495915 -169.218055 
L 221.278883 -168.877472 
L 221.060389 -168.536889 
L 220.84445 -168.196307 
L 220.635549 -167.855724 
L 220.437693 -167.515141 
L 220.253681 -167.174559 
L 220.084744 -166.833976 
L 219.930587 -166.493393 
L 219.789778 -166.152811 
L 219.660356 -165.812228 
L 219.540468 -165.471645 
L 219.428889 -165.131063 
L 219.325318 -164.79048 
L 219.230408 -164.449897 
L 219.145552 -164.109315 
L 219.072508 -163.768732 
L 219.012951 -163.428149 
L 218.968044 -163.087567 
L 218.938112 -162.746984 
L 218.922442 -162.406401 
L 218.919261 -162.065819 
L 218.925851 -161.725236 
L 218.938801 -161.384653 
L 218.954357 -161.044071 
L 218.968808 -160.703488 
L 218.978875 -160.362905 
L 218.982042 -160.022323 
L 218.97678 -159.68174 
L 218.962643 -159.341157 
L 218.940218 -159.000575 
L 218.910948 -158.659992 
L 218.876858 -158.319409 
L 218.840244 -157.978827 
L 218.803361 -157.638244 
L 218.768169 -157.297661 
L 218.73617 -156.957079 
L 218.708322 -156.616496 
L 218.685061 -156.275913 
L 218.66637 -155.935331 
z
" style="stroke: #2c2c2c; stroke-width: 1.5"/>
    </defs>
    <g clip-path="url(#p038718672c)">
     <use xlink:href="#m2a820ed639" x="0" y="216" style="fill: #88c35b; stroke: #2c2c2c; stroke-width: 1.5"/>
    </g>
   </g>
   <g id="FillBetweenPolyCollection_10">
    <defs>
     <path id="ma2d451a259" d="M 239.043296 -151.056728 
L 238.774886 -151.056728 
L 238.730112 -151.463945 
L 238.674449 -151.871161 
L 238.606643 -152.278377 
L 238.525718 -152.685594 
L 238.43111 -153.09281 
L 238.322786 -153.500026 
L 238.201342 -153.907243 
L 238.068054 -154.314459 
L 237.924885 -154.721675 
L 237.774415 -155.128892 
L 237.619725 -155.536108 
L 237.464205 -155.943325 
L 237.311327 -156.350541 
L 237.164395 -156.757757 
L 237.026294 -157.164974 
L 236.899263 -157.57219 
L 236.784724 -157.979406 
L 236.683176 -158.386623 
L 236.594157 -158.793839 
L 236.516288 -159.201056 
L 236.447375 -159.608272 
L 236.384562 -160.015488 
L 236.324516 -160.422705 
L 236.263623 -160.829921 
L 236.198183 -161.237137 
L 236.124602 -161.644354 
L 236.039565 -162.05157 
L 235.940202 -162.458786 
L 235.824246 -162.866003 
L 235.690171 -163.273219 
L 235.537314 -163.680436 
L 235.365968 -164.087652 
L 235.177413 -164.494868 
L 234.973892 -164.902085 
L 234.758494 -165.309301 
L 234.534955 -165.716517 
L 234.30738 -166.123734 
L 234.07992 -166.53095 
L 233.856421 -166.938166 
L 233.640115 -167.345383 
L 233.433385 -167.752599 
L 233.237634 -168.159816 
L 233.053288 -168.567032 
L 232.879924 -168.974248 
L 232.716499 -169.381465 
L 232.561638 -169.788681 
L 232.413923 -170.195897 
L 232.272147 -170.603114 
L 232.135472 -171.01033 
L 232.003491 -171.417546 
L 231.876182 -171.824763 
L 231.75378 -172.231979 
L 231.63662 -172.639196 
L 231.52498 -173.046412 
L 231.418996 -173.453628 
L 231.318651 -173.860845 
L 231.223875 -174.268061 
L 231.13473 -174.675277 
L 231.051645 -175.082494 
L 230.975662 -175.48971 
L 230.908625 -175.896926 
L 230.853275 -176.304143 
L 230.813214 -176.711359 
L 230.792727 -177.118576 
L 230.796486 -177.525792 
L 230.829164 -177.933008 
L 230.895018 -178.340225 
L 230.997504 -178.747441 
L 231.138956 -179.154657 
L 231.320394 -179.561874 
L 231.541447 -179.96909 
L 231.80041 -180.376306 
L 232.094398 -180.783523 
L 232.419564 -181.190739 
L 232.771349 -181.597956 
L 233.144719 -182.005172 
L 233.534378 -182.412388 
L 233.934935 -182.819605 
L 234.341033 -183.226821 
L 234.747447 -183.634037 
L 235.149163 -184.041254 
L 235.541455 -184.44847 
L 235.919961 -184.855686 
L 236.280774 -185.262903 
L 236.620529 -185.670119 
L 236.936482 -186.077336 
L 237.226582 -186.484552 
L 237.489503 -186.891768 
L 237.724658 -187.298985 
L 237.932165 -187.706201 
L 238.112787 -188.113417 
L 238.267839 -188.520634 
L 238.399082 -188.92785 
L 238.508598 -189.335066 
L 238.598672 -189.742283 
L 238.671677 -190.149499 
L 238.729975 -190.556716 
L 238.775831 -190.963932 
L 238.811351 -191.371148 
L 239.006831 -191.371148 
L 239.006831 -191.371148 
L 239.042351 -190.963932 
L 239.088207 -190.556716 
L 239.146504 -190.149499 
L 239.21951 -189.742283 
L 239.309584 -189.335066 
L 239.4191 -188.92785 
L 239.550342 -188.520634 
L 239.705395 -188.113417 
L 239.886016 -187.706201 
L 240.093524 -187.298985 
L 240.328679 -186.891768 
L 240.5916 -186.484552 
L 240.8817 -186.077336 
L 241.197653 -185.670119 
L 241.537408 -185.262903 
L 241.898221 -184.855686 
L 242.276727 -184.44847 
L 242.669018 -184.041254 
L 243.070735 -183.634037 
L 243.477149 -183.226821 
L 243.883247 -182.819605 
L 244.283804 -182.412388 
L 244.673463 -182.005172 
L 245.046833 -181.597956 
L 245.398617 -181.190739 
L 245.723784 -180.783523 
L 246.017772 -180.376306 
L 246.276735 -179.96909 
L 246.497788 -179.561874 
L 246.679225 -179.154657 
L 246.820678 -178.747441 
L 246.923164 -178.340225 
L 246.989018 -177.933008 
L 247.021696 -177.525792 
L 247.025455 -177.118576 
L 247.004968 -176.711359 
L 246.964907 -176.304143 
L 246.909557 -175.896926 
L 246.84252 -175.48971 
L 246.766537 -175.082494 
L 246.683452 -174.675277 
L 246.594307 -174.268061 
L 246.499531 -173.860845 
L 246.399186 -173.453628 
L 246.293202 -173.046412 
L 246.181562 -172.639196 
L 246.064401 -172.231979 
L 245.942 -171.824763 
L 245.814691 -171.417546 
L 245.68271 -171.01033 
L 245.546035 -170.603114 
L 245.404259 -170.195897 
L 245.256544 -169.788681 
L 245.101683 -169.381465 
L 244.938258 -168.974248 
L 244.764894 -168.567032 
L 244.580548 -168.159816 
L 244.384797 -167.752599 
L 244.178067 -167.345383 
L 243.961761 -166.938166 
L 243.738262 -166.53095 
L 243.510801 -166.123734 
L 243.283227 -165.716517 
L 243.059688 -165.309301 
L 242.84429 -164.902085 
L 242.640769 -164.494868 
L 242.452214 -164.087652 
L 242.280868 -163.680436 
L 242.128011 -163.273219 
L 241.993936 -162.866003 
L 241.87798 -162.458786 
L 241.778617 -162.05157 
L 241.69358 -161.644354 
L 241.619999 -161.237137 
L 241.554559 -160.829921 
L 241.493666 -160.422705 
L 241.43362 -160.015488 
L 241.370807 -159.608272 
L 241.301894 -159.201056 
L 241.224024 -158.793839 
L 241.135006 -158.386623 
L 241.033458 -157.979406 
L 240.918919 -157.57219 
L 240.791888 -157.164974 
L 240.653786 -156.757757 
L 240.506855 -156.350541 
L 240.353977 -155.943325 
L 240.198457 -155.536108 
L 240.043767 -155.128892 
L 239.893297 -154.721675 
L 239.750127 -154.314459 
L 239.61684 -153.907243 
L 239.495395 -153.500026 
L 239.387072 -153.09281 
L 239.292464 -152.685594 
L 239.211539 -152.278377 
L 239.143732 -151.871161 
L 239.08807 -151.463945 
L 239.043296 -151.056728 
z
" style="stroke: #2c2c2c; stroke-width: 1.5"/>
    </defs>
    <g clip-path="url(#p038718672c)">
     <use xlink:href="#ma2d451a259" x="0" y="216" style="fill: #b2c83b; stroke: #2c2c2c; stroke-width: 1.5"/>
    </g>
   </g>
   <g id="line2d_7">
    <path d="M 51.695904 43.280802 
L 60.885915 43.280802 
" clip-path="url(#p038718672c)" style="fill: none; stroke-dasharray: 1.875,1.125; stroke-dashoffset: 0; stroke: #2c2c2c; stroke-width: 1.5"/>
   </g>
   <g id="line2d_8">
    <path d="M 48.472842 39.09512 
L 64.108976 39.09512 
" clip-path="url(#p038718672c)" style="fill: none; stroke-dasharray: 3.75,1.5; stroke-dashoffset: 0; stroke: #2c2c2c; stroke-width: 1.5"/>
   </g>
   <g id="line2d_9">
    <path d="M 49.08927 34.946729 
L 63.492548 34.946729 
" clip-path="url(#p038718672c)" style="fill: none; stroke-dasharray: 1.875,1.125; stroke-dashoffset: 0; stroke: #2c2c2c; stroke-width: 1.5"/>
   </g>
   <g id="line2d_10">
    <path d="M 71.059029 46.814405 
L 82.104608 46.814405 
" clip-path="url(#p038718672c)" style="fill: none; stroke-dasharray: 1.875,1.125; stroke-dashoffset: 0; stroke: #2c2c2c; stroke-width: 1.5"/>
   </g>
   <g id="line2d_11">
    <path d="M 68.468882 42.294143 
L 84.694755 42.294143 
" clip-path="url(#p038718672c)" style="fill: none; stroke-dasharray: 3.75,1.5; stroke-dashoffset: 0; stroke: #2c2c2c; stroke-width: 1.5"/>
   </g>
   <g id="line2d_12">
    <path d="M 70.174127 38.435617 
L 82.989509 38.435617 
" clip-path="url(#p038718672c)" style="fill: none; stroke-dasharray: 1.875,1.125; stroke-dashoffset: 0; stroke: #2c2c2c; stroke-width: 1.5"/>
   </g>
   <g id="line2d_13">
    <path d="M 89.74248 45.926045 
L 104.002974 45.926045 
" clip-path="url(#p038718672c)" style="fill: none; stroke-dasharray: 1.875,1.125; stroke-dashoffset: 0; stroke: #2c2c2c; stroke-width: 1.5"/>
   </g>
   <g id="line2d_14">
    <path d="M 89.088151 42.878756 
L 104.657304 42.878756 
" clip-path="url(#p038718672c)" style="fill: none; stroke-dasharray: 3.75,1.5; stroke-dashoffset: 0; stroke: #2c2c2c; stroke-width: 1.5"/>
   </g>
   <g id="line2d_15">
    <path d="M 90.400109 38.376603 
L 103.345346 38.376603 
" clip-path="url(#p038718672c)" style="fill: none; stroke-dasharray: 1.875,1.125; stroke-dashoffset: 0; stroke: #2c2c2c; stroke-width: 1.5"/>
   </g>
   <g id="line2d_16">
    <path d="M 110.163866 45.444176 
L 124.163407 45.444176 
" clip-path="url(#p038718672c)" style="fill: none; stroke-dasharray: 1.875,1.125; stroke-dashoffset: 0; stroke: #2c2c2c; stroke-width: 1.5"/>
   </g>
   <g id="line2d_17">
    <path d="M 109.286833 42.053267 
L 125.040439 42.053267 
" clip-path="url(#p038718672c)" style="fill: none; stroke-dasharray: 3.75,1.5; stroke-dashoffset: 0; stroke: #2c2c2c; stroke-width: 1.5"/>
   </g>
   <g id="line2d_18">
    <path d="M 111.235657 36.406783 
L 123.091615 36.406783 
" clip-path="url(#p038718672c)" style="fill: none; stroke-dasharray: 1.875,1.125; stroke-dashoffset: 0; stroke: #2c2c2c; stroke-width: 1.5"/>
   </g>
   <g id="line2d_19">
    <path d="M 129.36097 47.490689 
L 145.548121 47.490689 
" clip-path="url(#p038718672c)" style="fill: none; stroke-dasharray: 1.875,1.125; stroke-dashoffset: 0; stroke: #2c2c2c; stroke-width: 1.5"/>
   </g>
   <g id="line2d_20">
    <path d="M 130.469608 42.499279 
L 144.439483 42.499279 
" clip-path="url(#p038718672c)" style="fill: none; stroke-dasharray: 3.75,1.5; stroke-dashoffset: 0; stroke: #2c2c2c; stroke-width: 1.5"/>
   </g>
   <g id="line2d_21">
    <path d="M 131.172191 37.378458 
L 143.736899 37.378458 
" clip-path="url(#p038718672c)" style="fill: none; stroke-dasharray: 1.875,1.125; stroke-dashoffset: 0; stroke: #2c2c2c; stroke-width: 1.5"/>
   </g>
   <g id="line2d_22">
    <path d="M 152.422501 43.024312 
L 163.068408 43.024312 
" clip-path="url(#p038718672c)" style="fill: none; stroke-dasharray: 1.875,1.125; stroke-dashoffset: 0; stroke: #2c2c2c; stroke-width: 1.5"/>
   </g>
   <g id="line2d_23">
    <path d="M 149.631971 39.811334 
L 165.858938 39.811334 
" clip-path="url(#p038718672c)" style="fill: none; stroke-dasharray: 3.75,1.5; stroke-dashoffset: 0; stroke: #2c2c2c; stroke-width: 1.5"/>
   </g>
   <g id="line2d_24">
    <path d="M 151.19116 36.578735 
L 164.299749 36.578735 
" clip-path="url(#p038718672c)" style="fill: none; stroke-dasharray: 1.875,1.125; stroke-dashoffset: 0; stroke: #2c2c2c; stroke-width: 1.5"/>
   </g>
   <g id="line2d_25">
    <path d="M 171.829291 39.288012 
L 184.243436 39.288012 
" clip-path="url(#p038718672c)" style="fill: none; stroke-dasharray: 1.875,1.125; stroke-dashoffset: 0; stroke: #2c2c2c; stroke-width: 1.5"/>
   </g>
   <g id="line2d_26">
    <path d="M 170.074123 37.844534 
L 185.998604 37.844534 
" clip-path="url(#p038718672c)" style="fill: none; stroke-dasharray: 3.75,1.5; stroke-dashoffset: 0; stroke: #2c2c2c; stroke-width: 1.5"/>
   </g>
   <g id="line2d_27">
    <path d="M 171.349305 35.611895 
L 184.723422 35.611895 
" clip-path="url(#p038718672c)" style="fill: none; stroke-dasharray: 1.875,1.125; stroke-dashoffset: 0; stroke: #2c2c2c; stroke-width: 1.5"/>
   </g>
   <g id="line2d_28">
    <path d="M 193.666031 47.300706 
L 202.988514 47.300706 
" clip-path="url(#p038718672c)" style="fill: none; stroke-dasharray: 1.875,1.125; stroke-dashoffset: 0; stroke: #2c2c2c; stroke-width: 1.5"/>
   </g>
   <g id="line2d_29">
    <path d="M 190.631932 41.14719 
L 206.022614 41.14719 
" clip-path="url(#p038718672c)" style="fill: none; stroke-dasharray: 3.75,1.5; stroke-dashoffset: 0; stroke: #2c2c2c; stroke-width: 1.5"/>
   </g>
   <g id="line2d_30">
    <path d="M 190.462862 37.858728 
L 206.191684 37.858728 
" clip-path="url(#p038718672c)" style="fill: none; stroke-dasharray: 1.875,1.125; stroke-dashoffset: 0; stroke: #2c2c2c; stroke-width: 1.5"/>
   </g>
   <g id="line2d_31">
    <path d="M 212.553957 42.246007 
L 224.682406 42.246007 
" clip-path="url(#p038718672c)" style="fill: none; stroke-dasharray: 1.875,1.125; stroke-dashoffset: 0; stroke: #2c2c2c; stroke-width: 1.5"/>
   </g>
   <g id="line2d_32">
    <path d="M 210.624796 38.135573 
L 226.611567 38.135573 
" clip-path="url(#p038718672c)" style="fill: none; stroke-dasharray: 3.75,1.5; stroke-dashoffset: 0; stroke: #2c2c2c; stroke-width: 1.5"/>
   </g>
   <g id="line2d_33">
    <path d="M 210.999333 34.363348 
L 226.237031 34.363348 
" clip-path="url(#p038718672c)" style="fill: none; stroke-dasharray: 1.875,1.125; stroke-dashoffset: 0; stroke: #2c2c2c; stroke-width: 1.5"/>
   </g>
   <g id="line2d_34">
    <path d="M 233.261146 47.889095 
L 244.557036 47.889095 
" clip-path="url(#p038718672c)" style="fill: none; stroke-dasharray: 1.875,1.125; stroke-dashoffset: 0; stroke: #2c2c2c; stroke-width: 1.5"/>
   </g>
   <g id="line2d_35">
    <path d="M 231.381975 42.396134 
L 246.436207 42.396134 
" clip-path="url(#p038718672c)" style="fill: none; stroke-dasharray: 3.75,1.5; stroke-dashoffset: 0; stroke: #2c2c2c; stroke-width: 1.5"/>
   </g>
   <g id="line2d_36">
    <path d="M 231.052757 37.093496 
L 246.765425 37.093496 
" clip-path="url(#p038718672c)" style="fill: none; stroke-dasharray: 1.875,1.125; stroke-dashoffset: 0; stroke: #2c2c2c; stroke-width: 1.5"/>
   </g>
   <g id="LineCollection_1">
    <path d="M 46.145455 60.537121 
L 249.054545 60.537121 
" clip-path="url(#p038718672c)" style="fill: none; stroke-dasharray: 5.55,2.4; stroke-dashoffset: 0; stroke: #ff0000; stroke-width: 1.5"/>
   </g>
   <g id="patch_3">
    <path d="M 36 192.24 
L 36 25.92 
" style="fill: none; stroke: #cccccc; stroke-width: 1.25; stroke-linejoin: miter; stroke-linecap: square"/>
   </g>
   <g id="patch_4">
    <path d="M 259.2 192.24 
L 259.2 25.92 
" style="fill: none; stroke: #cccccc; stroke-width: 1.25; stroke-linejoin: miter; stroke-linecap: square"/>
   </g>
   <g id="patch_5">
    <path d="M 36 192.24 
L 259.2 192.24 
" style="fill: none; stroke: #cccccc; stroke-width: 1.25; stroke-linejoin: miter; stroke-linecap: square"/>
   </g>
   <g id="patch_6">
    <path d="M 36 25.92 
L 259.2 25.92 
" style="fill: none; stroke: #cccccc; stroke-width: 1.25; stroke-linejoin: miter; stroke-linecap: square"/>
   </g>
   <g id="text_19">
    <!-- Pair-wise corr -->
    <g style="fill: #262626" transform="translate(100.890312 19.92) scale(0.14 -0.14)">
     <defs>
      <path id="DejaVuSans-50" d="M 1259 4147 
L 1259 2394 
L 2053 2394 
Q 2494 2394 2734 2622 
Q 2975 2850 2975 3272 
Q 2975 3691 2734 3919 
Q 2494 4147 2053 4147 
L 1259 4147 
z
M 628 4666 
L 2053 4666 
Q 2838 4666 3239 4311 
Q 3641 3956 3641 3272 
Q 3641 2581 3239 2228 
Q 2838 1875 2053 1875 
L 1259 1875 
L 1259 0 
L 628 0 
L 628 4666 
z
" transform="scale(0.015625)"/>
      <path id="DejaVuSans-69" d="M 603 3500 
L 1178 3500 
L 1178 0 
L 603 0 
L 603 3500 
z
M 603 4863 
L 1178 4863 
L 1178 4134 
L 603 4134 
L 603 4863 
z
" transform="scale(0.015625)"/>
      <path id="DejaVuSans-2d" d="M 313 2009 
L 1997 2009 
L 1997 1497 
L 313 1497 
L 313 2009 
z
" transform="scale(0.015625)"/>
      <path id="DejaVuSans-77" d="M 269 3500 
L 844 3500 
L 1563 769 
L 2278 3500 
L 2956 3500 
L 3675 769 
L 4391 3500 
L 4966 3500 
L 4050 0 
L 3372 0 
L 2619 2869 
L 1863 0 
L 1184 0 
L 269 3500 
z
" transform="scale(0.015625)"/>
      <path id="DejaVuSans-73" d="M 2834 3397 
L 2834 2853 
Q 2591 2978 2328 3040 
Q 2066 3103 1784 3103 
Q 1356 3103 1142 2972 
Q 928 2841 928 2578 
Q 928 2378 1081 2264 
Q 1234 2150 1697 2047 
L 1894 2003 
Q 2506 1872 2764 1633 
Q 3022 1394 3022 966 
Q 3022 478 2636 193 
Q 2250 -91 1575 -91 
Q 1294 -91 989 -36 
Q 684 19 347 128 
L 347 722 
Q 666 556 975 473 
Q 1284 391 1588 391 
Q 1994 391 2212 530 
Q 2431 669 2431 922 
Q 2431 1156 2273 1281 
Q 2116 1406 1581 1522 
L 1381 1569 
Q 847 1681 609 1914 
Q 372 2147 372 2553 
Q 372 3047 722 3315 
Q 1072 3584 1716 3584 
Q 2034 3584 2315 3537 
Q 2597 3491 2834 3397 
z
" transform="scale(0.015625)"/>
     </defs>
     <use xlink:href="#DejaVuSans-50"/>
     <use xlink:href="#DejaVuSans-61" transform="translate(55.802734 0)"/>
     <use xlink:href="#DejaVuSans-69" transform="translate(117.082031 0)"/>
     <use xlink:href="#DejaVuSans-72" transform="translate(144.865234 0)"/>
     <use xlink:href="#DejaVuSans-2d" transform="translate(179.603516 0)"/>
     <use xlink:href="#DejaVuSans-77" transform="translate(215.6875 0)"/>
     <use xlink:href="#DejaVuSans-69" transform="translate(297.474609 0)"/>
     <use xlink:href="#DejaVuSans-73" transform="translate(325.257812 0)"/>
     <use xlink:href="#DejaVuSans-65" transform="translate(377.357422 0)"/>
     <use xlink:href="#DejaVuSans-20" transform="translate(438.880859 0)"/>
     <use xlink:href="#DejaVuSans-63" transform="translate(470.667969 0)"/>
     <use xlink:href="#DejaVuSans-6f" transform="translate(525.648438 0)"/>
     <use xlink:href="#DejaVuSans-72" transform="translate(586.830078 0)"/>
     <use xlink:href="#DejaVuSans-72" transform="translate(626.193359 0)"/>
    </g>
   </g>
  </g>
 </g>
 <defs>
  <clipPath id="p038718672c">
   <rect x="36" y="25.92" width="223.2" height="166.32"/>
  </clipPath>
 </defs>
</svg>
